<svg width="15" height="15" viewBox="0 0 15 15" fill="none" xmlns="http://www.w3.org/2000/svg">
<path d="M14.0243 10.4809H3.85805C3.66546 10.4809 3.48076 10.4044 3.34458 10.2681C3.2084 10.1319 3.13189 9.94713 3.13189 9.75447C3.13189 9.56182 3.2084 9.37705 3.34458 9.24082C3.48076 9.10459 3.66546 9.02806 3.85805 9.02806H11.4391C11.9247 9.02808 12.3963 8.86584 12.7792 8.56709C13.162 8.26834 13.4341 7.85021 13.5522 7.37909L14.7504 2.66463C14.7776 2.55742 14.78 2.44541 14.7573 2.33714C14.7347 2.22887 14.6876 2.12721 14.6197 2.03991C14.5491 1.95037 14.4584 1.87872 14.3549 1.83076C14.2515 1.7828 14.1382 1.75989 14.0243 1.76387H3.68377C3.53396 1.33997 3.25674 0.972801 2.89013 0.7127C2.52352 0.452598 2.08546 0.312299 1.63601 0.311035H0.953422C0.760833 0.311035 0.576132 0.387568 0.439951 0.523798C0.30377 0.660028 0.227264 0.844795 0.227264 1.03745C0.227264 1.23011 0.30377 1.41488 0.439951 1.55111C0.576132 1.68734 0.760833 1.76387 0.953422 1.76387H1.63601C1.80189 1.75904 1.96442 1.81119 2.09654 1.91164C2.22867 2.01208 2.32241 2.15477 2.36217 2.31595L2.40574 2.66463L3.66199 7.57522C3.08422 7.60123 2.54045 7.85577 2.15029 8.28285C1.76013 8.70993 1.55555 9.27457 1.58155 9.85254C1.60755 10.4305 1.862 10.9745 2.28893 11.3648C2.71585 11.7551 3.28028 11.9597 3.85805 11.9337H3.98876C3.86933 12.2629 3.83096 12.616 3.87688 12.9631C3.9228 13.3103 4.05168 13.6413 4.25258 13.928C4.45349 14.2148 4.72052 14.4489 5.03105 14.6105C5.34158 14.7721 5.68648 14.8565 6.03652 14.8565C6.38657 14.8565 6.73146 14.7721 7.04199 14.6105C7.35253 14.4489 7.61955 14.2148 7.82046 13.928C8.02137 13.6413 8.15024 13.3103 8.19616 12.9631C8.24209 12.616 8.20371 12.2629 8.08429 11.9337H9.79802C9.67859 12.2629 9.64021 12.616 9.68614 12.9631C9.73206 13.3103 9.86094 13.6413 10.0618 13.928C10.2628 14.2148 10.5298 14.4489 10.8403 14.6105C11.1508 14.7721 11.4957 14.8565 11.8458 14.8565C12.1958 14.8565 12.5407 14.7721 12.8513 14.6105C13.1618 14.4489 13.4288 14.2148 13.6297 13.928C13.8306 13.6413 13.9595 13.3103 14.0054 12.9631C14.0513 12.616 14.013 12.2629 13.8935 11.9337H14.0243C14.2168 11.9337 14.4015 11.8572 14.5377 11.721C14.6739 11.5847 14.7504 11.4 14.7504 11.2073C14.7504 11.0147 14.6739 10.8299 14.5377 10.6937C14.4015 10.5574 14.2168 10.4809 14.0243 10.4809ZM13.0948 3.21671L12.1435 7.02314C12.1037 7.18432 12.01 7.327 11.8779 7.42745C11.7458 7.5279 11.5832 7.58005 11.4173 7.57522H5.15061L4.06137 3.21671H13.0948ZM6.03652 13.3866C5.8929 13.3866 5.75251 13.344 5.63309 13.2641C5.51367 13.1843 5.4206 13.0709 5.36564 12.9381C5.31068 12.8054 5.2963 12.6593 5.32432 12.5184C5.35234 12.3775 5.4215 12.2481 5.52305 12.1465C5.62461 12.0449 5.754 11.9757 5.89486 11.9477C6.03572 11.9197 6.18172 11.934 6.31441 11.989C6.4471 12.044 6.56051 12.1371 6.6403 12.2566C6.72009 12.376 6.76268 12.5165 6.76268 12.6601C6.76268 12.8528 6.68617 13.0376 6.54999 13.1738C6.41381 13.31 6.22911 13.3866 6.03652 13.3866ZM11.8458 13.3866C11.7022 13.3866 11.5618 13.344 11.4423 13.2641C11.3229 13.1843 11.2299 13.0709 11.1749 12.9381C11.1199 12.8054 11.1056 12.6593 11.1336 12.5184C11.1616 12.3775 11.2308 12.2481 11.3323 12.1465C11.4339 12.0449 11.5633 11.9757 11.7041 11.9477C11.845 11.9197 11.991 11.934 12.1237 11.989C12.2564 12.044 12.3698 12.1371 12.4496 12.2566C12.5294 12.376 12.5719 12.5165 12.5719 12.6601C12.5719 12.8528 12.4954 13.0376 12.3593 13.1738C12.2231 13.31 12.0384 13.3866 11.8458 13.3866Z" fill="white"/>
</svg>
