<svg width="65" height="62" viewBox="0 0 65 62" fill="none" xmlns="http://www.w3.org/2000/svg">
<path d="M0.666016 39.3096C0.969167 38.3136 1.17587 37.2735 1.59552 36.3306C2.36843 34.5911 3.70755 33.3478 5.34356 32.4049C8.63188 30.5089 11.9114 28.5991 15.186 26.6791C15.4829 26.5049 15.7635 26.2626 15.9752 25.9912C21.2841 19.1963 26.5917 12.4014 31.8731 5.58498C32.8727 4.29366 34.059 3.52619 35.7188 3.76981C36.9728 3.9541 37.8835 4.67613 38.5111 5.77811C39.8903 8.19666 41.2921 10.6026 42.645 13.035C42.9118 13.5147 43.1999 13.6611 43.7223 13.6157C45.0088 13.5033 46.3003 13.4566 47.5881 13.3594C48.2971 13.3064 48.7757 13.5967 49.1189 14.2115C49.8555 15.5268 50.6033 16.8345 51.3675 18.1334C51.7295 18.7494 51.6982 19.3048 51.3011 19.8918C50.5733 20.966 49.8931 22.073 49.1515 23.1371C48.8646 23.5486 48.8383 23.8516 49.1014 24.2997C50.3966 26.4999 51.6794 28.7089 52.9146 30.9444C54.2474 33.3566 52.8845 36.1248 50.1924 36.6007C48.574 36.8873 46.963 37.2192 45.3495 37.5361C39.1011 38.7668 32.8514 39.9988 26.603 41.2321C26.4201 41.2687 26.241 41.3204 25.9704 41.3873C26.4289 42.1939 26.8698 42.969 27.312 43.744C28.001 44.952 27.8557 45.4961 26.6556 46.1966C25.7411 46.7306 24.8267 47.2633 23.8759 47.8174C25.0973 49.9507 26.2911 52.0373 27.4887 54.1226C28.353 55.6272 28.5773 57.1975 27.8845 58.8221C27.1542 60.5337 25.8389 61.5764 24.0187 61.8377C22.1522 62.1053 20.5713 61.4666 19.3775 59.967C19.1182 59.6413 18.8977 59.2803 18.6898 58.918C16.8007 55.6335 14.9191 52.3453 13.0351 49.0583C12.9224 48.8601 12.8021 48.6669 12.7157 48.523C11.731 48.6922 10.799 48.956 9.85827 48.9964C5.28093 49.1895 1.59051 46.1537 0.781269 41.6019C0.763731 41.5047 0.704849 41.4164 0.666016 41.3242C0.666016 40.6527 0.666016 39.9811 0.666016 39.3083V39.3096ZM31.9745 9.49935C31.8806 9.64325 31.8305 9.73413 31.7679 9.81492C27.2682 15.5937 22.7698 21.375 18.2588 27.1449C18.0271 27.4415 18.0772 27.6321 18.2413 27.9162C20.2882 31.4708 22.3288 35.0304 24.3569 38.5977C24.5486 38.9347 24.7127 39.0533 25.1298 38.97C29.721 38.0448 34.3171 37.1523 38.9119 36.246C41.4011 35.755 43.8889 35.2564 46.4431 34.7477C41.6215 26.3333 36.8275 17.9655 31.977 9.50061L31.9745 9.49935ZM16.034 29.1015C12.7294 31.0252 9.49374 32.8782 6.2881 34.7843C4.4053 35.9027 3.33675 37.6105 3.1977 39.812C3.05114 42.1422 3.95182 44.0495 5.8722 45.3686C7.98173 46.8164 10.2504 46.9363 12.4764 45.6955C15.6783 43.9119 18.825 42.0248 21.9931 40.1806C22.0808 40.1301 22.1572 40.0619 22.2674 39.9799C20.1917 36.3584 18.1248 32.752 16.0328 29.1015H16.034ZM33.6657 7.38627C33.7909 7.6097 33.8999 7.81166 34.0139 8.00984C35.8554 11.2249 37.6969 14.4387 39.5371 17.6537C42.5949 22.9932 45.6527 28.3327 48.713 33.6722C48.8158 33.8515 48.9698 34.1733 49.0575 34.1582C49.5548 34.0774 50.091 34.0054 50.5131 33.7568C50.9541 33.4967 51.033 32.9691 50.8614 32.4629C50.795 32.2673 50.6848 32.0842 50.5808 31.9037C45.8682 23.6761 41.1543 15.451 36.4404 7.2247C36.3577 7.07954 36.2775 6.93059 36.1798 6.79678C35.6525 6.07601 34.7981 6.02931 34.2068 6.69327C34.0139 6.90913 33.8486 7.15149 33.6657 7.38753V7.38627ZM19.2059 44.7122C17.7452 45.5617 16.3171 46.3923 14.8765 47.2317C16.9811 50.905 19.038 54.4975 21.0987 58.0887C21.1814 58.2326 21.2816 58.3702 21.3893 58.4977C22.394 59.6893 24.2342 59.6754 25.2213 58.4712C25.9303 57.6065 25.9829 56.5499 25.3415 55.424C23.8934 52.8792 22.4328 50.342 20.9772 47.801C20.3959 46.7874 19.8134 45.7738 19.2046 44.7122H19.2059ZM47.3814 21.274C47.8863 20.5103 48.3472 19.8426 48.7656 19.1496C48.8446 19.0195 48.8082 18.7519 48.7268 18.6005C48.3009 17.809 47.8524 17.0314 47.3914 16.2602C47.3063 16.1188 47.1271 15.9345 46.9968 15.9383C46.1726 15.9597 45.3483 16.0292 44.4163 16.091C45.4197 17.8443 46.3692 19.5055 47.3814 21.274ZM22.6245 45.6299C23.3811 45.1868 24.0701 44.7854 24.7828 44.3676C24.3394 43.5951 23.9398 42.8995 23.5327 42.1901C22.7748 42.6332 22.0845 43.0371 21.3743 43.4537C21.8077 44.2085 22.1998 44.8914 22.6245 45.6299Z" fill="#DF3151"/>
<path d="M56.263 12.7737C55.9423 12.4683 55.4776 12.2208 55.3636 11.8611C55.2458 11.4925 55.455 11.009 55.554 10.5849C55.5765 10.4865 55.7218 10.3994 55.8283 10.34C58.1671 9.02472 60.4971 7.69048 62.8559 6.41305C63.6338 5.99144 64.4781 6.44208 64.6397 7.27519C64.7638 7.92148 64.4368 8.36202 63.9094 8.66876C63.2442 9.05502 62.5678 9.42487 61.8964 9.80103C60.4082 10.6354 58.9237 11.4774 57.4293 12.2991C57.1098 12.4746 56.7515 12.5781 56.263 12.7737Z" fill="#DF3151"/>
<path d="M57.1724 18.1385C57.3716 18.1889 57.7336 18.2773 58.0932 18.3732C59.3759 18.7166 60.6624 19.0473 61.9402 19.4108C62.7732 19.6482 63.1566 20.2907 62.9449 21.0114C62.7432 21.7032 62.1068 22.0364 61.3013 21.8269C59.7743 21.4318 58.2485 21.0291 56.7315 20.5987C55.9761 20.3841 55.6003 19.8085 55.7118 19.1634C55.822 18.5272 56.3331 18.1195 57.1712 18.1372L57.1724 18.1385Z" fill="#DF3151"/>
<path d="M48.6592 6.71347C48.9322 5.66703 49.2592 4.41484 49.5874 3.16391C49.7039 2.71958 49.8066 2.26895 49.9544 1.83598C50.1962 1.13036 50.8288 0.766822 51.4577 0.939756C52.1391 1.12784 52.5237 1.75015 52.3358 2.505C51.9387 4.10558 51.5178 5.70238 51.0656 7.28907C50.8514 8.03888 50.2689 8.36455 49.5949 8.22191C48.9949 8.09442 48.6303 7.59455 48.6592 6.71473V6.71347Z" fill="#DF3151"/>
<path d="M9.66159 44.0028C8.06942 43.9359 7.02343 43.3881 6.2906 42.2734C5.86218 41.6208 5.9624 40.9089 6.52862 40.4848C7.06728 40.0808 7.73747 40.1844 8.24982 40.7511C9.0315 41.6158 9.4073 41.6764 10.412 41.0957C10.9719 40.7726 11.5218 40.4318 12.0906 40.1263C12.8196 39.735 13.5399 39.9029 13.8957 40.5163C14.2577 41.1399 14.0585 41.8556 13.3495 42.2886C12.5854 42.7544 11.8125 43.2164 11.0057 43.6001C10.5109 43.8349 9.94595 43.9195 9.66159 44.0015V44.0028Z" fill="#DF3151"/>
<path d="M17.2028 37.401C17.8905 37.4174 18.4192 37.9753 18.4004 38.662C18.3803 39.3462 17.8141 39.8751 17.1276 39.8524C16.4362 39.8284 15.9088 39.2717 15.9301 38.5888C15.9526 37.8996 16.5051 37.3833 17.2028 37.401Z" fill="#DF3151"/>
</svg>
