<svg width="62" height="63" viewBox="0 0 62 63" fill="none" xmlns="http://www.w3.org/2000/svg">
<path d="M39.0285 27.1924C45.0972 21.1262 51.1367 15.0892 57.2396 8.98886H56.5887C54.5041 8.98886 52.4183 8.9914 50.3338 8.98633C50.0831 8.98633 49.826 8.97874 49.5816 8.92557C48.9294 8.78126 48.5342 8.26351 48.5444 7.60651C48.5532 6.97863 48.9408 6.48367 49.5664 6.33809C49.7893 6.28619 50.0248 6.27479 50.254 6.27479C53.5809 6.271 56.9091 6.271 60.236 6.27353C61.5467 6.27353 61.9925 6.71532 61.9937 8.01033C61.9963 11.3573 61.9975 14.7044 61.9899 18.0514C61.9899 18.3413 61.9773 18.6501 61.8835 18.9185C61.6759 19.511 61.0072 19.854 60.4056 19.7312C59.7471 19.597 59.3165 19.059 59.3127 18.3058C59.3026 16.1171 59.3089 13.9271 59.3089 11.7384C59.3089 11.5118 59.3089 11.2839 59.3089 10.9269C59.0632 11.1535 58.8973 11.2953 58.7428 11.4498C52.6818 17.507 46.6207 23.5656 40.5596 29.6242C39.3059 30.8774 38.8702 30.8749 37.5975 29.6026C36.3171 28.3228 35.038 27.043 33.7134 25.7189C33.5209 25.9012 33.3423 26.0645 33.1701 26.2366C28.3741 31.0293 23.5795 35.822 18.7836 40.6146C17.8439 41.5539 17.2018 41.5564 16.2697 40.6248C14.902 39.2589 13.5368 37.8892 12.1108 36.4625C10.7545 37.8335 9.41586 39.1399 8.13425 40.4994C7.55043 41.1185 6.90962 41.3691 6.06745 41.3425C4.55282 41.2957 3.03564 41.34 1.51847 41.3248C0.591457 41.3147 0.0177757 40.7817 0.01271 39.9791C0.00764437 39.1728 0.577534 38.631 1.50202 38.6183C2.89128 38.6006 4.2818 38.6335 5.67106 38.5955C5.96741 38.5879 6.32707 38.4398 6.53856 38.2348C8.019 36.798 9.46651 35.327 10.9292 33.8712C11.7942 33.0104 12.4578 33.0066 13.3139 33.8586C14.7006 35.2397 16.081 36.6245 17.5032 38.0461C17.6868 37.8765 17.8553 37.7309 18.011 37.5752C22.8222 32.7686 27.6308 27.9608 32.4406 23.1529C33.3803 22.2149 34.0173 22.2124 34.9544 23.1466C36.1765 24.3656 37.3961 25.5885 38.6195 26.8076C38.7651 26.9531 38.9196 27.0886 39.0298 27.1898L39.0285 27.1924Z" fill="#DF3151"/>
<path d="M26.1782 21.3516C27.2698 23.358 27.185 25.0252 25.9578 26.4518C24.8649 27.7228 23.0526 28.1836 21.4734 27.5734C20.4691 27.1861 19.727 26.4987 19.2572 25.5252C18.7911 24.5568 18.7747 23.5454 19.052 22.4782H16.0266C16.2773 25.1518 15.6175 26.6367 13.8167 27.4683C12.2539 28.1899 10.4277 27.8481 9.22209 26.6075C7.87842 25.2239 7.75052 23.5074 8.85357 21.3376C7.63781 20.2642 7.57955 18.7084 7.26674 17.2665C6.38532 13.1992 5.54568 9.12178 4.68832 5.04941C4.44517 3.89492 4.06144 3.58984 2.85961 3.58857C2.3961 3.58857 1.93259 3.59617 1.46909 3.58604C0.593991 3.56832 0.021568 3.04424 0.0101703 2.26318C-0.0012275 1.46188 0.542069 0.928935 1.42223 0.908681C2.09596 0.89349 2.77096 0.890958 3.44343 0.91501C5.15942 0.974507 6.6044 2.06064 7.11477 3.70124C7.37059 4.5228 7.55676 5.36462 7.79358 6.27353C8.03293 6.27353 8.27988 6.27353 8.5281 6.27353C13.9192 6.27353 19.3104 6.26973 24.7015 6.27479C26.8164 6.27733 28.4159 7.36979 28.8718 9.24584C29.039 9.93449 29.0225 10.7155 28.8972 11.4206C28.4691 13.8208 27.9359 16.2019 27.4838 18.5982C27.2875 19.6363 26.9646 20.5895 26.1756 21.3541L26.1782 21.3516ZM8.37739 8.98887C9.01693 12.165 9.63368 15.2348 10.2517 18.302C10.4809 19.4401 10.8621 19.7578 12.0057 19.7578C15.6694 19.7591 19.3319 19.7578 22.9957 19.7578C24.1823 19.7578 24.5749 19.4274 24.8028 18.2754C25.279 15.8627 25.7577 13.4511 26.2427 11.0409C26.5353 9.58637 26.0541 8.98887 24.5571 8.98887C19.399 8.9876 14.2409 8.98887 9.08279 8.98887C8.87636 8.98887 8.66867 8.98887 8.37739 8.98887ZM24.257 23.8264C24.2735 23.1175 23.6858 22.4921 22.9691 22.4554C22.2396 22.4187 21.5823 23.0352 21.5659 23.7745C21.5494 24.4846 22.137 25.11 22.8538 25.1454C23.5833 25.1821 24.2405 24.5657 24.257 23.8264ZM13.4545 23.8125C13.4608 23.0567 12.8478 22.4377 12.1057 22.4516C11.3902 22.4643 10.7899 23.0706 10.7836 23.7871C10.7773 24.5327 11.4029 25.1581 12.1437 25.1467C12.8694 25.1353 13.4494 24.5441 13.4557 23.8125H13.4545Z" fill="#DF3151"/>
<path d="M61.995 42.5603C61.995 47.8846 62.0013 53.209 61.9925 58.5333C61.9887 60.6258 60.7805 62.2069 58.8682 62.6487C58.5643 62.7196 58.2426 62.7449 57.9298 62.7462C56.1619 62.7551 54.3927 62.7741 52.6248 62.7462C50.2173 62.707 48.5456 61.0284 48.5431 58.6169C48.5317 47.9049 48.5304 37.1942 48.5431 26.4822C48.5456 24.053 50.2553 22.382 52.6995 22.3605C54.3838 22.3453 56.0681 22.3503 57.7525 22.3592C60.3069 22.3719 61.9887 24.0378 61.9937 26.5886C62.0051 31.9129 61.9975 37.2372 61.9975 42.5616L61.995 42.5603ZM51.2216 42.5122C51.2216 47.8163 51.2216 53.1216 51.2216 58.4257C51.2216 59.5625 51.7066 60.0574 52.8223 60.0612C54.4433 60.0663 56.0656 60.0663 57.6866 60.0612C58.8138 60.0587 59.3077 59.5688 59.3077 58.446C59.3102 47.8581 59.3089 37.2701 59.3077 26.6822C59.3077 25.5227 58.8264 25.053 57.6436 25.0492C56.0859 25.0442 54.5269 25.0467 52.968 25.0492C51.661 25.0518 51.2203 25.491 51.2203 26.7886C51.2203 32.0294 51.2203 37.2714 51.2203 42.5122H51.2216Z" fill="#DF3151"/>
<path d="M45.8178 48.1201C45.8178 51.5924 45.8228 55.0648 45.8178 58.5371C45.8127 61.2461 44.1651 62.8829 41.441 62.8918C39.8415 62.8968 38.2408 62.9006 36.6413 62.8918C34.0376 62.8741 32.3646 61.2195 32.3621 58.6321C32.3545 51.6026 32.3545 44.5743 32.3621 37.5448C32.3646 34.9156 34.035 33.2674 36.6742 33.2623C38.337 33.2585 40.0011 33.2535 41.6639 33.2636C44.098 33.2775 45.7988 34.951 45.8127 37.3891C45.833 40.9665 45.8178 44.544 45.8178 48.1226V48.1201ZM43.133 48.0555C43.133 44.5604 43.1355 41.0665 43.133 37.5714C43.133 36.4524 42.6302 35.9435 41.5221 35.9397C39.9011 35.9334 38.2788 35.9346 36.6565 35.9397C35.5471 35.9435 35.0456 36.4511 35.0456 37.5714C35.0431 44.5819 35.0431 51.5924 35.0456 58.6017C35.0456 59.6967 35.5357 60.1878 36.6236 60.1916C38.2243 60.198 39.8251 60.1954 41.4258 60.1916C42.6834 60.1904 43.1317 59.7397 43.133 58.4751C43.1342 55.0015 43.133 51.5279 43.133 48.0543V48.0555Z" fill="#DF3151"/>
<path d="M29.6405 53.3622C29.6405 55.0888 29.6482 56.8155 29.6393 58.5422C29.6254 61.16 27.9448 62.8234 25.3119 62.8323C23.6897 62.8373 22.0686 62.8399 20.4464 62.8323C17.8996 62.8184 16.1937 61.1385 16.1849 58.6067C16.1709 55.1331 16.1722 51.6583 16.1849 48.1847C16.1937 45.6617 17.8603 43.9971 20.383 43.9756C22.0674 43.9616 23.753 43.9616 25.4386 43.9756C27.9638 43.9971 29.6203 45.6579 29.638 48.1834C29.6507 49.9101 29.6405 51.6367 29.6405 53.3634V53.3622ZM18.8671 53.3609C18.8671 55.0863 18.8633 56.8104 18.8684 58.5358C18.8722 59.6119 19.3661 60.1271 20.4464 60.1372C22.0876 60.1537 23.7289 60.1537 25.3702 60.1372C26.453 60.1271 26.9519 59.6119 26.9532 58.5384C26.957 55.1103 26.957 51.681 26.9532 48.253C26.9532 47.1631 26.458 46.6681 25.374 46.6643C23.7327 46.6593 22.0914 46.6593 20.4502 46.6643C19.3636 46.6681 18.8709 47.1605 18.8684 48.2505C18.8633 49.9544 18.8671 51.6583 18.8671 53.3622V53.3609Z" fill="#DF3151"/>
<path d="M0.00384024 53.371C0.00384024 51.6469 -0.00629635 49.9215 0.00636782 48.1973C0.0240977 45.6845 1.70084 44.0123 4.20961 43.9996C5.89268 43.9908 7.57575 43.9908 9.26008 43.9996C11.7689 44.0123 13.4494 45.6833 13.4595 48.1998C13.4735 51.6912 13.476 55.1825 13.4595 58.6738C13.4469 61.1449 11.7486 62.8298 9.28922 62.8449C7.58462 62.8551 5.88002 62.8551 4.17669 62.8449C1.71857 62.8298 0.0291646 61.1423 0.00763548 58.6726C-0.00756154 56.9054 0.0051079 55.1395 0.0051079 53.3723L0.00384024 53.371ZM2.68865 53.4267C2.68865 55.1521 2.68358 56.8775 2.69117 58.6017C2.69497 59.627 3.21548 60.1562 4.24634 60.1638C5.90915 60.1764 7.57195 60.1764 9.23476 60.1638C10.258 60.1562 10.7747 59.622 10.7773 58.5877C10.7823 55.1369 10.7823 51.6874 10.7773 48.2366C10.776 47.2061 10.253 46.6833 9.22209 46.6782C7.55929 46.6694 5.89648 46.6681 4.23367 46.6782C3.20914 46.6846 2.69624 47.2125 2.69244 48.2505C2.68611 49.9759 2.69117 51.7013 2.69117 53.4254L2.68865 53.4267Z" fill="#DF3151"/>
</svg>
