<svg width="65" height="64" viewBox="0 0 65 64" fill="none" xmlns="http://www.w3.org/2000/svg">
<path d="M0.0344553 29.2581C0.0695173 29.1852 0.118354 29.1148 0.137137 29.0368C0.739451 26.5136 2.62904 24.9949 5.21236 24.9936C13.3492 24.9886 21.4861 24.9911 29.623 24.9911H30.3518C29.9749 23.7867 29.5454 22.6364 29.2548 21.4521C26.8694 11.7074 33.5499 1.67731 43.4286 0.137223C43.9195 0.0605327 44.4104 -0.0224435 44.9012 -0.102905C45.8179 -0.102905 46.7345 -0.102905 47.6511 -0.102905C47.8126 -0.066446 47.9717 -0.0136431 48.1345 0.00395788C58.8509 1.14677 66.0298 11.7413 63.1385 22.1486C60.7417 30.7756 52.3782 36.1728 43.51 34.7836C42.348 34.6013 41.211 34.2543 40.0652 33.984V38.7941C40.3482 38.7941 40.5949 38.7941 40.8403 38.7941C46.8797 38.7941 52.9204 38.784 58.9599 38.7991C61.8149 38.8054 63.9887 40.9804 64.0175 43.833C64.0351 45.5479 64.0438 47.2627 64.0113 48.9763C63.9662 51.3223 62.277 53.3765 59.9704 53.7185C58.6844 53.9096 57.3545 53.7977 56.0472 53.8656C55.7755 53.8794 55.4449 54.019 55.2571 54.2138C54.2578 55.2498 53.3023 56.3285 52.3156 57.377C51.6244 58.1112 50.9144 58.1037 50.2207 57.3619C49.2652 56.3411 48.316 55.3139 47.3844 54.2717C47.1139 53.9687 46.8372 53.8279 46.4214 53.8405C45.3808 53.8706 44.339 53.8505 43.2972 53.8505H40.069C39.7872 57.3179 37.1876 58.9975 34.3877 58.8957C31.2471 58.7813 28.0991 58.8769 24.9535 58.8605C24.5565 58.858 24.3074 58.9712 24.0719 59.2955C23.129 60.5967 22.1623 61.8816 21.1931 63.1627C20.4493 64.1471 19.604 64.1408 18.8565 63.1501C17.901 61.8841 16.9481 60.6156 16.0139 59.3332C15.771 58.9988 15.5168 58.8567 15.0898 58.8593C11.7577 58.8781 8.42554 58.8806 5.09214 58.8655C3.27393 58.8567 1.81761 58.0898 0.844637 56.5472C0.475234 55.9626 0.29742 55.2548 0.0332031 54.6036C0.0332031 46.1551 0.0332031 37.7066 0.0332031 29.2581H0.0344553ZM20.0336 60.5364C20.9214 59.3483 21.7616 58.2558 22.5643 57.1369C22.9675 56.5749 23.4609 56.3461 24.1533 56.3498C27.6933 56.3712 31.2346 56.3624 34.7759 56.3587C36.5089 56.3574 37.527 55.334 37.5282 53.589C37.5307 45.8106 37.5307 38.031 37.5282 30.2526C37.5282 28.5151 36.5039 27.5005 34.7596 27.5005C24.9497 27.4993 15.1399 27.5005 5.33006 27.5005C3.54441 27.5005 2.53638 28.5063 2.53638 30.289C2.53512 38.0473 2.53512 45.8056 2.53638 53.5626C2.53638 55.3466 3.54566 56.3574 5.3238 56.3587C8.71855 56.3612 12.1146 56.3926 15.5081 56.3385C16.5098 56.3222 17.196 56.6126 17.7533 57.46C18.437 58.5009 19.2346 59.4665 20.0348 60.5339L20.0336 60.5364ZM61.3528 17.4679C61.2176 16.4345 61.1587 15.3847 60.9371 14.3702C59.0375 5.66017 50.4874 0.570962 41.9498 3.04391C32.9789 5.64131 28.5524 16.3427 33.0415 24.5561C33.2306 24.9019 33.4435 25.0137 33.8217 25.0012C34.444 24.9811 35.0789 24.9559 35.6912 25.0477C38.3209 25.4387 40.0402 27.5018 40.0089 30.2601C40.0013 30.9101 40.1516 31.2495 40.7902 31.4997C50.5888 35.343 61.2614 28.0474 61.3516 17.4692L61.3528 17.4679ZM40.0564 51.3411C42.2854 51.3411 44.4692 51.3864 46.6493 51.321C47.6524 51.2908 48.3949 51.5611 49.031 52.3569C49.7135 53.2118 50.5087 53.9762 51.28 54.8085C52.1966 53.8141 53.0669 52.8862 53.9159 51.9408C54.2903 51.5247 54.7186 51.321 55.2859 51.3323C56.4304 51.3549 57.5762 51.3411 58.7207 51.3386C60.5063 51.3361 61.5181 50.3316 61.5219 48.5564C61.5244 47.093 61.5231 45.6296 61.5219 44.1662C61.5206 42.2904 60.5401 41.301 58.6793 41.301C52.7038 41.301 46.7282 41.301 40.7527 41.301H40.0552V51.3386L40.0564 51.3411Z" fill="#DF3151"/>
<path d="M19.4488 31.2659C23.2981 31.2659 27.1474 31.2697 30.9967 31.2609C31.5539 31.2596 32.0323 31.3765 32.3403 31.8781C32.7999 32.6262 32.3478 33.6018 31.47 33.7539C31.2872 33.7853 31.0969 33.774 30.909 33.774C23.2305 33.774 15.5531 33.774 7.87456 33.774C7.74934 33.774 7.62412 33.7791 7.50015 33.769C6.79015 33.7137 6.2805 33.1806 6.28676 32.5068C6.29302 31.8329 6.80768 31.2885 7.5252 31.2747C8.75237 31.2508 9.98079 31.2659 11.208 31.2659C13.9541 31.2659 16.7014 31.2659 19.4475 31.2659H19.4488Z" fill="#DF3151"/>
<path d="M19.3636 40.0488C15.5143 40.0488 11.665 40.045 7.81571 40.0538C7.25973 40.0551 6.78013 39.9394 6.47208 39.4365C5.99624 38.6621 6.48461 37.6714 7.40123 37.5532C7.60659 37.5268 7.81696 37.5407 8.02483 37.5394C15.6195 37.5394 23.2142 37.5394 30.8101 37.5394C30.9766 37.5394 31.1432 37.5318 31.3097 37.5444C32.0185 37.5972 32.5319 38.1315 32.5256 38.8042C32.5194 39.4768 32.0035 40.0224 31.2884 40.0387C30.1865 40.0639 29.0833 40.0475 27.9801 40.0475C25.1088 40.0475 22.2374 40.0475 19.3661 40.0475L19.3636 40.0488Z" fill="#DF3151"/>
<path d="M19.3837 46.3223C15.5343 46.3223 11.685 46.3336 7.83574 46.3047C7.43378 46.3022 6.92038 46.1651 6.66743 45.8936C6.41949 45.6283 6.32557 45.099 6.37065 44.7093C6.43076 44.1989 6.86277 43.9085 7.38119 43.828C7.56527 43.8003 7.75435 43.8116 7.94218 43.8116C15.5782 43.8116 23.2154 43.8116 30.8514 43.8116C31.038 43.8116 31.2283 43.8016 31.4124 43.8242C32.0498 43.9047 32.5194 44.4314 32.5231 45.0563C32.5281 45.6799 32.0648 46.218 31.4299 46.3047C31.2258 46.3324 31.0142 46.321 30.8063 46.321C26.9984 46.321 23.1904 46.321 19.3824 46.321L19.3837 46.3223Z" fill="#DF3151"/>
<path d="M27.503 52.5958C26.3184 52.5958 25.1338 52.6021 23.9505 52.5933C23.0977 52.587 22.5392 52.0841 22.5355 51.3461C22.5317 50.6069 23.0927 50.0914 23.9405 50.0889C26.3297 50.0814 28.7189 50.0826 31.1081 50.0889C31.9609 50.0914 32.5206 50.5981 32.5244 51.3348C32.5281 52.0728 31.9659 52.587 31.1194 52.5933C29.9148 52.6021 28.7089 52.5958 27.5042 52.5958H27.503Z" fill="#DF3151"/>
<path d="M46.2737 10.8349C47.3994 9.65309 48.708 8.95911 50.2845 8.94528C52.6524 8.9239 54.4369 9.98751 55.4374 12.1411C56.4379 14.2935 56.1486 16.388 54.5533 18.1443C52.9279 19.9359 51.1636 21.6004 49.4593 23.319C48.7393 24.0457 48.023 24.7761 47.2917 25.4902C46.5993 26.1679 45.9519 26.1779 45.2757 25.5016C42.8977 23.1267 40.511 20.7631 38.1681 18.3543C36.4989 16.6382 36.1207 14.2507 37.0862 12.1512C38.0279 10.1044 40.1028 8.83213 42.3718 8.94276C43.8995 9.01694 45.1742 9.66692 46.2737 10.8349ZM46.2086 22.9268C46.3338 22.8539 46.3951 22.8337 46.4365 22.7935C48.5114 20.7128 50.6051 18.6497 52.6499 16.5389C53.817 15.3332 53.7431 13.4713 52.5698 12.3096C51.4027 11.1529 49.5808 11.1504 48.3498 12.3108C47.9554 12.683 47.591 13.0853 47.1953 13.4549C46.6105 13.9993 45.9406 13.9993 45.3583 13.4549C44.9626 13.0853 44.5932 12.688 44.205 12.3096C43.6616 11.7803 43.0054 11.4886 42.2503 11.4484C41.0044 11.3818 39.8586 12.0908 39.3452 13.2286C38.8293 14.3727 39.0309 15.6588 39.94 16.5879C41.6605 18.3455 43.4074 20.0767 45.1404 21.8217C45.5048 22.1875 45.8579 22.5647 46.2073 22.928L46.2086 22.9268Z" fill="#DF3151"/>
</svg>
