<svg width="161" height="24" viewBox="0 0 161 24" fill="none" xmlns="http://www.w3.org/2000/svg">
<g clip-path="url(#clip0_703_481)">
<path fill-rule="evenodd" clip-rule="evenodd" d="M108.333 7.56128L108.162 7.99735C107.994 8.43475 107.875 8.68775 107.712 9.04095C107.61 9.25855 107.492 9.51468 107.332 9.88468L103.874 18.3298C103.27 19.8307 102.065 20.6935 100.576 20.6935C100.063 20.6935 99.4591 20.5393 99.1148 20.4002L98.8036 20.2686L98.9427 19.9655C99.4233 18.952 99.7318 18.6263 100.738 18.5447C101.114 18.5163 101.533 18.0777 101.822 17.3907L101.967 17.042L98.8408 9.87941C98.674 9.49961 98.5458 9.20095 98.4216 8.90355C98.3001 8.62575 98.1847 8.35188 98.0314 8.01021L97.8357 7.56128H99.3808C100.27 7.56128 100.664 7.83201 101.006 8.68775C101.006 8.68775 102.726 12.8985 102.852 13.2087C102.981 13.5159 103.132 14.2563 103.132 14.2563L103.211 14.2506C103.211 14.2506 103.323 13.593 103.456 13.2087C103.589 12.8237 105.122 8.69881 105.122 8.69881C105.446 7.85595 105.883 7.56128 106.792 7.56128H108.333Z" fill="#ED1651"/>
<path fill-rule="evenodd" clip-rule="evenodd" d="M86.4519 9.47123V8.79363C86.4519 8.19536 86.088 7.56123 84.9351 7.56123H84.0779V17.3996H86.5146V13.3195C86.5146 12.7137 86.5788 12.2014 86.7158 11.7561C87.0843 10.5822 87.9868 9.82083 89.0175 9.82083C89.2673 9.82083 89.4759 9.86736 89.4759 9.86736L89.8782 9.9587V7.53156L89.6028 7.49123C89.5906 7.49123 89.3341 7.4491 89.0722 7.4491C88.0253 7.4491 86.7401 8.33716 86.4519 9.47123Z" fill="#ED1651"/>
<path fill-rule="evenodd" clip-rule="evenodd" d="M93.5192 9.47123V8.79363C93.5192 8.19536 93.1588 7.56123 92.0045 7.56123H91.1453V17.3996H93.5793V13.3195C93.5793 12.7137 93.6461 12.2014 93.7852 11.7561C94.1517 10.5822 95.0528 9.82083 96.0822 9.82083C96.3374 9.82083 96.5439 9.86736 96.5439 9.86736L96.9449 9.9587V7.53156L96.6722 7.49123C96.6566 7.49123 96.4022 7.4491 96.143 7.4491C95.094 7.4491 93.8088 8.33716 93.5192 9.47123Z" fill="#ED1651"/>
<path fill-rule="evenodd" clip-rule="evenodd" d="M80.1263 15.1577L80.0899 15.1719C79.5728 15.4068 78.9451 15.6931 78.2012 15.6931C76.9315 15.6931 75.2899 14.9215 75.1455 13.2341H82.1608C82.2033 12.9105 82.2262 12.4395 82.2262 12.1877C82.2262 9.41938 80.3666 7.55725 77.616 7.55725C74.673 7.55725 72.6169 9.67112 72.6169 12.6974C72.6169 15.6767 75.0557 17.8366 78.1074 17.8366C80.5873 17.8366 81.9765 16.3454 82.0393 16.2855L82.2033 16.1238L82.1014 15.9169C81.8739 15.4604 81.5472 14.9304 80.9086 14.9304C80.6312 14.9304 80.3761 15.0456 80.1263 15.1577ZM79.9171 11.4006H75.1684C75.3284 10.3756 76.3848 9.43565 77.7841 9.43565C78.8236 9.43565 79.9171 10.0672 79.9171 11.4006Z" fill="#ED1651"/>
<path fill-rule="evenodd" clip-rule="evenodd" d="M63.94 8.69204H63.8719C63.8719 8.69204 63.94 8.15538 63.94 7.60324V5.74512C63.94 4.74183 63.4486 4.25525 62.4371 4.25525H61.5059V12.8776C61.6278 16.0102 63.6082 17.953 66.6679 17.953C69.4952 17.953 71.6241 15.7448 71.6241 12.8147C71.6241 9.88458 69.5552 7.67551 66.8123 7.67551C65.4381 7.67551 64.4937 8.22678 63.94 8.69204ZM63.8428 12.8457C63.8428 10.6468 65.2739 9.86291 66.4451 9.86291C67.7871 9.86291 69.1705 10.9756 69.1705 12.8302C69.1705 14.6892 67.7655 15.7984 66.4105 15.7984C64.8439 15.7984 63.8428 14.3006 63.8428 12.8457Z" fill="#ED1651"/>
<path fill-rule="evenodd" clip-rule="evenodd" d="M56.8642 12.48L58.5482 9.9921C58.8585 9.53924 59.0948 9.2157 59.3535 8.86877C59.5351 8.62237 59.7239 8.3733 59.9306 8.0715L60.2865 7.56897H58.4509C57.4192 7.56897 57.0336 7.78837 56.479 8.6919C56.479 8.6919 55.7387 9.90217 55.6324 10.0723C55.5379 10.2385 55.2823 10.8008 55.2751 10.8159H55.2092C55.2092 10.8159 54.9774 10.297 54.8388 10.0723C54.7057 9.84764 53.9883 8.68704 53.9883 8.68704C53.4013 7.78837 53.0158 7.56897 52.0173 7.56897H50.1865L50.5591 8.07417C51.003 8.6919 51.2568 9.05484 51.6366 9.60037L53.5995 12.48L51.933 15.192C51.6258 15.6423 51.3904 15.9724 51.1317 16.3101C50.9475 16.5636 50.7591 16.8095 50.5479 17.106L50.1942 17.6112H52.0307C53.0642 17.6112 53.4507 17.3945 54.003 16.4914C54.003 16.4914 54.7433 15.2833 54.8469 15.1132C54.9451 14.9439 55.2024 14.3811 55.2092 14.3709H55.2751C55.2751 14.3709 55.5024 14.8885 55.6396 15.1132C55.7795 15.3338 56.4974 16.4989 56.4974 16.4989C57.0802 17.3945 57.4694 17.6112 58.4626 17.6112H60.2937L59.9221 17.106C59.4817 16.4914 59.2261 16.1284 58.8441 15.5784L56.8642 12.48Z" fill="#ED1651"/>
<path fill-rule="evenodd" clip-rule="evenodd" d="M39.6052 12.795C39.6052 15.7353 41.8929 17.9533 44.9323 17.9533C47.9297 17.9533 50.2806 15.687 50.2806 12.795C50.2806 9.87818 47.9831 7.67578 44.9323 7.67578C41.8929 7.67578 39.6052 9.87818 39.6052 12.795ZM42.0775 12.795C42.0775 11.1146 43.3029 9.84411 44.9323 9.84411C46.5716 9.84411 47.8019 11.1146 47.8019 12.795C47.8019 14.4967 46.5716 15.7841 44.9323 15.7841C43.3029 15.7841 42.0775 14.4967 42.0775 12.795Z" fill="#ED1651"/>
<path fill-rule="evenodd" clip-rule="evenodd" d="M31.0207 8.69198H30.9512C30.9512 8.69198 31.0207 8.15531 31.0207 7.60318V5.74505C31.0207 4.74177 30.5288 4.25519 29.5164 4.25519H28.5842V12.8775C28.7067 16.0102 30.6835 17.9529 33.7464 17.9529C36.5742 17.9529 38.7022 15.7447 38.7022 12.8146C38.7022 9.88451 36.6356 7.67545 33.8934 7.67545C32.5169 7.67545 31.5717 8.22671 31.0207 8.69198ZM30.9256 12.8456C30.9256 10.6468 32.3541 9.86285 33.5275 9.86285C34.865 9.86285 36.2523 10.9756 36.2523 12.8301C36.2523 14.6892 34.8426 15.7984 33.4894 15.7984C31.9228 15.7984 30.9256 14.3005 30.9256 12.8456Z" fill="#ED1651"/>
<path fill-rule="evenodd" clip-rule="evenodd" d="M14.8128 18.1026C15.8745 19.1511 17.5918 19.1511 18.6531 18.1026C19.7139 17.0537 19.7139 15.356 18.6531 14.3088C17.5918 13.2617 15.8745 13.2617 14.8128 14.3088C13.7564 15.356 13.7564 17.0537 14.8128 18.1026Z" fill="#ED1651"/>
<path fill-rule="evenodd" clip-rule="evenodd" d="M19.3771 13.5946C20.4348 14.644 22.1552 14.644 23.2165 13.5946C24.2742 12.5462 24.2742 10.8476 23.2165 9.79998C22.1552 8.75418 20.4348 8.75418 19.3771 9.79998C18.3131 10.8476 18.3131 12.5462 19.3771 13.5946Z" fill="#ED1651"/>
<path fill-rule="evenodd" clip-rule="evenodd" d="M10.2482 13.5948C11.3122 14.6442 13.0277 14.6442 14.0934 13.5948C15.1516 12.5463 15.1516 10.8477 14.0934 9.8001C13.0277 8.7543 11.3122 8.7543 10.2482 9.8001C9.19493 10.8477 9.19493 12.5463 10.2482 13.5948Z" fill="#ED1651"/>
<path fill-rule="evenodd" clip-rule="evenodd" d="M5.6912 9.08791C6.75384 10.1342 8.47336 10.1342 9.53372 9.08791C10.5914 8.03984 10.5914 6.34126 9.53372 5.29365C8.47336 4.24383 6.75384 4.24383 5.6912 5.29365C4.63125 6.34126 4.63125 8.03984 5.6912 9.08791Z" fill="#ED1651"/>
<path fill-rule="evenodd" clip-rule="evenodd" d="M14.8128 9.08791C15.8745 10.1342 17.5918 10.1342 18.6531 9.08791C19.7139 8.03984 19.7139 6.34126 18.6531 5.29365C17.5918 4.24383 15.8745 4.24383 14.8128 5.29365C13.7564 6.34126 13.7564 8.03984 14.8128 9.08791Z" fill="#ED1651"/>
<path fill-rule="evenodd" clip-rule="evenodd" d="M14.0934 0.785373C15.1516 1.83297 15.1516 3.53201 14.0934 4.57785C13.0277 5.62678 11.3122 5.62678 10.2482 4.57785C9.19493 3.53201 9.19493 1.83297 10.2482 0.785373C11.3122 -0.261791 13.0277 -0.261791 14.0934 0.785373Z" fill="#A6CE39"/>
<path fill-rule="evenodd" clip-rule="evenodd" d="M14.0885 18.8158C15.1516 19.8639 15.1516 21.562 14.0885 22.611C13.0277 23.6599 11.3122 23.6599 10.2482 22.611C9.19493 21.562 9.19493 19.8639 10.2482 18.8158C11.3122 17.7696 13.0277 17.7696 14.0885 18.8158Z" fill="#ED1651"/>
<path fill-rule="evenodd" clip-rule="evenodd" d="M5.6912 18.1026C6.75384 19.1511 8.47336 19.1511 9.53372 18.1026C10.5914 17.0568 10.5914 15.356 9.53372 14.3088C8.47336 13.2617 6.75384 13.2617 5.6912 14.3088C4.63125 15.356 4.63125 17.0568 5.6912 18.1026Z" fill="#ED1651"/>
<path fill-rule="evenodd" clip-rule="evenodd" d="M1.13032 13.5946C2.19117 14.644 3.90798 14.644 4.97062 13.5946C6.02968 12.5462 6.02968 10.8498 4.97062 9.79998C3.90798 8.75418 2.19117 8.75418 1.13032 9.79998C0.0672357 10.8498 0.0672357 12.5462 1.13032 13.5946Z" fill="#ED1651"/>
</g>
<defs>
<clipPath id="clip0_703_481">
<rect width="160" height="24" fill="white" transform="translate(0.333496)"/>
</clipPath>
</defs>
</svg>
