<svg width="24" height="25" viewBox="0 0 24 25" fill="none" xmlns="http://www.w3.org/2000/svg">
<path d="M21.7863 16.8457H6.537C6.24812 16.8457 5.97107 16.7309 5.76679 16.5266C5.56252 16.3222 5.44776 16.0451 5.44776 15.7561C5.44776 15.4671 5.56252 15.19 5.76679 14.9856C5.97107 14.7813 6.24812 14.6665 6.537 14.6665H17.9086C18.6369 14.6665 19.3444 14.4232 19.9187 13.975C20.4929 13.5269 20.9011 12.8997 21.0783 12.193L22.8755 5.12134C22.9163 4.96052 22.9199 4.7925 22.8859 4.6301C22.8519 4.4677 22.7813 4.31521 22.6795 4.18426C22.5735 4.04994 22.4375 3.94246 22.2823 3.87053C22.1271 3.7986 21.9572 3.76422 21.7863 3.7702H6.27558C6.05086 3.13435 5.63504 2.58359 5.08512 2.19344C4.5352 1.80329 3.87811 1.59284 3.20394 1.59094H2.18006C1.89117 1.59094 1.61412 1.70574 1.40985 1.91009C1.20558 2.11443 1.09082 2.39158 1.09082 2.68057C1.09082 2.96956 1.20558 3.24671 1.40985 3.45105C1.61412 3.6554 1.89117 3.7702 2.18006 3.7702H3.20394C3.45276 3.76295 3.69655 3.84117 3.89474 3.99184C4.09292 4.14252 4.23354 4.35655 4.29317 4.59831L4.35853 5.12134L6.24291 12.4872C5.37626 12.5262 4.56059 12.908 3.97536 13.5487C3.39012 14.1893 3.08325 15.0362 3.12225 15.9032C3.16124 16.7702 3.54292 17.5861 4.18331 18.1716C4.8237 18.757 5.67035 19.064 6.537 19.025H6.73306C6.55392 19.5187 6.49636 20.0484 6.56524 20.5691C6.63413 21.0898 6.82744 21.5863 7.1288 22.0164C7.43016 22.4465 7.8307 22.7977 8.2965 23.0401C8.7623 23.2825 9.27964 23.4091 9.80471 23.4091C10.3298 23.4091 10.8471 23.2825 11.3129 23.0401C11.7787 22.7977 12.1793 22.4465 12.4806 22.0164C12.782 21.5863 12.9753 21.0898 13.0442 20.5691C13.1131 20.0484 13.0555 19.5187 12.8764 19.025H15.4469C15.2678 19.5187 15.2102 20.0484 15.2791 20.5691C15.348 21.0898 15.5413 21.5863 15.8427 22.0164C16.1441 22.4465 16.5446 22.7977 17.0104 23.0401C17.4762 23.2825 17.9935 23.4091 18.5186 23.4091C19.0437 23.4091 19.561 23.2825 20.0268 23.0401C20.4926 22.7977 20.8931 22.4465 21.1945 22.0164C21.4959 21.5863 21.6892 21.0898 21.7581 20.5691C21.8269 20.0484 21.7694 19.5187 21.5902 19.025H21.7863C22.0752 19.025 22.3522 18.9102 22.5565 18.7058C22.7608 18.5015 22.8755 18.2243 22.8755 17.9354C22.8755 17.6464 22.7608 17.3692 22.5565 17.1649C22.3522 16.9605 22.0752 16.8457 21.7863 16.8457ZM20.3921 5.94945L18.9652 11.6591C18.9055 11.9009 18.7649 12.1149 18.5667 12.2656C18.3686 12.4162 18.1248 12.4945 17.8759 12.4872H8.47584L6.84199 5.94945H20.3921ZM9.80471 21.2042C9.58928 21.2042 9.37868 21.1403 9.19956 21.0206C9.02044 20.9009 8.88083 20.7307 8.79838 20.5316C8.71594 20.3325 8.69437 20.1134 8.7364 19.902C8.77843 19.6907 8.88217 19.4965 9.0345 19.3441C9.18683 19.1917 9.38092 19.088 9.59221 19.0459C9.8035 19.0039 10.0225 19.0255 10.2215 19.1079C10.4206 19.1904 10.5907 19.3301 10.7104 19.5092C10.8301 19.6884 10.8939 19.8991 10.8939 20.1146C10.8939 20.4036 10.7792 20.6807 10.5749 20.8851C10.3706 21.0894 10.0936 21.2042 9.80471 21.2042ZM18.5186 21.2042C18.3032 21.2042 18.0926 21.1403 17.9134 21.0206C17.7343 20.9009 17.5947 20.7307 17.5123 20.5316C17.4298 20.3325 17.4083 20.1134 17.4503 19.902C17.4923 19.6907 17.5961 19.4965 17.7484 19.3441C17.9007 19.1917 18.0948 19.088 18.3061 19.0459C18.5174 19.0039 18.7364 19.0255 18.9354 19.1079C19.1345 19.1904 19.3046 19.3301 19.4243 19.5092C19.5439 19.6884 19.6078 19.8991 19.6078 20.1146C19.6078 20.4036 19.4931 20.6807 19.2888 20.8851C19.0845 21.0894 18.8075 21.2042 18.5186 21.2042Z" fill="black"/>
</svg>
