<svg width="64" height="19" viewBox="0 0 64 19" fill="none" xmlns="http://www.w3.org/2000/svg">
<path fill-rule="evenodd" clip-rule="evenodd" d="M9.97953 13.7203H7.23307C2.94861 13.7203 6.06127 4.39203 9.66827 4.39203H14.0077C14.7034 4.39203 15.9302 4.52344 16.5344 2.75911L17.4682 0.0187988H11.5175C8.29507 0.0187988 5.7866 1.18249 3.97395 3.1345C0.842988 6.47541 -0.218973 11.6933 0.531726 14.1896C1.2458 16.4982 3.18664 18.0185 6.22603 18.0561L8.58801 18.0748H11.4992L12.2133 15.8788C12.7443 14.321 11.5542 13.7203 9.97953 13.7203ZM43.4131 9.85387L44.3102 6.86958H34.7343C33.1413 6.86958 32.4272 7.32005 32.1526 8.25848L31.2554 11.2428H40.8314C42.4243 11.2428 43.1384 10.7923 43.4131 9.85387ZM29.8273 15.1093L28.9301 18.0936H38.5061C40.0807 18.0936 40.8131 17.6431 41.0878 16.7047L41.985 13.7203H32.409C30.8343 13.7203 30.1202 14.1708 29.8273 15.1093ZM45.6468 3.02188L46.5442 0.0375678H36.9681C35.3751 0.0375678 34.661 0.488029 34.3864 1.42649L33.4892 4.4108H43.0652C44.64 4.4108 45.3538 3.96034 45.6468 3.02188ZM31.1822 3.6225C30.7794 0.844648 29.3329 0.0375678 25.8174 0.0375678H19.4091L15.6739 11.2428H18.0358C19.4457 11.2428 20.1598 11.2616 20.9104 9.19695L22.4668 4.39203H24.847C26.8794 4.39203 26.4217 7.00098 25.3963 9.5348C24.4809 11.7683 22.8879 13.7391 20.9654 13.7391H16.9922C15.3992 13.7391 14.6668 14.1896 14.3739 15.1281L13.3851 18.1123H16.2964L19.1527 18.0936C21.6795 18.0748 23.7484 17.8871 26.1653 15.6536C28.7287 13.2699 31.6949 7.1511 31.1822 3.6225ZM63.3709 0.0187988H57.823L52.6047 5.70588C52.0002 6.36279 51.3778 7.01971 50.7734 7.78928H50.7185L53.3185 0.0187988H48.7963L42.699 18.0936H47.2216L49.1622 12.4065L51.1762 10.661L52.7694 15.8038C53.2635 17.3991 53.7766 18.0936 54.8752 18.0936H58.3357L54.7834 7.99574L63.3709 0.0187988Z" fill="#00B33C"/>
</svg>
