<svg width="15" height="15" viewBox="0 0 15 15" fill="none" xmlns="http://www.w3.org/2000/svg">
<path fill-rule="evenodd" clip-rule="evenodd" d="M2.70708 0.292919C2.51848 0.110761 2.26588 0.00996641 2.00368 0.0122448C1.74148 0.0145233 1.49067 0.119692 1.30526 0.305101C1.11985 0.490509 1.01469 0.741321 1.01241 1.00352C1.01013 1.26571 1.11092 1.51832 1.29308 1.70692L6.58608 6.99992L1.29308 12.2929C1.19757 12.3852 1.12139 12.4955 1.06898 12.6175C1.01657 12.7395 0.988985 12.8707 0.987831 13.0035C0.986677 13.1363 1.01198 13.268 1.06226 13.3909C1.11254 13.5138 1.18679 13.6254 1.28069 13.7193C1.37458 13.8132 1.48623 13.8875 1.60913 13.9377C1.73202 13.988 1.8637 14.0133 1.99648 14.0122C2.12926 14.011 2.26048 13.9834 2.38249 13.931C2.50449 13.8786 2.61483 13.8024 2.70708 13.7069L8.00008 8.41392L13.2931 13.7069C13.4817 13.8891 13.7343 13.9899 13.9965 13.9876C14.2587 13.9853 14.5095 13.8801 14.6949 13.6947C14.8803 13.5093 14.9855 13.2585 14.9878 12.9963C14.99 12.7341 14.8892 12.4815 14.7071 12.2929L9.41408 6.99992L14.7071 1.70692C14.8892 1.51832 14.99 1.26571 14.9878 1.00352C14.9855 0.741321 14.8803 0.490509 14.6949 0.305101C14.5095 0.119692 14.2587 0.0145233 13.9965 0.0122448C13.7343 0.00996641 13.4817 0.110761 13.2931 0.292919L8.00008 5.58592L2.70708 0.292919Z" fill="#191C30"/>
</svg>
