<svg width="22" height="22" viewBox="0 0 22 22" fill="none" xmlns="http://www.w3.org/2000/svg">
<path fill-rule="evenodd" clip-rule="evenodd" d="M4 2C2.89543 2 2 2.89543 2 4V12C2 13.1046 2.89543 14 4 14H6V10C6 7.79086 7.79086 6 10 6H14V4C14 2.89543 13.1046 2 12 2H4ZM16 6V4C16 1.79086 14.2091 0 12 0H4C1.79086 0 0 1.79086 0 4V12C0 14.2091 1.79086 16 4 16H6V18C6 20.2091 7.79086 22 10 22H18C20.2091 22 22 20.2091 22 18V10C22 7.79086 20.2091 6 18 6H16ZM14 8H13.0931L14 9.02028V8ZM10.6848 8H10C9.78101 8 9.57024 8.0352 9.37303 8.10024L13.8998 12.627C13.9648 12.4298 14 12.219 14 12V11.7296L10.6848 8ZM8.10024 9.37303C8.0352 9.57024 8 9.78101 8 10V10.7272L11.2728 14H12C12.219 14 12.4298 13.9648 12.627 13.8998L8.10024 9.37303ZM8 13.2728V14H8.72721L8 13.2728ZM8 16H12C14.2091 16 16 14.2091 16 12V8H18C19.1046 8 20 8.89543 20 10V18C20 19.1046 19.1046 20 18 20H10C8.89543 20 8 19.1046 8 18V16Z" fill="#191C30"/>
</svg>
