<svg width="24" height="25" viewBox="0 0 24 25" fill="none" xmlns="http://www.w3.org/2000/svg">
<path d="M16.0509 13.2738C17.1257 12.4329 17.9102 11.2796 18.2953 9.97459C18.6804 8.66954 18.6468 7.27758 18.1994 5.99236C17.752 4.70714 16.9129 3.59258 15.7988 2.80372C14.6848 2.01486 13.3512 1.59094 11.9837 1.59094C10.6161 1.59094 9.2825 2.01486 8.16846 2.80372C7.05443 3.59258 6.21532 4.70714 5.76789 5.99236C5.32045 7.27758 5.28694 8.66954 5.67201 9.97459C6.05709 11.2796 6.84159 12.4329 7.91639 13.2738C6.0747 14.0076 4.46776 15.2247 3.26688 16.7954C2.06601 18.366 1.31621 20.2313 1.09743 22.1923C1.0816 22.3355 1.09427 22.4804 1.13473 22.6187C1.1752 22.757 1.24266 22.886 1.33326 22.9984C1.51624 23.2254 1.78238 23.3707 2.07314 23.4025C2.36389 23.4343 2.65544 23.35 2.88366 23.168C3.11187 22.986 3.25804 22.7214 3.29002 22.4322C3.53075 20.3009 4.55261 18.3325 6.16037 16.9032C7.76812 15.4738 9.84905 14.6836 12.0056 14.6836C14.1621 14.6836 16.243 15.4738 17.8508 16.9032C19.4585 18.3325 20.4804 20.3009 20.7211 22.4322C20.7509 22.7001 20.8795 22.9475 21.0819 23.1267C21.2844 23.3059 21.5464 23.4042 21.8174 23.4025H21.938C22.2254 23.3697 22.4881 23.2251 22.6688 23.0005C22.8495 22.7759 22.9336 22.4893 22.9028 22.2032C22.6829 20.2366 21.9291 18.3665 20.7221 16.7935C19.515 15.2204 17.9003 14.0038 16.0509 13.2738ZM11.9837 12.4997C11.1163 12.4997 10.2685 12.244 9.54737 11.7648C8.82623 11.2856 8.26417 10.6044 7.93227 9.80755C7.60037 9.01066 7.51352 8.13378 7.68273 7.2878C7.85193 6.44183 8.26958 5.66475 8.88286 5.05484C9.49614 4.44492 10.2775 4.02957 11.1281 3.86129C11.9788 3.69302 12.8605 3.77938 13.6618 4.10947C14.4631 4.43955 15.1479 4.99852 15.6298 5.71571C16.1116 6.43289 16.3688 7.27607 16.3688 8.13862C16.3688 9.29526 15.9068 10.4045 15.0844 11.2224C14.2621 12.0403 13.1467 12.4997 11.9837 12.4997Z" fill="black"/>
</svg>
