<svg width="16" height="16" viewBox="0 0 16 16" fill="none" xmlns="http://www.w3.org/2000/svg">
<path fill-rule="evenodd" clip-rule="evenodd" d="M2.1951 2.19522C2.32012 2.0702 2.48969 1.99996 2.6665 1.99996H8.6665C8.84331 1.99996 9.01288 2.0702 9.13791 2.19522C9.26293 2.32025 9.33317 2.48982 9.33317 2.66663V3.33329C9.33317 3.70148 9.63165 3.99996 9.99984 3.99996C10.368 3.99996 10.6665 3.70148 10.6665 3.33329V2.66663C10.6665 2.13619 10.4558 1.62748 10.0807 1.25241C9.70564 0.87734 9.19694 0.666626 8.6665 0.666626H2.6665C2.13607 0.666626 1.62736 0.87734 1.25229 1.25241C0.877217 1.62749 0.666504 2.13619 0.666504 2.66663V8.66663C0.666504 9.19706 0.877218 9.70577 1.25229 10.0808C1.62736 10.4559 2.13607 10.6666 2.6665 10.6666H3.33317C3.70136 10.6666 3.99984 10.3681 3.99984 9.99996C3.99984 9.63177 3.70136 9.33329 3.33317 9.33329H2.6665C2.48969 9.33329 2.32012 9.26305 2.1951 9.13803C2.07007 9.01301 1.99984 8.84344 1.99984 8.66663V2.66663C1.99984 2.48981 2.07007 2.32025 2.1951 2.19522ZM7.33317 5.33329C6.80274 5.33329 6.29403 5.54401 5.91896 5.91908C5.54388 6.29415 5.33317 6.80286 5.33317 7.33329V13.3333C5.33317 13.8637 5.54388 14.3724 5.91896 14.7475C6.29403 15.1226 6.80274 15.3333 7.33317 15.3333H13.3332C13.8636 15.3333 14.3723 15.1226 14.7474 14.7475C15.1225 14.3724 15.3332 13.8637 15.3332 13.3333V7.33329C15.3332 6.80286 15.1225 6.29415 14.7474 5.91908C14.3723 5.54401 13.8636 5.33329 13.3332 5.33329H7.33317ZM6.86177 6.86189C6.98679 6.73686 7.15636 6.66663 7.33317 6.66663H13.3332C13.51 6.66663 13.6795 6.73686 13.8046 6.86189C13.9296 6.98691 13.9998 7.15648 13.9998 7.33329V13.3333C13.9998 13.5101 13.9296 13.6797 13.8046 13.8047C13.6795 13.9297 13.51 14 13.3332 14H7.33317C7.15636 14 6.98679 13.9297 6.86177 13.8047C6.73674 13.6797 6.6665 13.5101 6.6665 13.3333V7.33329C6.6665 7.15648 6.73674 6.98691 6.86177 6.86189Z" fill="#191C30"/>
</svg>
