<svg width="23" height="22" viewBox="0 0 23 22" fill="none" xmlns="http://www.w3.org/2000/svg">
<path fill-rule="evenodd" clip-rule="evenodd" d="M2.6259 2.29289C2.81344 2.10536 3.06779 2 3.33301 2H12.333C12.5982 2 12.8526 2.10536 13.0401 2.29289C13.2277 2.48043 13.333 2.73478 13.333 3V4C13.333 4.55228 13.7807 5 14.333 5C14.8853 5 15.333 4.55228 15.333 4V3C15.333 2.20435 15.0169 1.44129 14.4543 0.87868C13.8917 0.31607 13.1287 0 12.333 0H3.33301C2.53736 0 1.7743 0.31607 1.21169 0.87868C0.649078 1.44129 0.333008 2.20435 0.333008 3V12C0.333008 12.7956 0.649078 13.5587 1.21169 14.1213C1.7743 14.6839 2.53736 15 3.33301 15H4.33301C4.88529 15 5.33301 14.5523 5.33301 14C5.33301 13.4477 4.88529 13 4.33301 13H3.33301C3.06779 13 2.81344 12.8946 2.6259 12.7071C2.43836 12.5196 2.33301 12.2652 2.33301 12V3C2.33301 2.73478 2.43836 2.48043 2.6259 2.29289ZM10.333 7C9.53736 7 8.7743 7.31607 8.21169 7.87868C7.64908 8.44129 7.33301 9.20435 7.33301 10V19C7.33301 19.7957 7.64908 20.5587 8.21169 21.1213C8.7743 21.6839 9.53736 22 10.333 22H19.333C20.1287 22 20.8917 21.6839 21.4543 21.1213C22.0169 20.5587 22.333 19.7957 22.333 19V10C22.333 9.20435 22.0169 8.44129 21.4543 7.87868C20.8917 7.31607 20.1287 7 19.333 7H10.333ZM9.6259 9.29289C9.81344 9.10536 10.0678 9 10.333 9H19.333C19.5982 9 19.8526 9.10536 20.0401 9.29289C20.2276 9.48043 20.333 9.73478 20.333 10V19C20.333 19.2652 20.2276 19.5196 20.0401 19.7071C19.8526 19.8946 19.5982 20 19.333 20H10.333C10.0678 20 9.81344 19.8946 9.6259 19.7071C9.43836 19.5196 9.33301 19.2652 9.33301 19V10C9.33301 9.73478 9.43836 9.48043 9.6259 9.29289Z" fill="white"/>
</svg>
