<svg width="22" height="22" viewBox="0 0 22 22" fill="none" xmlns="http://www.w3.org/2000/svg">
<path d="M11 0.0908813C8.88017 0.0949055 6.80721 0.714775 5.03368 1.87499C3.26014 3.0352 1.86256 4.68567 1.01118 6.62538C0.159792 8.56509 -0.108656 10.7103 0.238531 12.7997C0.585717 14.8892 1.53356 16.8327 2.96659 18.3934C3.99009 19.5019 5.23229 20.3865 6.61491 20.9916C7.99753 21.5967 9.4906 21.9091 11 21.9091C12.5095 21.9091 14.0025 21.5967 15.3852 20.9916C16.7678 20.3865 18.01 19.5019 19.0335 18.3934C20.4665 16.8327 21.4144 14.8892 21.7615 12.7997C22.1087 10.7103 21.8403 8.56509 20.9889 6.62538C20.1375 4.68567 18.7399 3.0352 16.9664 1.87499C15.1929 0.714775 13.1199 0.0949055 11 0.0908813ZM11 19.7476C8.73588 19.7441 6.56133 18.8633 4.93397 17.2905C5.42804 16.0887 6.26854 15.0609 7.34865 14.3375C8.42876 13.6141 9.69972 13.2279 11 13.2279C12.3003 13.2279 13.5713 13.6141 14.6514 14.3375C15.7315 15.0609 16.572 16.0887 17.0661 17.2905C15.4387 18.8633 13.2642 19.7441 11 19.7476ZM8.81406 8.82718C8.81406 8.39521 8.94227 7.97295 9.18247 7.61378C9.42266 7.25461 9.76406 6.97467 10.1635 6.80936C10.5629 6.64405 11.0025 6.6008 11.4265 6.68507C11.8505 6.76935 12.24 6.97736 12.5457 7.28281C12.8515 7.58826 13.0597 7.97742 13.144 8.40109C13.2283 8.82476 13.1851 9.26391 13.0196 9.66299C12.8542 10.0621 12.574 10.4032 12.2145 10.6432C11.855 10.8832 11.4324 11.0113 11 11.0113C10.4203 11.0113 9.86427 10.7812 9.45432 10.3716C9.04437 9.96196 8.81406 9.40644 8.81406 8.82718ZM18.5526 15.3794C17.576 13.7105 16.073 12.4124 14.279 11.6883C14.8355 11.0578 15.1981 10.2803 15.3233 9.44903C15.4485 8.61775 15.331 7.76803 14.9848 7.00184C14.6386 6.23565 14.0785 5.58553 13.3717 5.12951C12.6649 4.67348 11.8414 4.43091 11 4.43091C10.1587 4.43091 9.33517 4.67348 8.62836 5.12951C7.92155 5.58553 7.36145 6.23565 7.01528 7.00184C6.66911 7.76803 6.55157 8.61775 6.67676 9.44903C6.80196 10.2803 7.16457 11.0578 7.72108 11.6883C5.92705 12.4124 4.42405 13.7105 3.44751 15.3794C2.66924 14.0549 2.25803 12.5472 2.25615 11.0113C2.25615 8.69425 3.17738 6.47214 4.81718 4.83376C6.45697 3.19539 8.68101 2.27496 11 2.27496C13.3191 2.27496 15.5431 3.19539 17.1829 4.83376C18.8227 6.47214 19.7439 8.69425 19.7439 11.0113C19.742 12.5472 19.3308 14.0549 18.5526 15.3794Z" fill="#191C30"/>
</svg>
