<svg width="161" height="24" viewBox="0 0 161 24" fill="none" xmlns="http://www.w3.org/2000/svg">
<g clip-path="url(#clip0_703_832)">
<path d="M3.4224 16.837L14.2932 18.9016L15.1378 17.4597L5.47486 13.3297L3.4224 16.837ZM8.45847 8.23135L16.9142 14.4285L17.7588 12.9859L10.5116 4.72346L8.45912 8.23135H8.45847ZM5.93257 12.5501L15.5955 16.6813L16.4565 15.2076L8.00076 9.01103L5.93257 12.5501ZM13.2749 0L10.9929 3.90486L18.2408 12.1686L19.3149 10.3369L13.2749 0ZM0.666992 21.5526H12.7457L13.8191 19.7209L2.94896 17.6562L0.666992 21.5526ZM19.8349 16.728L22.6611 21.5526H25.8742L19.8349 11.2249L13.7955 21.5526H17.0086L19.8349 16.728Z" fill="#FCAF17"/>
<path d="M45.5391 21.5371H50.1423L51.2001 19.6897H45.5397L45.5391 21.5371ZM45.5391 16.4076V18.2549H52.0374L53.1187 16.4076H45.5391ZM143.102 18.5981V13.1416H141.065V21.5371H142.771L147.673 16.0417V21.5371H149.71V13.1416H147.91L143.102 18.5981ZM57.5161 13.1416L52.6374 21.5371H55.0374L58.2505 15.9944L61.4873 21.5371H64.0138L59.1351 13.1416H57.5161ZM42.8564 19.6891L37.9778 11.2865H36.3122L31.4328 19.6891H30.2092V24H32.1509V21.5364H42.1378V24H44.0801V19.6891H42.8564ZM33.8643 19.6891L37.0774 14.1393L40.3141 19.6891H33.8643ZM109.439 13.1416H99.9574V14.989H108.349L109.439 13.1416ZM55.0132 13.1416H45.5397V14.989H53.9319L55.0132 13.1416ZM158.867 13.1416L154.059 18.5981V13.1416H152.022V21.5371H153.735L158.63 16.0417V21.5371H160.667V13.1416H158.867ZM136.715 16.4076H132.254V13.1416H130.217V21.5371H132.254V18.2549H136.715V21.5371H138.752V13.1416H136.715V16.4076ZM111.934 13.1416L107.055 21.5371H109.463L112.676 15.9944L115.913 21.5371H118.432L113.552 13.1416H111.934ZM91.802 16.1514H88.7076V13.1345H86.6709V21.5371H91.7863C93.1679 21.5371 94.6046 20.7814 94.6046 18.8011C94.5968 16.1981 92.7496 16.1514 91.802 16.1514ZM91.684 19.7604H88.6997V17.8897H91.684C92.0309 17.8897 92.56 17.9831 92.56 18.8251C92.56 19.6041 92.1259 19.7604 91.684 19.7604ZM97.6525 13.1416H95.6394V21.5449H97.6525V13.1416ZM69.1456 12.9386C65.7423 12.9386 64.1325 14.9968 64.1325 17.2962C64.1325 19.6969 65.703 21.6532 69.1456 21.6532C70.6453 21.6532 74.1187 20.9676 74.1187 17.2962C74.1187 14.8956 72.564 12.9386 69.1456 12.9386ZM69.122 19.8059C67.1561 19.8059 66.3273 18.6915 66.3273 17.3196C66.3273 15.8147 67.2741 14.8093 69.122 14.8093C71.2059 14.8093 71.9161 15.8147 71.9161 17.3196C71.9161 19.1202 70.5509 19.8059 69.122 19.8059ZM99.9574 21.5371H104.56L105.626 19.6897H99.9574V21.5371ZM99.9574 16.4076V18.2549H106.454L107.544 16.4076H99.9574ZM121.297 18.5514V13.1416H119.26V21.5371H120.974L125.876 16.0884V21.5371H127.913V13.1416H126.2L121.297 18.5514ZM83.0079 16.5873C83.5443 16.3609 84.0027 15.995 84.0027 15.0824C84.0027 13.344 82.5259 13.1416 81.484 13.1416H75.9817V21.5449H81.5791C84.1443 21.5449 84.6735 20.1496 84.6735 18.8711C84.6814 17.4292 83.8525 16.8363 83.0079 16.5873ZM77.9948 14.9189H81.2551C81.7443 14.9189 81.9496 15.1687 81.9496 15.6519C81.9496 16.1507 81.6263 16.4076 81.2551 16.4076H77.9948V14.9189ZM81.5791 19.7598H77.9948V17.9591H81.5791C82.1548 17.9591 82.5738 18.0993 82.5738 18.8478C82.5738 19.44 82.3207 19.7598 81.5791 19.7598Z" fill="black"/>
</g>
<defs>
<clipPath id="clip0_703_832">
<rect width="160" height="24" fill="white" transform="translate(0.666504)"/>
</clipPath>
</defs>
</svg>
