<svg width="68" height="20" viewBox="0 0 68 20" fill="none" xmlns="http://www.w3.org/2000/svg">
<rect width="68" height="20" rx="4" fill="#191C30"/>
<g clip-path="url(#clip0_656_4314)">
<path d="M15.9392 6H14.6044V12.7689H15.9392V6Z" fill="white"/>
<path d="M13.0711 6.37876H11.7363V13.1475H13.0711V6.37876Z" fill="white"/>
<path d="M10.203 6.80162H8.86814V13.5716H10.203V6.80162Z" fill="white"/>
<path d="M7.33482 7.22917H6L6.00001 14H7.33482L7.33482 7.22917Z" fill="white"/>
<path d="M51.194 9.60631L49.0447 7.21671H47.7882V12.7495H49.1001V9.21946L51.0623 11.3109H51.3047L53.2332 9.21946V12.7495H54.5451V7.21671H53.2886L51.194 9.60631Z" fill="white"/>
<path d="M60.795 7.21671L57.5435 10.8128V7.21671H56.2316V12.7495H57.4335L60.685 9.15338V12.7495H61.9969V7.21671H60.795Z" fill="white"/>
<path d="M40.7222 9.24122C40.7222 10.1221 41.2039 10.816 41.9433 11.107L40.5568 12.7495H42.1625L43.4238 11.2553H44.7886V12.7495H46.1005V7.21671H42.7606C41.5154 7.21671 40.7222 8.06858 40.7222 9.24122ZM44.7895 8.43528V10.0713H43.0039C42.4082 10.0713 42.0886 9.73929 42.0886 9.25251C42.0886 8.76572 42.4194 8.43367 43.0039 8.43367L44.7895 8.43528Z" fill="white"/>
<path d="M34.626 8.32326C34.5457 10.2261 34.1443 11.4543 33.3583 11.4543H33.1616V12.7825L33.3712 12.7938C34.9472 12.8817 35.8183 11.4987 35.9612 8.478H38.0341V12.7495H39.3436V7.21671H34.6702L34.626 8.32326Z" fill="white"/>
<path d="M29.6877 7.1394C27.9134 7.1394 26.6369 8.36765 26.6369 9.98276C26.6369 11.6535 28.0258 12.8382 29.6877 12.8382C31.4187 12.8382 32.7635 11.5874 32.7635 9.98276C32.7635 8.37813 31.4187 7.1394 29.6877 7.1394ZM29.6877 11.51C28.685 11.51 28.0017 10.8572 28.0017 9.98276C28.0017 9.08655 28.6858 8.45147 29.6877 8.45147C30.6897 8.45147 31.3962 9.11557 31.3962 9.98276C31.3962 10.8499 30.6801 11.51 29.6877 11.51Z" fill="white"/>
<path d="M25.2456 7.22714H20.6155L20.5713 8.3337C20.5055 9.92784 20.0896 11.4438 19.3036 11.4656L18.9399 11.4769V14L20.263 13.9974V12.7502H24.8594V13.9974H26.1937V11.4656H25.2456V7.22714ZM23.9337 11.4656H21.1341C21.6078 10.7467 21.8615 9.70621 21.9057 8.48924H23.9337V11.4656Z" fill="white"/>
</g>
<defs>
<clipPath id="clip0_656_4314">
<rect width="56" height="8" fill="white" transform="translate(6 6)"/>
</clipPath>
</defs>
</svg>
