<svg width="14" height="14" viewBox="0 0 14 14" fill="none" xmlns="http://www.w3.org/2000/svg">
<path fill-rule="evenodd" clip-rule="evenodd" d="M7.00016 0.333374C7.36835 0.333374 7.66683 0.631851 7.66683 1.00004V7.39057L9.86209 5.1953C10.1224 4.93495 10.5446 4.93495 10.8049 5.1953C11.0653 5.45565 11.0653 5.87776 10.8049 6.13811L7.47157 9.47145C7.21122 9.7318 6.78911 9.7318 6.52876 9.47145L3.19543 6.13811C2.93508 5.87776 2.93508 5.45565 3.19543 5.1953C3.45577 4.93495 3.87788 4.93495 4.13823 5.1953L6.3335 7.39057V1.00004C6.3335 0.631851 6.63197 0.333374 7.00016 0.333374ZM1.00016 8.33337C1.36835 8.33337 1.66683 8.63185 1.66683 9.00004V11.6667C1.66683 11.8435 1.73707 12.0131 1.86209 12.1381C1.98712 12.2631 2.15669 12.3334 2.3335 12.3334H11.6668C11.8436 12.3334 12.0132 12.2631 12.1382 12.1381C12.2633 12.0131 12.3335 11.8435 12.3335 11.6667V9.00004C12.3335 8.63185 12.632 8.33337 13.0002 8.33337C13.3684 8.33337 13.6668 8.63185 13.6668 9.00004V11.6667C13.6668 12.1971 13.4561 12.7058 13.081 13.0809C12.706 13.456 12.1973 13.6667 11.6668 13.6667H2.3335C1.80306 13.6667 1.29436 13.456 0.919282 13.0809C0.54421 12.7058 0.333496 12.1971 0.333496 11.6667V9.00004C0.333496 8.63185 0.631973 8.33337 1.00016 8.33337Z" fill="#191C30"/>
</svg>
