<svg width="15" height="16" viewBox="0 0 15 16" fill="none" xmlns="http://www.w3.org/2000/svg">
<path fill-rule="evenodd" clip-rule="evenodd" d="M14.0137 2.66673C14.0137 3.06839 13.6881 3.394 13.2864 3.394L8.61973 3.394C8.21807 3.394 7.89246 3.06839 7.89246 2.66673C7.89246 2.26506 8.21807 1.93945 8.61973 1.93945L13.2864 1.93945C13.6881 1.93945 14.0137 2.26506 14.0137 2.66673ZM14.0137 8.00006C14.0137 8.40172 13.6881 8.72733 13.2864 8.72733L10.6803 8.72733L10.6803 10.0001C10.6803 10.4017 10.3547 10.7273 9.95307 10.7273C9.5514 10.7273 9.22579 10.4017 9.22579 10.0001L9.22579 6.00006C9.22579 5.5984 9.5514 5.27279 9.95307 5.27279C10.3547 5.27279 10.6803 5.5984 10.6803 6.00006L10.6803 7.27279L13.2864 7.27279C13.6881 7.27279 14.0137 7.5984 14.0137 8.00006ZM14.0137 13.3334C14.0137 13.7351 13.6881 14.0607 13.2864 14.0607L7.2864 14.0607C6.88474 14.0607 6.55913 13.7351 6.55913 13.3334C6.55913 12.9317 6.88474 12.6061 7.2864 12.6061L13.2864 12.6061C13.6881 12.6061 14.0137 12.9317 14.0137 13.3334ZM8.01367 8.00006C8.01367 8.40172 7.68806 8.72733 7.2864 8.72733L1.2864 8.72733C0.884737 8.72733 0.559126 8.40172 0.559126 8.00006C0.559126 7.5984 0.884737 7.27279 1.2864 7.27279L7.2864 7.27279C7.68806 7.27279 8.01367 7.5984 8.01367 8.00006ZM5.95307 -0.0605468C6.35473 -0.0605468 6.68034 0.265064 6.68034 0.666726L6.68034 4.66673C6.68034 5.06839 6.35473 5.394 5.95307 5.394C5.5514 5.394 5.22579 5.06839 5.22579 4.66673L5.22579 3.394L1.2864 3.394C0.884737 3.394 0.559126 3.06839 0.559126 2.66673C0.559126 2.26506 0.884737 1.93945 1.2864 1.93945L5.22579 1.93945L5.22579 0.666726C5.22579 0.265064 5.5514 -0.0605468 5.95307 -0.0605468ZM4.61973 10.6061C5.02139 10.6061 5.34701 10.9317 5.34701 11.3334L5.34701 15.3334C5.34701 15.7351 5.02139 16.0607 4.61973 16.0607C4.21807 16.0607 3.89246 15.7351 3.89246 15.3334L3.89246 14.0607L1.2864 14.0607C0.884737 14.0607 0.559126 13.7351 0.559126 13.3334C0.559126 12.9317 0.884737 12.6061 1.2864 12.6061L3.89246 12.6061L3.89246 11.3334C3.89246 10.9317 4.21807 10.6061 4.61973 10.6061Z" fill="#191C30"/>
</svg>
