<svg width="14" height="16" viewBox="0 0 14 16" fill="none" xmlns="http://www.w3.org/2000/svg">
<path fill-rule="evenodd" clip-rule="evenodd" d="M13.8701 2.66673C13.8701 3.06839 13.5445 3.394 13.1428 3.394L8.47618 3.394C8.07452 3.394 7.74891 3.06839 7.74891 2.66673C7.74891 2.26506 8.07452 1.93945 8.47618 1.93945L13.1428 1.93945C13.5445 1.93945 13.8701 2.26506 13.8701 2.66673ZM13.8701 8.00006C13.8701 8.40172 13.5445 8.72733 13.1428 8.72733L10.5368 8.72733L10.5368 10.0001C10.5368 10.4017 10.2112 10.7273 9.80951 10.7273C9.40785 10.7273 9.08224 10.4017 9.08224 10.0001L9.08224 6.00006C9.08224 5.5984 9.40785 5.27279 9.80951 5.27279C10.2112 5.27279 10.5368 5.5984 10.5368 6.00006L10.5368 7.27279L13.1428 7.27279C13.5445 7.27279 13.8701 7.5984 13.8701 8.00006ZM13.8701 13.3334C13.8701 13.7351 13.5445 14.0607 13.1428 14.0607L7.14284 14.0607C6.74118 14.0607 6.41557 13.7351 6.41557 13.3334C6.41557 12.9317 6.74118 12.6061 7.14284 12.6061L13.1428 12.6061C13.5445 12.6061 13.8701 12.9317 13.8701 13.3334ZM7.87012 8.00006C7.87012 8.40172 7.54451 8.72733 7.14284 8.72733L1.14284 8.72733C0.741182 8.72733 0.415571 8.40172 0.415571 8.00006C0.415571 7.5984 0.741182 7.27279 1.14284 7.27279L7.14284 7.27279C7.54451 7.27279 7.87012 7.5984 7.87012 8.00006ZM5.80951 -0.0605468C6.21117 -0.0605468 6.53678 0.265064 6.53678 0.666726L6.53678 4.66673C6.53678 5.06839 6.21117 5.394 5.80951 5.394C5.40785 5.394 5.08224 5.06839 5.08224 4.66673L5.08224 3.394L1.14284 3.394C0.741182 3.394 0.415571 3.06839 0.415571 2.66673C0.415571 2.26506 0.741182 1.93945 1.14284 1.93945L5.08224 1.93945L5.08224 0.666726C5.08224 0.265064 5.40785 -0.0605468 5.80951 -0.0605468ZM4.47618 10.6061C4.87784 10.6061 5.20345 10.9317 5.20345 11.3334L5.20345 15.3334C5.20345 15.7351 4.87784 16.0607 4.47618 16.0607C4.07452 16.0607 3.7489 15.7351 3.7489 15.3334L3.7489 14.0607L1.14284 14.0607C0.741182 14.0607 0.415571 13.7351 0.415571 13.3334C0.415571 12.9317 0.741182 12.6061 1.14284 12.6061L3.7489 12.6061L3.7489 11.3334C3.7489 10.9317 4.07452 10.6061 4.47618 10.6061Z" fill="#DF3151"/>
</svg>
