<svg width="49" height="49" viewBox="0 0 49 49" fill="none" xmlns="http://www.w3.org/2000/svg">
<rect x="0.75" y="0.346436" width="47.5" height="47.5" rx="23.75" stroke="#191C30" stroke-width="0.5"/>
<path d="M12.5 36.0964L14.1963 29.9367C13.1476 28.1288 12.5974 26.0812 12.6032 23.9881C12.6032 17.4291 17.967 12.0964 24.5516 12.0964C27.7493 12.0964 30.7521 13.3341 33.0043 15.5812C35.2622 17.8284 36.5057 20.817 36.5 23.9938C36.5 30.5527 31.1361 35.8854 24.5458 35.8854H24.5401C22.5401 35.8854 20.5745 35.3835 18.8266 34.4367L12.5 36.0964ZM19.1304 32.2866L19.4914 32.5033C21.0158 33.4044 22.7636 33.8778 24.5458 33.8835H24.5516C30.0243 33.8835 34.4828 29.452 34.4828 23.9995C34.4828 21.3588 33.4513 18.8778 31.5773 17.0071C29.7034 15.1364 27.2049 14.1097 24.5516 14.1097C19.0788 14.104 14.6203 18.5356 14.6203 23.9881C14.6203 25.8531 15.1418 27.6725 16.139 29.2466L16.3739 29.6231L15.3711 33.2675L19.1304 32.2866Z" fill="#191C30"/>
<path fill-rule="evenodd" clip-rule="evenodd" d="M21.5655 19.0139C21.342 18.5177 21.1071 18.5063 20.895 18.5006C20.7231 18.4949 20.5225 18.4949 20.322 18.4949C20.1214 18.4949 19.8005 18.569 19.5254 18.8656C19.2503 19.1622 18.4824 19.8808 18.4824 21.3466C18.4824 22.8067 19.5541 24.2211 19.7031 24.4207C19.852 24.6203 21.7718 27.7173 24.8033 28.9093C27.3248 29.9017 27.8406 29.7021 28.385 29.6508C28.9294 29.5994 30.15 28.9321 30.4022 28.2363C30.6486 27.5405 30.6486 26.9473 30.5741 26.8219C30.4996 26.6964 30.299 26.6223 30.001 26.474C29.703 26.3257 28.236 25.607 27.9609 25.5044C27.6859 25.4074 27.4853 25.3561 27.2904 25.6527C27.0899 25.9492 26.5168 26.6165 26.3449 26.8162C26.173 27.0158 25.9953 27.0386 25.6973 26.8903C25.3993 26.742 24.4366 26.4283 23.2962 25.4131C22.4079 24.6261 21.8062 23.6508 21.6343 23.3542C21.4624 23.0576 21.6171 22.8979 21.7661 22.7496C21.8979 22.6184 22.0641 22.4017 22.2131 22.2306C22.3621 22.0595 22.4137 21.934 22.5111 21.7344C22.6085 21.5348 22.5626 21.3637 22.4881 21.2154C22.4137 21.0728 21.8291 19.6013 21.5655 19.0139Z" fill="#191C30"/>
</svg>
