<svg width="49" height="49" viewBox="0 0 49 49" fill="none" xmlns="http://www.w3.org/2000/svg">
<rect x="0.75" y="0.346436" width="47.5" height="47.5" rx="23.75" stroke="#191C30" stroke-width="0.5"/>
<path fill-rule="evenodd" clip-rule="evenodd" d="M13.5374 22.7643C19.7389 20.0624 23.8742 18.2811 25.9433 17.4205C31.851 14.9633 33.0786 14.5365 33.8787 14.5224C34.0546 14.5193 34.4481 14.5629 34.703 14.7697C34.9182 14.9443 34.9774 15.1802 35.0058 15.3458C35.0341 15.5114 35.0694 15.8885 35.0413 16.1832C34.7212 19.547 33.3359 27.7099 32.6312 31.4773C32.333 33.0715 31.7458 33.606 31.1774 33.6583C29.942 33.772 29.004 32.8419 27.8075 32.0576C25.9352 30.8303 24.8774 30.0663 23.0601 28.8686C20.9598 27.4846 22.3213 26.7239 23.5183 25.4807C23.8315 25.1553 29.2745 20.2045 29.3799 19.7554C29.393 19.6992 29.4053 19.4898 29.2809 19.3793C29.1565 19.2687 28.9729 19.3065 28.8404 19.3366C28.6527 19.3792 25.6616 21.3561 19.8674 25.2674C19.0184 25.8504 18.2494 26.1344 17.5604 26.1196C16.8009 26.1031 15.3398 25.6901 14.2537 25.337C12.9214 24.904 11.8626 24.675 11.9548 23.9396C12.0028 23.5565 12.5304 23.1647 13.5374 22.7643Z" fill="#191C30"/>
</svg>
