<svg width="14" height="10" viewBox="0 0 14 10" fill="none" xmlns="http://www.w3.org/2000/svg">
<path fill-rule="evenodd" clip-rule="evenodd" d="M0.333008 1.00004C0.333008 0.631851 0.631485 0.333374 0.999674 0.333374H12.9997C13.3679 0.333374 13.6663 0.631851 13.6663 1.00004C13.6663 1.36823 13.3679 1.66671 12.9997 1.66671H0.999674C0.631485 1.66671 0.333008 1.36823 0.333008 1.00004ZM0.333008 5.00004C0.333008 4.63185 0.631485 4.33337 0.999674 4.33337H12.9997C13.3679 4.33337 13.6663 4.63185 13.6663 5.00004C13.6663 5.36823 13.3679 5.66671 12.9997 5.66671H0.999674C0.631485 5.66671 0.333008 5.36823 0.333008 5.00004ZM0.333008 9.00004C0.333008 8.63185 0.631485 8.33337 0.999674 8.33337H12.9997C13.3679 8.33337 13.6663 8.63185 13.6663 9.00004C13.6663 9.36823 13.3679 9.66671 12.9997 9.66671H0.999674C0.631485 9.66671 0.333008 9.36823 0.333008 9.00004Z" fill="white"/>
</svg>
