<svg width="48" height="48" viewBox="0 0 48 48" fill="none" xmlns="http://www.w3.org/2000/svg">
<rect x="0.5" y="0.5" width="47" height="47" rx="23.5" stroke="black"/>
<path d="M28.0509 24.7738C29.1257 23.9329 29.9102 22.7796 30.2953 21.4746C30.6804 20.1695 30.6468 18.7776 30.1994 17.4924C29.752 16.2071 28.9129 15.0926 27.7988 14.3037C26.6848 13.5149 25.3512 13.0909 23.9837 13.0909C22.6161 13.0909 21.2825 13.5149 20.1685 14.3037C19.0544 15.0926 18.2153 16.2071 17.7679 17.4924C17.3205 18.7776 17.2869 20.1695 17.672 21.4746C18.0571 22.7796 18.8416 23.9329 19.9164 24.7738C18.0747 25.5076 16.4678 26.7247 15.2669 28.2954C14.066 29.866 13.3162 31.7313 13.0974 33.6923C13.0816 33.8355 13.0943 33.9804 13.1347 34.1187C13.1752 34.257 13.2427 34.386 13.3333 34.4984C13.5162 34.7254 13.7824 34.8707 14.0731 34.9025C14.3639 34.9343 14.6554 34.85 14.8837 34.668C15.1119 34.486 15.258 34.2214 15.29 33.9322C15.5308 31.8009 16.5526 29.8325 18.1604 28.4032C19.7681 26.9738 21.8491 26.1836 24.0056 26.1836C26.1621 26.1836 28.243 26.9738 29.8508 28.4032C31.4585 29.8325 32.4804 31.8009 32.7211 33.9322C32.7509 34.2001 32.8795 34.4475 33.0819 34.6267C33.2844 34.8059 33.5464 34.9042 33.8174 34.9025H33.938C34.2254 34.8697 34.4881 34.7251 34.6688 34.5005C34.8495 34.2759 34.9336 33.9893 34.9028 33.7032C34.6829 31.7366 33.9291 29.8665 32.7221 28.2935C31.515 26.7204 29.9003 25.5038 28.0509 24.7738ZM23.9837 23.9997C23.1163 23.9997 22.2685 23.744 21.5474 23.2648C20.8262 22.7856 20.2642 22.1044 19.9323 21.3075C19.6004 20.5107 19.5135 19.6338 19.6827 18.7878C19.8519 17.9418 20.2696 17.1648 20.8829 16.5548C21.4961 15.9449 22.2775 15.5296 23.1281 15.3613C23.9788 15.193 24.8605 15.2794 25.6618 15.6095C26.4631 15.9395 27.1479 16.4985 27.6298 17.2157C28.1116 17.9329 28.3688 18.7761 28.3688 19.6386C28.3688 20.7953 27.9068 21.9045 27.0844 22.7224C26.2621 23.5403 25.1467 23.9997 23.9837 23.9997Z" fill="black"/>
</svg>
