<svg width="14" height="16" viewBox="0 0 14 16" fill="none" xmlns="http://www.w3.org/2000/svg">
<path fill-rule="evenodd" clip-rule="evenodd" d="M4.95918 1.73931C5.60625 1.47128 6.29978 1.33333 7.00016 1.33333C7.70055 1.33333 8.39407 1.47128 9.04114 1.73931C9.68821 2.00733 10.2762 2.40018 10.7714 2.89543C11.2666 3.39068 11.6595 3.97862 11.9275 4.62569C12.1955 5.27276 12.3335 5.96628 12.3335 6.66667C12.3335 8.73204 10.9897 10.7362 9.51619 12.2915C8.79309 13.0548 8.06772 13.6796 7.52238 14.1139C7.31942 14.2755 7.14215 14.4101 7.00016 14.5151C6.85818 14.4101 6.68091 14.2755 6.47795 14.1139C5.93261 13.6796 5.20724 13.0548 4.48413 12.2915C3.01065 10.7362 1.66683 8.73204 1.66683 6.66667C1.66683 5.96628 1.80478 5.27276 2.07281 4.62569C2.34083 3.97862 2.73368 3.39068 3.22893 2.89543C3.72417 2.40018 4.31211 2.00733 4.95918 1.73931ZM6.63 15.8878C6.63019 15.8879 6.63036 15.888 7.00016 15.3333L7.36996 15.888C7.14603 16.0373 6.85393 16.0371 6.63 15.8878ZM6.63 15.8878L7.00016 15.3333C7.36996 15.888 7.37063 15.8876 7.37082 15.8875L7.37223 15.8865L7.37667 15.8835L7.39195 15.8732C7.40493 15.8644 7.42345 15.8517 7.44712 15.8353C7.49448 15.8025 7.56252 15.7547 7.6483 15.6928C7.8198 15.5689 8.06259 15.3881 8.35295 15.1569C8.93261 14.6954 9.70724 14.0286 10.4841 13.2085C12.0107 11.5972 13.6668 9.26796 13.6668 6.66667C13.6668 5.79119 13.4944 4.92428 13.1594 4.11544C12.8243 3.30661 12.3333 2.57168 11.7142 1.95262C11.0951 1.33356 10.3602 0.842501 9.55139 0.50747C8.74255 0.172438 7.87564 0 7.00016 0C6.12468 0 5.25778 0.172438 4.44894 0.50747C3.6401 0.842501 2.90517 1.33356 2.28612 1.95262C1.66706 2.57168 1.176 3.30661 0.840966 4.11544C0.505934 4.92428 0.333496 5.79119 0.333496 6.66667C0.333496 9.26796 1.98967 11.5972 3.51619 13.2085C4.29309 14.0286 5.06772 14.6954 5.64738 15.1569C5.93774 15.3881 6.18053 15.5689 6.35202 15.6928C6.43781 15.7547 6.50585 15.8025 6.5532 15.8353C6.57688 15.8517 6.59539 15.8644 6.60838 15.8732L6.62365 15.8835L6.6281 15.8865L6.63 15.8878ZM7.00016 4C6.29292 4 5.61464 4.28095 5.11454 4.78105C4.61445 5.28115 4.3335 5.95942 4.3335 6.66667C4.3335 7.37391 4.61445 8.05219 5.11454 8.55228C5.61464 9.05238 6.29292 9.33333 7.00016 9.33333C7.70741 9.33333 8.38568 9.05238 8.88578 8.55228C9.38588 8.05219 9.66683 7.37391 9.66683 6.66667C9.66683 5.95942 9.38588 5.28115 8.88578 4.78105C8.38568 4.28095 7.70741 4 7.00016 4ZM7.94297 7.60948C7.69292 7.85952 7.35379 8 7.00016 8C6.64654 8 6.3074 7.85952 6.05735 7.60948C5.80731 7.35943 5.66683 7.02029 5.66683 6.66667C5.66683 6.31304 5.80731 5.97391 6.05735 5.72386C6.3074 5.47381 6.64654 5.33333 7.00016 5.33333C7.35378 5.33333 7.69292 5.47381 7.94297 5.72386C8.19302 5.97391 8.3335 6.31304 8.3335 6.66667C8.3335 7.02029 8.19302 7.35943 7.94297 7.60948Z" fill="#191C30"/>
</svg>
