<svg width="72" height="24" viewBox="0 0 72 24" fill="none" xmlns="http://www.w3.org/2000/svg">
<path fill-rule="evenodd" clip-rule="evenodd" d="M33.9656 17.6652H31.7178V6.72249H33.9656V7.48753C34.4642 7.01905 35.4012 6.44312 36.6949 6.44312C38.2894 6.44312 39.4757 7.1093 40.2923 8.1838C41.182 7.1222 42.6519 6.44312 44.1476 6.44312C46.9542 6.44312 48.8668 8.32993 48.8668 11.2698V17.6695H46.6189V11.2698C46.6189 9.84283 45.4499 8.67807 44.0186 8.67807C42.5874 8.67807 41.4183 9.83853 41.4183 11.2698V17.6695H39.1705V11.2698C39.1705 9.84283 38.0014 8.67807 36.5702 8.67807C35.139 8.67807 33.9699 9.83853 33.9699 11.2698V17.6695L33.9656 17.6652Z" fill="#005FF9"/>
<path fill-rule="evenodd" clip-rule="evenodd" d="M62.3151 17.6643H60.0673V16.4695C59.2636 17.3764 57.8452 17.948 56.5128 17.948C53.3237 17.948 50.7363 15.3692 50.7363 12.193C50.7363 9.01679 53.3237 6.43799 56.5128 6.43799C57.8452 6.43799 59.1905 6.93656 60.0673 7.82194V6.71736H62.3151V17.6601V17.6643ZM56.5859 8.73742C58.5544 8.73742 60.0974 10.1386 60.0974 12.193C60.0974 14.2474 58.5501 15.6572 56.5859 15.6572C54.6217 15.6572 53.126 14.1486 53.126 12.193C53.126 10.2374 54.6217 8.73742 56.5859 8.73742Z" fill="#005FF9"/>
<path fill-rule="evenodd" clip-rule="evenodd" d="M64.782 17.665H67.0686V6.72227H64.782V17.665ZM65.9253 1.83545C66.7763 1.83545 67.4683 2.52313 67.4683 3.36983C67.4683 4.21654 66.7763 4.90422 65.9253 4.90422C65.0743 4.90422 64.3823 4.21654 64.3823 3.36983C64.3823 2.52313 65.0743 1.83545 65.9253 1.83545Z" fill="#005FF9"/>
<path fill-rule="evenodd" clip-rule="evenodd" d="M69.5371 17.6649H71.8236V2.22217H69.5371V17.6649Z" fill="#005FF9"/>
<path fill-rule="evenodd" clip-rule="evenodd" d="M16.619 12C16.619 13.99 14.9944 15.6103 12.9915 15.6103C10.9887 15.6103 9.36401 13.99 9.36401 12C9.36401 10.01 10.9887 8.38969 12.9915 8.38969C14.9944 8.38969 16.619 10.01 16.619 12ZM12.9915 0C6.34682 0 0.939941 5.38539 0.939941 12C0.939941 18.6146 6.34682 24 12.9915 24C15.4285 24 17.7752 23.2779 19.7823 21.9112L19.8167 21.8854L18.1921 20.0072L18.1663 20.0244C16.6233 21.0129 14.8311 21.5373 12.9958 21.5373C7.71358 21.5373 3.41559 17.2564 3.41559 11.9957C3.41559 6.73496 7.70928 2.45845 12.9915 2.45845C18.2738 2.45845 22.5717 6.73926 22.5717 12C22.5717 12.6834 22.4944 13.3711 22.3483 14.0501C22.0431 15.288 21.1749 15.6662 20.5216 15.6189C19.864 15.5673 19.0947 15.0989 19.0904 13.9556V12C19.0904 8.65186 16.3568 5.93123 12.9958 5.93123C9.63478 5.93123 6.90126 8.65616 6.90126 12C6.90126 15.3438 9.63478 18.0688 12.9958 18.0688C14.6291 18.0688 16.1591 17.4327 17.3153 16.2765C17.9858 17.3166 19.0818 17.9699 20.3282 18.0688C20.4356 18.0774 20.5431 18.0817 20.6505 18.0817C21.5273 18.0817 22.3955 17.7894 23.0961 17.2607C23.8182 16.7149 24.3597 15.9241 24.6563 14.9742C24.7036 14.8195 24.7895 14.4713 24.7938 14.467V14.4542C24.97 13.6934 25.0517 12.9327 25.0517 11.9957C25.0474 5.38539 19.6405 0 12.9915 0Z" fill="#FF9E00"/>
</svg>
