<svg width="49" height="48" viewBox="0 0 49 48" fill="none" xmlns="http://www.w3.org/2000/svg">
<rect x="0.666016" width="48" height="48" rx="24" fill="#2AE053"/>
<path d="M12.666 36L14.3623 29.8403C13.3136 28.0323 12.7634 25.9848 12.7692 23.8916C12.7692 17.3327 18.1331 12 24.7176 12C27.9153 12 30.9181 13.2376 33.1703 15.4848C35.4282 17.7319 36.6717 20.7205 36.666 23.8973C36.666 30.4563 31.3021 35.789 24.7119 35.789H24.7061C22.7061 35.789 20.7405 35.2871 18.9927 34.3403L12.666 36ZM19.2964 32.1901L19.6574 32.4068C21.1818 33.308 22.9296 33.7814 24.7119 33.7871H24.7176C30.1904 33.7871 34.6488 29.3555 34.6488 23.903C34.6488 21.2624 33.6173 18.7814 31.7434 16.9106C29.8694 15.0399 27.3709 14.0133 24.7176 14.0133C19.2448 14.0076 14.7864 18.4392 14.7864 23.8916C14.7864 25.7567 15.3078 27.576 16.305 29.1502L16.5399 29.5266L15.5371 33.1711L19.2964 32.1901Z" fill="white"/>
<path fill-rule="evenodd" clip-rule="evenodd" d="M21.7315 18.9174C21.508 18.4213 21.2731 18.4098 21.061 18.4041C20.8891 18.3984 20.6886 18.3984 20.488 18.3984C20.2874 18.3984 19.9665 18.4726 19.6914 18.7692C19.4163 19.0657 18.6484 19.7844 18.6484 21.2501C18.6484 22.7102 19.7201 24.1247 19.8691 24.3243C20.0181 24.5239 21.9378 27.6209 24.9693 28.8129C27.4908 29.8053 28.0066 29.6057 28.551 29.5543C29.0954 29.503 30.316 28.8357 30.5682 28.1399C30.8146 27.4441 30.8146 26.8509 30.7401 26.7254C30.6656 26.6 30.465 26.5258 30.1671 26.3775C29.8691 26.2292 28.402 25.5106 28.1269 25.4079C27.8519 25.311 27.6513 25.2597 27.4565 25.5562C27.2559 25.8528 26.6828 26.5201 26.5109 26.7197C26.339 26.9194 26.1613 26.9422 25.8633 26.7939C25.5653 26.6456 24.6026 26.3319 23.4622 25.3167C22.5739 24.5296 21.9722 23.5543 21.8003 23.2578C21.6284 22.9612 21.7831 22.8015 21.9321 22.6532C22.0639 22.522 22.2301 22.3053 22.3791 22.1342C22.5281 21.9631 22.5797 21.8376 22.6771 21.638C22.7745 21.4384 22.7287 21.2673 22.6542 21.119C22.5797 20.9764 21.9951 19.5049 21.7315 18.9174Z" fill="white"/>
</svg>
