<svg width="49" height="48" viewBox="0 0 49 48" fill="none" xmlns="http://www.w3.org/2000/svg">
<rect x="0.666016" width="48" height="48" rx="24" fill="#F7931E"/>
<path d="M24.773 11.1289C21.1078 11.1289 18.1367 14.1154 18.1367 17.7992C18.1367 21.4832 21.1078 24.4698 24.773 24.4698C28.4382 24.4698 31.4093 21.4832 31.4093 17.7992C31.4093 14.1154 28.4382 11.1289 24.773 11.1289ZM24.773 20.5568C23.2579 20.5568 22.0297 19.3221 22.0297 17.7993C22.0297 16.2765 23.2579 15.042 24.773 15.042C26.288 15.042 27.5163 16.2765 27.5163 17.7993C27.5163 19.3221 26.288 20.5568 24.773 20.5568Z" fill="white"/>
<path d="M27.1156 29.781C29.7724 29.237 31.3645 27.9724 31.4487 27.9045C32.2261 27.2779 32.351 26.1364 31.7275 25.3549C31.1042 24.5735 29.9686 24.448 29.191 25.0745C29.1746 25.0879 27.4765 26.3972 24.6826 26.3991C21.8888 26.3972 20.1548 25.0879 20.1384 25.0745C19.3608 24.448 18.2252 24.5735 17.6019 25.3549C16.9784 26.1364 17.1033 27.2779 17.8807 27.9045C17.9661 27.9734 19.6239 29.2709 22.3551 29.8021L18.5486 33.8006C17.8569 34.5217 17.8777 35.6698 18.5951 36.3651C18.9452 36.7045 19.3965 36.8732 19.8474 36.8732C20.3202 36.8732 20.7925 36.6875 21.1465 36.3184L24.6827 32.5321L28.5761 36.3429C29.2815 37.0508 30.4238 37.0497 31.1279 36.3409C31.832 35.632 31.8312 34.4837 31.1259 33.776L27.1156 29.781Z" fill="white"/>
<path d="M24.6832 26.3984C24.6779 26.3984 24.6884 26.3986 24.6832 26.3987C24.678 26.3986 24.6885 26.3984 24.6832 26.3984Z" fill="white"/>
</svg>
