<svg width="49" height="48" viewBox="0 0 49 48" fill="none" xmlns="http://www.w3.org/2000/svg">
<rect x="0.666016" width="48" height="48" rx="24" fill="#7360F2"/>
<g clip-path="url(#clip0_161_3900)">
<path d="M33.9569 13.5358C33.328 12.9397 30.7867 11.0444 25.1261 11.0187C25.1261 11.0187 18.4508 10.6051 15.1967 13.6716C13.3853 15.533 12.7481 18.2565 12.6809 21.6332C12.6137 25.0098 12.5267 31.3379 18.4641 33.0537H18.4698L18.466 35.6719C18.466 35.6719 18.4281 36.7319 19.1074 36.948C19.9292 37.2102 20.4115 36.4046 21.1961 35.5361C21.6267 35.0594 22.2214 34.3591 22.6695 33.8238C26.7302 34.1749 29.8533 33.3724 30.208 33.2538C31.0279 32.9807 35.6673 32.3698 36.4219 26.0425C37.2008 19.5206 36.0452 15.3952 33.9569 13.5358ZM34.645 25.5747C34.0082 30.858 30.2452 31.19 29.5514 31.4186C29.2563 31.5161 26.5134 32.2172 23.0641 31.9859C23.0641 31.9859 20.4939 35.1714 19.6911 35.9996C19.5658 36.1291 19.4184 36.1814 19.3201 36.1557C19.1819 36.1209 19.1439 35.9528 19.1454 35.707C19.1477 35.3559 19.1674 31.3562 19.1674 31.3562C14.1448 29.9236 14.4376 24.5377 14.4946 21.7174C14.5515 18.8971 15.0672 16.5867 16.5992 15.0328C19.3516 12.4715 25.0217 12.8543 25.0217 12.8543C29.81 12.8757 32.1045 14.3571 32.6365 14.8533C34.4031 16.4073 35.3031 20.1257 34.645 25.5732V25.5747Z" fill="white"/>
<path d="M27.4554 21.4877C27.3931 20.1979 26.7554 19.5205 25.5422 19.4554M29.0978 22.0534C29.1231 20.8517 28.7767 19.8478 28.0584 19.0415C27.3369 18.2324 26.3382 17.7868 25.0565 17.6905M30.7794 22.7291C30.7639 20.6439 30.1575 19.0017 28.96 17.8024C27.7625 16.6031 26.2732 15.9971 24.4922 15.9844" stroke="white" stroke-linecap="round" stroke-linejoin="round"/>
<path d="M25.606 25.8915C25.606 25.8915 26.056 25.9305 26.2983 25.6238L26.7707 25.0133C26.9985 24.7105 27.5484 24.5174 28.0869 24.8256C28.4904 25.062 28.8822 25.3191 29.2607 25.5957C29.6181 25.8657 30.3499 26.4931 30.3521 26.4931C30.7007 26.7954 30.7813 27.2394 30.5439 27.7076C30.5439 27.7103 30.542 27.715 30.542 27.7173C30.2806 28.1829 29.9487 28.6027 29.5588 28.9611C29.5543 28.9634 29.5543 28.9657 29.5501 28.9681C29.2114 29.2589 28.8786 29.4242 28.5517 29.464C28.5036 29.4726 28.4547 29.4757 28.4059 29.4733C28.2618 29.4747 28.1184 29.4521 27.9813 29.4062L27.9707 29.3902C27.4672 29.2443 26.6264 28.8791 25.2262 28.0856C24.416 27.6318 23.6446 27.1083 22.9204 26.5208C22.5574 26.2264 22.2111 25.9109 21.8833 25.5758L21.8483 25.5399L21.8134 25.504L21.7785 25.4682C21.7667 25.4565 21.7553 25.4444 21.7435 25.4323C21.4173 25.0955 21.1103 24.7397 20.8238 24.3668C20.2519 23.6228 19.7424 22.8305 19.3006 21.9983C18.5282 20.5594 18.1727 19.6964 18.0307 19.1783L18.0151 19.1674C17.9706 19.0266 17.9487 18.8793 17.9502 18.7312C17.9475 18.6811 17.9504 18.6309 17.9589 18.5814C17.9997 18.2462 18.1608 17.904 18.4423 17.555C18.4446 17.5507 18.4469 17.5507 18.4492 17.546C18.7979 17.1455 19.2066 16.8046 19.6598 16.5363C19.6621 16.5363 19.6667 16.534 19.6693 16.534C20.125 16.2901 20.5572 16.3729 20.8511 16.7291C20.8534 16.7314 21.4629 17.4832 21.7245 17.8503C21.9939 18.2396 22.2441 18.6424 22.4742 19.0574C22.7742 19.6102 22.5862 20.1763 22.2915 20.4096L21.6972 20.895C21.3972 21.1439 21.4367 21.6062 21.4367 21.6062C21.4367 21.6062 22.3169 25.0289 25.606 25.8915Z" fill="white"/>
</g>
<defs>
<clipPath id="clip0_161_3900">
<rect width="24" height="26" fill="white" transform="translate(12.666 11)"/>
</clipPath>
</defs>
</svg>
