<svg width="49" height="48" viewBox="0 0 49 48" fill="none" xmlns="http://www.w3.org/2000/svg">
<rect x="0.666016" width="48" height="48" rx="24" fill="#3395E3"/>
<path fill-rule="evenodd" clip-rule="evenodd" d="M13.7034 22.6717C19.9049 19.9699 24.0402 18.1886 26.1093 17.328C32.017 14.8708 33.2446 14.4439 34.0447 14.4298C34.2207 14.4267 34.6141 14.4704 34.869 14.6772C35.0842 14.8518 35.1434 15.0877 35.1718 15.2533C35.2001 15.4188 35.2354 15.796 35.2073 16.0907C34.8872 19.4544 33.502 27.6174 32.7972 31.3848C32.499 32.979 31.9119 33.5135 31.3434 33.5658C30.1081 33.6795 29.17 32.7494 27.9735 31.9651C26.1012 30.7377 25.0435 29.9737 23.2261 28.7761C21.1258 27.392 22.4873 26.6313 23.6843 25.3881C23.9975 25.0628 29.4405 20.1119 29.5459 19.6628C29.5591 19.6067 29.5713 19.3973 29.4469 19.2867C29.3225 19.1762 29.1389 19.214 29.0065 19.244C28.8187 19.2867 25.8277 21.2636 20.0334 25.1749C19.1844 25.7579 18.4154 26.0419 17.7265 26.027C16.9669 26.0106 15.5058 25.5976 14.4197 25.2445C13.0875 24.8114 12.0286 24.5825 12.1208 23.847C12.1689 23.464 12.6964 23.0722 13.7034 22.6717Z" fill="white"/>
</svg>
