<svg width="24" height="24" viewBox="0 0 24 24" fill="none" xmlns="http://www.w3.org/2000/svg">
<path fill-rule="evenodd" clip-rule="evenodd" d="M14.6606 0.00608028C14.1117 -0.054899 13.6173 0.340645 13.5564 0.889553C13.4954 1.43846 13.8909 1.93287 14.4398 1.99385C16.2436 2.19424 17.9257 3.00201 19.2098 4.28453C20.4939 5.56704 21.3038 7.24808 21.5065 9.05163C21.5682 9.60046 22.0631 9.99538 22.6119 9.93371C23.1607 9.87204 23.5557 9.37713 23.494 8.8283C23.2407 6.57387 22.2283 4.47257 20.6231 2.86942C19.018 1.26627 16.9154 0.256565 14.6606 0.00608028ZM14.7417 4.01847C14.1997 3.91271 13.6745 4.26641 13.5687 4.80847C13.463 5.35054 13.8167 5.8757 14.3587 5.98146C15.1401 6.13391 15.8583 6.51607 16.4212 7.07901C16.9841 7.64195 17.3663 8.36007 17.5187 9.14146C17.6245 9.68352 18.1497 10.0372 18.6917 9.93146C19.2338 9.8257 19.5875 9.30054 19.4817 8.75847C19.2531 7.58639 18.6798 6.50921 17.8354 5.66479C16.991 4.82038 15.9138 4.24715 14.7417 4.01847ZM7.61955 4.85642C7.54946 4.37374 7.10801 3.99512 6.62005 3.99992L6.61021 4.00002L3.61074 3.99997C3.05297 4.00075 2.56909 4.52389 2.61559 5.08351C3.54754 13.8173 10.7275 20.9754 19.4183 21.9247C19.833 21.9595 20.2509 21.7098 20.4169 21.3296C20.5644 20.9917 20.6142 20.5145 20.5968 19.8751C20.5892 19.5922 20.5699 19.3062 20.5497 19.0054L20.5438 18.9168C20.5222 18.5941 20.5002 18.2479 20.5002 17.92C20.5002 17.9117 20.5003 17.9034 20.5005 17.8952C20.5127 17.4022 20.1328 16.9521 19.6451 16.8808C18.6116 16.7448 17.5965 16.4916 16.6201 16.1267L16.6183 16.126C16.2686 15.9946 15.8313 16.0874 15.565 16.3494L14.2973 17.6171C13.979 17.9354 13.4872 18.0018 13.0959 17.7793C10.4359 16.2667 8.23344 14.0643 6.72091 11.4043C6.4984 11.0129 6.56479 10.5212 6.8831 10.2029C7.04654 10.0394 7.19968 9.89385 7.34259 9.75799C7.6788 9.43838 7.95841 9.17257 8.18246 8.85454C8.44541 8.48128 8.4983 8.21209 8.37416 7.88183L8.3735 7.88008C8.00838 6.90319 7.75648 5.88848 7.61955 4.85642ZM6.60579 1.99997C8.09652 1.98803 9.39166 3.10343 9.60037 4.58002L9.60161 4.58882C9.71882 5.47479 9.9346 6.34416 10.2468 7.17949C10.6757 8.32208 10.3247 9.28633 9.81747 10.0064C9.54656 10.3909 9.18419 10.7631 8.85903 11.078C10.0339 12.9166 11.596 14.477 13.436 15.65L14.1531 14.9329L14.1571 14.9289C14.9783 14.1169 16.2402 13.8476 17.3213 14.2536C18.1571 14.5659 19.0259 14.7824 19.9103 14.8985L19.9199 14.8997C21.4106 15.11 22.5303 16.4268 22.5002 17.9306C22.5007 18.1797 22.5176 18.459 22.5393 18.7832L22.5455 18.8749C22.5653 19.1695 22.5873 19.4954 22.5961 19.8209C22.6151 20.522 22.5815 21.37 22.2498 22.1298C21.7389 23.3 20.5066 24.0327 19.2291 23.9158L19.2122 23.9141C9.58162 22.8676 1.65375 14.9656 0.6258 5.28557L0.624267 5.26997C0.466923 3.52881 1.88321 2.0016 3.60927 1.99997H6.60579Z" fill="black"/>
</svg>
