<svg width="21" height="24" viewBox="0 0 21 24" fill="none" xmlns="http://www.w3.org/2000/svg">
<path fill-rule="evenodd" clip-rule="evenodd" d="M7.27203 2.60896C8.24263 2.20693 9.28292 2 10.3335 2C11.3841 2 12.4244 2.20693 13.395 2.60896C14.3656 3.011 15.2475 3.60028 15.9903 4.34315C16.7332 5.08601 17.3225 5.96793 17.7245 6.93853C18.1266 7.90914 18.3335 8.94942 18.3335 10C18.3335 13.0981 16.3178 16.1042 14.1075 18.4373C13.0229 19.5822 11.9348 20.5195 11.1168 21.1708C10.8124 21.4133 10.5465 21.6152 10.3335 21.7726C10.1205 21.6152 9.85461 21.4133 9.55017 21.1708C8.73216 20.5195 7.64411 19.5822 6.55945 18.4373C4.34923 16.1042 2.3335 13.0981 2.3335 10C2.3335 8.94942 2.54042 7.90914 2.94246 6.93853C3.3445 5.96793 3.93377 5.08601 4.67664 4.34315C5.41951 3.60028 6.30142 3.011 7.27203 2.60896ZM9.77825 23.8317C9.77854 23.8319 9.7788 23.8321 10.3335 23L10.8882 23.8321C10.5523 24.056 10.1142 24.0556 9.77825 23.8317ZM9.77825 23.8317L10.3335 23C10.8882 23.8321 10.8892 23.8314 10.8895 23.8312L10.8916 23.8298L10.8983 23.8253L10.9212 23.8098C10.9406 23.7966 10.9684 23.7776 11.0039 23.753C11.075 23.7038 11.177 23.6321 11.3057 23.5392C11.563 23.3534 11.9271 23.0822 12.3627 22.7354C13.2322 22.043 14.3941 21.0428 15.5594 19.8127C17.8492 17.3958 20.3335 13.9019 20.3335 10C20.3335 8.68678 20.0748 7.38642 19.5723 6.17317C19.0697 4.95991 18.3331 3.85752 17.4046 2.92893C16.476 2.00035 15.3736 1.26375 14.1603 0.761205C12.9471 0.258658 11.6467 0 10.3335 0C9.02028 0 7.71992 0.258658 6.50666 0.761205C5.29341 1.26375 4.19101 2.00035 3.26243 2.92893C2.33384 3.85752 1.59725 4.95991 1.0947 6.17317C0.592154 7.38642 0.333496 8.68678 0.333496 10C0.333496 13.9019 2.81776 17.3958 5.10754 19.8127C6.27288 21.0428 7.43483 22.043 8.30432 22.7354C8.73986 23.0822 9.10404 23.3534 9.36129 23.5392C9.48996 23.6321 9.59203 23.7038 9.66305 23.753C9.69857 23.7776 9.72634 23.7966 9.74581 23.8098L9.76873 23.8253L9.7754 23.8298L9.77825 23.8317ZM10.3335 6C9.27263 6 8.25521 6.42143 7.50507 7.17157C6.75492 7.92172 6.3335 8.93913 6.3335 10C6.3335 11.0609 6.75492 12.0783 7.50507 12.8284C8.25521 13.5786 9.27263 14 10.3335 14C11.3944 14 12.4118 13.5786 13.1619 12.8284C13.9121 12.0783 14.3335 11.0609 14.3335 10C14.3335 8.93913 13.9121 7.92172 13.1619 7.17157C12.4118 6.42143 11.3944 6 10.3335 6ZM11.7477 11.4142C11.3726 11.7893 10.8639 12 10.3335 12C9.80306 12 9.29435 11.7893 8.91928 11.4142C8.54421 11.0391 8.3335 10.5304 8.3335 10C8.3335 9.46957 8.54421 8.96086 8.91928 8.58579C9.29436 8.21071 9.80306 8 10.3335 8C10.8639 8 11.3726 8.21071 11.7477 8.58579C12.1228 8.96086 12.3335 9.46957 12.3335 10C12.3335 10.5304 12.1228 11.0391 11.7477 11.4142Z" fill="black"/>
</svg>
