<svg width="23" height="22" viewBox="0 0 23 22" fill="none" xmlns="http://www.w3.org/2000/svg">
<path fill-rule="evenodd" clip-rule="evenodd" d="M0.5 11C0.5 4.92472 5.42472 0 11.5 0C17.5753 0 22.5 4.92472 22.5 11C22.5 17.0753 17.5753 22 11.5 22C5.42472 22 0.5 17.0753 0.5 11ZM11.5 2C6.52928 2 2.5 6.02928 2.5 11C2.5 15.9707 6.52928 20 11.5 20C16.4707 20 20.5 15.9707 20.5 11C20.5 6.02928 16.4707 2 11.5 2ZM11.5 6C12.0523 6 12.5 6.44772 12.5 7V11C12.5 11.5523 12.0523 12 11.5 12C10.9477 12 10.5 11.5523 10.5 11V7C10.5 6.44772 10.9477 6 11.5 6ZM10.5 15C10.5 14.4477 10.9477 14 11.5 14H11.51C12.0623 14 12.51 14.4477 12.51 15C12.51 15.5523 12.0623 16 11.51 16H11.5C10.9477 16 10.5 15.5523 10.5 15Z" fill="#229B7C"/>
</svg>
