<svg width="21" height="22" viewBox="0 0 21 22" fill="none" xmlns="http://www.w3.org/2000/svg">
<path fill-rule="evenodd" clip-rule="evenodd" d="M10.0042 0.320679C10.3938 0.0142822 10.9394 0.0142822 11.329 0.320679L20.0682 7.19341C20.331 7.40009 20.4848 7.71787 20.4848 8.05452V18.8545C20.4848 19.6646 20.1665 20.4416 19.5999 21.0144C19.0334 21.5872 18.265 21.9091 17.4638 21.9091H3.86937C3.06815 21.9091 2.29976 21.5872 1.73321 21.0144C1.16667 20.4416 0.848389 19.6646 0.848389 18.8545V8.05452C0.848389 7.71787 1.00211 7.40009 1.26492 7.19341L10.0042 0.320679ZM3.00623 8.58806V18.8545C3.00623 19.086 3.09717 19.308 3.25904 19.4716C3.42091 19.6353 3.64045 19.7272 3.86937 19.7272H17.4638C17.6927 19.7272 17.9122 19.6353 18.0741 19.4716C18.236 19.308 18.3269 19.086 18.3269 18.8545V8.58806L10.6666 2.56382L3.00623 8.58806Z" fill="black"/>
<path fill-rule="evenodd" clip-rule="evenodd" d="M6.67376 11C6.67376 10.3975 7.15681 9.90906 7.75269 9.90906H13.5789C14.1747 9.90906 14.6578 10.3975 14.6578 11V20.8182C14.6578 21.4206 14.1747 21.9091 13.5789 21.9091C12.983 21.9091 12.4999 21.4206 12.4999 20.8182V12.0909H8.83161V20.8182C8.83161 21.4206 8.34856 21.9091 7.75269 21.9091C7.15681 21.9091 6.67376 21.4206 6.67376 20.8182V11Z" fill="black"/>
</svg>
