<svg width="14" height="16" viewBox="0 0 14 16" fill="none" xmlns="http://www.w3.org/2000/svg">
<path fill-rule="evenodd" clip-rule="evenodd" d="M10.9997 11.394C10.2968 11.394 9.72701 11.9638 9.72701 12.6667C9.72701 13.3696 10.2968 13.9394 10.9997 13.9394C11.7026 13.9394 12.2725 13.3696 12.2725 12.6667C12.2725 11.9638 11.7026 11.394 10.9997 11.394ZM8.27246 12.6667C8.27246 11.1605 9.4935 9.93941 10.9997 9.93941C12.506 9.93941 13.727 11.1605 13.727 12.6667C13.727 14.1729 12.506 15.394 10.9997 15.394C9.4935 15.394 8.27246 14.1729 8.27246 12.6667Z" fill="#191C30"/>
<path fill-rule="evenodd" clip-rule="evenodd" d="M2.99973 6.72729C2.29683 6.72729 1.72701 7.29711 1.72701 8.00002C1.72701 8.70293 2.29683 9.27275 2.99973 9.27275C3.70264 9.27275 4.27246 8.70293 4.27246 8.00002C4.27246 7.29711 3.70264 6.72729 2.99973 6.72729ZM0.272461 8.00002C0.272461 6.49379 1.4935 5.27275 2.99973 5.27275C4.50596 5.27275 5.72701 6.49379 5.72701 8.00002C5.72701 9.50625 4.50596 10.7273 2.99973 10.7273C1.4935 10.7273 0.272461 9.50625 0.272461 8.00002Z" fill="#191C30"/>
<path fill-rule="evenodd" clip-rule="evenodd" d="M4.09803 8.64052C4.30026 8.29348 4.74553 8.17609 5.09257 8.37832L9.6459 11.0316C9.99294 11.2339 10.1103 11.6791 9.9081 12.0262C9.70588 12.3732 9.26061 12.4906 8.91357 12.2884L4.36023 9.63505C4.0132 9.43283 3.8958 8.98756 4.09803 8.64052Z" fill="#191C30"/>
<path fill-rule="evenodd" clip-rule="evenodd" d="M10.9997 2.06062C10.2968 2.06062 9.72701 2.63044 9.72701 3.33335C9.72701 4.03626 10.2968 4.60608 10.9997 4.60608C11.7026 4.60608 12.2725 4.03626 12.2725 3.33335C12.2725 2.63044 11.7026 2.06062 10.9997 2.06062ZM8.27246 3.33335C8.27246 1.82712 9.4935 0.606079 10.9997 0.606079C12.506 0.606079 13.727 1.82712 13.727 3.33335C13.727 4.83958 12.506 6.06062 10.9997 6.06062C9.4935 6.06062 8.27246 4.83958 8.27246 3.33335Z" fill="#191C30"/>
<path fill-rule="evenodd" clip-rule="evenodd" d="M9.9012 3.97345C10.1037 4.32036 9.98654 4.76571 9.63963 4.96815L5.09297 7.62149C4.74606 7.82394 4.30071 7.70683 4.09826 7.35992C3.89582 7.01301 4.01292 6.56766 4.35983 6.36522L8.9065 3.71188C9.25341 3.50943 9.69875 3.62654 9.9012 3.97345Z" fill="#191C30"/>
</svg>
