<svg width="22" height="24" viewBox="0 0 22 24" fill="none" xmlns="http://www.w3.org/2000/svg">
<path fill-rule="evenodd" clip-rule="evenodd" d="M17.0001 17.0909C15.9457 17.0909 15.091 17.9456 15.091 19C15.091 20.0543 15.9457 20.9091 17.0001 20.9091C18.0545 20.9091 18.9092 20.0543 18.9092 19C18.9092 17.9456 18.0545 17.0909 17.0001 17.0909ZM12.9092 19C12.9092 16.7406 14.7407 14.9091 17.0001 14.9091C19.2594 14.9091 21.091 16.7406 21.091 19C21.091 21.2593 19.2594 23.0909 17.0001 23.0909C14.7407 23.0909 12.9092 21.2593 12.9092 19Z" fill="#191C30"/>
<path fill-rule="evenodd" clip-rule="evenodd" d="M5.00009 10.0909C3.94573 10.0909 3.091 10.9456 3.091 12C3.091 13.0543 3.94573 13.9091 5.00009 13.9091C6.05445 13.9091 6.90918 13.0543 6.90918 12C6.90918 10.9456 6.05445 10.0909 5.00009 10.0909ZM0.90918 12C0.90918 9.74062 2.74074 7.90906 5.00009 7.90906C7.25944 7.90906 9.091 9.74062 9.091 12C9.091 14.2593 7.25944 16.0909 5.00009 16.0909C2.74074 16.0909 0.90918 14.2593 0.90918 12Z" fill="#191C30"/>
<path fill-rule="evenodd" clip-rule="evenodd" d="M6.64753 12.9607C6.95088 12.4402 7.61878 12.2641 8.13934 12.5674L14.9693 16.5474C15.4899 16.8508 15.666 17.5187 15.3626 18.0392C15.0593 18.5598 14.3914 18.7359 13.8708 18.4325L7.04084 14.4525C6.52028 14.1492 6.34419 13.4813 6.64753 12.9607Z" fill="#191C30"/>
<path fill-rule="evenodd" clip-rule="evenodd" d="M17.0001 3.09088C15.9457 3.09088 15.091 3.9456 15.091 4.99997C15.091 6.05433 15.9457 6.90906 17.0001 6.90906C18.0545 6.90906 18.9092 6.05433 18.9092 4.99997C18.9092 3.9456 18.0545 3.09088 17.0001 3.09088ZM12.9092 4.99997C12.9092 2.74062 14.7407 0.909058 17.0001 0.909058C19.2594 0.909058 21.091 2.74062 21.091 4.99997C21.091 7.25931 19.2594 9.09088 17.0001 9.09088C14.7407 9.09088 12.9092 7.25931 12.9092 4.99997Z" fill="#191C30"/>
<path fill-rule="evenodd" clip-rule="evenodd" d="M15.3523 5.96012C15.656 6.48048 15.4803 7.1485 14.9599 7.45217L8.13994 11.4322C7.61957 11.7358 6.95156 11.5602 6.64788 11.0398C6.34421 10.5195 6.51987 9.85143 7.04024 9.54776L13.8602 5.56776C14.3806 5.26409 15.0486 5.43975 15.3523 5.96012Z" fill="#191C30"/>
</svg>
