<svg width="16" height="17" viewBox="0 0 16 17" fill="none" xmlns="http://www.w3.org/2000/svg">
<path fill-rule="evenodd" clip-rule="evenodd" d="M8 0.5C3.58219 0.5 0 4.0822 0 8.5C0 12.9178 3.58219 16.5 8 16.5C12.4178 16.5 16 12.9178 16 8.5C16 4.0822 12.4178 0.5 8 0.5ZM11.7081 5.94112C11.5883 7.20542 11.0663 10.2754 10.8023 11.6923C10.6909 12.2917 10.4693 12.4927 10.2561 12.5121C9.7911 12.5545 9.4387 12.2045 8.98941 11.9102C8.2858 11.4488 7.88738 11.1618 7.20436 10.7113C6.41477 10.1906 6.92583 9.90479 7.37633 9.43733C7.4938 9.31502 9.54042 7.45247 9.58039 7.28414C9.58523 7.26234 9.59007 7.18362 9.54284 7.14245C9.49562 7.10127 9.42658 7.11459 9.37693 7.12671C9.30669 7.14245 8.18165 7.88601 6.00182 9.35619C5.68211 9.57539 5.39267 9.68196 5.13351 9.67711C4.84771 9.67106 4.29912 9.51605 3.8898 9.38284C3.38965 9.22056 2.99001 9.13337 3.02513 8.85725C3.04329 8.71314 3.24069 8.5654 3.61974 8.41523C5.95216 7.39918 7.50712 6.72949 8.28459 6.40494C10.5068 5.48093 10.9682 5.31986 11.2698 5.31502C11.6476 5.31017 11.7372 5.62141 11.7069 5.94112H11.7081Z" fill="#2DA5E0"/>
</svg>
