<svg width="24" height="25" viewBox="0 0 24 25" fill="none" xmlns="http://www.w3.org/2000/svg">
<path fill-rule="evenodd" clip-rule="evenodd" d="M12.4507 4.77604C13.7094 3.59823 15.2324 2.50012 17.4005 2.50012C19.1107 2.50012 20.7885 3.19525 21.9975 4.40468C24.4809 6.88725 24.5066 11.0911 21.9977 13.5991C21.9976 13.5991 21.9977 13.599 21.9977 13.5991L13.1577 22.4391C12.9701 22.6266 12.7158 22.7319 12.4506 22.7319C12.1853 22.7319 11.931 22.6266 11.7434 22.4391L2.90344 13.5991C0.394165 11.0898 0.394165 6.91412 2.90344 4.40484C4.12267 3.18561 5.7763 2.50066 7.50055 2.50066C9.67271 2.50066 11.1918 3.5971 12.4507 4.77604ZM17.4005 4.50012C15.7152 4.50012 14.5739 5.46286 13.1577 6.87905C12.9701 7.06659 12.7158 7.17195 12.4506 7.17195C12.1853 7.17195 11.931 7.06659 11.7434 6.87905C10.3245 5.46012 9.18996 4.50066 7.50055 4.50066C6.30673 4.50066 5.16181 4.9749 4.31766 5.81905C2.58943 7.54728 2.58943 10.4566 4.31766 12.1848L12.4506 20.3177L20.5834 12.1848C22.3064 10.4627 22.2907 7.52553 20.5836 5.81922C19.7496 4.98487 18.5802 4.50012 17.4005 4.50012Z" fill="black"/>
</svg>
