<svg width="16" height="17" viewBox="0 0 16 17" fill="none" xmlns="http://www.w3.org/2000/svg">
<g clip-path="url(#clip0_614_4214)">
<path fill-rule="evenodd" clip-rule="evenodd" d="M3 7.22704C3 5.98978 3.51388 4.79361 4.44564 3.90215C5.40572 2.99704 6.67673 2.4951 7.99626 2.50004V2.50004H8C9.34047 2.50004 10.6175 3.00851 11.5528 3.90066L11.5528 3.90067L11.5569 3.90452C12.0103 4.33222 12.3721 4.84766 12.6202 5.41952C12.868 5.99078 12.9972 6.60643 13 7.22912C12.9991 9.03627 11.754 10.8548 10.2902 12.3297C9.58152 13.0438 8.86907 13.6298 8.33237 14.0377C8.21153 14.1296 8.10003 14.2121 8 14.2847C7.89997 14.2121 7.78847 14.1296 7.66763 14.0377C7.13093 13.6298 6.41848 13.0438 5.70977 12.3297C4.24542 10.8543 3 9.03488 3 7.22704ZM15 7.22704H14L15 7.22304C14.9964 6.32855 14.811 5.44414 14.455 4.62354C14.0994 3.80383 13.581 3.06489 12.9312 2.45155C11.6152 1.1973 9.84181 0.500515 8.00187 0.500043C6.16895 0.493667 4.40358 1.19166 3.0706 2.44982L3.07058 2.44981L3.06614 2.45405C1.7493 3.71237 1 5.42728 1 7.22704C1 9.87421 2.75458 12.1913 4.29023 13.7386C5.08152 14.5359 5.86907 15.1828 6.45737 15.63C6.75237 15.8542 6.9994 16.0298 7.17461 16.1506C7.26227 16.211 7.3321 16.2579 7.38115 16.2903C7.40567 16.3065 7.42501 16.3191 7.4388 16.328L7.45527 16.3387L7.4603 16.3419L7.462 16.343L7.46264 16.3434C7.4629 16.3436 7.46314 16.3437 8 15.5L7.46314 16.3437C7.7907 16.5522 8.2093 16.5522 8.53686 16.3437L8 15.5C8.53686 16.3437 8.5371 16.3436 8.53736 16.3434L8.538 16.343L8.5397 16.3419L8.54473 16.3387L8.5612 16.328C8.57499 16.3191 8.59433 16.3065 8.61885 16.2903C8.6679 16.2579 8.73773 16.211 8.82539 16.1506C9.0006 16.0298 9.24763 15.8542 9.54263 15.63C10.1309 15.1828 10.9185 14.5359 11.7098 13.7386C13.2454 12.1913 15 9.87421 15 7.22704ZM8 4.5C7.20435 4.5 6.44129 4.81607 5.87868 5.37868C5.31607 5.94129 5 6.70435 5 7.5C5 8.29565 5.31607 9.05871 5.87868 9.62132C6.44129 10.1839 7.20435 10.5 8 10.5C8.79565 10.5 9.55871 10.1839 10.1213 9.62132C10.6839 9.05871 11 8.29565 11 7.5C11 6.70435 10.6839 5.94129 10.1213 5.37868C9.55871 4.81607 8.79565 4.5 8 4.5ZM8.70711 8.20711C8.51957 8.39464 8.26522 8.5 8 8.5C7.73478 8.5 7.48043 8.39464 7.29289 8.20711C7.10536 8.01957 7 7.76522 7 7.5C7 7.23478 7.10536 6.98043 7.29289 6.79289C7.48043 6.60536 7.73478 6.5 8 6.5C8.26522 6.5 8.51957 6.60536 8.70711 6.79289C8.89464 6.98043 9 7.23478 9 7.5C9 7.76522 8.89464 8.01957 8.70711 8.20711Z" fill="#DF3151"/>
</g>
<defs>
<clipPath id="clip0_614_4214">
<rect width="16" height="16" fill="white" transform="translate(0 0.5)"/>
</clipPath>
</defs>
</svg>
