<svg width="24" height="25" viewBox="0 0 24 25" fill="none" xmlns="http://www.w3.org/2000/svg">
<path fill-rule="evenodd" clip-rule="evenodd" d="M5.1967 5.6967C6.60322 4.29018 8.51088 3.5 10.5 3.5C12.4891 3.5 14.3968 4.29018 15.8033 5.6967C17.2098 7.10322 18 9.01088 18 11C18 12.6528 17.4545 14.2493 16.4631 15.5489L20.7071 19.7929C21.0976 20.1834 21.0976 20.8166 20.7071 21.2071C20.3166 21.5976 19.6834 21.5976 19.2929 21.2071L15.0489 16.9631C13.7493 17.9545 12.1528 18.5 10.5 18.5C8.51088 18.5 6.60322 17.7098 5.1967 16.3033C3.79018 14.8968 3 12.9891 3 11C3 9.01088 3.79018 7.10322 5.1967 5.6967ZM10.5 5.5C9.04131 5.5 7.64236 6.07946 6.61091 7.11091C5.57946 8.14236 5 9.54131 5 11C5 12.4587 5.57946 13.8576 6.61091 14.8891C7.64236 15.9205 9.04131 16.5 10.5 16.5C11.9587 16.5 13.3576 15.9205 14.3891 14.8891C15.4205 13.8576 16 12.4587 16 11C16 9.54131 15.4205 8.14236 14.3891 7.11091C13.3576 6.07946 11.9587 5.5 10.5 5.5Z" fill="black"/>
</svg>
