<svg width="19" height="18" viewBox="0 0 19 18" fill="none" xmlns="http://www.w3.org/2000/svg">
<path fill-rule="evenodd" clip-rule="evenodd" d="M9.5 -0.00109863C7.11305 -0.00109863 4.82387 0.947114 3.13604 2.63494C1.44821 4.32277 0.5 6.61195 0.5 8.9989C0.5 11.3858 1.44821 13.675 3.13604 15.3629C4.82387 17.0507 7.11305 17.9989 9.5 17.9989C11.8869 17.9989 14.1761 17.0507 15.864 15.3629C17.5518 13.675 18.5 11.3858 18.5 8.9989C18.5 6.61195 17.5518 4.32277 15.864 2.63494C14.1761 0.947114 11.8869 -0.00109863 9.5 -0.00109863ZM4.55025 4.04915C5.86301 2.7364 7.64348 1.9989 9.5 1.9989C11.3565 1.9989 13.137 2.7364 14.4497 4.04915C15.7625 5.36191 16.5 7.14239 16.5 8.9989C16.5 10.8554 15.7625 12.6359 14.4497 13.9486C13.137 15.2614 11.3565 15.9989 9.5 15.9989C7.64348 15.9989 5.86301 15.2614 4.55025 13.9486C3.2375 12.6359 2.5 10.8554 2.5 8.9989C2.5 7.14239 3.2375 5.36191 4.55025 4.04915ZM8.94022 6.79961C9.14388 6.67985 9.38336 6.63608 9.61622 6.67603C9.84907 6.71599 10.0603 6.8371 10.2123 7.0179C10.3644 7.1987 10.4476 7.4275 10.4471 7.66376V7.6659C10.4471 7.80149 10.3321 8.04057 9.89234 8.33375C9.70295 8.46003 9.50644 8.55902 9.35334 8.62708C9.27821 8.66049 9.217 8.68491 9.1769 8.70019C9.15694 8.7078 9.14246 8.71305 9.1344 8.71591L9.12744 8.71836C8.60562 8.89435 8.32409 9.45944 8.49845 9.98227C8.67318 10.5062 9.23954 10.7893 9.76346 10.6145L9.76466 10.6141L9.76606 10.6137L9.76941 10.6125L9.77833 10.6095L9.80469 10.6002C9.82593 10.5927 9.85442 10.5823 9.88914 10.5691C9.95843 10.5427 10.0535 10.5046 10.1658 10.4546C10.3877 10.356 10.6912 10.2049 11.0018 9.99779C11.5618 9.62444 12.446 8.8642 12.4471 7.66803C12.4486 6.95926 12.1991 6.27284 11.7429 5.73044C11.2866 5.18805 10.653 4.82472 9.95447 4.70484C9.2559 4.58497 8.53746 4.7163 7.92648 5.07556C7.3155 5.43482 6.85145 5.9988 6.61658 6.66753C6.43358 7.18861 6.70764 7.75939 7.22872 7.9424C7.7498 8.12541 8.32058 7.85134 8.50359 7.33026C8.58188 7.10735 8.73656 6.91936 8.94022 6.79961ZM9.50009 11.3329C8.9478 11.3329 8.50009 11.7806 8.50009 12.3329C8.50009 12.8852 8.9478 13.3329 9.50009 13.3329H9.50709C10.0594 13.3329 10.5071 12.8852 10.5071 12.3329C10.5071 11.7806 10.0594 11.3329 9.50709 11.3329H9.50009Z" fill="#7C7C7C"/>
</svg>
