<svg width="52" height="24" viewBox="0 0 52 24" fill="none" xmlns="http://www.w3.org/2000/svg">
<path fill-rule="evenodd" clip-rule="evenodd" d="M33.2957 4.23196C34.0685 4.25279 34.8435 4.25279 35.6163 4.23196C35.6163 8.86611 35.5955 13.5003 35.6279 18.1344C34.8459 18.1252 34.0662 18.1252 33.2842 18.1344C33.3143 13.5003 33.2957 8.86611 33.2957 4.23196ZM38.5037 4.23428C40.5119 4.26667 42.5247 4.16487 44.5306 4.29212C46.5967 4.36847 48.6905 5.31473 49.9074 7.02217C51.439 9.11829 51.6218 12.0705 50.4812 14.3817C49.838 15.7514 48.6488 16.8226 47.2769 17.438C45.9905 18.0534 44.5352 18.1298 43.1332 18.1182C41.59 18.1136 40.0468 18.1159 38.5037 18.1159C38.499 13.4887 38.5037 8.86148 38.5037 4.23428ZM40.8797 6.40675C40.8728 9.59721 40.8797 12.7877 40.8797 15.9781C42.1707 15.9457 43.4687 16.0452 44.755 15.8948C45.8702 15.7745 46.9529 15.254 47.6702 14.3794C49.0514 12.6998 49.1139 10.1155 47.9293 8.31316C47.4272 7.55199 46.6175 7.05456 45.7985 6.70289C44.2044 6.23092 42.5178 6.45302 40.8821 6.40675H40.8797Z" fill="black"/>
<path fill-rule="evenodd" clip-rule="evenodd" d="M7.45518 0.10209C10.8863 -0.0413536 14.3266 -0.0182175 17.7577 0.0766402C19.5646 0.173812 21.545 0.294119 22.9771 1.53884C24.2705 2.73497 24.6152 4.59048 24.6869 6.2771C24.8674 10.1177 24.8674 13.9629 24.6823 17.8035C24.6013 19.4855 24.2427 21.3502 22.9031 22.5047C21.6792 23.5458 20.0088 23.7957 18.4564 23.8628C14.551 24.0479 10.6341 24.0525 6.73334 23.835C5.10919 23.7402 3.33003 23.3214 2.2542 22.0073C1.2501 20.7626 1.01643 19.1037 0.949331 17.5536C0.780438 13.7176 0.775811 9.87244 0.972467 6.0388C1.05807 4.42159 1.43982 2.66325 2.68222 1.52727C3.99635 0.398231 5.79402 0.19232 7.45518 0.10209ZM4.8894 7.18634C4.96575 10.002 5.68528 13.0212 7.82305 15.0017C9.44488 16.6212 11.7955 17.1788 14.0212 17.2135C14.0374 16.0151 14.0142 14.8143 14.042 13.6158C15.9461 13.8611 17.5286 15.358 18.0422 17.1811C19.0047 17.2158 19.9671 17.2042 20.9319 17.1996C20.3026 15.1012 18.9075 13.1878 16.9363 12.1768C18.6669 11.0292 19.8839 9.22231 20.3466 7.20254C19.4744 7.17477 18.5975 7.17477 17.7253 7.18634C17.1816 8.94931 15.9507 10.7655 14.0328 11.1565C14.0212 9.83079 14.0351 8.50741 14.0258 7.18172H11.3837C11.3721 9.493 11.3929 11.8066 11.3721 14.1156C10.3495 13.8032 9.49578 13.0768 8.9382 12.1768C7.96418 10.7007 7.6958 8.90535 7.6287 7.17709C6.71714 7.18172 5.80327 7.18172 4.89171 7.18403L4.8894 7.18634Z" fill="#0077FF"/>
</svg>
