<svg width="16" height="17" viewBox="0 0 16 17" fill="none" xmlns="http://www.w3.org/2000/svg">
<path fill-rule="evenodd" clip-rule="evenodd" d="M13.6696 2.83648C12.1655 1.33115 10.1649 0.5 8.03407 0.5C3.64344 0.5 0.0693627 4.07286 0.0669288 8.46593C0.0669288 9.87025 0.433221 11.2405 1.13051 12.4489L0 16.5767L4.2227 15.4681C5.38607 16.1033 6.69668 16.4379 8.02921 16.4379H8.03286C12.4235 16.4379 15.9976 12.8639 16 8.47079C16.0012 6.34241 15.1737 4.34058 13.6696 2.83526V2.83648ZM11.6653 10.1343C11.467 10.0345 10.4874 9.55263 10.3048 9.48692C10.1223 9.42121 9.98966 9.38713 9.85701 9.58549C9.72437 9.78385 9.34347 10.2329 9.22665 10.3667C9.11104 10.4994 8.99422 10.5164 8.79464 10.4166C8.59629 10.3169 7.95376 10.1075 7.19319 9.42851C6.60176 8.90037 6.2014 8.24932 6.08579 8.04974C5.97019 7.85017 6.07362 7.74308 6.17341 7.64329C6.26346 7.55446 6.37177 7.41086 6.47277 7.29404C6.57378 7.17843 6.60663 7.09568 6.67356 6.96304C6.73928 6.83039 6.70764 6.71357 6.65653 6.61378C6.60663 6.51521 6.2087 5.53438 6.0432 5.13645C5.88135 4.74825 5.71707 4.80058 5.59538 4.79449C5.47977 4.78841 5.34713 4.78719 5.21326 4.78719C5.0794 4.78719 4.86523 4.83709 4.68269 5.03666C4.50015 5.23624 3.9854 5.71813 3.9854 6.69775C3.9854 7.67737 4.69851 8.62413 4.7983 8.75677C4.89808 8.88941 6.2014 10.901 8.19836 11.7625C8.67295 11.967 9.04411 12.0899 9.33374 12.1824C9.81077 12.3333 10.2452 12.3126 10.5884 12.2615C10.9705 12.2043 11.7664 11.7796 11.9319 11.3147C12.0974 10.8499 12.0986 10.4507 12.0475 10.368C11.9976 10.284 11.8649 10.2341 11.6666 10.1343H11.6653Z" fill="#24D366"/>
</svg>
