<svg width="75" height="24" viewBox="0 0 75 24" fill="none" xmlns="http://www.w3.org/2000/svg">
<path fill-rule="evenodd" clip-rule="evenodd" d="M51.8437 12C51.8437 18.6284 46.4722 24 39.8437 24C33.2153 24 27.8438 18.6284 27.8438 12C27.8438 5.37157 33.2153 0 39.8437 0C38.9644 0 38.0851 0.0979689 37.2273 0.289128L37.7768 2.74791C33.5355 3.69176 30.367 7.4767 30.367 12C30.367 17.2354 34.6108 21.4791 39.8461 21.4791C45.0815 21.4791 49.3252 17.2354 49.3252 12H51.8461H51.8437ZM39.8437 0V2.52091C44.3694 2.52091 48.152 5.69176 49.0958 9.93071L51.5546 9.38112C51.7458 10.2413 51.8437 11.1183 51.8437 11.9976C51.8437 5.37156 46.4698 0 39.8437 0ZM39.8437 19.0944C42.7637 19.0944 45.2703 17.3309 46.3599 14.81L44.0492 13.8017C43.3491 15.4313 41.7291 16.5735 39.8437 16.5735C37.9584 16.5735 36.3718 15.4552 35.6621 13.8542L33.3515 14.8626C34.4507 17.3548 36.9453 19.0944 39.8461 19.0944H39.8437Z" fill="black"/>
<path fill-rule="evenodd" clip-rule="evenodd" d="M55.9336 2.71216V20.8412H59.0495V2.71216H55.9336ZM61.6182 2.71216V20.8412H65.5561C70.5023 20.8412 74.0602 17.6082 74.0602 11.6871C74.0602 5.00845 70.531 2.71455 65.8165 2.71455H61.6182V2.71216ZM65.3123 18.3896H64.746V5.16616H65.568C68.7126 5.16616 70.9037 6.76951 70.9037 11.6369C70.8942 16.122 68.6767 18.392 65.3028 18.392H65.3123V18.3896Z" fill="black"/>
<path fill-rule="evenodd" clip-rule="evenodd" d="M10.68 0.0980496C13.0695 -0.212584 15.5498 0.219913 17.6907 1.32386C20.2714 2.64046 22.3407 4.9272 23.3873 7.62493C24.3837 10.1482 24.4816 13.0132 23.6597 15.5986C22.9189 17.981 21.404 20.1052 19.4088 21.601C17.5306 23.0132 15.2319 23.8519 12.8855 23.9786C10.41 24.1219 7.90101 23.4696 5.80782 22.1434C3.4255 20.6429 1.59993 18.282 0.765999 15.5915C0.0324273 13.2689 0.0324273 10.7217 0.765999 8.39913C1.49718 6.04787 2.98344 3.94512 4.94282 2.45408C6.60351 1.18527 8.60351 0.365672 10.68 0.0980496Z" fill="#FC3F1D"/>
<path fill-rule="evenodd" clip-rule="evenodd" d="M7.97693 6.42545C6.95662 7.72294 6.8706 9.52939 7.30309 11.0682C7.74276 12.521 8.91122 13.5915 10.1155 14.4422C8.9829 16.1268 7.84312 17.809 6.71289 19.4983C7.65674 19.5007 8.60058 19.4983 9.54443 19.4983C10.818 17.6106 12.0892 15.7229 13.3557 13.8305C12.5671 13.2785 11.7428 12.7695 10.9925 12.1674C10.1872 11.5055 9.6663 10.5091 9.66152 9.46009C9.53487 8.47323 10.0223 7.41469 10.9327 6.96786C11.8957 6.42545 13.0259 6.53775 14.0892 6.53536C14.0892 10.8579 14.0892 15.1781 14.0892 19.5007C14.9662 19.5007 15.8407 19.5007 16.7153 19.5007V4.50191C15.0331 4.53297 13.3461 4.42067 11.6711 4.58793C10.2852 4.74803 8.85865 5.29044 7.98171 6.42545H7.97693Z" fill="#FEFEFE"/>
</svg>
