<svg width="32" height="32" viewBox="0 0 32 32" fill="none" xmlns="http://www.w3.org/2000/svg">
<g clip-path="url(#clip0_703_5360)">
<path d="M29.927 0H2.05794C0.916121 0 -0.000244141 0.923636 -0.000244141 2.05818V16.4655C-0.000244141 17.6073 0.923394 18.5236 2.05794 18.5236H29.927C31.0688 18.5236 31.9852 17.6 31.9852 16.4655V2.05818C31.9852 0.916364 31.0616 0 29.927 0ZM30.5307 16.4727C30.5307 16.8073 30.2616 17.0764 29.927 17.0764H2.05794C1.72339 17.0764 1.4543 16.8073 1.4543 16.4727V2.05818C1.4543 1.72364 1.72339 1.45455 2.05794 1.45455H29.927C30.2616 1.45455 30.5307 1.72364 30.5307 2.05818V16.4727Z" fill="#191C30"/>
<path d="M29.927 25.0764H26.1961C26.2616 24.88 26.2979 24.6764 26.2979 24.4582V22.6545C26.2979 21.5127 25.3743 20.5964 24.2398 20.5964H15.527C14.3852 20.5964 13.4688 21.52 13.4688 22.6545V24.4582C13.4688 24.6764 13.5125 24.88 13.5707 25.0764H2.06521C0.923392 25.0764 0.00703014 26 0.00703014 27.1345V27.1855C0.00703014 28.3273 0.930665 29.2436 2.06521 29.2436H5.7743C5.71612 29.4327 5.67248 29.6364 5.67248 29.8473C5.67248 30.9891 6.59612 31.9055 7.73067 31.9055H8.77794C9.91976 31.9055 10.8361 30.9818 10.8361 29.8473C10.8361 29.6364 10.7925 29.4327 10.7343 29.2436H21.2579C21.1998 29.4327 21.1561 29.6364 21.1561 29.8473C21.1561 30.9891 22.0798 31.9055 23.2143 31.9055H24.2325C25.3743 31.9055 26.2907 30.9818 26.2907 29.8473C26.2907 29.6364 26.247 29.4327 26.1888 29.2436H29.9198C31.0616 29.2436 31.9779 28.32 31.9779 27.1855V27.1345C31.9779 25.9927 31.0543 25.0764 29.9198 25.0764H29.927ZM14.9161 22.6618C14.9161 22.3273 15.1852 22.0582 15.5198 22.0582H24.2325C24.567 22.0582 24.8361 22.3273 24.8361 22.6618V24.4655C24.8361 24.8 24.567 25.0691 24.2325 25.0691H15.5198C15.1852 25.0691 14.9161 24.8 14.9161 24.4655V22.6618ZM9.38885 29.8618C9.38885 30.1964 9.11976 30.4655 8.78521 30.4655H7.73794C7.40339 30.4655 7.1343 30.1964 7.1343 29.8618C7.1343 29.5273 7.40339 29.2655 7.73067 29.2582H8.80703C9.1343 29.2582 9.40339 29.5345 9.40339 29.8618H9.38885ZM24.8507 29.8618C24.8507 30.1964 24.5816 30.4655 24.247 30.4655H23.2288C22.8943 30.4655 22.6252 30.1964 22.6252 29.8618C22.6252 29.5273 22.8943 29.2655 23.2216 29.2582H24.2616C24.5888 29.2582 24.8579 29.5345 24.8579 29.8618H24.8507ZM30.5379 27.1927C30.5379 27.5273 30.2688 27.7964 29.9343 27.7964H24.2688C24.2688 27.7964 24.2543 27.7964 24.2398 27.7964H23.2216C23.2216 27.7964 23.207 27.7964 23.1925 27.7964H8.79976C8.79976 27.7964 8.78521 27.7964 8.77067 27.7964H7.72339C7.72339 27.7964 7.70885 27.7964 7.6943 27.7964H2.05066C1.71612 27.7964 1.44703 27.5273 1.44703 27.1927V27.1418C1.44703 26.8073 1.71612 26.5382 2.05066 26.5382H29.9198C30.2543 26.5382 30.5234 26.8073 30.5234 27.1418V27.1927H30.5379Z" fill="#191C30"/>
</g>
<defs>
<clipPath id="clip0_703_5360">
<rect width="32" height="32" fill="white" transform="translate(-0.000244141)"/>
</clipPath>
</defs>
</svg>
