<svg width="296" height="149" viewBox="0 0 296 149" fill="none" xmlns="http://www.w3.org/2000/svg">
<path d="M248.84 146.368V119.048H186.248V99.8833L253.326 2.63153H274.937V97.4367H295.122V119.048H274.937V146.368H248.84ZM248.84 97.4367V42.5924L211.326 97.4367H248.84Z" fill="#DF3151"/>
<path d="M143.717 148.407C128.358 148.407 116.6 143.786 108.445 134.543C100.426 125.165 96.4161 111.708 96.4161 94.1746C96.4161 74.8738 98.7947 58.2914 103.552 44.4274C108.445 30.4275 115.309 19.6217 124.144 12.0101C133.115 4.39851 143.649 0.592712 155.746 0.592712C171.105 0.592712 182.794 5.21404 190.814 14.4567C198.969 23.6994 203.046 37.0197 203.046 54.4176C203.046 73.7184 200.6 90.4368 195.707 104.573C190.949 118.573 184.085 129.378 175.115 136.99C166.28 144.601 155.814 148.407 143.717 148.407ZM144.94 127C154.59 127 162.406 120.611 168.386 107.835C174.503 95.0581 177.629 75.9612 177.765 50.5438C177.901 31.5148 170.153 22.0003 154.522 22.0003C145.008 22.0003 137.125 28.3887 130.872 41.1653C124.756 53.9419 121.697 72.9709 121.697 98.2523C121.697 117.417 129.445 127 144.94 127Z" fill="#DF3151"/>
<path d="M63.4668 146.368V119.048H0.875V99.8833L67.9522 2.63153H89.5637V97.4367H109.748V119.048H89.5637V146.368H63.4668ZM63.4668 97.4367V42.5924L25.9525 97.4367H63.4668Z" fill="#DF3151"/>
</svg>
