<svg width="64" height="63" viewBox="0 0 64 63" fill="none" xmlns="http://www.w3.org/2000/svg">
<path d="M0.304754 27.6932C4.23895 22.8229 8.17191 17.9513 12.1073 13.081C12.8004 12.223 13.2877 12.1449 14.2313 12.7425C16.1643 13.9663 18.0812 15.2149 20.0303 16.4101C20.6168 16.7697 21.2664 17.0623 21.9248 17.257C23.8206 17.8149 25.7326 18.3183 27.6445 18.8155C27.9445 18.8936 28.3016 18.8912 28.5992 18.8081C30.6029 18.2539 32.5954 17.6599 34.5978 17.1008C34.9884 16.9916 35.405 16.9284 35.8105 16.9259C38.4502 16.911 41.0899 16.9284 43.7297 16.9048C44.0756 16.9011 44.4649 16.7908 44.7575 16.6085C46.8046 15.3351 48.8306 14.0283 50.8665 12.7363C51.8002 12.1436 52.3184 12.2292 52.9843 13.0934C56.394 17.5186 59.8025 21.9463 63.2072 26.3764C63.8842 27.2567 63.8197 27.8135 62.9654 28.5512C61.1552 30.1147 59.335 31.6671 57.5322 33.2392C57.3078 33.4352 57.1094 33.6918 56.9792 33.9596C55.7604 36.4816 54.554 39.0085 53.3649 41.5441C53.2694 41.7474 53.2421 42.0686 53.3339 42.2632C54.7796 45.3109 53.0091 48.4218 49.6303 48.7404C49.5708 48.7454 49.5138 48.7727 49.4592 48.7876C49.1592 51.7484 47.251 53.085 44.9559 53.2487C44.9014 54.4229 44.5269 55.4929 43.6751 56.3497C42.8233 57.2077 41.7756 57.6293 40.5208 57.6702C40.3807 59.5995 39.5326 61.0849 37.6938 61.8027C35.8538 62.5206 34.2172 62.0272 32.7541 60.6484C31.4882 62.1164 29.9668 62.9534 28.0003 62.4835C26.0425 62.016 24.975 60.6881 24.5956 58.7241C24.1938 58.7042 23.7872 58.708 23.3867 58.6584C21.3371 58.403 19.8096 56.8494 19.5802 54.7911C19.5442 54.4675 19.5306 54.2344 19.083 54.1836C16.6491 53.9083 15.0818 52.0882 15.1215 49.6418C15.124 49.5017 15.1215 49.3604 15.1215 49.2004C14.7818 49.1124 14.4594 49.0529 14.1519 48.9475C11.3894 47.9977 10.3219 44.6327 12.0528 42.2496C12.3305 41.8677 12.297 41.6507 12.0367 41.3023C10.4 39.1275 8.80177 36.9255 7.15394 34.7606C6.77329 34.2597 6.26619 33.848 5.78635 33.4302C4.19928 32.0489 2.59609 30.6888 1.00778 29.31C0.749882 29.0856 0.535385 28.8116 0.299805 28.5611C0.299805 28.2722 0.299805 27.9833 0.299805 27.6944L0.304754 27.6932ZM21.4785 42.5658C24.5063 42.1925 26.6563 44.0053 26.8522 46.9314C30.1925 47.2302 31.5737 49.8006 31.1757 52.3014C31.2067 52.3275 31.234 52.3733 31.2675 52.3783C33.9221 52.8085 35.6542 55.7434 34.5061 58.4612C34.4552 58.5815 34.4775 58.8406 34.5544 58.8865C35.002 59.1543 35.4558 59.5015 35.9481 59.5895C36.749 59.7334 37.3876 59.3254 37.7794 58.6051C38.16 57.9058 38.0571 57.0428 37.4769 56.4241C36.6449 55.5376 35.7733 54.687 34.919 53.8215C34.7888 53.6889 34.6511 53.5636 34.5284 53.4248C34.0188 52.8532 34.0064 52.1402 34.4924 51.6455C34.971 51.1595 35.7336 51.1434 36.268 51.6641C37.2276 52.599 38.1613 53.5612 39.1011 54.5171C39.6343 55.059 40.2666 55.2945 41.0106 55.1098C42.4712 54.7477 42.9374 53.0106 41.8512 51.8786C40.3522 50.3163 38.8098 48.7962 37.2884 47.2563C36.9846 46.9488 36.6647 46.6512 36.3982 46.3127C36.02 45.8329 36.0783 45.1534 36.4849 44.7281C36.909 44.2842 37.6095 44.221 38.1179 44.5955C38.2828 44.717 38.4242 44.8695 38.5692 45.0158C40.2084 46.6711 41.8487 48.3263 43.4829 49.9865C44.0409 50.5544 44.6807 50.8656 45.4841 50.6486C46.972 50.2469 47.3824 48.5123 46.2516 47.3617C43.8078 44.8769 41.3503 42.407 38.899 39.9297C38.6523 39.6805 38.3919 39.4412 38.1799 39.1647C37.7831 38.6489 37.8488 37.9781 38.3064 37.5367C38.7292 37.1288 39.4086 37.078 39.8947 37.4413C40.1079 37.6012 40.2902 37.8008 40.4787 37.9918C42.9733 40.5125 45.4618 43.0394 47.9639 45.5527C48.8554 46.4491 50.0284 46.4875 50.8182 45.689C51.6117 44.8856 51.5472 43.7424 50.6408 42.8348C45.8896 38.0798 41.1395 33.3248 36.3709 28.5859C36.1527 28.3689 35.777 28.2313 35.462 28.2028C34.0052 28.0689 32.5421 28.0056 31.084 27.873C30.6574 27.8345 30.4243 27.9176 30.2074 28.3144C29.2898 29.9957 28.345 31.6621 27.3792 33.3161C26.3538 35.0693 24.3997 35.8963 22.5175 35.4165C19.6558 34.6887 18.3192 31.5741 19.7761 28.9442C21.2032 26.3677 22.6762 23.8173 24.1281 21.2544C24.2484 21.0424 24.36 20.8266 24.51 20.5489C23.3445 20.2327 22.2423 19.9141 21.1263 19.6512C20.9639 19.6128 20.6812 19.7913 20.551 19.95C16.9826 24.2748 13.4266 28.6107 9.86932 32.9442C9.70441 33.145 9.5482 33.3533 9.38453 33.5641C11.0014 35.7414 12.581 37.8678 14.1631 39.9979C16.6838 37.9285 20.6093 38.8473 21.4772 42.5608L21.4785 42.5658ZM51.2162 40.1852C51.4344 39.7673 51.5212 39.6098 51.5993 39.4487C52.5602 37.4425 53.505 35.4301 54.4882 33.4352C54.6866 33.0309 54.611 32.7755 54.3544 32.4507C51.0302 28.2449 47.7147 24.033 44.4104 19.8112C44.1673 19.5 43.9219 19.3871 43.5338 19.3896C41.08 19.407 38.625 19.3908 36.1712 19.4057C35.7658 19.4082 35.3467 19.4615 34.9574 19.5719C32.3635 20.3084 29.7796 21.0808 27.182 21.8062C26.7195 21.9351 26.448 22.167 26.2273 22.5749C25.6197 23.6982 24.9737 24.8005 24.3451 25.9127C23.5429 27.3287 22.7271 28.7372 21.9472 30.1655C21.3371 31.2815 21.7686 32.4953 22.887 32.9318C23.8033 33.2888 24.7468 32.9231 25.2924 31.9696C26.3971 30.0378 27.4982 28.1048 28.5794 26.1607C28.9191 25.5494 29.3803 25.2717 30.0871 25.3262C32.1639 25.4849 34.2407 25.6263 36.3188 25.754C36.9102 25.7912 37.3566 26.0293 37.7744 26.4496C42.0955 30.7917 46.4327 35.1165 50.7562 39.4548C50.9273 39.626 51.0215 39.8727 51.2137 40.1864L51.2162 40.1852ZM13.5469 15.2496C10.095 19.526 6.68899 23.7466 3.27059 27.9808C4.76095 29.2604 6.19178 30.4892 7.6499 31.7402C11.3113 27.2803 14.9219 22.8799 18.5647 18.4423C16.8661 17.3624 15.2381 16.3258 13.5469 15.2496ZM46.507 18.4609C49.799 22.6481 53.0537 26.7881 56.3431 30.9727C57.8298 29.6931 59.2705 28.452 60.7187 27.2047C57.6264 23.1886 54.5887 19.2433 51.5261 15.2669C49.8374 16.3419 48.1933 17.3884 46.507 18.4609ZM17.5009 49.7324C17.6063 50.5866 17.9497 51.193 18.6639 51.5364C19.3967 51.8885 20.1394 51.8253 20.7358 51.2611C21.7835 50.2705 22.8101 49.2538 23.7983 48.2036C24.541 47.4137 24.4815 46.2408 23.745 45.5266C23.0085 44.8124 21.8616 44.8199 21.073 45.5837C20.0811 46.5446 19.0929 47.5117 18.1543 48.5235C17.853 48.8483 17.7142 49.3257 17.5009 49.7336V49.7324ZM21.9211 54.2443C22.06 55.1073 22.4171 55.7012 23.1399 56.0323C23.9124 56.3856 24.6452 56.2604 25.2527 55.6739C26.2459 54.7143 27.2304 53.7434 28.1826 52.7441C28.9675 51.9208 28.9476 50.7677 28.1937 50.0213C27.4399 49.2748 26.3004 49.2897 25.4784 50.0894C24.5038 51.038 23.5256 51.9877 22.6043 52.9871C22.2906 53.3268 22.1443 53.8215 21.9211 54.2456V54.2443ZM32.3735 56.4266C32.3697 55.943 32.0411 55.3627 31.3555 55.0131C30.645 54.6523 29.9296 54.7118 29.337 55.2226C28.686 55.7843 28.071 56.3993 27.5081 57.0502C26.975 57.6677 26.9452 58.4154 27.3234 59.1271C27.6929 59.8226 28.314 60.15 29.1063 60.1103C30.2569 60.0533 32.3623 57.8549 32.3735 56.4241V56.4266ZM17.0793 41.306C16.7098 41.4622 16.2734 41.5416 15.9845 41.7908C15.3162 42.3649 14.6814 42.9886 14.1036 43.6531C13.4886 44.3611 13.5865 45.4572 14.2375 46.1292C14.881 46.7938 15.9994 46.9302 16.7086 46.3288C17.3955 45.7473 18.0415 45.1001 18.6156 44.4082C19.1103 43.8131 19.1425 43.0791 18.7743 42.3798C18.4296 41.7226 17.858 41.4065 17.0781 41.306H17.0793Z" fill="#DF3151"/>
<path d="M48.5851 4.73774C48.3285 5.18906 48.2094 5.55855 47.9652 5.80529C45.2101 8.58762 42.4402 11.3538 39.6665 14.1163C39.0664 14.714 38.3237 14.7264 37.8079 14.192C37.2983 13.665 37.3132 12.9682 37.8984 12.3792C40.6597 9.60434 43.4321 6.83937 46.1996 4.07068C46.6174 3.65283 47.1332 3.43337 47.649 3.73467C48.016 3.94917 48.259 4.37445 48.5864 4.73774H48.5851Z" fill="#DF3151"/>
<path d="M26.5174 13.0823C26.541 14.2031 25.5999 14.8342 24.7915 14.4598C24.5918 14.3668 24.4083 14.218 24.2509 14.0605C21.5219 11.3402 18.799 8.61367 16.0725 5.88961C15.6869 5.50525 15.4327 5.08244 15.6088 4.51085C15.8617 3.68756 16.7904 3.35154 17.4972 3.8413C17.6645 3.95785 17.8096 4.10912 17.9547 4.25543C20.5932 6.89145 23.2354 9.52375 25.8615 12.1722C26.1653 12.4797 26.3748 12.8802 26.5174 13.0823Z" fill="#DF3151"/>
<path d="M30.7454 9.8126C30.7454 8.70041 30.7392 7.58822 30.7479 6.47604C30.7541 5.64655 31.2674 5.07247 31.9829 5.07123C32.702 5.06999 33.2203 5.64035 33.2227 6.47232C33.2302 8.71777 33.2302 10.9632 33.2227 13.2087C33.219 14.0394 32.6908 14.5924 31.9568 14.575C31.2464 14.5589 30.7566 14.0196 30.7492 13.2124C30.7392 12.0791 30.7467 10.9471 30.7467 9.81384L30.7454 9.8126Z" fill="#DF3151"/>
<path d="M31.9928 0.100514C32.6859 0.105474 33.2401 0.680785 33.2203 1.37389C33.2017 2.03475 32.64 2.57411 31.9766 2.57039C31.3121 2.56667 30.7603 2.02111 30.7492 1.35777C30.738 0.664667 31.3022 0.0943144 31.9928 0.100514Z" fill="#DF3151"/>
</svg>
