<svg width="64" height="62" viewBox="0 0 64 62" fill="none" xmlns="http://www.w3.org/2000/svg">
<path d="M0.0996094 41.7182C0.472818 40.4858 1.34199 39.7381 2.47029 39.2025C3.15596 38.8764 3.80318 38.4684 4.54588 38.0531C4.22227 37.4691 3.90609 36.9025 3.59488 36.3333C3.07412 35.3811 3.25143 34.7835 4.21235 34.2478C6.20982 33.1357 8.20605 32.0197 10.211 30.9212C10.5247 30.7488 10.6338 30.5616 10.5991 30.1959C10.087 24.6944 11.3951 19.6518 14.4613 15.0604C14.5382 14.9451 14.6101 14.8249 14.7502 14.6029C13.9914 14.6029 13.3243 14.6029 12.6573 14.6029C10.5743 14.5992 9.52282 13.5589 9.52158 11.497C9.52158 8.69233 9.5191 5.88768 9.52158 3.08304C9.52282 1.14508 10.5619 0.102324 12.4961 0.102324C16.8891 0.0998439 21.282 0.0998439 25.675 0.102324C27.5509 0.103564 28.5825 1.13268 28.5924 3.00244C28.5962 3.80342 28.5924 4.60563 28.5924 5.44132C29.6426 5.31237 30.6333 5.14622 31.6314 5.07431C38.3554 4.58703 44.2275 6.59566 49.2132 11.1424C49.605 11.4995 49.9819 11.6631 50.5151 11.6582C53.7115 11.6346 56.908 11.6445 60.1044 11.647C62.2135 11.6495 63.4534 12.8857 63.4559 14.9848C63.4583 17.6035 63.4596 20.2234 63.4559 22.842C63.4534 24.9065 62.216 26.1402 60.1416 26.1501C58.9513 26.155 57.7598 26.1501 56.4926 26.1501C56.6191 28.4873 56.5162 30.7427 56.0214 32.9658C55.5317 35.1629 54.7406 37.2509 53.585 39.3376C54.8324 39.3376 55.9557 39.3488 57.0791 39.3339C58.1094 39.3203 59.0344 39.5992 59.8292 40.2589C60.8074 41.071 61.3059 42.1336 61.3208 43.3946C61.3456 45.3945 61.3518 47.3957 61.3208 49.3957C61.2898 51.382 60.0672 52.8698 58.1479 53.3844C57.885 53.4551 57.6197 53.6163 57.4188 53.8022C56.1677 54.9702 54.9278 56.1506 53.6966 57.3397C53.249 57.7724 52.7704 58.0427 52.1443 57.7823C51.4921 57.5108 51.3445 56.959 51.3545 56.313C51.3681 55.3918 51.3582 54.4693 51.3582 53.4824C50.2212 53.4824 49.1536 53.4824 48.0873 53.4824C47.2628 53.4824 46.437 53.491 45.6125 53.4799C43.4824 53.4514 41.9523 52.1767 41.5159 50.0788C41.4911 49.9598 41.4551 49.8445 41.439 49.7825C39.8929 50.1284 38.3752 50.4731 36.8563 50.8042C36.5761 50.8649 36.2848 50.8897 35.9971 50.9046C35.2618 50.9418 34.7113 50.5128 34.6283 49.8544C34.5427 49.1824 34.9482 48.6319 35.6722 48.4819C36.8402 48.2388 38.0181 48.0429 39.1799 47.7714C39.8185 47.6226 40.4273 47.3498 41.0546 47.1527C41.3621 47.0572 41.4551 46.8811 41.4489 46.565C41.4303 45.5545 41.4341 44.5439 41.444 43.5334C41.4663 41.0921 43.1711 39.3699 45.6088 39.3376C47.114 39.3178 48.6205 39.3203 50.1257 39.3426C50.5188 39.3488 50.7568 39.2409 50.9713 38.8925C53.2775 35.1418 54.2732 31.0687 54.0438 26.6795C54.0215 26.2431 53.8553 26.1352 53.4437 26.1389C50.9689 26.155 48.494 26.1501 46.0192 26.1464C43.8605 26.1426 42.6603 24.9337 42.6591 22.7676C42.6566 20.3139 42.6591 17.8601 42.6591 15.4051C42.6591 12.9464 43.4042 12.0363 45.9597 11.5453C45.0248 10.9638 44.2226 10.3972 43.3621 9.93966C38.8786 7.55038 34.1422 6.89076 29.1628 7.90623C28.6929 8.00171 28.5701 8.19265 28.5838 8.64149C28.6135 9.69293 28.6011 10.7444 28.5912 11.7958C28.5738 13.4734 27.4753 14.5856 25.7952 14.5967C23.3415 14.6128 20.8865 14.593 18.4327 14.6141C18.1823 14.6166 17.845 14.7269 17.6962 14.9079C14.2679 19.0678 12.7391 23.8575 12.9797 29.225C13.0429 29.2449 13.0925 29.2783 13.116 29.2647C14.8097 28.3273 16.5332 27.4383 18.1823 26.4278C19.3118 25.7347 19.9119 24.558 20.3595 23.3479C20.6794 22.4825 20.8319 21.5563 21.1481 20.6896C21.2981 20.2792 21.5759 19.8105 21.9317 19.5985C23.6304 18.5879 25.3724 17.6481 27.1058 16.6983C27.9266 16.2483 28.5552 16.4342 29.0202 17.26C29.8286 18.6958 30.6209 20.1403 31.4231 21.5811C31.531 21.7757 31.65 21.9629 31.7591 22.1477C35.3883 20.8384 38.3145 21.7075 39.8755 24.532C41.4266 27.3391 40.6021 30.2926 37.5792 32.6422C38.3405 34.016 39.1068 35.3985 39.873 36.7797C40.1433 37.2657 40.4297 37.7431 40.6814 38.2391C41.0249 38.916 40.8649 39.5868 40.219 39.9538C38.4112 40.983 36.5984 42.0059 34.7535 42.9656C34.4249 43.1367 33.9178 43.0722 33.5223 42.9854C32.3989 42.7399 31.3041 42.3518 30.1745 42.1571C28.8479 41.9302 27.5484 42.1026 26.3643 42.8403C25.8262 43.1751 25.2584 43.464 24.6434 43.8062C25.2026 44.813 25.7394 45.7789 26.2751 46.746C26.8863 47.8483 26.7301 48.4112 25.6452 49.0175C24.3904 49.718 23.1344 50.4173 21.8362 51.1402C22.5913 51.8903 23.3179 52.5636 23.9899 53.2877C26.0184 55.4736 25.6204 58.9677 23.1704 60.6564C22.3744 61.2044 21.9553 61.1809 21.1493 60.639C16.5506 57.5529 12.971 53.563 10.4366 48.6356C10.211 48.1967 9.95555 47.7739 9.68029 47.2829C8.84088 47.7466 8.01883 48.1992 7.19802 48.6542C5.18195 49.7701 3.52792 49.3113 2.42318 47.3015C1.63212 45.8619 0.874545 44.4038 0.102089 42.9532C0.102089 42.5403 0.102089 42.1286 0.102089 41.7157L0.0996094 41.7182ZM31.5397 39.784C28.6247 34.5429 25.7295 29.3378 22.7848 24.0435C22.6521 24.3373 22.5665 24.5208 22.4847 24.7044C21.6168 26.6671 20.3149 28.1885 18.3769 29.2263C14.5097 31.2956 10.6995 33.4692 6.86573 35.6018C6.65866 35.7171 6.46028 35.8498 6.23338 35.9887C8.39948 39.8819 10.5358 43.7244 12.6883 47.5928C12.9511 47.4577 13.1532 47.3597 13.3479 47.2519C17.3255 45.0399 21.3068 42.8354 25.277 40.6097C26.4586 39.9476 27.7121 39.6067 29.0562 39.624C29.8559 39.6352 30.6531 39.7232 31.5397 39.7815V39.784ZM53.8355 53.6572C53.9682 53.6076 54.0153 53.6026 54.0413 53.5778C54.7617 52.8996 55.4635 52.2015 56.2062 51.5481C56.4728 51.3138 56.8162 51.0943 57.1559 51.0311C58.4231 50.7918 58.8521 50.3305 58.8546 49.041C58.8583 47.268 58.8596 45.4949 58.8546 43.7231C58.8509 42.4212 58.2595 41.8162 56.9774 41.8149C53.2465 41.81 49.5145 41.8087 45.7836 41.8149C44.5264 41.8174 43.9262 42.42 43.9213 43.6723C43.9151 45.4453 43.9188 47.2184 43.92 48.9902C43.9213 50.4384 44.4904 51.0075 45.9386 51.0088C48.0625 51.0112 50.1852 51.0075 52.3092 51.01C53.4102 51.0112 53.8268 51.4365 53.8355 52.5512C53.838 52.8971 53.8355 53.2443 53.8355 53.6572ZM60.9835 15.4349C60.7405 15.611 60.5929 15.7114 60.4516 15.8217C59.1013 16.8707 57.7635 17.9382 56.3984 18.9686C54.2806 20.5656 51.7041 20.5557 49.5814 18.9698C49.1524 18.6487 48.7333 18.3139 48.308 17.9878C47.2851 17.2042 46.261 16.4218 45.2294 15.632C45.1798 15.7201 45.1451 15.7523 45.1451 15.7845C45.1401 18.1961 45.1376 20.6077 45.1351 23.0193C45.1351 23.493 45.3943 23.6752 45.8406 23.6752C50.644 23.674 55.4474 23.6728 60.2495 23.6765C60.7293 23.6765 60.9835 23.4744 60.9835 22.9784C60.9823 20.5061 60.9835 18.0325 60.9835 15.4349ZM24.0532 21.2302C27.5906 27.5908 31.1007 33.9019 34.627 40.244C35.7516 39.6178 36.8216 39.0227 37.9413 38.399C34.4014 32.0334 30.8937 25.7285 27.3649 19.3827C26.2304 20.0163 25.1579 20.6139 24.0519 21.2302H24.0532ZM26.0754 8.15545V2.64907C25.9775 2.61931 25.9205 2.58584 25.8634 2.58584C21.3899 2.58088 16.9163 2.58212 12.4428 2.57096C12.0175 2.57096 11.9915 2.79414 11.9927 3.11899C12.0001 4.83005 11.9964 6.54111 11.9964 8.25216C11.9964 8.94279 11.9964 9.63341 11.9964 10.448C12.2506 10.2323 12.4081 10.1108 12.5519 9.97438C13.6926 8.90063 14.8308 7.8244 15.9703 6.74941C16.8804 5.8914 17.3912 5.8852 18.2914 6.72213C19.044 7.42267 19.7954 8.1257 20.5753 8.85351C21.2498 8.29556 21.8995 7.76117 22.5467 7.22181C23.6452 6.30801 23.9825 6.30925 25.0389 7.23917C25.3563 7.51815 25.6737 7.79836 26.0754 8.15297V8.15545ZM13.9294 49.7627C16.098 53.2269 18.8171 56.039 22.1351 58.2795C23.0588 57.1673 23.0352 55.858 22.0941 54.8785C21.5374 54.2982 20.9609 53.7378 20.3744 53.186C19.1953 52.0751 18.6323 50.7149 18.6646 49.0993C18.677 48.4744 18.6671 47.8483 18.6671 47.1291C17.0354 48.0367 15.5115 48.8836 13.9294 49.7627ZM58.5583 14.1752H47.4017C48.7606 15.2154 49.9955 16.2111 51.2838 17.1323C52.2931 17.8539 53.4511 17.9432 54.4778 17.2551C55.854 16.3326 57.1299 15.2638 58.557 14.1752H58.5583ZM5.75354 40.2192C4.79014 40.7536 3.88873 41.2495 2.99229 41.7529C2.61908 41.9625 2.45045 42.2601 2.67983 42.6767C3.36674 43.919 4.03628 45.1738 4.76906 46.3877C4.89057 46.5885 5.38033 46.7795 5.56507 46.6914C6.54335 46.224 7.47824 45.6673 8.47387 45.1155C7.55635 43.4652 6.66982 41.8682 5.75354 40.2192ZM32.9866 24.3931C34.1112 26.4142 35.2172 28.4005 36.3207 30.3831C37.9661 29.5685 38.6009 27.4842 37.7615 25.8327C36.8787 24.0943 34.8056 23.4384 32.9866 24.3931ZM13.9356 12.0772H20.393C19.2548 11.0134 18.2058 10.0339 17.147 9.04446C16.0744 10.0575 15.0466 11.0295 13.9369 12.0772H13.9356ZM23.7246 47.2544C23.2944 46.4819 22.8951 45.7665 22.4773 45.0176C22.0904 45.2296 21.7432 45.4007 21.4172 45.6078C21.2981 45.6834 21.158 45.8421 21.1543 45.9661C21.132 46.839 21.1419 47.7131 21.1419 48.6852C22.0483 48.183 22.853 47.7367 23.7234 47.2544H23.7246ZM22.3644 10.5224C22.8728 11.0035 23.2485 11.4176 23.6862 11.7524C23.9379 11.9446 24.2801 12.0586 24.5975 12.1157C24.936 12.1764 25.2956 12.1504 25.6427 12.1194C25.8002 12.1058 26.0556 12.0091 26.0754 11.9111C26.1102 11.7437 26.0531 11.4821 25.9329 11.3693C25.2348 10.7121 24.507 10.086 23.773 9.43627C23.3874 9.74996 23.0389 10.0364 22.6868 10.3178C22.6075 10.3811 22.5132 10.4282 22.3632 10.5237L22.3644 10.5224Z" fill="#DF3151"/>
<path d="M30.1362 50.8947C29.4406 50.8997 28.926 50.3963 28.9198 49.7069C28.9149 49.02 29.4356 48.4806 30.1052 48.4769C30.8008 48.4732 31.3922 49.046 31.3798 49.7106C31.3674 50.3764 30.8256 50.891 30.1349 50.896L30.1362 50.8947Z" fill="#DF3151"/>
<path d="M49.1971 47.5705C48.5089 47.5581 47.9844 47.0262 47.9968 46.3517C48.0092 45.6747 48.5486 45.149 49.2256 45.1552C49.9249 45.1626 50.4865 45.7355 50.463 46.4149C50.4394 47.0845 49.8939 47.5829 49.1983 47.5705H49.1971Z" fill="#DF3151"/>
<path d="M53.4722 45.1515C54.1542 45.1676 54.6824 45.7082 54.6724 46.379C54.6625 47.0522 54.1182 47.5904 53.4474 47.5891C52.7494 47.5879 52.1802 47.0051 52.2112 46.3257C52.2422 45.6499 52.7927 45.1366 53.4722 45.1527V45.1515Z" fill="#DF3151"/>
<path d="M21.8772 5.21069C21.8834 5.88643 21.3527 6.43942 20.6831 6.4543C19.9888 6.46918 19.4036 5.89883 19.4147 5.21689C19.4259 4.5585 19.9962 3.99187 20.6459 3.99435C21.3093 3.99683 21.871 4.55106 21.8772 5.21069Z" fill="#DF3151"/>
</svg>
