<svg width="65" height="64" viewBox="0 0 65 64" fill="none" xmlns="http://www.w3.org/2000/svg">
<path d="M64.0649 21.525C63.6967 22.1895 63.1387 22.4102 62.3799 22.4041C58.8946 22.3743 55.4092 22.3966 51.9239 22.383C51.5408 22.3817 51.3002 22.4834 51.056 22.8045C49.4875 24.8677 47.5408 26.3903 44.9296 26.8912C44.4473 26.983 43.9389 27.0413 43.4554 26.9929C42.8404 26.9322 42.4337 27.1454 42.0084 27.5732C38.1449 31.4689 34.2603 35.3424 30.3807 39.222C29.4755 40.1271 28.863 40.1284 27.9666 39.2319C20.3536 31.619 12.7407 24.0072 5.12769 16.3943C4.09857 15.3652 4.09857 14.9002 5.12769 13.8698C9.47353 9.524 13.8194 5.17693 18.1652 0.832327C19.1447 -0.147191 19.6568 -0.144711 20.6487 0.847206C21.7857 1.98419 22.9338 3.1125 24.0522 4.26808C24.3498 4.57558 24.5928 4.64253 25.0082 4.49002C27.0354 3.7436 29.0527 2.95131 31.1221 2.34252C33.3949 1.67422 35.6924 1.90112 37.8176 2.91907C40.5639 4.2346 43.2458 5.68652 45.9389 7.11117C47.0461 7.6964 48.1757 8.144 49.4751 8.16756C49.5036 8.05597 49.5383 7.96297 49.5495 7.86874C49.6561 7.01073 50.0541 6.6338 50.932 6.62141C52.0008 6.60653 53.0683 6.61769 54.2375 6.61769C54.2375 6.23828 54.2239 5.91714 54.24 5.59601C54.2822 4.78264 54.7236 4.32016 55.522 4.3152C57.9349 4.30156 60.3477 4.31644 62.7606 4.30528C63.4103 4.3028 63.7649 4.68841 64.0625 5.18313V21.5225L64.0649 21.525ZM26.444 6.61397C27.9889 8.16756 29.4817 9.67403 30.987 11.1681C31.1085 11.2884 31.3143 11.3305 31.4879 11.3863C33.0564 11.8872 34.6273 12.382 36.1958 12.8829C37.4307 13.2772 38.6719 13.6553 39.8969 14.0794C40.5763 14.315 40.8677 14.9733 40.6594 15.6255C40.4685 16.2244 39.8349 16.5679 39.1715 16.4228C38.9918 16.3831 38.8182 16.3137 38.6409 16.2579C35.1468 15.1519 31.6553 14.0409 28.1588 12.9449C27.0367 12.5927 25.9344 13.0019 25.3479 13.938C24.7441 14.9027 24.847 16.1203 25.7311 16.9299C26.201 17.3614 26.8023 17.711 27.4049 17.9243C30.4129 18.9881 33.4469 19.9776 36.4549 21.0402C36.9261 21.2063 37.3873 21.551 37.7246 21.9267C39.6725 24.0977 42.0915 24.9533 44.9085 24.3408C46.9184 23.9043 48.3145 22.4908 49.428 20.812C49.5222 20.6707 49.5445 20.4611 49.5458 20.2838C49.5532 17.2523 49.5457 14.2195 49.5581 11.1879C49.5594 10.7961 49.4428 10.6523 49.0411 10.6238C47.5607 10.5196 46.1906 10.0522 44.88 9.35414C42.2452 7.95181 39.6117 6.54205 36.9335 5.22776C35.1295 4.34247 33.194 4.21725 31.2734 4.84835C29.6714 5.37531 28.103 6.0027 26.4428 6.61397H26.444ZM31.1308 21.83C31.0316 22.1015 30.9585 22.3123 30.8803 22.5194C29.757 25.484 26.6287 27.4232 23.5972 27.0363C20.2309 26.6061 17.6593 24.1238 17.2936 20.9509C16.9079 17.6056 18.7467 14.5084 21.8514 13.4185C22.5966 13.1569 23.1607 12.8432 23.617 12.1625C24.2965 11.147 25.3851 10.656 26.506 10.3944C25.6517 9.53516 24.8011 8.67963 23.9096 7.78443C23.9778 7.77699 23.953 7.77327 23.9382 7.78319C20.9872 9.617 18.0214 9.71247 15.0283 7.87742C14.9303 7.81667 14.6935 7.83526 14.6141 7.91214C13.7276 8.77139 12.8597 9.64799 11.9942 10.5134C13.8541 13.2859 14.0227 16.7154 12.0897 19.6254C16.2979 23.8361 20.4875 28.0282 24.6833 32.2278C27.6802 30.3468 30.739 30.3679 33.6726 32.2315C34.6385 31.2619 35.5622 30.3344 36.5058 29.3859C35.2497 27.5645 34.8617 25.4716 35.251 23.2236C33.84 22.7463 32.5009 22.2949 31.1296 21.8312L31.1308 21.83ZM61.5492 19.8833V6.81855H56.7446V19.8833H61.5492ZM28.6907 20.9683C25.8774 20.1598 23.1446 19.2659 22.5346 15.8648C20.6586 16.4302 19.4336 18.6472 19.7696 20.7971C20.1056 22.9508 22.0845 24.6123 24.299 24.6011C26.4254 24.5912 28.4291 22.9707 28.6907 20.967V20.9683ZM54.1991 19.892V9.1322H52.0702V19.892H54.1991ZM29.1023 36.7497C30.0037 35.847 30.9126 34.9369 31.8065 34.0417C30.2406 33.0386 27.7 33.0684 26.4824 34.1273C27.3789 35.0237 28.2766 35.9226 29.1023 36.7497ZM10.2224 12.4477C9.29002 13.3813 8.37994 14.2939 7.52441 15.1507C8.39482 16.0211 9.30738 16.9324 10.2137 17.8375C11.2441 16.3335 11.2478 13.9455 10.2224 12.4477ZM22.0411 5.97666C21.1199 5.05914 20.211 4.15401 19.3394 3.28484C18.4975 4.12425 17.5998 5.0207 16.7046 5.91342C17.9321 6.96238 20.6066 6.98346 22.0411 5.97666ZM37.4605 25.1541C37.763 26.1089 38.0135 26.8974 38.2441 27.6203C38.7748 27.1541 39.2286 26.7549 39.6911 26.3482C38.9818 25.9688 38.3197 25.6141 37.4605 25.1541Z" fill="#DF3151"/>
<path d="M30.155 63.488C26.1476 62.7776 22.8136 60.5507 19.3294 58.6698C18.2173 58.0697 17.1125 57.4857 15.8292 57.358C15.6494 57.3394 15.4684 57.327 15.2923 57.3121C14.9886 58.7231 14.7741 58.893 13.3259 58.893C12.4207 58.893 11.5156 58.893 10.5249 58.893C10.5249 59.2637 10.5398 59.5886 10.5225 59.9122C10.4791 60.697 10.0612 61.1682 9.28876 61.1744C6.83501 61.1967 4.38125 61.1979 1.92874 61.1719C1.16496 61.1645 0.707441 60.6673 0.706201 59.8985C0.697522 54.743 0.696282 49.5863 0.706201 44.4308C0.707441 43.553 1.22819 43.1103 2.21143 43.1078C4.60319 43.1017 6.99495 43.1054 9.38671 43.1054C10.5411 43.1054 11.6966 43.0905 12.851 43.1141C13.2416 43.1215 13.4784 42.9975 13.7177 42.6788C15.0444 40.907 16.6761 39.4613 18.8372 38.8736C22.6586 37.8333 25.9406 38.8996 28.6919 41.713C28.925 41.951 29.2263 42.1692 29.5375 42.2771C32.2603 43.2194 34.9844 44.1605 37.7246 45.0483C39.6824 45.6819 41.2483 46.7259 42.0282 48.7767C43.6525 48.3291 45.2545 47.8889 46.8552 47.4438C48.3034 47.042 49.7491 46.6329 51.1973 46.2311C53.9486 45.4686 56.3131 46.3576 57.4377 48.6155C58.3502 50.448 58.1915 52.2124 56.9182 53.8292C56.1507 54.8038 55.1674 55.5031 53.9908 55.9259C47.5396 58.2408 41.0934 60.5668 34.6372 62.8681C33.8685 63.1421 33.0526 63.2847 32.2579 63.4893H30.1538L30.155 63.488ZM15.2118 54.8336C17.4386 54.8943 19.2997 55.735 21.0814 56.8186C21.8378 57.2786 22.6115 57.7138 23.4013 58.1131C24.9263 58.8831 26.444 59.6791 28.01 60.3573C30.274 61.3381 32.4922 61.0529 34.7872 60.1949C40.8603 57.9234 46.9853 55.792 53.0918 53.6085C53.9536 53.301 54.6814 52.8175 55.1625 52.0277C56.0391 50.5869 55.1736 48.7109 53.5022 48.4964C52.9678 48.4282 52.3839 48.4927 51.8594 48.6328C48.7968 49.4524 45.7467 50.3191 42.6879 51.1523C42.3109 51.2552 42.1237 51.4288 41.9948 51.8132C41.1901 54.2186 38.7735 55.5949 36.3173 55.0406C35.5361 54.8646 34.781 54.5744 34.016 54.3314C31.0527 53.3928 28.0906 52.4492 25.1247 51.5181C24.6437 51.3668 24.1799 51.1449 24.1216 50.6315C24.0783 50.2422 24.1812 49.7636 24.3932 49.4388C24.6672 49.0172 25.1656 48.9416 25.6728 49.1028C27.4582 49.6706 29.2461 50.2273 31.0328 50.7927C32.8778 51.3767 34.7178 51.9756 36.5665 52.5484C37.7419 52.913 38.8777 52.479 39.4542 51.4846C40.0357 50.4803 39.8733 49.2701 38.9297 48.4605C38.4598 48.0563 37.8684 47.7426 37.2794 47.5368C34.2491 46.4742 31.1977 45.4736 28.1662 44.4135C27.7669 44.2733 27.3727 43.9783 27.0949 43.6534C25.209 41.4526 22.8074 40.6045 20.0102 41.1141C18.0734 41.4675 16.6823 42.7756 15.5701 44.3477C15.3618 44.6416 15.2304 45.0582 15.2266 45.419C15.1994 48.3278 15.2118 51.2354 15.2118 54.1442C15.2118 54.3463 15.2118 54.5496 15.2118 54.8323V54.8336ZM3.22443 45.6211V58.6661H8.01911V45.6211H3.22443ZM12.6898 56.3822V45.6323H10.5882V56.3822H12.6898Z" fill="#DF3151"/>
<path d="M45.1442 16.6757C45.1243 17.3552 44.5825 17.8685 43.8968 17.8549C43.2236 17.8412 42.678 17.287 42.6842 16.6249C42.6904 15.9367 43.2806 15.3862 43.9787 15.4147C44.6581 15.4433 45.164 15.99 45.1442 16.6757Z" fill="#DF3151"/>
<path d="M19.6221 48.82C19.6419 48.1406 20.1887 47.6248 20.8706 47.6397C21.5389 47.6533 22.0894 48.2174 22.0795 48.8771C22.0696 49.5553 21.4521 50.1381 20.7838 50.1009C20.1118 50.0637 19.601 49.5007 19.6221 48.82Z" fill="#DF3151"/>
</svg>
