<svg width="62" height="61" viewBox="0 0 62 61" fill="none" xmlns="http://www.w3.org/2000/svg">
<path d="M0.901032 30.3971C0.901032 22.582 0.896075 14.7669 0.903514 6.95185C0.905994 3.8521 2.5563 1.40827 5.32747 0.489505C6.07513 0.241525 6.89965 0.122495 7.68947 0.120016C19.8764 0.0976974 32.0621 0.0952176 44.2491 0.108856C48.2403 0.113816 51.0375 2.95442 51.0449 6.95185C51.0511 10.4161 51.0462 13.8804 51.0449 17.3447C51.0449 17.4885 51.0512 17.6336 51.0375 17.7774C50.9706 18.4928 50.4213 19.0185 49.7369 19.0247C49.0326 19.0322 48.4511 18.4866 48.4288 17.7352C48.4002 16.7879 48.4164 15.8382 48.4164 14.8897C48.4164 12.2921 48.4189 9.69326 48.4164 7.09567C48.4127 4.36542 46.7909 2.73372 44.0804 2.73372C31.9976 2.73372 19.9136 2.73372 7.83082 2.73372C5.15512 2.73372 3.53086 4.3679 3.53086 7.05848C3.53086 22.6465 3.53086 38.2357 3.53086 53.8237C3.53086 56.5502 5.14768 58.167 7.87545 58.167C19.9384 58.167 32.0014 58.167 44.0631 58.167C46.7847 58.167 48.4127 56.5428 48.4151 53.8199C48.4188 50.3346 48.4102 46.8505 48.4201 43.3651C48.4238 42.2443 49.3351 41.576 50.2601 42C50.8577 42.274 51.0499 42.7836 51.0487 43.416C51.0412 47.0042 51.0549 50.5913 51.0338 54.1795C51.0301 54.7697 50.9396 55.3735 50.7932 55.9464C50.0902 58.6878 47.5968 60.6691 44.7599 60.7807C44.533 60.7894 44.3061 60.7956 44.0792 60.7956C31.9964 60.7956 19.9124 60.7981 7.82958 60.7956C4.65792 60.7956 2.17938 59.1428 1.27178 56.3295C1.0114 55.5236 0.919631 54.6321 0.917151 53.779C0.891113 45.985 0.902273 38.191 0.902273 30.3958L0.901032 30.3971Z" fill="#DF3151"/>
<path d="M61.8246 23.9112C61.8122 24.9689 61.4129 25.8938 60.6578 26.6626C59.8197 27.5156 58.9703 28.3575 58.1247 29.2031C51.5198 35.8093 44.9099 42.4117 38.3136 49.0266C37.597 49.7457 36.7935 50.2566 35.8239 50.5653C33.6665 51.2534 31.524 51.9875 29.3777 52.7103C28.7813 52.9112 28.2048 52.9992 27.7014 52.5144C27.1794 52.011 27.2513 51.4283 27.4658 50.7996C28.237 48.5405 28.9499 46.2604 29.7633 44.0162C30.0076 43.3417 30.4068 42.6572 30.9102 42.1514C38.3831 34.6339 45.8832 27.1436 53.3833 19.6522C55.144 17.894 57.4824 17.9002 59.2617 19.6447C59.7763 20.1506 60.2921 20.6565 60.7843 21.1847C61.4886 21.941 61.8283 22.8499 61.8258 23.9112H61.8246ZM36.4947 46.9225C42.4351 40.9821 48.3878 35.0294 54.2785 29.1386C53.2098 28.0649 52.0976 26.949 51.035 25.8827C45.1232 31.7933 39.1717 37.7448 33.2462 43.669C34.3137 44.739 35.4185 45.8463 36.4935 46.9237L36.4947 46.9225ZM53.0139 23.7649C54.167 24.9255 55.2767 26.0414 56.4025 27.1746C57.1811 26.3985 58.0106 25.6025 58.8042 24.7705C59.3435 24.2038 59.3386 23.512 58.8129 22.9416C58.3119 22.3986 57.785 21.8741 57.2431 21.3707C56.6964 20.8636 55.9475 20.8549 55.4069 21.3707C54.5749 22.1655 53.7789 22.9962 53.0139 23.7649ZM33.9071 48.4141C33.1954 47.7011 32.4824 46.9857 31.7657 46.2666C31.4397 47.2535 31.0925 48.305 30.7069 49.4742C31.8798 49.0849 32.9089 48.7439 33.9071 48.4128V48.4141Z" fill="#DF3151"/>
<path d="M25.9916 13.2828C21.7648 13.2828 17.5392 13.2828 13.3124 13.2828C13.0855 13.2828 12.8573 13.289 12.6329 13.2655C11.9783 13.1985 11.491 12.6852 11.455 12.0417C11.4191 11.3858 11.8902 10.7881 12.5548 10.6778C12.7768 10.6406 13.0074 10.6542 13.233 10.6542C21.7276 10.6542 30.2209 10.6542 38.7154 10.6542C38.8394 10.6542 38.9634 10.6518 39.0861 10.6555C39.9193 10.6852 40.4983 11.2407 40.4847 11.9933C40.4711 12.7224 39.9119 13.2667 39.1035 13.2754C37.4333 13.2927 35.7632 13.2828 34.0943 13.2828C31.3938 13.2828 28.6933 13.2828 25.9916 13.2828Z" fill="#DF3151"/>
<path d="M25.9482 21.202C21.7424 21.202 17.5367 21.202 13.331 21.202C13.1041 21.202 12.8759 21.2082 12.6515 21.1871C11.9931 21.1251 11.5009 20.6205 11.4562 19.9795C11.4104 19.3248 11.8766 18.7247 12.5374 18.5982C12.6775 18.571 12.8251 18.5734 12.9689 18.5734C21.6284 18.5734 30.2866 18.571 38.946 18.5734C39.9082 18.5734 40.5306 19.1438 40.4835 19.9559C40.4426 20.6664 39.902 21.1809 39.1233 21.1933C37.907 21.2132 36.6906 21.2008 35.4743 21.2008C32.2989 21.2008 29.1248 21.2008 25.9494 21.2008L25.9482 21.202Z" fill="#DF3151"/>
<path d="M25.9891 29.1212C21.7834 29.1212 17.5776 29.1212 13.3719 29.1212C13.145 29.1212 12.9181 29.1274 12.6924 29.1101C11.9758 29.0531 11.4575 28.5063 11.4538 27.8169C11.4501 27.1349 11.972 26.5708 12.68 26.5013C12.8437 26.4852 13.0098 26.4927 13.1748 26.4927C21.7102 26.4927 30.2456 26.4927 38.7811 26.4927C38.9051 26.4927 39.0291 26.4889 39.1518 26.4951C39.9392 26.5385 40.5008 27.1039 40.4859 27.8342C40.4711 28.5435 39.9292 29.1002 39.1642 29.1101C37.4742 29.1324 35.783 29.12 34.093 29.1212C31.3926 29.1212 28.6921 29.1212 25.9903 29.1212H25.9891Z" fill="#DF3151"/>
<path d="M15.4115 49.2473C14.9131 50.2404 14.4667 51.0935 14.0526 51.9614C13.7538 52.5888 13.2963 52.9 12.592 52.8826C11.7885 52.8628 10.9839 52.8913 10.1816 52.8715C9.35711 52.8516 8.83387 52.3346 8.82891 51.5783C8.82395 50.8083 9.39926 50.1511 10.2176 50.2776C11.6385 50.4983 12.3378 49.8908 12.7953 48.6248C13.1437 47.6639 13.7042 46.7811 14.1506 45.8549C14.406 45.3255 14.7928 44.9845 15.3842 44.9746C16.0042 44.9647 16.4047 45.3155 16.6737 45.8661C17.3247 47.1965 17.9806 48.5256 18.6749 49.835C18.7791 50.0309 19.0915 50.2231 19.3135 50.2305C20.5906 50.2677 21.8677 50.2429 23.146 50.2503C24.0412 50.2553 24.6339 50.776 24.6475 51.5473C24.6611 52.3123 24.0672 52.8678 23.1832 52.874C21.5143 52.8851 19.8454 52.8702 18.1753 52.8814C17.5243 52.8864 17.0804 52.6061 16.7977 52.0283C16.3638 51.1443 15.9186 50.2652 15.4103 49.2473H15.4115Z" fill="#DF3151"/>
<path d="M21.9978 37.038C18.9464 37.038 15.8963 37.0454 12.8449 37.033C12.003 37.0293 11.4376 36.4602 11.4525 35.7038C11.4674 34.9773 12.0365 34.4441 12.8325 34.4131C12.9763 34.4069 13.1214 34.4119 13.2652 34.4119C15.3681 34.4119 17.471 34.4119 19.5738 34.4119C23.3468 34.4119 27.1186 34.4081 30.8916 34.4181C31.2127 34.4181 31.5587 34.4565 31.8513 34.5793C32.377 34.8 32.6436 35.41 32.532 35.9679C32.4031 36.6164 31.9307 37.0256 31.2128 37.033C29.4199 37.0491 27.6257 37.0404 25.8328 37.0417C24.5545 37.0417 23.2762 37.0417 21.9991 37.0417V37.0392L21.9978 37.038Z" fill="#DF3151"/>
</svg>
