<svg width="64" height="64" viewBox="0 0 64 64" fill="none" xmlns="http://www.w3.org/2000/svg">
<path d="M63.8688 32.401C63.4932 33.7438 62.7529 34.768 61.4039 35.29C61.2799 35.3383 61.1857 35.5752 61.156 35.7388C59.8702 42.9773 58.5919 50.2183 57.3135 57.4593C57.1412 58.4327 56.9837 59.4085 56.8002 60.3805C56.4431 62.2726 54.9366 63.4604 52.8933 63.4604C42.0467 63.4629 31.2001 63.4604 20.3522 63.4604C17.3826 63.4604 14.4131 63.4641 11.4435 63.4592C9.33446 63.4555 7.91602 62.2491 7.54529 60.1561C6.10949 52.0447 4.67617 43.9321 3.22053 35.8231C3.17713 35.5814 2.93287 35.2962 2.70721 35.1796C1.28753 34.453 0.53987 33.3173 0.512592 31.7265C0.493994 30.6751 0.497714 29.6224 0.512592 28.571C0.54111 26.4656 2.1443 24.8773 4.25832 24.8525C4.97746 24.8438 5.69784 24.8513 6.43434 24.8513C7.1944 21.516 8.92406 18.8663 11.7634 16.9978C14.5805 15.1429 17.674 14.5849 21.0515 15.1888C21.0515 13.9947 21.0515 12.8255 21.0515 11.6551C21.0515 9.01532 22.5456 7.52745 25.1952 7.52621C27.463 7.52621 29.732 7.52249 31.9998 7.52621C34.3097 7.53117 35.8893 9.10087 35.8993 11.4034C35.9067 13.2533 35.9005 15.1032 35.9005 17.0759C36.1423 16.8552 36.3059 16.7163 36.4572 16.5651C41.3573 11.6662 46.2636 6.77359 51.15 1.86112C51.9324 1.07378 52.742 0.376961 53.8443 0.100464H55.0817C55.1549 0.135181 55.2255 0.1823 55.3024 0.204619C58.2546 1.04403 59.1473 4.34711 56.9874 6.53305C54.3799 9.17279 51.7451 11.7828 49.1227 14.4076C48.974 14.5564 48.8326 14.7114 48.6057 14.9507C49.7873 14.9507 50.8152 14.947 51.8443 14.9507C54.1034 14.9619 55.6892 16.544 55.6992 18.8068C55.7078 20.5997 55.7004 22.3926 55.7016 24.1855C55.7016 24.4012 55.7016 24.6157 55.7016 24.85C57.2664 24.85 58.7295 24.8302 60.1926 24.8562C61.549 24.8798 62.6116 25.4849 63.3171 26.6454C63.5589 27.0434 63.6891 27.5084 63.8701 27.9436V32.3985L63.8688 32.401ZM58.6799 35.4946H57.864C51.0805 35.4946 44.2958 35.4946 37.5124 35.4946C36.4944 35.4946 35.9191 35.0556 35.9067 34.2745C35.8943 33.4748 36.482 33.021 37.5359 33.0197C38.2985 33.0197 39.0622 33.0197 39.8248 33.0197C46.4433 33.0197 53.0631 33.0197 59.6817 33.0197C61.0245 33.0197 61.394 32.6453 61.394 31.2826C61.394 30.5201 61.394 29.7563 61.394 28.9938C61.3928 27.7167 61.0072 27.3274 59.7375 27.3274C52.5002 27.3274 45.2617 27.3596 38.0257 27.2964C36.7325 27.2852 35.8187 27.6063 34.9197 28.5623C33.0215 30.5833 30.1523 30.101 28.8219 27.6708C28.7314 27.5059 28.4636 27.341 28.2776 27.341C20.2976 27.3249 12.3177 27.3249 4.33768 27.3298C3.48463 27.3298 2.99983 27.8233 2.98743 28.6764C2.97503 29.5629 2.98371 30.4494 2.98495 31.3359C2.98495 32.6378 3.37056 33.0172 4.68981 33.0172C12.03 33.0172 19.3714 33.0172 26.7116 33.0172C26.9385 33.0172 27.1679 33.0036 27.3911 33.0321C27.9949 33.1102 28.4475 33.6112 28.471 34.2026C28.4958 34.8151 28.0495 35.3693 27.427 35.4685C27.2051 35.5045 26.9745 35.4908 26.7476 35.4908C19.9839 35.4908 13.2215 35.4908 6.4579 35.4908H5.70157C5.81192 36.1319 5.90738 36.6997 6.00782 37.2664C7.31095 44.6487 8.6178 52.0298 9.91473 59.4122C10.1429 60.7066 10.4417 60.9831 11.7399 60.9831C25.349 60.9831 38.9581 60.9831 52.5672 60.9831C53.9559 60.9831 54.2262 60.7327 54.4679 59.3551C55.3049 54.5679 56.1554 49.7831 57.0011 44.9971C57.5565 41.8552 58.1108 38.7133 58.6786 35.4908L58.6799 35.4946ZM28.1015 24.8315C27.3303 21.2159 23.5635 17.1652 17.9902 17.4404C13.7882 17.6475 9.35678 21.3027 9.08028 24.8315H28.1015ZM30.1424 22.8984C31.2087 21.8272 32.2304 20.8117 33.2347 19.7789C33.3475 19.6636 33.4182 19.4565 33.4182 19.2916C33.4294 16.6122 33.4343 13.9315 33.4182 11.2521C33.4133 10.5094 32.9061 10.0147 32.1572 10.0097C29.7047 9.99484 27.251 9.99484 24.7985 10.0097C24.0496 10.0147 23.5462 10.5082 23.535 11.2496C23.5139 12.7127 23.5189 14.177 23.54 15.6401C23.5424 15.8 23.6788 16.0356 23.8177 16.1026C26.7662 17.5347 28.838 19.7863 30.1424 22.8997V22.8984ZM32.1498 27.5121C32.6197 27.1835 33.0425 26.9727 33.3599 26.6553C40.5836 19.4503 47.7973 12.2329 55.011 5.01789C55.8083 4.22064 55.9124 3.51514 55.3222 2.93611C54.7345 2.35956 54.0526 2.47114 53.2417 3.28204C46.0416 10.4821 38.8415 17.6822 31.6427 24.8835C31.4691 25.0583 31.2149 25.2295 31.1691 25.439C31.0823 25.8345 30.9893 26.3156 31.1418 26.6516C31.2943 26.9852 31.7431 27.1835 32.1486 27.5109L32.1498 27.5121ZM38.7597 24.8104H53.2268C53.2268 22.8141 53.2305 20.8588 53.2256 18.9047C53.2231 17.8855 52.7693 17.4317 51.7538 17.4293C50.044 17.4243 48.3329 17.4094 46.6231 17.4454C46.3194 17.4516 45.9461 17.6103 45.7291 17.8248C43.5395 19.9773 41.3759 22.1545 39.2061 24.3268C39.0672 24.4657 38.9407 24.6145 38.7597 24.8116V24.8104Z" fill="#DF3151"/>
<path d="M18.5767 48.3039C18.5767 50.4241 18.5816 52.5456 18.5742 54.6658C18.5717 55.4197 18.1415 55.9392 17.4905 56.0248C16.7453 56.1215 16.1179 55.5499 16.108 54.7216C16.0919 53.3429 16.1031 51.9629 16.1031 50.5829C16.1031 47.679 16.1006 44.7764 16.1043 41.8726C16.1056 41.0654 16.5184 40.5385 17.188 40.4541C17.958 40.3562 18.5705 40.9414 18.5742 41.8168C18.5841 43.9792 18.5779 46.1403 18.5767 48.3027V48.3039Z" fill="#DF3151"/>
<path d="M23.5263 48.2457C23.5263 46.1453 23.5238 44.0449 23.5263 41.9445C23.5275 41.0059 24.0172 40.4331 24.7872 40.4492C25.5349 40.4653 25.9986 41.0233 25.9986 41.9333C26.0011 46.1341 26.0011 50.3336 25.9986 54.5344C25.9986 55.4681 25.5027 56.0483 24.7364 56.0322C23.9925 56.0161 23.5275 55.4532 23.525 54.5468C23.5213 52.4464 23.525 50.346 23.525 48.2457H23.5263Z" fill="#DF3151"/>
<path d="M30.9521 48.2469C30.9521 46.1465 30.9496 44.0461 30.9521 41.9457C30.9533 41.0071 31.4418 40.433 32.2106 40.4479C32.9582 40.4616 33.4244 41.022 33.4244 41.9296C33.4269 46.1304 33.4269 50.3299 33.4244 54.5307C33.4244 55.4668 32.9309 56.0458 32.1647 56.0309C31.4207 56.0161 30.9533 55.4531 30.9521 54.548C30.9484 52.4476 30.9521 50.3473 30.9521 48.2469Z" fill="#DF3151"/>
<path d="M40.8513 48.2357C40.8513 50.3361 40.8538 52.4365 40.8513 54.5369C40.8501 55.4693 40.3529 56.0496 39.5867 56.0322C38.8427 56.0148 38.379 55.4519 38.379 54.5443C38.3765 50.3435 38.3765 46.144 38.379 41.9432C38.379 41.0084 38.8737 40.4318 39.6424 40.4504C40.3889 40.4678 40.8501 41.027 40.8513 41.937C40.8551 44.0374 40.8513 46.1378 40.8513 48.2382V48.2357Z" fill="#DF3151"/>
<path d="M45.8011 48.1725C45.8011 46.0932 45.7986 44.0126 45.8011 41.9333C45.8023 41.022 46.2623 40.4641 47.01 40.4479C47.7787 40.4318 48.2722 41.0071 48.2734 41.942C48.2759 46.1428 48.2759 50.3423 48.2734 54.5431C48.2734 55.4494 47.806 56.0136 47.0633 56.031C46.2983 56.0483 45.8023 55.468 45.8011 54.5344C45.7974 52.4142 45.8011 50.2927 45.8011 48.1725Z" fill="#DF3151"/>
<path d="M33.4219 34.2385C33.4319 34.9205 32.8566 35.497 32.1759 35.4896C31.5175 35.4821 30.9669 34.9329 30.957 34.2732C30.9471 33.5901 31.5187 33.016 32.2031 33.0247C32.8628 33.0321 33.4133 33.5801 33.4232 34.2385H33.4219Z" fill="#DF3151"/>
</svg>
