<svg width="110" height="111" viewBox="0 0 110 111" fill="none" xmlns="http://www.w3.org/2000/svg">
<path fill-rule="evenodd" clip-rule="evenodd" d="M16.1121 16.6093C37.5897 -4.86831 72.4156 -4.86831 93.8932 16.6093C115.371 38.0869 115.371 72.9128 93.8932 94.3904C72.4156 115.868 37.5897 115.868 16.1121 94.3904C-5.3655 72.9128 -5.3655 38.0869 16.1121 16.6093ZM86.8221 23.6804C69.2497 6.108 40.7556 6.108 23.1832 23.6804C5.61081 41.2528 5.61081 69.7469 23.1832 87.3193C40.7556 104.892 69.2497 104.892 86.8221 87.3193C104.395 69.7469 104.395 41.2528 86.8221 23.6804ZM37.3274 37.819C39.2802 35.8666 42.4461 35.8668 44.3985 37.8196L55.0027 48.4257L65.6068 37.8196C67.5593 35.8668 70.7251 35.8666 72.6779 37.819C74.6307 39.7715 74.631 42.9373 72.6785 44.8901L62.0731 55.4973L72.6785 66.1046C74.631 68.0574 74.6307 71.2233 72.6779 73.1757C70.7251 75.1281 67.5593 75.1279 65.6068 73.1751L55.0027 62.569L44.3985 73.1751C42.4461 75.1279 39.2802 75.1281 37.3274 73.1757C35.3746 71.2233 35.3744 68.0574 37.3268 66.1046L47.9322 55.4973L37.3268 44.8901C35.3744 42.9373 35.3746 39.7715 37.3274 37.819Z" fill="#DF3151"/>
</svg>
