<svg width="38" height="39" viewBox="0 0 38 39" fill="none" xmlns="http://www.w3.org/2000/svg">
<path d="M2.42773 10.9957L18.588 20.3478L34.6385 11.0506M18.588 36.929V20.3295" stroke="black" stroke-width="2" stroke-linecap="round" stroke-linejoin="round"/>
<path d="M14.7994 1.92108L5.02634 7.35663C2.81185 8.58284 1 11.6575 1 14.1831V24.5235C1 27.0491 2.81185 30.1238 5.02634 31.35L14.7994 36.7855C16.8857 37.9385 20.3081 37.9385 22.3945 36.7855L32.1675 31.35C34.382 30.1238 36.1939 27.0491 36.1939 24.5235V14.1831C36.1939 11.6575 34.382 8.58284 32.1675 7.35663L22.3945 1.92108C20.2898 0.749778 16.8857 0.749778 14.7994 1.92108Z" stroke="black" stroke-width="2" stroke-linecap="round" stroke-linejoin="round"/>
<path d="M27.7393 21.614V14.9156L10.3711 4.88635" stroke="black" stroke-width="2" stroke-linecap="round" stroke-linejoin="round"/>
</svg>
