<svg width="40" height="40" viewBox="0 0 40 40" fill="none" xmlns="http://www.w3.org/2000/svg">
<path d="M12.3281 19.2609C12.3281 20.6793 13.461 21.8398 14.8393 21.8398H17.6715C18.8799 21.8398 19.8618 20.8267 19.8618 19.5925C19.8618 18.2478 19.2576 17.7688 18.3701 17.4557L13.8386 15.9084C12.9323 15.5952 12.3281 15.1163 12.3281 13.7715C12.3281 12.5374 13.31 11.5242 14.5184 11.5242H17.3505C18.7478 11.5426 19.8806 12.6847 19.8806 14.1031M16.1044 21.9319V23.2951M16.1044 10.069V11.5058" stroke="black" stroke-width="2" stroke-linecap="round" stroke-linejoin="round"/>
<path d="M21.7316 34.8803C23.431 37.2197 26.2065 38.7487 29.3786 38.7487C34.5332 38.7487 38.7248 34.6593 38.7248 29.6304C38.7248 26.5725 37.1765 23.8647 34.8164 22.2068M16.0861 31.3804C20.0872 31.3804 23.9245 29.8297 26.7537 27.0695C29.5829 24.3093 31.1723 20.5657 31.1723 16.6622C31.1723 12.7587 29.5829 9.01502 26.7537 6.25483C23.9245 3.49463 20.0872 1.94397 16.0861 1.94397C12.0851 1.94397 8.24783 3.49463 5.41863 6.25483C2.58943 9.01502 1 12.7587 1 16.6622C1 20.5657 2.58943 24.3093 5.41863 27.0695C8.24783 29.8297 12.0851 31.3804 16.0861 31.3804Z" stroke="black" stroke-width="2" stroke-linecap="round" stroke-linejoin="round"/>
</svg>
