<svg width="31" height="32" viewBox="0 0 31 32" fill="none" xmlns="http://www.w3.org/2000/svg">
<path d="M20.9658 2.90906H10.8058C10.2167 2.90906 9.70035 3.31633 9.56944 3.89815L4.31126 27.3309C4.13671 28.1236 4.73308 28.8727 5.54762 28.8727H15.7076C16.2967 28.8727 16.8131 28.4654 16.944 27.8836L22.2022 4.45088C22.3767 3.65815 21.7803 2.90906 20.9658 2.90906ZM15.5549 27.4254H5.78035L10.9585 4.3636H20.7331L15.5549 27.4254Z" fill="#191C30"/>
<path d="M30.631 26.6473L25.3656 3.17818L25.5256 2.46545C25.8092 1.2 24.8492 0 23.5474 0H9.19102C8.24556 0 7.42374 0.654545 7.21283 1.57818L0.943743 29.5127C0.660107 30.7782 1.62011 31.9782 2.92193 31.9782H17.2856C18.231 31.9782 19.0528 31.3236 19.2637 30.4L19.4456 29.6073H28.2819C29.0237 29.6073 29.7147 29.2727 30.1801 28.6982C30.6456 28.1164 30.8201 27.3745 30.6528 26.6473H30.631ZM17.2783 30.5309H2.91465C2.67465 30.5309 2.53647 30.4 2.47102 30.32C2.40556 30.24 2.31102 30.0727 2.36193 29.84L8.63829 1.89091C8.69647 1.62909 8.9292 1.44727 9.19102 1.44727H23.5547C23.7947 1.44727 23.9328 1.57818 23.9983 1.65818C24.0637 1.73818 24.1583 1.90545 24.1074 2.13818L17.831 30.08C17.7728 30.3418 17.5401 30.5236 17.2783 30.5236V30.5309ZM29.0237 27.7891C28.8419 28.0218 28.5583 28.1527 28.2674 28.1527H19.7583L24.6165 6.49455L29.2128 26.9673C29.2783 27.2582 29.2128 27.5564 29.0237 27.7891Z" fill="#191C30"/>
</svg>
