<svg xmlns="http://www.w3.org/2000/svg" xmlns:xlink="http://www.w3.org/1999/xlink" width="161" height="1046" viewBox="0 0 161 1046"><svg width="20" height="22" viewBox="0 0 20 22" fill="none" id="Union" y="0"><path fill-rule="evenodd" clip-rule="evenodd" d="M8 2a1 1 0 0 0-1 1v1h6V3a1 1 0 0 0-1-1H8zM5.879.879A3 3 0 0 1 8 0h4a3 3 0 0 1 3 3v1h4a1 1 0 1 1 0 2h-1v13a3 3 0 0 1-3 3H5a3 3 0 0 1-3-3V6H1a1 1 0 0 1 0-2h4V3A3 3 0 0 1 5.879.879zM4 6v13a1 1 0 0 0 1 1h10a1 1 0 0 0 1-1V6H4zm4 3a1 1 0 0 1 1 1v6a1 1 0 1 1-2 0v-6a1 1 0 0 1 1-1zm3 1a1 1 0 1 1 2 0v6a1 1 0 1 1-2 0v-6z" fill="#191C30"></path></svg><svg width="15" height="15" viewBox="0 0 15 15" fill="none" id="add-to-cart-small-white-icon" y="22"><path d="M14.024 10.48H3.858a.726.726 0 1 1 0-1.452h7.581a2.178 2.178 0 0 0 2.113-1.649l1.198-4.714a.726.726 0 0 0-.395-.834.726.726 0 0 0-.33-.067H3.683A2.18 2.18 0 0 0 1.636.31H.953a.726.726 0 0 0 0 1.453h.683a.726.726 0 0 1 .726.552l.044.349 1.256 4.91a2.18 2.18 0 0 0 .196 4.359h.13a2.18 2.18 0 0 0 3.054 2.677 2.178 2.178 0 0 0 1.042-2.677h1.714a2.18 2.18 0 0 0 3.832 1.994 2.18 2.18 0 0 0 .263-1.994h.131a.726.726 0 0 0 0-1.453zm-.93-7.263l-.95 3.806a.727.727 0 0 1-.727.552H5.151L4.06 3.217h9.034zm-7.057 10.17a.725.725 0 1 1 0-1.451.725.725 0 0 1 0 1.45zm5.809 0a.726.726 0 1 1 0-1.452.726.726 0 0 1 0 1.452z" fill="#fff"></path></svg><svg width="14" height="8" viewBox="0 0 14 8" fill="none" id="arrow-down-red" y="37"><path fill-rule="evenodd" clip-rule="evenodd" d="M.293.296a.992.992 0 0 1 1.414 0L7 5.56 12.293.296a.992.992 0 0 1 1.414 0c.39.395.39 1.035 0 1.43l-6 5.978a.992.992 0 0 1-1.414 0l-6-5.978a1.019 1.019 0 0 1 0-1.43z" fill="#DF3151"></path></svg><svg width="161" height="24" viewBox="0 0 161 24" fill="none" id="boxberry" y="45"><g clip-path="url(#a)" fill-rule="evenodd" clip-rule="evenodd"><path d="M108.333 7.561l-.171.436c-.168.438-.287.69-.45 1.044-.102.218-.22.474-.38.844l-3.458 8.445c-.604 1.5-1.809 2.364-3.298 2.364a4.377 4.377 0 0 1-1.461-.294l-.311-.131.139-.303c.48-1.014.789-1.34 1.795-1.421.376-.029.795-.467 1.084-1.154l.145-.349-3.126-7.163a56.57 56.57 0 0 1-.42-.975c-.12-.278-.236-.552-.39-.894l-.195-.449h1.545c.889 0 1.283.271 1.625 1.127l1.846 4.52c.129.308.28 1.048.28 1.048l.079-.005s.112-.658.245-1.042c.133-.385 1.666-4.51 1.666-4.51.324-.843.761-1.138 1.67-1.138h1.541zM86.452 9.471v-.677c0-.599-.364-1.233-1.517-1.233h-.857V17.4h2.437v-4.08c0-.606.064-1.119.2-1.564.37-1.174 1.272-1.935 2.302-1.935.25 0 .459.046.459.046l.402.092V7.532l-.275-.04c-.012 0-.269-.043-.53-.043-1.048 0-2.333.888-2.621 2.022zM93.52 9.471v-.677c0-.599-.361-1.233-1.516-1.233h-.859V17.4h2.434v-4.08c0-.606.067-1.119.206-1.564.367-1.174 1.268-1.935 2.297-1.935.255 0 .462.046.462.046l.4.092V7.532l-.272-.04c-.015 0-.27-.043-.529-.043-1.049 0-2.334.888-2.624 2.022zM80.126 15.158l-.036.014c-.517.235-1.145.521-1.889.521-1.27 0-2.911-.771-3.055-2.459h7.015c.042-.323.065-.794.065-1.046 0-2.769-1.86-4.63-4.61-4.63-2.943 0-5 2.113-5 5.14 0 2.979 2.44 5.139 5.491 5.139 2.48 0 3.87-1.492 3.932-1.552l.164-.161-.102-.207c-.227-.457-.554-.987-1.192-.987-.278 0-.533.116-.783.228zm-.209-3.757h-4.749c.16-1.025 1.217-1.965 2.616-1.965 1.04 0 2.133.631 2.133 1.965zM63.94 8.692h-.068s.068-.537.068-1.089V5.745c0-1.003-.491-1.49-1.503-1.49h-.931v8.623c.122 3.132 2.102 5.075 5.162 5.075 2.827 0 4.956-2.208 4.956-5.138 0-2.93-2.069-5.14-4.812-5.14-1.374 0-2.318.552-2.872 1.017zm-.097 4.154c0-2.2 1.43-2.983 2.602-2.983 1.342 0 2.726 1.113 2.726 2.967 0 1.86-1.406 2.968-2.76 2.968-1.567 0-2.568-1.497-2.568-2.952zM56.864 12.48l1.684-2.488c.31-.453.547-.776.805-1.123.182-.247.37-.496.578-.797l.355-.503h-1.835c-1.032 0-1.417.22-1.972 1.123 0 0-.74 1.21-.847 1.38-.094.167-.35.729-.357.744h-.066s-.232-.519-.37-.744c-.133-.224-.85-1.385-.85-1.385-.588-.899-.973-1.118-1.972-1.118h-1.83l.372.505c.444.618.698.98 1.078 1.526l1.962 2.88-1.666 2.712c-.307.45-.543.78-.801 1.118-.184.254-.373.5-.584.796l-.354.505h1.837c1.033 0 1.42-.216 1.972-1.12l.844-1.378c.098-.17.355-.732.362-.742h.066s.227.518.365.742c.14.22.857 1.386.857 1.386.583.896.972 1.112 1.966 1.112h1.83l-.37-.505c-.441-.615-.697-.978-1.079-1.528l-1.98-3.098z" fill="#ED1651"></path><path d="M39.605 12.795c0 2.94 2.288 5.158 5.327 5.158 2.998 0 5.349-2.266 5.349-5.158 0-2.917-2.298-5.12-5.349-5.12-3.04 0-5.327 2.203-5.327 5.12zm2.473 0c0-1.68 1.225-2.95 2.854-2.95 1.64 0 2.87 1.27 2.87 2.95 0 1.702-1.23 2.99-2.87 2.99-1.63 0-2.855-1.288-2.855-2.99zM31.02 8.692h-.069s.07-.537.07-1.089V5.745c0-1.003-.492-1.49-1.505-1.49h-.932v8.622c.123 3.133 2.1 5.076 5.162 5.076 2.828 0 4.956-2.208 4.956-5.138 0-2.93-2.066-5.14-4.809-5.14-1.376 0-2.321.552-2.872 1.017zm-.094 4.154c0-2.2 1.428-2.983 2.602-2.983 1.337 0 2.724 1.113 2.724 2.967 0 1.86-1.41 2.968-2.763 2.968-1.566 0-2.563-1.498-2.563-2.952zM14.813 18.103a2.737 2.737 0 0 0 3.84 0 2.66 2.66 0 0 0 0-3.794 2.74 2.74 0 0 0-3.84 0 2.667 2.667 0 0 0 0 3.794zM19.377 13.595a2.735 2.735 0 0 0 3.84 0 2.666 2.666 0 0 0 0-3.795 2.741 2.741 0 0 0-3.84 0 2.655 2.655 0 0 0 0 3.795zM10.248 13.595a2.742 2.742 0 0 0 3.845 0 2.665 2.665 0 0 0 0-3.795 2.749 2.749 0 0 0-3.845 0 2.674 2.674 0 0 0 0 3.795zM5.691 9.088a2.744 2.744 0 0 0 3.843 0 2.665 2.665 0 0 0 0-3.794 2.738 2.738 0 0 0-3.843 0 2.661 2.661 0 0 0 0 3.794zM14.813 9.088a2.742 2.742 0 0 0 3.84 0 2.66 2.66 0 0 0 0-3.794 2.735 2.735 0 0 0-3.84 0 2.667 2.667 0 0 0 0 3.794z" fill="#ED1651"></path><path d="M14.093.785a2.662 2.662 0 0 1 0 3.793 2.743 2.743 0 0 1-3.845 0 2.67 2.67 0 0 1 0-3.793 2.746 2.746 0 0 1 3.845 0z" fill="#A6CE39"></path><path d="M14.088 18.816a2.657 2.657 0 0 1 0 3.795 2.737 2.737 0 0 1-3.84 0 2.674 2.674 0 0 1 0-3.795 2.742 2.742 0 0 1 3.84 0zM5.691 18.103a2.74 2.74 0 0 0 3.843 0 2.665 2.665 0 0 0 0-3.794 2.743 2.743 0 0 0-3.843 0 2.66 2.66 0 0 0 0 3.794zM1.13 13.595a2.736 2.736 0 0 0 3.84 0 2.663 2.663 0 0 0 0-3.795 2.743 2.743 0 0 0-3.84 0 2.656 2.656 0 0 0 0 3.795z" fill="#ED1651"></path></g><defs><clipPath id="a"><path fill="#fff" transform="translate(.333)" d="M0 0h160v24H0z"></path></clipPath></defs></svg><svg width="24" height="25" viewBox="0 0 24 25" fill="none" id="cart" y="69"><path d="M21.786 16.846H6.537a1.09 1.09 0 0 1 0-2.18h11.372a3.267 3.267 0 0 0 3.17-2.473l1.796-7.072a1.09 1.09 0 0 0-.195-.937 1.09 1.09 0 0 0-.894-.414H6.276a3.269 3.269 0 0 0-3.072-2.18H2.18a1.089 1.089 0 0 0 0 2.18h1.024a1.089 1.089 0 0 1 1.09.828l.065.523 1.884 7.366a3.27 3.27 0 0 0-3.12 3.416 3.273 3.273 0 0 0 3.414 3.122h.196a3.27 3.27 0 0 0 4.58 4.015 3.267 3.267 0 0 0 1.563-4.015h2.57a3.27 3.27 0 0 0 3.073 4.384 3.267 3.267 0 0 0 3.071-4.384h.196a1.089 1.089 0 0 0 0-2.18zM20.392 5.949l-1.427 5.71a1.09 1.09 0 0 1-1.09.828h-9.4L6.843 5.95h13.55zM9.805 21.204a1.09 1.09 0 1 1 0-2.178 1.09 1.09 0 0 1 0 2.178zm8.714 0a1.09 1.09 0 1 1 0-2.179 1.09 1.09 0 0 1 0 2.18z" fill="#000"></path></svg><svg width="64" height="19" viewBox="0 0 64 19" fill="none" id="cdek" y="94"><path fill-rule="evenodd" clip-rule="evenodd" d="M9.98 13.72H7.233c-4.284 0-1.172-9.328 2.435-9.328h4.34c.695 0 1.922.131 2.526-1.633l.934-2.74h-5.95c-3.223 0-5.731 1.163-7.544 3.115C.843 6.476-.219 11.695.532 14.19c.714 2.308 2.655 3.829 5.694 3.866l2.362.019h2.911l.714-2.196c.531-1.558-.659-2.159-2.233-2.159zm33.433-3.866l.897-2.984h-9.576c-1.593 0-2.307.45-2.581 1.388l-.898 2.985h9.576c1.593 0 2.307-.45 2.582-1.39zm-13.586 5.255l-.897 2.985h9.576c1.575 0 2.307-.45 2.582-1.39l.897-2.984h-9.576c-1.575 0-2.289.45-2.582 1.39zm15.82-12.087l.897-2.984h-9.576c-1.593 0-2.307.45-2.582 1.388l-.897 2.985h9.576c1.575 0 2.289-.45 2.582-1.39zm-14.465.6C30.78.845 29.332.038 25.817.038H19.41l-3.735 11.205h2.362c1.41 0 2.124.019 2.874-2.046l1.557-4.805h2.38c2.032 0 1.575 2.609.55 5.143-.916 2.233-2.51 4.204-4.432 4.204h-3.973c-1.593 0-2.325.45-2.618 1.39l-.989 2.983h2.911l2.857-.018c2.527-.02 4.595-.207 7.012-2.44 2.564-2.384 5.53-8.503 5.017-12.031zM63.371.02h-5.548l-5.218 5.687c-.605.657-1.227 1.314-1.832 2.083h-.055l2.6-7.77h-4.522L42.7 18.094h4.523l1.94-5.688 2.014-1.745 1.593 5.143c.495 1.595 1.008 2.29 2.106 2.29h3.46L54.784 7.996 63.371.019z" fill="#00B33C"></path></svg><svg width="12" height="10" viewBox="0 0 12 10" fill="none" id="check-green" y="113"><path fill-rule="evenodd" clip-rule="evenodd" d="M11.73.317a1 1 0 0 1-.047 1.413l-6.625 8a1 1 0 0 1-1.366 0L.317 6.64a1 1 0 1 1 1.366-1.46L4.375 7.63 10.317.27a1 1 0 0 1 1.413.047z" fill="#fff"></path></svg><svg width="22" height="22" viewBox="0 0 22 22" fill="none" id="compare-card" y="123"><path fill-rule="evenodd" clip-rule="evenodd" d="M4 2a2 2 0 0 0-2 2v8a2 2 0 0 0 2 2h2v-4a4 4 0 0 1 4-4h4V4a2 2 0 0 0-2-2H4zm12 4V4a4 4 0 0 0-4-4H4a4 4 0 0 0-4 4v8a4 4 0 0 0 4 4h2v2a4 4 0 0 0 4 4h8a4 4 0 0 0 4-4v-8a4 4 0 0 0-4-4h-2zm-2 2h-.907L14 9.02V8zm-3.315 0H10c-.219 0-.43.035-.627.1l4.527 4.527A2 2 0 0 0 14 12v-.27L10.685 8zM8.1 9.373c-.065.197-.1.408-.1.627v.727L11.273 14H12a2 2 0 0 0 .627-.1L8.1 9.373zm-.1 3.9V14h.727L8 13.273zM8 16h4a4 4 0 0 0 4-4V8h2a2 2 0 0 1 2 2v8a2 2 0 0 1-2 2h-8a2 2 0 0 1-2-2v-2z" fill="#191C30"></path></svg><svg width="24" height="25" viewBox="0 0 24 25" fill="none" id="contacts" y="145"><path d="M16.05 13.274a6.54 6.54 0 0 0 2.245-3.3 6.508 6.508 0 0 0-.096-3.982 6.545 6.545 0 0 0-2.4-3.188 6.602 6.602 0 0 0-7.63 0 6.545 6.545 0 0 0-2.401 3.188 6.508 6.508 0 0 0-.096 3.983 6.54 6.54 0 0 0 2.244 3.299 10.956 10.956 0 0 0-4.65 3.521 10.87 10.87 0 0 0-2.169 5.397 1.091 1.091 0 0 0 .236.806 1.104 1.104 0 0 0 1.957-.566 8.706 8.706 0 0 1 2.87-5.529 8.798 8.798 0 0 1 5.846-2.22c2.156 0 4.237.79 5.845 2.22a8.706 8.706 0 0 1 2.87 5.53c.03.267.159.515.36.694a1.1 1.1 0 0 0 .736.276h.121c.287-.033.55-.178.73-.402.181-.225.266-.512.235-.798a10.87 10.87 0 0 0-2.18-5.41 10.957 10.957 0 0 0-4.672-3.52zm-4.066-.774a4.402 4.402 0 0 1-2.437-.735 4.367 4.367 0 0 1-1.615-1.957 4.339 4.339 0 0 1 .95-4.753 4.408 4.408 0 0 1 4.779-.945 4.38 4.38 0 0 1 1.969 1.606 4.344 4.344 0 0 1-.546 5.506 4.397 4.397 0 0 1-3.1 1.278z" fill="#000"></path></svg><svg width="16" height="16" viewBox="0 0 16 16" fill="none" id="copy-element" y="170"><path fill-rule="evenodd" clip-rule="evenodd" d="M2.195 2.195A.667.667 0 0 1 2.667 2h6a.667.667 0 0 1 .666.667v.666a.667.667 0 0 0 1.333 0v-.666a2 2 0 0 0-2-2h-6a2 2 0 0 0-2 2v6a2 2 0 0 0 2 2h.667a.667.667 0 0 0 0-1.334h-.667A.667.667 0 0 1 2 8.667v-6c0-.177.07-.347.195-.472zm5.138 3.138a2 2 0 0 0-2 2v6a2 2 0 0 0 2 2h6a2 2 0 0 0 2-2v-6a2 2 0 0 0-2-2h-6zm-.471 1.529a.667.667 0 0 1 .471-.195h6a.667.667 0 0 1 .667.666v6a.667.667 0 0 1-.667.667h-6a.667.667 0 0 1-.667-.667v-6c0-.177.07-.346.196-.471z" fill="#191C30"></path></svg><svg width="23" height="22" viewBox="0 0 23 22" fill="none" id="copy-white" y="186"><path fill-rule="evenodd" clip-rule="evenodd" d="M2.626 2.293A1 1 0 0 1 3.333 2h9a1 1 0 0 1 1 1v1a1 1 0 1 0 2 0V3a3 3 0 0 0-3-3h-9a3 3 0 0 0-3 3v9a3 3 0 0 0 3 3h1a1 1 0 1 0 0-2h-1a1 1 0 0 1-1-1V3a1 1 0 0 1 .293-.707zM10.333 7a3 3 0 0 0-3 3v9a3 3 0 0 0 3 3h9a3 3 0 0 0 3-3v-9a3 3 0 0 0-3-3h-9zm-.707 2.293A1 1 0 0 1 10.333 9h9a1 1 0 0 1 1 1v9a1 1 0 0 1-1 1h-9a1 1 0 0 1-1-1v-9a1 1 0 0 1 .293-.707z" fill="#fff"></path></svg><svg width="22" height="22" viewBox="0 0 22 22" fill="none" id="courier" y="208"><path d="M11 .09a10.937 10.937 0 0 0-9.989 6.535 10.912 10.912 0 0 0 1.956 11.768A10.93 10.93 0 0 0 11 21.91a10.938 10.938 0 0 0 8.034-3.516 10.916 10.916 0 0 0-2.068-16.518A10.937 10.937 0 0 0 11 .091zm0 19.658a8.748 8.748 0 0 1-6.066-2.457A6.553 6.553 0 0 1 11 13.228a6.562 6.562 0 0 1 6.066 4.063A8.748 8.748 0 0 1 11 19.748zM8.814 8.828a2.183 2.183 0 0 1 2.613-2.143 2.187 2.187 0 0 1 1.593 2.978A2.184 2.184 0 0 1 11 11.011a2.187 2.187 0 0 1-2.186-2.184zm9.739 6.551a8.742 8.742 0 0 0-4.274-3.69A4.367 4.367 0 0 0 11 4.43 4.375 4.375 0 0 0 7.015 7a4.365 4.365 0 0 0 .706 4.687 8.742 8.742 0 0 0-4.273 3.691 8.643 8.643 0 0 1-1.192-4.368c0-2.317.921-4.539 2.561-6.177a8.748 8.748 0 0 1 12.366 0 8.732 8.732 0 0 1 2.56 6.177 8.644 8.644 0 0 1-1.19 4.368z" fill="#191C30"></path></svg><svg width="161" height="24" viewBox="0 0 161 24" fill="none" id="delline" y="230"><g clip-path="url(#a)"><path d="M3.422 16.837l10.871 2.065.845-1.442-9.663-4.13-2.053 3.507zm5.036-8.606l8.456 6.197.845-1.442-7.247-8.263-2.053 3.508zm-2.525 4.32l9.662 4.13.861-1.473L8.001 9.01l-2.068 3.54zM13.275 0l-2.282 3.905 7.248 8.264 1.074-1.832L13.275 0zM.667 21.553h12.079l1.073-1.832-10.87-2.065-2.282 3.897zm19.168-4.825l2.826 4.825h3.213l-6.04-10.328-6.038 10.328h3.213l2.826-4.825z" fill="#FCAF17"></path><path d="M45.54 21.537h4.602L51.2 19.69h-5.66v1.847zm0-5.13v1.848h6.497l1.082-1.847h-7.58zm97.562 2.191v-5.456h-2.037v8.395h1.706l4.902-5.495v5.495h2.037v-8.395h-1.8l-4.808 5.456zm-85.586-5.456l-4.879 8.395h2.4l3.214-5.543 3.236 5.543h2.527l-4.879-8.395h-1.619zm-14.66 6.547l-4.878-8.402h-1.666l-4.88 8.402H30.21V24h1.942v-2.464h9.987V24h1.942v-4.31h-1.224zm-8.992 0l3.213-5.55 3.237 5.55h-6.45zm75.575-6.547h-9.482v1.847h8.392l1.09-1.847zm-54.426 0H45.54v1.847h8.392l1.081-1.847zm103.854 0l-4.808 5.456v-5.456h-2.037v8.395h1.713l4.895-5.495v5.495h2.037v-8.395h-1.8zm-22.152 3.266h-4.461v-3.266h-2.037v8.395h2.037v-3.282h4.461v3.282h2.037v-8.395h-2.037v3.266zm-24.781-3.266l-4.879 8.395h2.408l3.213-5.543 3.237 5.543h2.519l-4.88-8.395h-1.618zm-20.132 3.01h-3.094v-3.018H86.67v8.403h5.115c1.382 0 2.819-.756 2.819-2.736-.008-2.603-1.855-2.65-2.803-2.65zm-.118 3.608H88.7v-1.87h2.984c.347 0 .876.093.876.935 0 .78-.434.935-.876.935zm5.969-6.618h-2.014v8.403h2.014v-8.403zm-28.507-.203c-3.404 0-5.014 2.058-5.014 4.357 0 2.4 1.571 4.357 5.014 4.357 1.5 0 4.973-.685 4.973-4.357 0-2.4-1.555-4.357-4.973-4.357zm-.024 6.867c-1.966 0-2.795-1.114-2.795-2.486 0-1.505.947-2.51 2.795-2.51 2.084 0 2.794 1.005 2.794 2.51 0 1.8-1.365 2.486-2.794 2.486zm30.835 1.731h4.603l1.066-1.847h-5.669v1.847zm0-5.13v1.848h6.497l1.09-1.847h-7.587zm21.34 2.144v-5.41h-2.037v8.396h1.714l4.902-5.449v5.45h2.037v-8.396H126.2l-4.903 5.41zm-38.29-1.964c.537-.226.996-.592.996-1.505 0-1.738-1.477-1.94-2.519-1.94h-5.502v8.403h5.597c2.565 0 3.095-1.395 3.095-2.674.007-1.442-.822-2.035-1.666-2.284zm-5.012-1.668h3.26c.49 0 .695.25.695.733 0 .499-.324.756-.695.756h-3.26v-1.49zm3.584 4.84h-3.584v-1.8h3.584c.576 0 .995.14.995.889 0 .592-.253.912-.995.912z" fill="#000"></path></g><defs><clipPath id="a"><path fill="#fff" transform="translate(.667)" d="M0 0h160v24H0z"></path></clipPath></defs></svg><svg width="68" height="20" viewBox="0 0 68 20" fill="none" id="dolyame" y="254"><rect width="68" height="20" rx="4" fill="#191C30"></rect><g clip-path="url(#a)" fill="#fff"><path d="M15.94 6h-1.336v6.769h1.335V6zM13.071 6.379h-1.335v6.769h1.335v-6.77zM10.203 6.802H8.868v6.77h1.335v-6.77zM7.335 7.23H6V14h1.335V7.23zM51.194 9.606l-2.15-2.39h-1.256v5.533H49.1V9.22l1.962 2.092h.243l1.928-2.092v3.53h1.312V7.217H53.29l-2.095 2.39zM60.795 7.217l-3.252 3.596V7.217h-1.311v5.532h1.202l3.251-3.596v3.596h1.312V7.217h-1.202zM40.722 9.241c0 .881.482 1.575 1.221 1.866l-1.386 1.643h1.605l1.262-1.495h1.365v1.494H46.1V7.217h-3.34c-1.245 0-2.038.852-2.038 2.024zm4.067-.806v1.636h-1.785c-.596 0-.915-.332-.915-.818 0-.487.33-.82.915-.82l1.785.002zM34.626 8.323c-.08 1.903-.482 3.131-1.268 3.131h-.196v1.329l.21.01c1.575.089 2.446-1.294 2.59-4.315h2.072v4.271h1.31V7.217H34.67l-.044 1.106zM29.688 7.14c-1.775 0-3.051 1.228-3.051 2.843 0 1.67 1.389 2.855 3.05 2.855 1.732 0 3.076-1.25 3.076-2.855s-1.344-2.844-3.075-2.844zm0 4.37c-1.003 0-1.686-.653-1.686-1.527 0-.896.684-1.532 1.686-1.532 1.002 0 1.708.665 1.708 1.532s-.716 1.527-1.708 1.527zM25.246 7.227h-4.63l-.045 1.107c-.066 1.594-.481 3.11-1.267 3.132l-.364.01V14l1.323-.003V12.75h4.596v1.247h1.335v-2.531h-.948V7.227zm-1.312 4.239h-2.8c.474-.72.727-1.76.772-2.977h2.028v2.977z"></path></g><defs><clipPath id="a"><path fill="#fff" transform="translate(6 6)" d="M0 0h56v8H0z"></path></clipPath></defs></svg><svg width="14" height="14" viewBox="0 0 14 14" fill="none" id="download" y="274"><path fill-rule="evenodd" clip-rule="evenodd" d="M7 .333c.368 0 .667.299.667.667v6.39l2.195-2.195a.667.667 0 1 1 .943.943L7.472 9.471a.667.667 0 0 1-.943 0L3.195 6.138a.667.667 0 0 1 .943-.943l2.196 2.196V1c0-.368.298-.667.666-.667zm-6 8c.368 0 .667.299.667.667v2.667a.667.667 0 0 0 .666.666h9.334a.667.667 0 0 0 .667-.666V9a.667.667 0 0 1 1.333 0v2.667a2 2 0 0 1-2 2H2.333a2 2 0 0 1-2-2V9c0-.368.299-.667.667-.667z" fill="#191C30"></path></svg><svg width="23" height="21" viewBox="0 0 23 21" fill="none" id="favorites-card" y="288"><path fill-rule="evenodd" clip-rule="evenodd" d="M11.451 2.276C12.71 1.098 14.233 0 16.401 0a6.55 6.55 0 0 1 4.597 1.905c2.483 2.482 2.51 6.686 0 9.194l-8.84 8.84a1 1 0 0 1-1.414 0l-8.84-8.84c-2.51-2.51-2.51-6.685 0-9.194A6.501 6.501 0 0 1 6.5 0c2.172 0 3.691 1.096 4.95 2.275zM16.401 2c-1.685 0-2.827.963-4.243 2.38a1 1 0 0 1-1.414 0C9.325 2.96 8.19 2 6.5 2A4.501 4.501 0 0 0 3.318 3.32c-1.728 1.728-1.728 4.638 0 6.366l8.133 8.133 8.133-8.133c1.723-1.722 1.707-4.66 0-6.366A4.551 4.551 0 0 0 16.401 2z" fill="#191C30"></path></svg><svg width="15" height="16" viewBox="0 0 15 16" fill="none" id="filter-black" y="309"><path fill-rule="evenodd" clip-rule="evenodd" d="M14.014 2.667a.727.727 0 0 1-.728.727H8.62a.727.727 0 0 1 0-1.455h4.666c.402 0 .728.326.728.728zm0 5.333a.727.727 0 0 1-.728.727H10.68V10a.727.727 0 0 1-1.454 0V6a.727.727 0 0 1 1.454 0v1.273h2.606c.402 0 .728.325.728.727zm0 5.333a.727.727 0 0 1-.728.728h-6a.727.727 0 0 1 0-1.455h6c.402 0 .728.326.728.727zM8.014 8a.727.727 0 0 1-.728.727h-6a.727.727 0 1 1 0-1.454h6c.402 0 .728.325.728.727zM5.954-.06c.4 0 .726.325.726.727v4a.727.727 0 0 1-1.454 0V3.394h-3.94a.727.727 0 1 1 0-1.455h3.94V.667c0-.402.325-.728.727-.728zM4.62 10.605c.401 0 .727.326.727.727v4a.727.727 0 1 1-1.455 0v-1.272H1.286a.727.727 0 1 1 0-1.455h2.606v-1.273c0-.401.326-.727.728-.727z" fill="#191C30"></path></svg><svg width="14" height="16" viewBox="0 0 14 16" fill="none" id="filter-red" y="325"><path fill-rule="evenodd" clip-rule="evenodd" d="M13.87 2.667a.727.727 0 0 1-.727.727H8.476a.727.727 0 0 1 0-1.455h4.667c.401 0 .727.326.727.728zm0 5.333a.727.727 0 0 1-.727.727h-2.606V10a.727.727 0 0 1-1.455 0V6a.727.727 0 0 1 1.455 0v1.273h2.606c.401 0 .727.325.727.727zm0 5.333a.727.727 0 0 1-.727.728h-6a.727.727 0 0 1 0-1.455h6c.401 0 .727.326.727.727zM7.87 8a.727.727 0 0 1-.727.727h-6a.727.727 0 0 1 0-1.454h6c.402 0 .727.325.727.727zM5.81-.06c.401 0 .727.325.727.727v4a.727.727 0 0 1-1.455 0V3.394h-3.94a.727.727 0 0 1 0-1.455h3.94V.667c0-.402.326-.728.728-.728zM4.476 10.605c.402 0 .727.326.727.727v4a.727.727 0 1 1-1.454 0v-1.272H1.143a.727.727 0 0 1 0-1.455h2.606v-1.273c0-.401.326-.727.727-.727z" fill="#DF3151"></path></svg><svg width="49" height="49" viewBox="0 0 49 49" fill="none" id="footer-tg" y="341"><rect x=".75" y=".346" width="47.5" height="47.5" rx="23.75" stroke="#191C30" stroke-width=".5"></rect><path fill-rule="evenodd" clip-rule="evenodd" d="M13.537 22.764c6.202-2.702 10.337-4.483 12.406-5.343 5.908-2.458 7.136-2.884 7.936-2.899.176-.003.57.04.824.248.215.174.274.41.303.576.028.165.063.543.035.837-.32 3.364-1.705 11.527-2.41 15.294-.298 1.595-.885 2.129-1.454 2.181-1.235.114-2.173-.816-3.37-1.6-1.872-1.228-2.93-1.992-4.747-3.19-2.1-1.383-.739-2.144.458-3.387.313-.326 5.756-5.277 5.862-5.726.013-.056.025-.265-.1-.376-.123-.11-.307-.073-.44-.042-.187.042-3.178 2.02-8.973 5.93-.849.583-1.618.867-2.307.853-.76-.017-2.22-.43-3.306-.783-1.333-.433-2.391-.662-2.3-1.397.049-.384.576-.775 1.583-1.176z" fill="#191C30"></path></svg><svg width="49" height="49" viewBox="0 0 49 49" fill="none" id="footer-wa" y="390"><rect x=".75" y=".346" width="47.5" height="47.5" rx="23.75" stroke="#191C30" stroke-width=".5"></rect><path d="M12.5 36.096l1.696-6.16a11.777 11.777 0 0 1-1.593-5.948c0-6.559 5.364-11.892 11.949-11.892 3.197 0 6.2 1.238 8.452 3.485a11.764 11.764 0 0 1 3.496 8.413c0 6.559-5.364 11.891-11.954 11.891h-.006c-2 0-3.965-.502-5.713-1.448l-6.327 1.66zm6.63-3.81l.361.217a9.996 9.996 0 0 0 5.055 1.38h.006c5.472 0 9.93-4.431 9.93-9.884a9.813 9.813 0 0 0-2.905-6.992 9.88 9.88 0 0 0-7.025-2.897c-5.473-.006-9.932 4.426-9.932 9.878 0 1.865.522 3.684 1.519 5.259l.235.376-1.003 3.644 3.76-.98z" fill="#191C30"></path><path fill-rule="evenodd" clip-rule="evenodd" d="M21.566 19.014c-.224-.496-.459-.508-.671-.513-.172-.006-.372-.006-.573-.006-.2 0-.521.074-.797.37-.275.297-1.043 1.016-1.043 2.482 0 1.46 1.072 2.874 1.221 3.074.149.2 2.069 3.296 5.1 4.488 2.522.993 3.038.793 3.582.742.544-.052 1.765-.719 2.017-1.415.247-.695.247-1.289.172-1.414-.074-.126-.275-.2-.573-.348-.298-.148-1.765-.867-2.04-.97-.275-.097-.476-.148-.67.149-.201.296-.774.963-.946 1.163-.172.2-.35.223-.648.074-.298-.148-1.26-.462-2.4-1.477-.89-.787-1.49-1.762-1.663-2.059-.172-.296-.017-.456.132-.604.132-.132.298-.348.447-.52.15-.17.2-.296.298-.496.098-.2.052-.37-.023-.519-.074-.142-.659-1.614-.922-2.201z" fill="#191C30"></path></svg><svg width="14" height="10" viewBox="0 0 14 10" fill="none" id="head-catalog-burger-d" y="439"><path fill-rule="evenodd" clip-rule="evenodd" d="M.333 1C.333.632.631.333 1 .333h12a.667.667 0 0 1 0 1.334H1A.667.667 0 0 1 .333 1zm0 4c0-.368.298-.667.667-.667h12a.667.667 0 0 1 0 1.334H1A.667.667 0 0 1 .333 5zm0 4c0-.368.298-.667.667-.667h12a.667.667 0 0 1 0 1.334H1A.667.667 0 0 1 .333 9z" fill="#fff"></path></svg><svg width="48" height="48" viewBox="0 0 48 48" fill="none" id="lk-no-photo" y="449"><rect x=".5" y=".5" width="47" height="47" rx="23.5" stroke="#000"></rect><path d="M28.05 24.774a6.54 6.54 0 0 0 2.245-3.3 6.508 6.508 0 0 0-.096-3.982 6.545 6.545 0 0 0-2.4-3.188 6.603 6.603 0 0 0-7.63 0 6.545 6.545 0 0 0-2.401 3.188 6.508 6.508 0 0 0-.096 3.983 6.54 6.54 0 0 0 2.244 3.299 10.956 10.956 0 0 0-4.65 3.521 10.87 10.87 0 0 0-2.169 5.397 1.093 1.093 0 0 0 .236.806 1.104 1.104 0 0 0 1.957-.566 8.706 8.706 0 0 1 2.87-5.529 8.798 8.798 0 0 1 5.846-2.22c2.156 0 4.237.79 5.845 2.22a8.706 8.706 0 0 1 2.87 5.53c.03.267.159.514.36.694a1.1 1.1 0 0 0 .736.276h.121c.287-.033.55-.178.73-.402.181-.225.266-.512.235-.798a10.87 10.87 0 0 0-2.18-5.41 10.957 10.957 0 0 0-4.672-3.52zM23.985 24a4.402 4.402 0 0 1-2.437-.735 4.366 4.366 0 0 1-1.615-1.957 4.339 4.339 0 0 1 .95-4.753 4.407 4.407 0 0 1 4.779-.945 4.38 4.38 0 0 1 1.969 1.606 4.345 4.345 0 0 1-.546 5.506 4.397 4.397 0 0 1-3.1 1.278z" fill="#000"></path></svg><svg width="14" height="16" viewBox="0 0 14 16" fill="none" id="location-grey" y="497"><path fill-rule="evenodd" clip-rule="evenodd" d="M4.96 1.74a5.333 5.333 0 0 1 7.374 4.927c0 2.065-1.344 4.07-2.818 5.624A19.62 19.62 0 0 1 7 14.515a19.622 19.622 0 0 1-2.516-2.224c-1.473-1.555-2.817-3.559-2.817-5.624a5.333 5.333 0 0 1 3.292-4.928zm1.67 14.148l.37-.555.37.555a.667.667 0 0 1-.74 0zm0 0l.37-.555.37.554h.002l.005-.004.015-.01a6.916 6.916 0 0 0 .256-.18 20.93 20.93 0 0 0 2.836-2.484c1.527-1.612 3.183-3.941 3.183-6.542a6.667 6.667 0 1 0-13.334 0c0 2.601 1.657 4.93 3.183 6.542a20.935 20.935 0 0 0 3.037 2.626l.055.038.016.01.004.004h.002zM7 4a2.667 2.667 0 1 0 0 5.333A2.667 2.667 0 0 0 7 4zm.943 3.61a1.333 1.333 0 1 1-1.886-1.886 1.333 1.333 0 0 1 1.886 1.885z" fill="#191C30"></path></svg><svg width="16" height="2" viewBox="0 0 16 2" fill="none" id="minus" y="513"><path fill-rule="evenodd" clip-rule="evenodd" d="M0 1a1 1 0 0 1 1-1h14a1 1 0 1 1 0 2H1a1 1 0 0 1-1-1z" fill="#191C30"></path></svg><svg width="49" height="48" viewBox="0 0 49 48" fill="none" id="partners-ok" y="515"><rect x=".666" width="48" height="48" rx="24" fill="#F7931E"></rect><path d="M24.773 11.129c-3.665 0-6.636 2.986-6.636 6.67 0 3.684 2.97 6.67 6.636 6.67 3.665 0 6.636-2.986 6.636-6.67 0-3.684-2.97-6.67-6.636-6.67zm0 9.428a2.75 2.75 0 0 1-2.743-2.758 2.75 2.75 0 0 1 2.743-2.757 2.75 2.75 0 0 1 2.743 2.757 2.75 2.75 0 0 1-2.743 2.758zM27.116 29.781c2.656-.544 4.248-1.809 4.333-1.877a1.82 1.82 0 0 0 .278-2.55 1.798 1.798 0 0 0-2.536-.28c-.016.014-1.714 1.323-4.508 1.325-2.794-.002-4.528-1.311-4.545-1.325a1.798 1.798 0 0 0-2.536.28 1.82 1.82 0 0 0 .279 2.55c.085.07 1.743 1.367 4.474 1.898l-3.806 3.999a1.82 1.82 0 0 0 .046 2.564 1.795 1.795 0 0 0 2.551-.047l3.537-3.786 3.893 3.81a1.798 1.798 0 0 0 2.552-.001 1.82 1.82 0 0 0-.002-2.565l-4.01-3.995zM24.683 26.398c-.005 0 .005 0 0 0s.006 0 0 0z" fill="#fff"></path></svg><svg width="49" height="48" viewBox="0 0 49 48" fill="none" id="partners-tg" y="563"><rect x=".666" width="48" height="48" rx="24" fill="#3395E3"></rect><path fill-rule="evenodd" clip-rule="evenodd" d="M13.703 22.672c6.202-2.702 10.337-4.483 12.406-5.344 5.908-2.457 7.136-2.884 7.936-2.898.176-.003.57.04.824.247.215.175.274.41.303.576.028.166.063.543.035.838-.32 3.363-1.705 11.526-2.41 15.294-.298 1.594-.885 2.128-1.454 2.18-1.235.114-2.173-.816-3.37-1.6-1.872-1.227-2.93-1.991-4.747-3.189-2.1-1.384-.739-2.145.458-3.388.313-.325 5.756-5.276 5.862-5.725.013-.056.025-.266-.1-.376-.123-.11-.307-.073-.44-.043-.187.043-3.178 2.02-8.973 5.93-.849.584-1.618.868-2.306.853-.76-.016-2.221-.43-3.307-.783-1.332-.433-2.391-.662-2.3-1.397.049-.383.576-.775 1.583-1.175z" fill="#fff"></path></svg><svg width="49" height="48" viewBox="0 0 49 48" fill="none" id="partners-vb" y="611"><rect x=".666" width="48" height="48" rx="24" fill="#7360F2"></rect><g clip-path="url(#a)"><path d="M33.957 13.536c-.629-.596-3.17-2.492-8.83-2.517 0 0-6.676-.414-9.93 2.653-1.812 1.861-2.449 4.584-2.516 7.961-.067 3.377-.154 9.705 5.783 11.42h.006l-.004 2.619s-.038 1.06.641 1.276c.822.262 1.305-.543 2.09-1.412a68.138 68.138 0 0 0 1.473-1.712c4.06.35 7.183-.452 7.538-.57.82-.273 5.46-.884 6.214-7.211.779-6.522-.377-10.648-2.465-12.507zm.688 12.039c-.637 5.283-4.4 5.615-5.094 5.844-.295.097-3.038.798-6.487.567 0 0-2.57 3.185-3.373 4.014-.125.13-.273.181-.37.156-.14-.035-.177-.203-.176-.449.003-.351.022-4.35.022-4.35-5.022-1.433-4.73-6.82-4.672-9.64.057-2.82.572-5.13 2.104-6.684 2.753-2.561 8.423-2.179 8.423-2.179 4.788.022 7.083 1.503 7.614 2 1.767 1.553 2.667 5.272 2.009 10.72z" fill="#fff"></path><path d="M27.455 21.488c-.062-1.29-.7-1.968-1.913-2.033m3.556 2.598c.025-1.201-.321-2.205-1.04-3.012-.721-.809-1.72-1.254-3.002-1.35m5.723 5.038c-.015-2.085-.622-3.727-1.819-4.927-1.198-1.199-2.687-1.805-4.468-1.818" stroke="#fff" stroke-linecap="round" stroke-linejoin="round"></path><path d="M25.606 25.892s.45.038.692-.268l.473-.61c.227-.303.777-.497 1.316-.188.403.236.795.493 1.174.77.357.27 1.089.897 1.091.897.349.302.43.746.192 1.215l-.002.01a5.04 5.04 0 0 1-.983 1.243c-.005.002-.005.005-.009.007-.339.29-.671.456-.998.496a1.297 1.297 0 0 1-.57-.058l-.011-.016c-.504-.146-1.345-.51-2.745-1.304a16.317 16.317 0 0 1-2.306-1.565c-.363-.295-.709-.61-1.037-.945l-.035-.036-.035-.036-.034-.036-.035-.036a12.321 12.321 0 0 1-.92-1.065 16.852 16.852 0 0 1-1.523-2.369c-.773-1.439-1.128-2.302-1.27-2.82l-.016-.01a1.4 1.4 0 0 1-.065-.437c-.002-.05 0-.1.009-.15.04-.335.202-.677.483-1.026.003-.004.005-.004.007-.009.349-.4.758-.741 1.21-1.01l.01-.002c.456-.244.888-.161 1.182.195.002.002.612.754.873 1.121.27.39.52.792.75 1.207.3.553.112 1.12-.183 1.353l-.594.485c-.3.249-.26.711-.26.711s.88 3.423 4.169 4.285z" fill="#fff"></path></g><defs><clipPath id="a"><path fill="#fff" transform="translate(12.666 11)" d="M0 0h24v26H0z"></path></clipPath></defs></svg><svg width="49" height="48" viewBox="0 0 49 48" fill="none" id="partners-vk" y="659"><rect x=".666" width="48" height="48" rx="24" fill="#07F"></rect><path d="M25.977 32.524c-9.199 0-14.446-6.307-14.665-16.801h4.609c.15 7.702 3.548 10.965 6.239 11.638V15.723h4.34v6.643c2.656-.286 5.448-3.313 6.39-6.643h4.339c-.724 4.103-3.75 7.13-5.903 8.375 2.152 1.009 5.6 3.65 6.912 8.426H33.46c-1.026-3.196-3.582-5.668-6.962-6.004v6.004h-.521z" fill="#fff"></path></svg><svg width="49" height="48" viewBox="0 0 49 48" fill="none" id="partners-wa" y="707"><rect x=".666" width="48" height="48" rx="24" fill="#2AE053"></rect><path d="M12.666 36l1.696-6.16a11.777 11.777 0 0 1-1.593-5.948C12.77 17.332 18.133 12 24.718 12c3.197 0 6.2 1.238 8.452 3.485a11.764 11.764 0 0 1 3.496 8.412c0 6.56-5.364 11.892-11.954 11.892h-.006c-2 0-3.965-.502-5.713-1.449L12.666 36zm6.63-3.81l.361.217a9.995 9.995 0 0 0 5.055 1.38h.006c5.472 0 9.93-4.431 9.93-9.884a9.814 9.814 0 0 0-2.905-6.992 9.88 9.88 0 0 0-7.025-2.898c-5.473-.005-9.932 4.426-9.932 9.879 0 1.865.522 3.684 1.519 5.258l.235.377-1.003 3.644 3.76-.98z" fill="#fff"></path><path fill-rule="evenodd" clip-rule="evenodd" d="M21.732 18.917c-.224-.496-.459-.507-.671-.513-.172-.006-.372-.006-.573-.006-.2 0-.521.075-.797.371-.275.297-1.043 1.015-1.043 2.481 0 1.46 1.072 2.875 1.221 3.074.15.2 2.069 3.297 5.1 4.489 2.522.992 3.038.793 3.582.741.544-.051 1.765-.718 2.017-1.414.247-.696.247-1.29.172-1.415-.074-.125-.275-.2-.573-.348-.298-.148-1.765-.866-2.04-.97-.275-.096-.476-.147-.67.15-.201.296-.774.963-.946 1.163-.172.2-.35.222-.648.074-.298-.148-1.26-.462-2.4-1.477-.89-.787-1.49-1.763-1.663-2.06-.172-.296-.017-.456.132-.604.132-.131.298-.348.447-.519.15-.17.2-.296.298-.496.098-.2.052-.37-.023-.519-.074-.143-.659-1.614-.922-2.202z" fill="#fff"></path></svg><svg width="21" height="24" viewBox="0 0 21 24" fill="none" id="pick-up-point" y="755"><path fill-rule="evenodd" clip-rule="evenodd" d="M7.272 2.609A8 8 0 0 1 18.333 10c0 3.098-2.015 6.104-4.225 8.437a29.412 29.412 0 0 1-3.774 3.336 29.418 29.418 0 0 1-3.774-3.335C4.35 16.103 2.332 13.097 2.332 10a8 8 0 0 1 4.939-7.391zm2.506 21.223l.556-.832.554.832a1.001 1.001 0 0 1-1.11 0zm0 0l.556-.832c.554.832.555.831.556.831l.002-.001.006-.005.023-.015a11.636 11.636 0 0 0 .385-.27 31.423 31.423 0 0 0 4.254-3.727c2.29-2.417 4.774-5.911 4.774-9.813a10 10 0 0 0-20 0c0 3.902 2.484 7.396 4.774 9.813a31.428 31.428 0 0 0 4.253 3.726 19.154 19.154 0 0 0 .385.27l.023.016.006.005.003.002zM10.334 6a4 4 0 1 0 0 8 4 4 0 0 0 0-8zm1.414 5.414a2 2 0 1 1-2.829-2.828 2 2 0 0 1 2.829 2.828z" fill="#000"></path></svg><svg width="16" height="16" viewBox="0 0 16 16" fill="none" id="plus" y="779"><path fill-rule="evenodd" clip-rule="evenodd" d="M8 0a1 1 0 0 1 1 1v6h6a1 1 0 1 1 0 2H9v6a1 1 0 1 1-2 0V9H1a1 1 0 0 1 0-2h6V1a1 1 0 0 1 1-1z" fill="#191C30"></path></svg><svg width="23" height="22" viewBox="0 0 23 22" fill="none" id="product-props-icon" y="795"><path fill-rule="evenodd" clip-rule="evenodd" d="M.5 11c0-6.075 4.925-11 11-11s11 4.925 11 11-4.925 11-11 11-11-4.925-11-11zm11-9a9 9 0 0 0-9 9 9 9 0 0 0 9 9 9 9 0 0 0 9-9 9 9 0 0 0-9-9zm0 4a1 1 0 0 1 1 1v4a1 1 0 1 1-2 0V7a1 1 0 0 1 1-1zm-1 9a1 1 0 0 1 1-1h.01a1 1 0 1 1 0 2h-.01a1 1 0 0 1-1-1z" fill="#229B7C"></path></svg><svg width="6" height="10" viewBox="0 0 6 10" fill="none" id="product-slider-next" y="817"><path fill-rule="evenodd" clip-rule="evenodd" d="M.529.527c.26-.26.682-.26.943 0l4 4c.26.26.26.683 0 .943l-4 4a.667.667 0 0 1-.943-.943L4.057 5 .53 1.47a.667.667 0 0 1 0-.943z" fill="#191C30"></path></svg><svg width="6" height="10" viewBox="0 0 6 10" fill="none" id="product-slider-prev" y="827"><path fill-rule="evenodd" clip-rule="evenodd" d="M5.472.527c.26.26.26.683 0 .943L1.943 5l3.529 3.528a.667.667 0 1 1-.943.943l-4-4a.667.667 0 0 1 0-.943l4-4c.26-.26.682-.26.943 0z" fill="#191C30"></path></svg><svg width="21" height="22" viewBox="0 0 21 22" fill="none" id="self-pickup" y="837"><path fill-rule="evenodd" clip-rule="evenodd" d="M10.004.32a1.07 1.07 0 0 1 1.325 0l8.74 6.873c.262.207.416.525.416.862v10.8c0 .81-.319 1.587-.885 2.16a3.004 3.004 0 0 1-2.136.894H3.869c-.8 0-1.57-.322-2.136-.895a3.072 3.072 0 0 1-.885-2.16v-10.8c0-.336.154-.654.417-.86L10.005.32zM3.006 8.589v10.267c0 .231.091.453.253.617a.858.858 0 0 0 .61.255h13.595a.858.858 0 0 0 .61-.255.877.877 0 0 0 .253-.617V8.588l-7.66-6.024-7.66 6.024z" fill="#000"></path><path fill-rule="evenodd" clip-rule="evenodd" d="M6.674 11c0-.602.483-1.09 1.079-1.09h5.826c.596 0 1.079.488 1.079 1.09v9.818c0 .603-.483 1.091-1.08 1.091a1.085 1.085 0 0 1-1.078-1.09V12.09H8.832v8.727c0 .603-.483 1.091-1.08 1.091a1.085 1.085 0 0 1-1.078-1.09V11z" fill="#000"></path></svg><svg width="14" height="16" viewBox="0 0 14 16" fill="none" id="share" y="859"><path fill-rule="evenodd" clip-rule="evenodd" d="M11 11.394a1.273 1.273 0 1 0 0 2.545 1.273 1.273 0 0 0 0-2.545zm-2.728 1.273a2.727 2.727 0 1 1 5.455 0 2.727 2.727 0 0 1-5.455 0zM3 6.727a1.273 1.273 0 1 0 0 2.546 1.273 1.273 0 0 0 0-2.546zM.272 8a2.727 2.727 0 1 1 5.455 0A2.727 2.727 0 0 1 .272 8z" fill="#191C30"></path><path fill-rule="evenodd" clip-rule="evenodd" d="M4.098 8.64a.727.727 0 0 1 .995-.262l4.553 2.654a.727.727 0 0 1-.732 1.256L4.36 9.635a.727.727 0 0 1-.262-.994zM11 2.06a1.273 1.273 0 1 0 0 2.546 1.273 1.273 0 0 0 0-2.545zM8.272 3.334a2.727 2.727 0 1 1 5.455 0 2.727 2.727 0 0 1-5.455 0z" fill="#191C30"></path><path fill-rule="evenodd" clip-rule="evenodd" d="M9.901 3.973a.727.727 0 0 1-.261.995L5.093 7.621a.727.727 0 0 1-.733-1.256l4.546-2.653a.727.727 0 0 1 .995.261z" fill="#191C30"></path></svg><svg width="22" height="24" viewBox="0 0 22 24" fill="none" id="share-card" y="875"><path fill-rule="evenodd" clip-rule="evenodd" d="M17 17.09a1.91 1.91 0 1 0 0 3.819 1.91 1.91 0 0 0 0-3.818zM12.91 19a4.09 4.09 0 1 1 8.18 0 4.09 4.09 0 0 1-8.18 0zM5 10.09a1.91 1.91 0 1 0 0 3.819 1.91 1.91 0 0 0 0-3.818zM.91 12a4.09 4.09 0 1 1 8.181 0 4.09 4.09 0 0 1-8.182 0z" fill="#191C30"></path><path fill-rule="evenodd" clip-rule="evenodd" d="M6.648 12.96c.303-.52.97-.696 1.491-.393l6.83 3.98a1.09 1.09 0 1 1-1.098 1.886l-6.83-3.98a1.09 1.09 0 0 1-.393-1.492zM17 3.09a1.91 1.91 0 1 0 0 3.819 1.91 1.91 0 0 0 0-3.818zM12.91 5a4.09 4.09 0 1 1 8.18 0 4.09 4.09 0 0 1-8.18 0z" fill="#191C30"></path><path fill-rule="evenodd" clip-rule="evenodd" d="M15.352 5.96a1.09 1.09 0 0 1-.392 1.492l-6.82 3.98a1.091 1.091 0 0 1-1.1-1.884l6.82-3.98a1.091 1.091 0 0 1 1.492.392z" fill="#191C30"></path></svg><svg width="8" height="14" viewBox="0 0 8 14" fill="none" id="slider-home-next" y="899"><path fill-rule="evenodd" clip-rule="evenodd" d="M.293.293a1 1 0 0 1 1.414 0l6 6a1 1 0 0 1 0 1.414l-6 6a1 1 0 0 1-1.414-1.414L5.586 7 .293 1.707a1 1 0 0 1 0-1.414z" fill="#191C30"></path></svg><svg width="8" height="14" viewBox="0 0 8 14" fill="none" id="slider-home-prev" y="913"><path fill-rule="evenodd" clip-rule="evenodd" d="M7.707.293a1 1 0 0 1 0 1.414L2.414 7l5.293 5.293a1 1 0 1 1-1.414 1.414l-6-6a1 1 0 0 1 0-1.414l6-6a1 1 0 0 1 1.414 0z" fill="#191C30"></path></svg><svg width="16" height="17" viewBox="0 0 16 17" fill="none" id="telegram" y="927"><path fill-rule="evenodd" clip-rule="evenodd" d="M8 .5a8 8 0 1 0 .001 16.001A8 8 0 0 0 8 .5zm3.708 5.441c-.12 1.264-.642 4.334-.906 5.751-.111.6-.333.8-.546.82-.465.043-.817-.308-1.267-.602-.703-.461-1.102-.748-1.785-1.199-.79-.52-.278-.806.172-1.274.118-.122 2.164-1.985 2.204-2.153.005-.022.01-.1-.037-.142-.047-.04-.116-.027-.166-.015-.07.015-1.195.759-3.375 2.23-.32.218-.61.325-.868.32-.286-.006-.835-.16-1.244-.294-.5-.162-.9-.25-.865-.526.018-.144.216-.292.595-.442a409.947 409.947 0 0 1 4.665-2.01c2.222-.924 2.683-1.085 2.985-1.09.378-.005.467.306.437.626h.001z" fill="#2DA5E0"></path></svg><svg width="24" height="25" viewBox="0 0 24 25" fill="none" id="tuiIconHeartLarge" y="944"><path fill-rule="evenodd" clip-rule="evenodd" d="M12.45 4.776C13.71 3.598 15.233 2.5 17.4 2.5a6.55 6.55 0 0 1 4.598 1.905c2.483 2.482 2.509 6.686 0 9.194l-8.84 8.84a1 1 0 0 1-1.415 0l-8.84-8.84c-2.509-2.51-2.509-6.685 0-9.194A6.501 6.501 0 0 1 7.501 2.5c2.172 0 3.69 1.096 4.95 2.275zM17.4 4.5c-1.685 0-2.826.963-4.242 2.38a1 1 0 0 1-1.415 0C10.325 5.46 9.19 4.5 7.501 4.5A4.501 4.501 0 0 0 4.318 5.82c-1.729 1.728-1.729 4.638 0 6.366l8.133 8.133 8.132-8.133c1.723-1.722 1.708-4.66 0-6.366A4.551 4.551 0 0 0 17.402 4.5z" fill="#000"></path></svg><svg width="16" height="17" viewBox="0 0 16 17" fill="none" id="tuiIconPin" y="969"><g clip-path="url(#a)"><path fill-rule="evenodd" clip-rule="evenodd" d="M3 7.227c0-1.237.514-2.433 1.446-3.325A5.148 5.148 0 0 1 7.996 2.5H8a5.15 5.15 0 0 1 3.553 1.4l.004.005A4.6 4.6 0 0 1 13 7.229c0 1.807-1.246 3.626-2.71 5.1A18.969 18.969 0 0 1 8 14.286a18.972 18.972 0 0 1-2.29-1.955C4.245 10.854 3 9.035 3 7.227zm12 0h-1l1-.004a6.598 6.598 0 0 0-2.069-4.771A7.15 7.15 0 0 0 8.001.5a7.148 7.148 0 0 0-4.93 1.95l-.005.004C1.75 3.712 1 5.427 1 7.227c0 2.647 1.755 4.964 3.29 6.512a20.981 20.981 0 0 0 3.149 2.589l.016.01.005.004.002.001L8 15.5l-.537.844a1 1 0 0 0 1.074 0L8 15.5l.537.843h.001l.002-.001.005-.003.016-.011a6.54 6.54 0 0 0 .264-.177 20.985 20.985 0 0 0 2.884-2.412C13.246 12.19 15 9.874 15 7.227zM8 4.5a3 3 0 1 0 0 6 3 3 0 0 0 0-6zm.707 3.707a1 1 0 1 1-1.414-1.414 1 1 0 0 1 1.414 1.414z" fill="#DF3151"></path></g><defs><clipPath id="a"><path fill="#fff" transform="translate(0 .5)" d="M0 0h16v16H0z"></path></clipPath></defs></svg><svg width="24" height="25" viewBox="0 0 24 25" fill="none" id="tuiIconSearchLarge" y="986"><path fill-rule="evenodd" clip-rule="evenodd" d="M5.197 5.697a7.5 7.5 0 0 1 11.266 9.852l4.244 4.244a1 1 0 0 1-1.414 1.414l-4.244-4.244A7.5 7.5 0 0 1 5.197 5.697zM10.5 5.5a5.5 5.5 0 1 0 0 11 5.5 5.5 0 0 0 0-11z" fill="#000"></path></svg><svg width="19" height="18" viewBox="0 0 19 18" fill="none" id="value-question" y="1011"><path fill-rule="evenodd" clip-rule="evenodd" d="M9.5-.001a9 9 0 1 0 0 18 9 9 0 0 0 0-18zm-4.95 4.05a7 7 0 1 1 9.9 9.9 7 7 0 0 1-9.9-9.9zM8.94 6.8a1 1 0 0 1 1.507.865v.002c0 .135-.115.375-.555.668a3.701 3.701 0 0 1-.758.382l-.007.002a1 1 0 0 0 .636 1.896h.003l.003-.002.01-.002.026-.01.084-.03a5.692 5.692 0 0 0 1.113-.571c.56-.375 1.444-1.135 1.445-2.331a3 3 0 0 0-5.83-1 1 1 0 0 0 1.887.662 1 1 0 0 1 .436-.53zm.56 4.534a1 1 0 1 0 0 2h.007a1 1 0 1 0 0-2H9.5z" fill="#7C7C7C"></path></svg><svg width="16" height="17" viewBox="0 0 16 17" fill="none" id="whatsapp" y="1029"><path fill-rule="evenodd" clip-rule="evenodd" d="M13.67 2.836A7.914 7.914 0 0 0 8.034.5C3.644.5.07 4.073.067 8.466c0 1.404.366 2.775 1.064 3.983L0 16.577l4.223-1.109a7.948 7.948 0 0 0 3.806.97h.004c4.39 0 7.965-3.574 7.967-7.967a7.915 7.915 0 0 0-2.33-5.636v.001zm-2.005 7.298c-.198-.1-1.178-.581-1.36-.647-.183-.066-.315-.1-.448.098a11.88 11.88 0 0 1-.63.782c-.116.132-.233.15-.432.05-.199-.1-.841-.31-1.602-.988a5.995 5.995 0 0 1-1.107-1.38c-.116-.199-.012-.306.087-.406.09-.089.199-.232.3-.349.1-.116.134-.198.2-.331s.035-.25-.016-.35c-.05-.098-.448-1.079-.614-1.477-.162-.388-.326-.335-.448-.342a7.567 7.567 0 0 0-.382-.007.729.729 0 0 0-.53.25c-.183.2-.698.681-.698 1.66 0 .98.714 1.927.813 2.06.1.132 1.403 2.144 3.4 3.005.475.205.846.328 1.136.42.477.151.911.13 1.254.08.383-.058 1.178-.482 1.344-.947.165-.465.167-.864.115-.947-.05-.084-.182-.134-.38-.234h-.002z" fill="#24D366"></path></svg></svg>