<svg xmlns="http://www.w3.org/2000/svg" xmlns:xlink="http://www.w3.org/1999/xlink" width="161" height="1361" viewBox="0 0 161 1361"><svg width="20" height="22" viewBox="0 0 20 22" fill="none" id="Union" y="0"><path fill-rule="evenodd" clip-rule="evenodd" d="M8 2a1 1 0 0 0-1 1v1h6V3a1 1 0 0 0-1-1H8zM5.879.879A3 3 0 0 1 8 0h4a3 3 0 0 1 3 3v1h4a1 1 0 1 1 0 2h-1v13a3 3 0 0 1-3 3H5a3 3 0 0 1-3-3V6H1a1 1 0 0 1 0-2h4V3A3 3 0 0 1 5.879.879zM4 6v13a1 1 0 0 0 1 1h10a1 1 0 0 0 1-1V6H4zm4 3a1 1 0 0 1 1 1v6a1 1 0 1 1-2 0v-6a1 1 0 0 1 1-1zm3 1a1 1 0 1 1 2 0v6a1 1 0 1 1-2 0v-6z" fill="#191C30"></path></svg><svg width="15" height="15" viewBox="0 0 15 15" fill="none" id="add-to-cart-small-white-icon" y="22"><path d="M14.024 10.48H3.858a.726.726 0 1 1 0-1.452h7.581a2.178 2.178 0 0 0 2.113-1.649l1.198-4.714a.726.726 0 0 0-.395-.834.726.726 0 0 0-.33-.067H3.683A2.18 2.18 0 0 0 1.636.31H.953a.726.726 0 0 0 0 1.453h.683a.726.726 0 0 1 .726.552l.044.349 1.256 4.91a2.18 2.18 0 0 0 .196 4.359h.13a2.18 2.18 0 0 0 3.054 2.677 2.178 2.178 0 0 0 1.042-2.677h1.714a2.18 2.18 0 0 0 3.832 1.994 2.18 2.18 0 0 0 .263-1.994h.131a.726.726 0 0 0 0-1.453zm-.93-7.263l-.95 3.806a.727.727 0 0 1-.727.552H5.151L4.06 3.217h9.034zm-7.057 10.17a.725.725 0 1 1 0-1.451.725.725 0 0 1 0 1.45zm5.809 0a.726.726 0 1 1 0-1.452.726.726 0 0 1 0 1.452z" fill="#fff"></path></svg><svg width="14" height="8" viewBox="0 0 14 8" fill="none" id="arrow-down-red" y="37"><path fill-rule="evenodd" clip-rule="evenodd" d="M.293.296a.992.992 0 0 1 1.414 0L7 5.56 12.293.296a.992.992 0 0 1 1.414 0c.39.395.39 1.035 0 1.43l-6 5.978a.992.992 0 0 1-1.414 0l-6-5.978a1.019 1.019 0 0 1 0-1.43z" fill="#DF3151"></path></svg><svg width="65" height="62" viewBox="0 0 65 62" fill="none" id="benefits" y="45"><path d="M.666 39.31c.303-.996.51-2.037.93-2.98.772-1.739 2.112-2.982 3.748-3.925 3.288-1.896 6.567-3.806 9.842-5.726a2.85 2.85 0 0 0 .79-.688A6387.666 6387.666 0 0 0 31.872 5.585c1-1.291 2.186-2.059 3.846-1.815 1.254.184 2.164.906 2.792 2.008 1.38 2.419 2.781 4.825 4.134 7.257.267.48.555.626 1.077.58 1.287-.112 2.578-.158 3.866-.256.71-.053 1.188.238 1.53.852a212.227 212.227 0 0 0 2.25 3.922c.361.616.33 1.172-.067 1.759-.728 1.074-1.408 2.181-2.15 3.245-.286.412-.313.715-.05 1.163 1.296 2.2 2.578 4.409 3.814 6.644 1.332 2.413-.03 5.18-2.723 5.657-1.618.286-3.229.618-4.843.935-6.248 1.23-12.498 2.463-18.746 3.696-.183.037-.362.088-.633.155l1.342 2.357c.689 1.208.544 1.752-.656 2.453l-2.78 1.62c1.221 2.134 2.415 4.22 3.613 6.306.864 1.504 1.088 3.075.395 4.7-.73 1.71-2.045 2.753-3.865 3.015-1.867.267-3.448-.371-4.641-1.871a8.33 8.33 0 0 1-.688-1.049c-1.89-3.285-3.77-6.573-5.655-9.86-.113-.198-.233-.391-.32-.535-.984.17-1.916.433-2.857.473-4.577.194-8.267-2.842-9.077-7.394-.017-.097-.076-.186-.115-.278v-2.016.002zM31.974 9.5c-.093.143-.143.234-.206.315-4.5 5.779-8.998 11.56-13.51 17.33-.23.297-.18.487-.017.771a2231.94 2231.94 0 0 1 6.116 10.682c.192.337.356.455.773.372 4.591-.925 9.187-1.818 13.782-2.724 2.49-.491 4.977-.99 7.531-1.498L31.977 9.5l-.003-.002zm-15.94 19.602c-3.305 1.923-6.54 3.776-9.746 5.682-1.883 1.119-2.951 2.827-3.09 5.028-.147 2.33.754 4.238 2.674 5.557 2.11 1.447 4.378 1.567 6.604.327 3.202-1.784 6.349-3.671 9.517-5.515.088-.05.164-.12.274-.201l-6.234-10.878h.001zM33.666 7.386c.125.224.234.426.348.624 1.841 3.215 3.683 6.429 5.523 9.644 3.058 5.34 6.116 10.679 9.176 16.018.103.18.257.501.344.486.498-.08 1.034-.153 1.456-.401.441-.26.52-.788.348-1.294-.066-.196-.176-.379-.28-.56L36.44 7.226c-.083-.145-.163-.294-.261-.428-.527-.721-1.382-.768-1.973-.104-.193.216-.358.458-.541.695v-.002zm-14.46 37.326c-1.46.85-2.889 1.68-4.33 2.52 2.105 3.673 4.162 7.266 6.223 10.857.082.144.183.281.29.409a2.492 2.492 0 0 0 3.832-.027c.71-.864.762-1.921.12-3.047-1.448-2.545-2.908-5.082-4.364-7.623-.581-1.014-1.164-2.027-1.772-3.089zM47.38 21.274c.505-.764.966-1.431 1.385-2.124.079-.13.042-.398-.04-.55a59.694 59.694 0 0 0-1.335-2.34c-.085-.141-.264-.326-.394-.322-.824.022-1.649.091-2.58.153l2.964 5.183zM22.625 45.63l2.158-1.262-1.25-2.178c-.758.443-1.449.847-2.159 1.264l1.25 2.176zM56.263 12.774c-.32-.306-.785-.553-.9-.913-.117-.369.092-.852.191-1.276.023-.099.168-.186.274-.245 2.34-1.315 4.67-2.65 7.028-3.927.778-.422 1.622.03 1.784.862.124.646-.203 1.087-.73 1.394-.666.386-1.342.756-2.014 1.132-1.488.834-2.972 1.676-4.467 2.498-.32.176-.678.28-1.166.475zM57.172 18.139c.2.05.562.138.921.234 1.283.344 2.57.674 3.847 1.038.833.237 1.217.88 1.005 1.6-.202.692-.838 1.025-1.644.816a203.46 203.46 0 0 1-4.57-1.228c-.755-.215-1.13-.79-1.02-1.436.111-.636.622-1.044 1.46-1.026l.001.002zM48.66 6.713c.272-1.046.6-2.298.927-3.55.117-.443.22-.894.367-1.327.242-.706.875-1.07 1.504-.896.681.188 1.066.81.878 1.565-.397 1.6-.818 3.197-1.27 4.784-.215.75-.797 1.076-1.471.933-.6-.128-.965-.627-.936-1.507v-.002z" fill="#DF3151"></path><path d="M9.662 44.003c-1.593-.067-2.639-.615-3.371-1.73-.429-.652-.329-1.364.238-1.788.538-.404 1.208-.3 1.72.266.782.865 1.158.925 2.163.345.56-.323 1.11-.664 1.679-.97.729-.391 1.449-.223 1.805.39.362.624.162 1.34-.546 1.773-.765.465-1.537.927-2.344 1.311-.495.235-1.06.32-1.344.401v.002zM17.203 37.401a1.218 1.218 0 0 1 1.197 1.261 1.224 1.224 0 0 1-1.272 1.19 1.223 1.223 0 0 1-1.198-1.263 1.217 1.217 0 0 1 1.273-1.188z" fill="#DF3151"></path></svg><svg width="62" height="63" viewBox="0 0 62 63" fill="none" id="benefits-1" y="107"><path d="M39.029 27.192L57.239 8.99h-.65c-2.085 0-4.17.002-6.255-.003-.25 0-.508-.007-.752-.06-.653-.145-1.048-.662-1.038-1.32.01-.627.397-1.122 1.022-1.268.223-.052.459-.063.688-.063 3.327-.004 6.655-.004 9.982-.001 1.31 0 1.757.441 1.758 1.736.002 3.347.004 6.694-.004 10.041 0 .29-.013.6-.107.868-.207.592-.876.935-1.477.812-.659-.134-1.09-.672-1.093-1.425-.01-2.189-.004-4.379-.004-6.568v-.811c-.246.226-.412.368-.566.523L40.56 29.624c-1.254 1.253-1.69 1.25-2.963-.021l-3.884-3.884c-.192.182-.37.345-.543.518L18.784 40.615c-.94.939-1.582.941-2.514.01-1.368-1.366-2.733-2.736-4.16-4.163-1.355 1.371-2.694 2.678-3.976 4.037-.584.62-1.224.87-2.067.843-1.514-.046-3.031-.002-4.549-.017-.927-.01-1.5-.543-1.505-1.346-.005-.806.565-1.348 1.489-1.36 1.39-.018 2.78.014 4.17-.023a1.41 1.41 0 0 0 .867-.361c1.48-1.437 2.928-2.908 4.39-4.364.865-.86 1.529-.864 2.385-.012 1.387 1.38 2.767 2.765 4.19 4.187.183-.17.351-.315.507-.47 4.811-4.807 9.62-9.615 14.43-14.423.94-.938 1.576-.94 2.513-.006 1.222 1.219 2.442 2.442 3.666 3.66.145.146.3.282.41.383l-.002.002z" fill="#DF3151"></path><path d="M26.178 21.352c1.092 2.006 1.007 3.673-.22 5.1a4.03 4.03 0 0 1-4.485 1.121 3.975 3.975 0 0 1-2.216-2.048c-.466-.968-.482-1.98-.205-3.047h-3.025c.25 2.674-.41 4.159-2.21 4.99a4.026 4.026 0 0 1-4.595-.86c-1.344-1.384-1.471-3.1-.368-5.27-1.216-1.074-1.274-2.63-1.587-4.072C6.385 13.2 5.546 9.123 4.688 5.05c-.243-1.154-.627-1.46-1.828-1.46-.464 0-.927.007-1.39-.003C.593 3.568.021 3.044.01 2.263 0 1.462.542.93 1.422.91a34.705 34.705 0 0 1 2.021.006c1.716.06 3.161 1.146 3.672 2.786.256.822.442 1.664.679 2.573h.734c5.391 0 10.782-.004 16.174 0 2.114.003 3.714 1.096 4.17 2.972.167.688.15 1.47.025 2.175-.428 2.4-.961 4.78-1.413 7.177-.197 1.038-.52 1.992-1.308 2.756l.002-.002zM8.378 8.989l1.874 9.313c.229 1.138.61 1.456 1.754 1.456h10.99c1.186 0 1.579-.33 1.807-1.483.476-2.412.955-4.824 1.44-7.234.292-1.455-.189-2.052-1.686-2.052H8.377zm15.879 14.837c.016-.709-.571-1.334-1.288-1.37-.73-.037-1.387.58-1.403 1.319-.017.71.571 1.335 1.288 1.37.73.037 1.387-.58 1.403-1.319zm-10.803-.014c.007-.755-.606-1.374-1.348-1.36a1.366 1.366 0 0 0-1.322 1.335 1.359 1.359 0 0 0 1.36 1.36 1.337 1.337 0 0 0 1.312-1.334h-.002zM61.995 42.56c0 5.325.006 10.649-.002 15.973-.004 2.093-1.212 3.674-3.125 4.116-.304.07-.625.096-.938.097-1.768.01-3.537.028-5.305 0-2.408-.039-4.08-1.718-4.082-4.13a14282.7 14282.7 0 0 1 0-32.134c.003-2.429 1.712-4.1 4.157-4.122 1.684-.015 3.368-.01 5.052 0 2.555.012 4.237 1.678 4.242 4.229.011 5.324.004 10.648.004 15.973l-.003-.002zm-10.773-.048v15.914c0 1.136.485 1.631 1.6 1.635 1.621.005 3.244.005 4.865 0 1.127-.002 1.62-.492 1.62-1.615.003-10.588.002-21.176 0-31.764 0-1.16-.48-1.629-1.663-1.633a971.612 971.612 0 0 0-4.676 0c-1.307.003-1.748.442-1.748 1.74v15.723h.002zM45.818 48.12c0 3.472.005 6.945 0 10.417-.005 2.71-1.653 4.346-4.377 4.355-1.6.005-3.2.009-4.8 0-2.603-.018-4.276-1.673-4.279-4.26a9751.63 9751.63 0 0 1 0-21.087c.003-2.63 1.673-4.278 4.312-4.283 1.663-.004 3.327-.008 4.99.002 2.434.014 4.135 1.687 4.149 4.125.02 3.578.005 7.155.005 10.734v-.003zm-2.685-.064c0-3.496.002-6.99 0-10.485 0-1.119-.503-1.627-1.61-1.631a692.226 692.226 0 0 0-4.867 0c-1.109.004-1.61.511-1.61 1.631-.003 7.01-.003 14.021 0 21.03 0 1.096.49 1.587 1.578 1.59 1.6.007 3.201.004 4.802 0 1.257 0 1.706-.451 1.707-1.716v-10.42zM29.64 53.362c0 1.727.008 3.453 0 5.18-.015 2.618-1.695 4.281-4.328 4.29-1.622.005-3.243.008-4.866 0-2.546-.014-4.252-1.694-4.261-4.225-.014-3.474-.013-6.949 0-10.422.009-2.523 1.675-4.188 4.198-4.21a304.28 304.28 0 0 1 5.056 0c2.525.022 4.181 1.683 4.199 4.208.013 1.727.002 3.454.002 5.18zm-10.773-.001c0 1.725-.004 3.45.001 5.175.004 1.076.498 1.591 1.578 1.601 1.642.017 3.283.017 4.924 0 1.083-.01 1.582-.525 1.583-1.599.004-3.428.004-6.857 0-10.285 0-1.09-.495-1.585-1.579-1.589a808.129 808.129 0 0 0-4.924 0c-1.086.004-1.58.496-1.582 1.587-.005 1.703 0 3.407 0 5.111v-.001zM.004 53.371c0-1.724-.01-3.45.002-5.174C.024 45.684 1.701 44.012 4.21 44c1.683-.01 3.366-.01 5.05 0 2.509.012 4.19 1.683 4.2 4.2.013 3.491.016 6.982 0 10.474-.013 2.47-1.711 4.156-4.17 4.17-1.705.011-3.41.011-5.113 0-2.458-.014-4.148-1.702-4.17-4.171-.015-1.768-.002-3.534-.002-5.3l-.001-.002zm2.685.056c0 1.725-.005 3.45.002 5.175.004 1.025.524 1.554 1.555 1.562 1.663.012 3.326.012 4.989 0 1.023-.008 1.54-.542 1.542-1.576.005-3.451.005-6.9 0-10.351-.001-1.03-.524-1.554-1.555-1.559a438.88 438.88 0 0 0-4.988 0c-1.025.007-1.538.535-1.542 1.573-.006 1.725 0 3.45 0 5.174l-.003.002z" fill="#DF3151"></path></svg><svg width="65" height="64" viewBox="0 0 65 64" fill="none" id="benefits-2" y="170"><path d="M.034 29.258c.036-.073.084-.143.103-.221.602-2.523 2.492-4.042 5.075-4.043 8.137-.005 16.274-.003 24.411-.003h.729c-.377-1.204-.807-2.355-1.097-3.539C26.869 11.707 33.55 1.677 43.429.137c.49-.076.981-.16 1.472-.24h2.75c.162.037.32.09.483.107C58.852 1.147 66.03 11.741 63.14 22.149c-2.397 8.627-10.76 14.024-19.629 12.635-1.162-.183-2.299-.53-3.445-.8v4.81h.775c6.04 0 12.08-.01 18.12.005 2.855.006 5.029 2.181 5.057 5.034.018 1.715.027 3.43-.006 5.143-.045 2.346-1.734 4.4-4.04 4.742-1.287.192-2.616.08-3.924.148a1.283 1.283 0 0 0-.79.348c-1 1.036-1.955 2.114-2.941 3.163-.692.734-1.402.727-2.095-.015a182.83 182.83 0 0 1-2.837-3.09c-.27-.303-.547-.444-.963-.431-1.04.03-2.082.01-3.124.01H40.07c-.282 3.467-2.881 5.147-5.681 5.045-3.14-.115-6.289-.02-9.434-.035-.398-.003-.647.11-.882.434a234.081 234.081 0 0 1-2.879 3.868c-.744.984-1.589.978-2.337-.013a280.885 280.885 0 0 1-2.842-3.817c-.243-.334-.497-.476-.924-.474-3.332.02-6.664.022-9.998.006-1.818-.008-3.274-.775-4.247-2.318-.37-.584-.548-1.292-.812-1.943V29.258h.001zm20 31.278c.887-1.188 1.728-2.28 2.53-3.4.404-.561.897-.79 1.59-.786 3.54.021 7.08.012 10.622.009 1.733-.002 2.751-1.025 2.752-2.77.003-7.778.003-15.558 0-23.336 0-1.738-1.024-2.753-2.768-2.753H5.33c-1.786 0-2.794 1.006-2.794 2.789v23.274c0 1.784 1.01 2.794 2.788 2.796 3.395.002 6.79.034 10.184-.02 1.002-.017 1.688.274 2.245 1.121.684 1.04 1.482 2.007 2.282 3.074l-.001.002zm41.319-43.068c-.135-1.034-.194-2.083-.416-3.098C59.037 5.66 50.487.571 41.95 3.044 32.979 5.64 28.552 16.343 33.04 24.556c.19.346.403.458.78.445.623-.02 1.258-.045 1.87.047 2.63.39 4.35 2.454 4.318 5.212-.008.65.143.99.781 1.24 9.799 3.843 20.471-3.453 20.562-14.03v-.002zM40.056 51.34c2.23 0 4.413.045 6.593-.02 1.003-.03 1.746.24 2.382 1.036.683.855 1.478 1.62 2.249 2.452.917-.995 1.787-1.923 2.636-2.868.374-.416.803-.62 1.37-.609 1.144.023 2.29.01 3.435.007 1.785-.003 2.797-1.007 2.8-2.783.003-1.463.002-2.926 0-4.39 0-1.876-.98-2.865-2.842-2.865H40.055v10.038l.001.002z" fill="#DF3151"></path><path d="M19.449 31.266c3.85 0 7.698.004 11.548-.005.557-.001 1.035.116 1.343.617.46.748.008 1.724-.87 1.876-.183.031-.373.02-.561.02H7.875c-.126 0-.25.005-.375-.005-.71-.055-1.22-.588-1.213-1.262.006-.674.52-1.218 1.238-1.232 1.227-.024 2.456-.01 3.683-.01h8.24zM19.364 40.049c-3.85 0-7.699-.004-11.548.005-.556.001-1.036-.115-1.344-.617-.476-.775.013-1.766.93-1.884.205-.026.415-.012.623-.014H30.81c.167 0 .333-.007.5.005.709.053 1.222.588 1.216 1.26-.007.673-.523 1.218-1.238 1.235-1.102.025-2.205.008-3.308.008h-8.614l-.002.002zM19.384 46.322c-3.85 0-7.699.012-11.548-.017-.402-.003-.916-.14-1.169-.411-.248-.266-.341-.795-.296-1.185.06-.51.492-.8 1.01-.881.184-.028.373-.016.561-.016h22.91c.186 0 .376-.01.56.012.638.08 1.107.607 1.111 1.232a1.256 1.256 0 0 1-1.093 1.249c-.204.027-.416.016-.624.016H19.382l.002.001zM27.503 52.596c-1.185 0-2.37.006-3.552-.003-.853-.006-1.412-.509-1.416-1.247-.003-.74.558-1.255 1.405-1.257 2.39-.008 4.779-.006 7.168 0 .853.002 1.413.51 1.416 1.246.004.738-.558 1.252-1.405 1.258-1.204.01-2.41.003-3.615.003h-.001zM46.274 10.835c1.125-1.182 2.434-1.876 4.01-1.89 2.368-.021 4.153 1.043 5.153 3.196 1 2.152.712 4.247-.884 6.003-1.625 1.792-3.39 3.456-5.094 5.175-.72.727-1.436 1.457-2.167 2.171-.693.678-1.34.688-2.016.012-2.378-2.375-4.765-4.739-7.108-7.148-1.67-1.716-2.047-4.103-1.082-6.203a5.506 5.506 0 0 1 5.286-3.208c1.528.074 2.802.724 3.902 1.892zm-.065 12.092c.125-.073.186-.093.227-.133 2.075-2.081 4.17-4.144 6.214-6.255 1.167-1.206 1.093-3.068-.08-4.23-1.167-1.156-2.99-1.159-4.22.002-.395.372-.759.774-1.155 1.144-.584.544-1.254.544-1.837 0-.395-.37-.765-.767-1.153-1.145a2.954 2.954 0 0 0-1.955-.862 3.01 3.01 0 0 0-2.905 1.78c-.516 1.145-.314 2.43.595 3.36 1.72 1.758 3.467 3.489 5.2 5.234.365.366.718.743 1.067 1.106l.002-.001z" fill="#DF3151"></path></svg><svg width="161" height="24" viewBox="0 0 161 24" fill="none" id="boxberry" y="234"><g clip-path="url(#a)" fill-rule="evenodd" clip-rule="evenodd"><path d="M108.333 7.561l-.171.436c-.168.438-.287.69-.45 1.044-.102.218-.22.474-.38.844l-3.458 8.445c-.604 1.5-1.809 2.364-3.298 2.364a4.377 4.377 0 0 1-1.461-.294l-.311-.131.139-.303c.48-1.014.789-1.34 1.795-1.421.376-.029.795-.467 1.084-1.154l.145-.349-3.126-7.163a56.57 56.57 0 0 1-.42-.975c-.12-.278-.236-.552-.39-.894l-.195-.449h1.545c.889 0 1.283.271 1.625 1.127l1.846 4.52c.129.308.28 1.048.28 1.048l.079-.005s.112-.658.245-1.042c.133-.385 1.666-4.51 1.666-4.51.324-.843.761-1.138 1.67-1.138h1.541zM86.452 9.471v-.677c0-.599-.364-1.233-1.517-1.233h-.857V17.4h2.437v-4.08c0-.606.064-1.119.2-1.564.37-1.174 1.272-1.935 2.302-1.935.25 0 .459.046.459.046l.402.092V7.532l-.275-.04c-.012 0-.269-.043-.53-.043-1.048 0-2.333.888-2.621 2.022zM93.52 9.471v-.677c0-.599-.361-1.233-1.516-1.233h-.859V17.4h2.434v-4.08c0-.606.067-1.119.206-1.564.367-1.174 1.268-1.935 2.297-1.935.255 0 .462.046.462.046l.4.092V7.532l-.272-.04c-.015 0-.27-.043-.529-.043-1.049 0-2.334.888-2.624 2.022zM80.126 15.158l-.036.014c-.517.235-1.145.521-1.889.521-1.27 0-2.911-.771-3.055-2.459h7.015c.042-.323.065-.794.065-1.046 0-2.769-1.86-4.63-4.61-4.63-2.943 0-5 2.113-5 5.14 0 2.979 2.44 5.139 5.491 5.139 2.48 0 3.87-1.492 3.932-1.552l.164-.161-.102-.207c-.227-.457-.554-.987-1.192-.987-.278 0-.533.116-.783.228zm-.209-3.757h-4.749c.16-1.025 1.217-1.965 2.616-1.965 1.04 0 2.133.631 2.133 1.965zM63.94 8.692h-.068s.068-.537.068-1.089V5.745c0-1.003-.491-1.49-1.503-1.49h-.931v8.623c.122 3.132 2.102 5.075 5.162 5.075 2.827 0 4.956-2.208 4.956-5.138 0-2.93-2.069-5.14-4.812-5.14-1.374 0-2.318.552-2.872 1.017zm-.097 4.154c0-2.2 1.43-2.983 2.602-2.983 1.342 0 2.726 1.113 2.726 2.967 0 1.86-1.406 2.968-2.76 2.968-1.567 0-2.568-1.497-2.568-2.952zM56.864 12.48l1.684-2.488c.31-.453.547-.776.805-1.123.182-.247.37-.496.578-.797l.355-.503h-1.835c-1.032 0-1.417.22-1.972 1.123 0 0-.74 1.21-.847 1.38-.094.167-.35.729-.357.744h-.066s-.232-.519-.37-.744c-.133-.224-.85-1.385-.85-1.385-.588-.899-.973-1.118-1.972-1.118h-1.83l.372.505c.444.618.698.98 1.078 1.526l1.962 2.88-1.666 2.712c-.307.45-.543.78-.801 1.118-.184.254-.373.5-.584.796l-.354.505h1.837c1.033 0 1.42-.216 1.972-1.12l.844-1.378c.098-.17.355-.732.362-.742h.066s.227.518.365.742c.14.22.857 1.386.857 1.386.583.896.972 1.112 1.966 1.112h1.83l-.37-.505c-.441-.615-.697-.978-1.079-1.528l-1.98-3.098z" fill="#ED1651"></path><path d="M39.605 12.795c0 2.94 2.288 5.158 5.327 5.158 2.998 0 5.349-2.266 5.349-5.158 0-2.917-2.298-5.12-5.349-5.12-3.04 0-5.327 2.203-5.327 5.12zm2.473 0c0-1.68 1.225-2.95 2.854-2.95 1.64 0 2.87 1.27 2.87 2.95 0 1.702-1.23 2.99-2.87 2.99-1.63 0-2.855-1.288-2.855-2.99zM31.02 8.692h-.069s.07-.537.07-1.089V5.745c0-1.003-.492-1.49-1.505-1.49h-.932v8.622c.123 3.133 2.1 5.076 5.162 5.076 2.828 0 4.956-2.208 4.956-5.138 0-2.93-2.066-5.14-4.809-5.14-1.376 0-2.321.552-2.872 1.017zm-.094 4.154c0-2.2 1.428-2.983 2.602-2.983 1.337 0 2.724 1.113 2.724 2.967 0 1.86-1.41 2.968-2.763 2.968-1.566 0-2.563-1.498-2.563-2.952zM14.813 18.103a2.737 2.737 0 0 0 3.84 0 2.66 2.66 0 0 0 0-3.794 2.74 2.74 0 0 0-3.84 0 2.667 2.667 0 0 0 0 3.794zM19.377 13.595a2.735 2.735 0 0 0 3.84 0 2.666 2.666 0 0 0 0-3.795 2.741 2.741 0 0 0-3.84 0 2.655 2.655 0 0 0 0 3.795zM10.248 13.595a2.742 2.742 0 0 0 3.845 0 2.665 2.665 0 0 0 0-3.795 2.749 2.749 0 0 0-3.845 0 2.674 2.674 0 0 0 0 3.795zM5.691 9.088a2.744 2.744 0 0 0 3.843 0 2.665 2.665 0 0 0 0-3.794 2.738 2.738 0 0 0-3.843 0 2.661 2.661 0 0 0 0 3.794zM14.813 9.088a2.742 2.742 0 0 0 3.84 0 2.66 2.66 0 0 0 0-3.794 2.735 2.735 0 0 0-3.84 0 2.667 2.667 0 0 0 0 3.794z" fill="#ED1651"></path><path d="M14.093.785a2.662 2.662 0 0 1 0 3.793 2.743 2.743 0 0 1-3.845 0 2.67 2.67 0 0 1 0-3.793 2.746 2.746 0 0 1 3.845 0z" fill="#A6CE39"></path><path d="M14.088 18.816a2.657 2.657 0 0 1 0 3.795 2.737 2.737 0 0 1-3.84 0 2.674 2.674 0 0 1 0-3.795 2.742 2.742 0 0 1 3.84 0zM5.691 18.103a2.74 2.74 0 0 0 3.843 0 2.665 2.665 0 0 0 0-3.794 2.743 2.743 0 0 0-3.843 0 2.66 2.66 0 0 0 0 3.794zM1.13 13.595a2.736 2.736 0 0 0 3.84 0 2.663 2.663 0 0 0 0-3.795 2.743 2.743 0 0 0-3.84 0 2.656 2.656 0 0 0 0 3.795z" fill="#ED1651"></path></g><defs><clipPath id="a"><path fill="#fff" transform="translate(.333)" d="M0 0h160v24H0z"></path></clipPath></defs></svg><svg width="20" height="15" viewBox="0 0 20 15" fill="none" id="burger" y="258"><path fill-rule="evenodd" clip-rule="evenodd" d="M0 1.5a1 1 0 0 1 1-1h18a1 1 0 1 1 0 2H1a1 1 0 0 1-1-1zm0 6a1 1 0 0 1 1-1h18a1 1 0 1 1 0 2H1a1 1 0 0 1-1-1zm0 6a1 1 0 0 1 1-1h18a1 1 0 1 1 0 2H1a1 1 0 0 1-1-1z" fill="#000"></path></svg><svg width="24" height="25" viewBox="0 0 24 25" fill="none" id="cart" y="273"><path d="M21.786 16.846H6.537a1.09 1.09 0 0 1 0-2.18h11.372a3.267 3.267 0 0 0 3.17-2.473l1.796-7.072a1.09 1.09 0 0 0-.195-.937 1.09 1.09 0 0 0-.894-.414H6.276a3.269 3.269 0 0 0-3.072-2.18H2.18a1.089 1.089 0 0 0 0 2.18h1.024a1.089 1.089 0 0 1 1.09.828l.065.523 1.884 7.366a3.27 3.27 0 0 0-3.12 3.416 3.273 3.273 0 0 0 3.414 3.122h.196a3.27 3.27 0 0 0 4.58 4.015 3.267 3.267 0 0 0 1.563-4.015h2.57a3.27 3.27 0 0 0 3.073 4.384 3.267 3.267 0 0 0 3.071-4.384h.196a1.089 1.089 0 0 0 0-2.18zM20.392 5.949l-1.427 5.71a1.09 1.09 0 0 1-1.09.828h-9.4L6.843 5.95h13.55zM9.805 21.204a1.09 1.09 0 1 1 0-2.178 1.09 1.09 0 0 1 0 2.178zm8.714 0a1.09 1.09 0 1 1 0-2.179 1.09 1.09 0 0 1 0 2.18z" fill="#000"></path></svg><svg width="64" height="19" viewBox="0 0 64 19" fill="none" id="cdek" y="298"><path fill-rule="evenodd" clip-rule="evenodd" d="M9.98 13.72H7.233c-4.284 0-1.172-9.328 2.435-9.328h4.34c.695 0 1.922.131 2.526-1.633l.934-2.74h-5.95c-3.223 0-5.731 1.163-7.544 3.115C.843 6.476-.219 11.695.532 14.19c.714 2.308 2.655 3.829 5.694 3.866l2.362.019h2.911l.714-2.196c.531-1.558-.659-2.159-2.233-2.159zm33.433-3.866l.897-2.984h-9.576c-1.593 0-2.307.45-2.581 1.388l-.898 2.985h9.576c1.593 0 2.307-.45 2.582-1.39zm-13.586 5.255l-.897 2.985h9.576c1.575 0 2.307-.45 2.582-1.39l.897-2.984h-9.576c-1.575 0-2.289.45-2.582 1.39zm15.82-12.087l.897-2.984h-9.576c-1.593 0-2.307.45-2.582 1.388l-.897 2.985h9.576c1.575 0 2.289-.45 2.582-1.39zm-14.465.6C30.78.845 29.332.038 25.817.038H19.41l-3.735 11.205h2.362c1.41 0 2.124.019 2.874-2.046l1.557-4.805h2.38c2.032 0 1.575 2.609.55 5.143-.916 2.233-2.51 4.204-4.432 4.204h-3.973c-1.593 0-2.325.45-2.618 1.39l-.989 2.983h2.911l2.857-.018c2.527-.02 4.595-.207 7.012-2.44 2.564-2.384 5.53-8.503 5.017-12.031zM63.371.02h-5.548l-5.218 5.687c-.605.657-1.227 1.314-1.832 2.083h-.055l2.6-7.77h-4.522L42.7 18.094h4.523l1.94-5.688 2.014-1.745 1.593 5.143c.495 1.595 1.008 2.29 2.106 2.29h3.46L54.784 7.996 63.371.019z" fill="#00B33C"></path></svg><svg width="12" height="10" viewBox="0 0 12 10" fill="none" id="check-green" y="317"><path fill-rule="evenodd" clip-rule="evenodd" d="M11.73.317a1 1 0 0 1-.047 1.413l-6.625 8a1 1 0 0 1-1.366 0L.317 6.64a1 1 0 1 1 1.366-1.46L4.375 7.63 10.317.27a1 1 0 0 1 1.413.047z" fill="#fff"></path></svg><svg width="15" height="15" viewBox="0 0 15 15" fill="none" id="close" y="327"><path fill-rule="evenodd" clip-rule="evenodd" d="M2.707.293a1 1 0 0 0-1.414 1.414L6.586 7l-5.293 5.293a1 1 0 1 0 1.414 1.414L8 8.414l5.293 5.293a1 1 0 0 0 1.414-1.414L9.414 7l5.293-5.293A1 1 0 0 0 13.293.293L8 5.586 2.707.293z" fill="#191C30"></path></svg><svg width="22" height="22" viewBox="0 0 22 22" fill="none" id="compare-card" y="342"><path fill-rule="evenodd" clip-rule="evenodd" d="M4 2a2 2 0 0 0-2 2v8a2 2 0 0 0 2 2h2v-4a4 4 0 0 1 4-4h4V4a2 2 0 0 0-2-2H4zm12 4V4a4 4 0 0 0-4-4H4a4 4 0 0 0-4 4v8a4 4 0 0 0 4 4h2v2a4 4 0 0 0 4 4h8a4 4 0 0 0 4-4v-8a4 4 0 0 0-4-4h-2zm-2 2h-.907L14 9.02V8zm-3.315 0H10c-.219 0-.43.035-.627.1l4.527 4.527A2 2 0 0 0 14 12v-.27L10.685 8zM8.1 9.373c-.065.197-.1.408-.1.627v.727L11.273 14H12a2 2 0 0 0 .627-.1L8.1 9.373zm-.1 3.9V14h.727L8 13.273zM8 16h4a4 4 0 0 0 4-4V8h2a2 2 0 0 1 2 2v8a2 2 0 0 1-2 2h-8a2 2 0 0 1-2-2v-2z" fill="#191C30"></path></svg><svg width="24" height="25" viewBox="0 0 24 25" fill="none" id="contacts" y="364"><path d="M16.05 13.274a6.54 6.54 0 0 0 2.245-3.3 6.508 6.508 0 0 0-.096-3.982 6.545 6.545 0 0 0-2.4-3.188 6.602 6.602 0 0 0-7.63 0 6.545 6.545 0 0 0-2.401 3.188 6.508 6.508 0 0 0-.096 3.983 6.54 6.54 0 0 0 2.244 3.299 10.956 10.956 0 0 0-4.65 3.521 10.87 10.87 0 0 0-2.169 5.397 1.091 1.091 0 0 0 .236.806 1.104 1.104 0 0 0 1.957-.566 8.706 8.706 0 0 1 2.87-5.529 8.798 8.798 0 0 1 5.846-2.22c2.156 0 4.237.79 5.845 2.22a8.706 8.706 0 0 1 2.87 5.53c.03.267.159.515.36.694a1.1 1.1 0 0 0 .736.276h.121c.287-.033.55-.178.73-.402.181-.225.266-.512.235-.798a10.87 10.87 0 0 0-2.18-5.41 10.957 10.957 0 0 0-4.672-3.52zm-4.066-.774a4.402 4.402 0 0 1-2.437-.735 4.367 4.367 0 0 1-1.615-1.957 4.339 4.339 0 0 1 .95-4.753 4.408 4.408 0 0 1 4.779-.945 4.38 4.38 0 0 1 1.969 1.606 4.344 4.344 0 0 1-.546 5.506 4.397 4.397 0 0 1-3.1 1.278z" fill="#000"></path></svg><svg width="16" height="16" viewBox="0 0 16 16" fill="none" id="copy-element" y="389"><path fill-rule="evenodd" clip-rule="evenodd" d="M2.195 2.195A.667.667 0 0 1 2.667 2h6a.667.667 0 0 1 .666.667v.666a.667.667 0 0 0 1.333 0v-.666a2 2 0 0 0-2-2h-6a2 2 0 0 0-2 2v6a2 2 0 0 0 2 2h.667a.667.667 0 0 0 0-1.334h-.667A.667.667 0 0 1 2 8.667v-6c0-.177.07-.347.195-.472zm5.138 3.138a2 2 0 0 0-2 2v6a2 2 0 0 0 2 2h6a2 2 0 0 0 2-2v-6a2 2 0 0 0-2-2h-6zm-.471 1.529a.667.667 0 0 1 .471-.195h6a.667.667 0 0 1 .667.666v6a.667.667 0 0 1-.667.667h-6a.667.667 0 0 1-.667-.667v-6c0-.177.07-.346.196-.471z" fill="#191C30"></path></svg><svg width="23" height="22" viewBox="0 0 23 22" fill="none" id="copy-white" y="405"><path fill-rule="evenodd" clip-rule="evenodd" d="M2.626 2.293A1 1 0 0 1 3.333 2h9a1 1 0 0 1 1 1v1a1 1 0 1 0 2 0V3a3 3 0 0 0-3-3h-9a3 3 0 0 0-3 3v9a3 3 0 0 0 3 3h1a1 1 0 1 0 0-2h-1a1 1 0 0 1-1-1V3a1 1 0 0 1 .293-.707zM10.333 7a3 3 0 0 0-3 3v9a3 3 0 0 0 3 3h9a3 3 0 0 0 3-3v-9a3 3 0 0 0-3-3h-9zm-.707 2.293A1 1 0 0 1 10.333 9h9a1 1 0 0 1 1 1v9a1 1 0 0 1-1 1h-9a1 1 0 0 1-1-1v-9a1 1 0 0 1 .293-.707z" fill="#fff"></path></svg><svg width="22" height="22" viewBox="0 0 22 22" fill="none" id="courier" y="427"><path d="M11 .09a10.937 10.937 0 0 0-9.989 6.535 10.912 10.912 0 0 0 1.956 11.768A10.93 10.93 0 0 0 11 21.91a10.938 10.938 0 0 0 8.034-3.516 10.916 10.916 0 0 0-2.068-16.518A10.937 10.937 0 0 0 11 .091zm0 19.658a8.748 8.748 0 0 1-6.066-2.457A6.553 6.553 0 0 1 11 13.228a6.562 6.562 0 0 1 6.066 4.063A8.748 8.748 0 0 1 11 19.748zM8.814 8.828a2.183 2.183 0 0 1 2.613-2.143 2.187 2.187 0 0 1 1.593 2.978A2.184 2.184 0 0 1 11 11.011a2.187 2.187 0 0 1-2.186-2.184zm9.739 6.551a8.742 8.742 0 0 0-4.274-3.69A4.367 4.367 0 0 0 11 4.43 4.375 4.375 0 0 0 7.015 7a4.365 4.365 0 0 0 .706 4.687 8.742 8.742 0 0 0-4.273 3.691 8.643 8.643 0 0 1-1.192-4.368c0-2.317.921-4.539 2.561-6.177a8.748 8.748 0 0 1 12.366 0 8.732 8.732 0 0 1 2.56 6.177 8.644 8.644 0 0 1-1.19 4.368z" fill="#191C30"></path></svg><svg width="161" height="24" viewBox="0 0 161 24" fill="none" id="delline" y="449"><g clip-path="url(#a)"><path d="M3.422 16.837l10.871 2.065.845-1.442-9.663-4.13-2.053 3.507zm5.036-8.606l8.456 6.197.845-1.442-7.247-8.263-2.053 3.508zm-2.525 4.32l9.662 4.13.861-1.473L8.001 9.01l-2.068 3.54zM13.275 0l-2.282 3.905 7.248 8.264 1.074-1.832L13.275 0zM.667 21.553h12.079l1.073-1.832-10.87-2.065-2.282 3.897zm19.168-4.825l2.826 4.825h3.213l-6.04-10.328-6.038 10.328h3.213l2.826-4.825z" fill="#FCAF17"></path><path d="M45.54 21.537h4.602L51.2 19.69h-5.66v1.847zm0-5.13v1.848h6.497l1.082-1.847h-7.58zm97.562 2.191v-5.456h-2.037v8.395h1.706l4.902-5.495v5.495h2.037v-8.395h-1.8l-4.808 5.456zm-85.586-5.456l-4.879 8.395h2.4l3.214-5.543 3.236 5.543h2.527l-4.879-8.395h-1.619zm-14.66 6.547l-4.878-8.402h-1.666l-4.88 8.402H30.21V24h1.942v-2.464h9.987V24h1.942v-4.31h-1.224zm-8.992 0l3.213-5.55 3.237 5.55h-6.45zm75.575-6.547h-9.482v1.847h8.392l1.09-1.847zm-54.426 0H45.54v1.847h8.392l1.081-1.847zm103.854 0l-4.808 5.456v-5.456h-2.037v8.395h1.713l4.895-5.495v5.495h2.037v-8.395h-1.8zm-22.152 3.266h-4.461v-3.266h-2.037v8.395h2.037v-3.282h4.461v3.282h2.037v-8.395h-2.037v3.266zm-24.781-3.266l-4.879 8.395h2.408l3.213-5.543 3.237 5.543h2.519l-4.88-8.395h-1.618zm-20.132 3.01h-3.094v-3.018H86.67v8.403h5.115c1.382 0 2.819-.756 2.819-2.736-.008-2.603-1.855-2.65-2.803-2.65zm-.118 3.608H88.7v-1.87h2.984c.347 0 .876.093.876.935 0 .78-.434.935-.876.935zm5.969-6.618h-2.014v8.403h2.014v-8.403zm-28.507-.203c-3.404 0-5.014 2.058-5.014 4.357 0 2.4 1.571 4.357 5.014 4.357 1.5 0 4.973-.685 4.973-4.357 0-2.4-1.555-4.357-4.973-4.357zm-.024 6.867c-1.966 0-2.795-1.114-2.795-2.486 0-1.505.947-2.51 2.795-2.51 2.084 0 2.794 1.005 2.794 2.51 0 1.8-1.365 2.486-2.794 2.486zm30.835 1.731h4.603l1.066-1.847h-5.669v1.847zm0-5.13v1.848h6.497l1.09-1.847h-7.587zm21.34 2.144v-5.41h-2.037v8.396h1.714l4.902-5.449v5.45h2.037v-8.396H126.2l-4.903 5.41zm-38.29-1.964c.537-.226.996-.592.996-1.505 0-1.738-1.477-1.94-2.519-1.94h-5.502v8.403h5.597c2.565 0 3.095-1.395 3.095-2.674.007-1.442-.822-2.035-1.666-2.284zm-5.012-1.668h3.26c.49 0 .695.25.695.733 0 .499-.324.756-.695.756h-3.26v-1.49zm3.584 4.84h-3.584v-1.8h3.584c.576 0 .995.14.995.889 0 .592-.253.912-.995.912z" fill="#000"></path></g><defs><clipPath id="a"><path fill="#fff" transform="translate(.667)" d="M0 0h160v24H0z"></path></clipPath></defs></svg><svg width="68" height="20" viewBox="0 0 68 20" fill="none" id="dolyame" y="473"><rect width="68" height="20" rx="4" fill="#191C30"></rect><g clip-path="url(#a)" fill="#fff"><path d="M15.94 6h-1.336v6.769h1.335V6zM13.071 6.379h-1.335v6.769h1.335v-6.77zM10.203 6.802H8.868v6.77h1.335v-6.77zM7.335 7.23H6V14h1.335V7.23zM51.194 9.606l-2.15-2.39h-1.256v5.533H49.1V9.22l1.962 2.092h.243l1.928-2.092v3.53h1.312V7.217H53.29l-2.095 2.39zM60.795 7.217l-3.252 3.596V7.217h-1.311v5.532h1.202l3.251-3.596v3.596h1.312V7.217h-1.202zM40.722 9.241c0 .881.482 1.575 1.221 1.866l-1.386 1.643h1.605l1.262-1.495h1.365v1.494H46.1V7.217h-3.34c-1.245 0-2.038.852-2.038 2.024zm4.067-.806v1.636h-1.785c-.596 0-.915-.332-.915-.818 0-.487.33-.82.915-.82l1.785.002zM34.626 8.323c-.08 1.903-.482 3.131-1.268 3.131h-.196v1.329l.21.01c1.575.089 2.446-1.294 2.59-4.315h2.072v4.271h1.31V7.217H34.67l-.044 1.106zM29.688 7.14c-1.775 0-3.051 1.228-3.051 2.843 0 1.67 1.389 2.855 3.05 2.855 1.732 0 3.076-1.25 3.076-2.855s-1.344-2.844-3.075-2.844zm0 4.37c-1.003 0-1.686-.653-1.686-1.527 0-.896.684-1.532 1.686-1.532 1.002 0 1.708.665 1.708 1.532s-.716 1.527-1.708 1.527zM25.246 7.227h-4.63l-.045 1.107c-.066 1.594-.481 3.11-1.267 3.132l-.364.01V14l1.323-.003V12.75h4.596v1.247h1.335v-2.531h-.948V7.227zm-1.312 4.239h-2.8c.474-.72.727-1.76.772-2.977h2.028v2.977z"></path></g><defs><clipPath id="a"><path fill="#fff" transform="translate(6 6)" d="M0 0h56v8H0z"></path></clipPath></defs></svg><svg width="14" height="14" viewBox="0 0 14 14" fill="none" id="download" y="493"><path fill-rule="evenodd" clip-rule="evenodd" d="M7 .333c.368 0 .667.299.667.667v6.39l2.195-2.195a.667.667 0 1 1 .943.943L7.472 9.471a.667.667 0 0 1-.943 0L3.195 6.138a.667.667 0 0 1 .943-.943l2.196 2.196V1c0-.368.298-.667.666-.667zm-6 8c.368 0 .667.299.667.667v2.667a.667.667 0 0 0 .666.666h9.334a.667.667 0 0 0 .667-.666V9a.667.667 0 0 1 1.333 0v2.667a2 2 0 0 1-2 2H2.333a2 2 0 0 1-2-2V9c0-.368.299-.667.667-.667z" fill="#191C30"></path></svg><svg width="23" height="21" viewBox="0 0 23 21" fill="none" id="favorites-card" y="507"><path fill-rule="evenodd" clip-rule="evenodd" d="M11.451 2.276C12.71 1.098 14.233 0 16.401 0a6.55 6.55 0 0 1 4.597 1.905c2.483 2.482 2.51 6.686 0 9.194l-8.84 8.84a1 1 0 0 1-1.414 0l-8.84-8.84c-2.51-2.51-2.51-6.685 0-9.194A6.501 6.501 0 0 1 6.5 0c2.172 0 3.691 1.096 4.95 2.275zM16.401 2c-1.685 0-2.827.963-4.243 2.38a1 1 0 0 1-1.414 0C9.325 2.96 8.19 2 6.5 2A4.501 4.501 0 0 0 3.318 3.32c-1.728 1.728-1.728 4.638 0 6.366l8.133 8.133 8.133-8.133c1.723-1.722 1.707-4.66 0-6.366A4.551 4.551 0 0 0 16.401 2z" fill="#191C30"></path></svg><svg width="15" height="16" viewBox="0 0 15 16" fill="none" id="filter-black" y="528"><path fill-rule="evenodd" clip-rule="evenodd" d="M14.014 2.667a.727.727 0 0 1-.728.727H8.62a.727.727 0 0 1 0-1.455h4.666c.402 0 .728.326.728.728zm0 5.333a.727.727 0 0 1-.728.727H10.68V10a.727.727 0 0 1-1.454 0V6a.727.727 0 0 1 1.454 0v1.273h2.606c.402 0 .728.325.728.727zm0 5.333a.727.727 0 0 1-.728.728h-6a.727.727 0 0 1 0-1.455h6c.402 0 .728.326.728.727zM8.014 8a.727.727 0 0 1-.728.727h-6a.727.727 0 1 1 0-1.454h6c.402 0 .728.325.728.727zM5.954-.06c.4 0 .726.325.726.727v4a.727.727 0 0 1-1.454 0V3.394h-3.94a.727.727 0 1 1 0-1.455h3.94V.667c0-.402.325-.728.727-.728zM4.62 10.605c.401 0 .727.326.727.727v4a.727.727 0 1 1-1.455 0v-1.272H1.286a.727.727 0 1 1 0-1.455h2.606v-1.273c0-.401.326-.727.728-.727z" fill="#191C30"></path></svg><svg width="14" height="16" viewBox="0 0 14 16" fill="none" id="filter-red" y="544"><path fill-rule="evenodd" clip-rule="evenodd" d="M13.87 2.667a.727.727 0 0 1-.727.727H8.476a.727.727 0 0 1 0-1.455h4.667c.401 0 .727.326.727.728zm0 5.333a.727.727 0 0 1-.727.727h-2.606V10a.727.727 0 0 1-1.455 0V6a.727.727 0 0 1 1.455 0v1.273h2.606c.401 0 .727.325.727.727zm0 5.333a.727.727 0 0 1-.727.728h-6a.727.727 0 0 1 0-1.455h6c.401 0 .727.326.727.727zM7.87 8a.727.727 0 0 1-.727.727h-6a.727.727 0 0 1 0-1.454h6c.402 0 .727.325.727.727zM5.81-.06c.401 0 .727.325.727.727v4a.727.727 0 0 1-1.455 0V3.394h-3.94a.727.727 0 0 1 0-1.455h3.94V.667c0-.402.326-.728.728-.728zM4.476 10.605c.402 0 .727.326.727.727v4a.727.727 0 1 1-1.454 0v-1.272H1.143a.727.727 0 0 1 0-1.455h2.606v-1.273c0-.401.326-.727.727-.727z" fill="#DF3151"></path></svg><svg width="49" height="49" viewBox="0 0 49 49" fill="none" id="footer-tg" y="560"><rect x=".75" y=".346" width="47.5" height="47.5" rx="23.75" stroke="#191C30" stroke-width=".5"></rect><path fill-rule="evenodd" clip-rule="evenodd" d="M13.537 22.764c6.202-2.702 10.337-4.483 12.406-5.343 5.908-2.458 7.136-2.884 7.936-2.899.176-.003.57.04.824.248.215.174.274.41.303.576.028.165.063.543.035.837-.32 3.364-1.705 11.527-2.41 15.294-.298 1.595-.885 2.129-1.454 2.181-1.235.114-2.173-.816-3.37-1.6-1.872-1.228-2.93-1.992-4.747-3.19-2.1-1.383-.739-2.144.458-3.387.313-.326 5.756-5.277 5.862-5.726.013-.056.025-.265-.1-.376-.123-.11-.307-.073-.44-.042-.187.042-3.178 2.02-8.973 5.93-.849.583-1.618.867-2.307.853-.76-.017-2.22-.43-3.306-.783-1.333-.433-2.391-.662-2.3-1.397.049-.384.576-.775 1.583-1.176z" fill="#191C30"></path></svg><svg width="49" height="49" viewBox="0 0 49 49" fill="none" id="footer-wa" y="609"><rect x=".75" y=".346" width="47.5" height="47.5" rx="23.75" stroke="#191C30" stroke-width=".5"></rect><path d="M12.5 36.096l1.696-6.16a11.777 11.777 0 0 1-1.593-5.948c0-6.559 5.364-11.892 11.949-11.892 3.197 0 6.2 1.238 8.452 3.485a11.764 11.764 0 0 1 3.496 8.413c0 6.559-5.364 11.891-11.954 11.891h-.006c-2 0-3.965-.502-5.713-1.448l-6.327 1.66zm6.63-3.81l.361.217a9.996 9.996 0 0 0 5.055 1.38h.006c5.472 0 9.93-4.431 9.93-9.884a9.813 9.813 0 0 0-2.905-6.992 9.88 9.88 0 0 0-7.025-2.897c-5.473-.006-9.932 4.426-9.932 9.878 0 1.865.522 3.684 1.519 5.259l.235.376-1.003 3.644 3.76-.98z" fill="#191C30"></path><path fill-rule="evenodd" clip-rule="evenodd" d="M21.566 19.014c-.224-.496-.459-.508-.671-.513-.172-.006-.372-.006-.573-.006-.2 0-.521.074-.797.37-.275.297-1.043 1.016-1.043 2.482 0 1.46 1.072 2.874 1.221 3.074.149.2 2.069 3.296 5.1 4.488 2.522.993 3.038.793 3.582.742.544-.052 1.765-.719 2.017-1.415.247-.695.247-1.289.172-1.414-.074-.126-.275-.2-.573-.348-.298-.148-1.765-.867-2.04-.97-.275-.097-.476-.148-.67.149-.201.296-.774.963-.946 1.163-.172.2-.35.223-.648.074-.298-.148-1.26-.462-2.4-1.477-.89-.787-1.49-1.762-1.663-2.059-.172-.296-.017-.456.132-.604.132-.132.298-.348.447-.52.15-.17.2-.296.298-.496.098-.2.052-.37-.023-.519-.074-.142-.659-1.614-.922-2.201z" fill="#191C30"></path></svg><svg width="14" height="10" viewBox="0 0 14 10" fill="none" id="head-catalog-burger-d" y="658"><path fill-rule="evenodd" clip-rule="evenodd" d="M.333 1C.333.632.631.333 1 .333h12a.667.667 0 0 1 0 1.334H1A.667.667 0 0 1 .333 1zm0 4c0-.368.298-.667.667-.667h12a.667.667 0 0 1 0 1.334H1A.667.667 0 0 1 .333 5zm0 4c0-.368.298-.667.667-.667h12a.667.667 0 0 1 0 1.334H1A.667.667 0 0 1 .333 9z" fill="#fff"></path></svg><svg width="48" height="48" viewBox="0 0 48 48" fill="none" id="lk-no-photo" y="668"><rect x=".5" y=".5" width="47" height="47" rx="23.5" stroke="#000"></rect><path d="M28.05 24.774a6.54 6.54 0 0 0 2.245-3.3 6.508 6.508 0 0 0-.096-3.982 6.545 6.545 0 0 0-2.4-3.188 6.603 6.603 0 0 0-7.63 0 6.545 6.545 0 0 0-2.401 3.188 6.508 6.508 0 0 0-.096 3.983 6.54 6.54 0 0 0 2.244 3.299 10.956 10.956 0 0 0-4.65 3.521 10.87 10.87 0 0 0-2.169 5.397 1.093 1.093 0 0 0 .236.806 1.104 1.104 0 0 0 1.957-.566 8.706 8.706 0 0 1 2.87-5.529 8.798 8.798 0 0 1 5.846-2.22c2.156 0 4.237.79 5.845 2.22a8.706 8.706 0 0 1 2.87 5.53c.03.267.159.514.36.694a1.1 1.1 0 0 0 .736.276h.121c.287-.033.55-.178.73-.402.181-.225.266-.512.235-.798a10.87 10.87 0 0 0-2.18-5.41 10.957 10.957 0 0 0-4.672-3.52zM23.985 24a4.402 4.402 0 0 1-2.437-.735 4.366 4.366 0 0 1-1.615-1.957 4.339 4.339 0 0 1 .95-4.753 4.407 4.407 0 0 1 4.779-.945 4.38 4.38 0 0 1 1.969 1.606 4.345 4.345 0 0 1-.546 5.506 4.397 4.397 0 0 1-3.1 1.278z" fill="#000"></path></svg><svg width="14" height="16" viewBox="0 0 14 16" fill="none" id="location-grey" y="716"><path fill-rule="evenodd" clip-rule="evenodd" d="M4.96 1.74a5.333 5.333 0 0 1 7.374 4.927c0 2.065-1.344 4.07-2.818 5.624A19.62 19.62 0 0 1 7 14.515a19.622 19.622 0 0 1-2.516-2.224c-1.473-1.555-2.817-3.559-2.817-5.624a5.333 5.333 0 0 1 3.292-4.928zm1.67 14.148l.37-.555.37.555a.667.667 0 0 1-.74 0zm0 0l.37-.555.37.554h.002l.005-.004.015-.01a6.916 6.916 0 0 0 .256-.18 20.93 20.93 0 0 0 2.836-2.484c1.527-1.612 3.183-3.941 3.183-6.542a6.667 6.667 0 1 0-13.334 0c0 2.601 1.657 4.93 3.183 6.542a20.935 20.935 0 0 0 3.037 2.626l.055.038.016.01.004.004h.002zM7 4a2.667 2.667 0 1 0 0 5.333A2.667 2.667 0 0 0 7 4zm.943 3.61a1.333 1.333 0 1 1-1.886-1.886 1.333 1.333 0 0 1 1.886 1.885z" fill="#191C30"></path></svg><svg width="72" height="24" viewBox="0 0 72 24" fill="none" id="mail-id" y="732"><path fill-rule="evenodd" clip-rule="evenodd" d="M33.966 17.665h-2.248V6.722h2.248v.766a4 4 0 0 1 2.729-1.045c1.594 0 2.78.666 3.597 1.74.89-1.06 2.36-1.74 3.856-1.74 2.806 0 4.719 1.887 4.719 4.827v6.4h-2.248v-6.4a2.602 2.602 0 0 0-2.6-2.592 2.6 2.6 0 0 0-2.6 2.592v6.4H39.17v-6.4a2.602 2.602 0 0 0-2.6-2.592 2.6 2.6 0 0 0-2.601 2.592v6.4l-.004-.005zM62.315 17.664h-2.248V16.47c-.803.907-2.222 1.479-3.554 1.479-3.19 0-5.777-2.579-5.777-5.755 0-3.176 2.588-5.755 5.777-5.755 1.332 0 2.678.499 3.554 1.384V6.717h2.248v10.947zm-5.73-8.927c1.97 0 3.512 1.402 3.512 3.456 0 2.054-1.547 3.464-3.511 3.464-1.964 0-3.46-1.508-3.46-3.464s1.496-3.456 3.46-3.456zM64.782 17.665h2.287V6.722h-2.287v10.943zm1.143-15.83a1.54 1.54 0 0 1 1.543 1.535 1.54 1.54 0 0 1-1.543 1.534 1.54 1.54 0 0 1-1.543-1.534 1.54 1.54 0 0 1 1.543-1.535zM69.537 17.665h2.287V2.222h-2.287v15.443z" fill="#005FF9"></path><path fill-rule="evenodd" clip-rule="evenodd" d="M16.619 12c0 1.99-1.625 3.61-3.627 3.61-2.003 0-3.628-1.62-3.628-3.61 0-1.99 1.625-3.61 3.627-3.61 2.003 0 3.628 1.62 3.628 3.61zM12.992 0C6.347 0 .94 5.385.94 12s5.407 12 12.052 12c2.436 0 4.783-.722 6.79-2.089l.035-.026-1.625-1.878-.026.017a9.578 9.578 0 0 1-5.17 1.513c-5.282 0-9.58-4.28-9.58-9.541s4.293-9.538 9.575-9.538c5.283 0 9.58 4.281 9.58 9.542 0 .683-.077 1.371-.223 2.05-.305 1.238-1.173 1.616-1.826 1.569-.658-.052-1.427-.52-1.432-1.663V12c0-3.348-2.733-6.069-6.094-6.069S6.9 8.656 6.9 12s2.734 6.069 6.095 6.069a6.063 6.063 0 0 0 4.32-1.793 3.92 3.92 0 0 0 3.012 1.793 4.085 4.085 0 0 0 2.768-.808c.722-.546 1.264-1.337 1.56-2.287.048-.155.134-.503.138-.507v-.013c.176-.76.258-1.521.258-2.458C25.047 5.386 19.64 0 12.992 0z" fill="#FF9E00"></path></svg><svg width="16" height="2" viewBox="0 0 16 2" fill="none" id="minus" y="756"><path fill-rule="evenodd" clip-rule="evenodd" d="M0 1a1 1 0 0 1 1-1h14a1 1 0 1 1 0 2H1a1 1 0 0 1-1-1z" fill="#191C30"></path></svg><svg width="49" height="48" viewBox="0 0 49 48" fill="none" id="partners-ok" y="758"><rect x=".666" width="48" height="48" rx="24" fill="#F7931E"></rect><path d="M24.773 11.129c-3.665 0-6.636 2.986-6.636 6.67 0 3.684 2.97 6.67 6.636 6.67 3.665 0 6.636-2.986 6.636-6.67 0-3.684-2.97-6.67-6.636-6.67zm0 9.428a2.75 2.75 0 0 1-2.743-2.758 2.75 2.75 0 0 1 2.743-2.757 2.75 2.75 0 0 1 2.743 2.757 2.75 2.75 0 0 1-2.743 2.758zM27.116 29.781c2.656-.544 4.248-1.809 4.333-1.877a1.82 1.82 0 0 0 .278-2.55 1.798 1.798 0 0 0-2.536-.28c-.016.014-1.714 1.323-4.508 1.325-2.794-.002-4.528-1.311-4.545-1.325a1.798 1.798 0 0 0-2.536.28 1.82 1.82 0 0 0 .279 2.55c.085.07 1.743 1.367 4.474 1.898l-3.806 3.999a1.82 1.82 0 0 0 .046 2.564 1.795 1.795 0 0 0 2.551-.047l3.537-3.786 3.893 3.81a1.798 1.798 0 0 0 2.552-.001 1.82 1.82 0 0 0-.002-2.565l-4.01-3.995zM24.683 26.398c-.005 0 .005 0 0 0s.006 0 0 0z" fill="#fff"></path></svg><svg width="49" height="48" viewBox="0 0 49 48" fill="none" id="partners-tg" y="806"><rect x=".666" width="48" height="48" rx="24" fill="#3395E3"></rect><path fill-rule="evenodd" clip-rule="evenodd" d="M13.703 22.672c6.202-2.702 10.337-4.483 12.406-5.344 5.908-2.457 7.136-2.884 7.936-2.898.176-.003.57.04.824.247.215.175.274.41.303.576.028.166.063.543.035.838-.32 3.363-1.705 11.526-2.41 15.294-.298 1.594-.885 2.128-1.454 2.18-1.235.114-2.173-.816-3.37-1.6-1.872-1.227-2.93-1.991-4.747-3.189-2.1-1.384-.739-2.145.458-3.388.313-.325 5.756-5.276 5.862-5.725.013-.056.025-.266-.1-.376-.123-.11-.307-.073-.44-.043-.187.043-3.178 2.02-8.973 5.93-.849.584-1.618.868-2.306.853-.76-.016-2.221-.43-3.307-.783-1.332-.433-2.391-.662-2.3-1.397.049-.383.576-.775 1.583-1.175z" fill="#fff"></path></svg><svg width="49" height="48" viewBox="0 0 49 48" fill="none" id="partners-vb" y="854"><rect x=".666" width="48" height="48" rx="24" fill="#7360F2"></rect><g clip-path="url(#a)"><path d="M33.957 13.536c-.629-.596-3.17-2.492-8.83-2.517 0 0-6.676-.414-9.93 2.653-1.812 1.861-2.449 4.584-2.516 7.961-.067 3.377-.154 9.705 5.783 11.42h.006l-.004 2.619s-.038 1.06.641 1.276c.822.262 1.305-.543 2.09-1.412a68.138 68.138 0 0 0 1.473-1.712c4.06.35 7.183-.452 7.538-.57.82-.273 5.46-.884 6.214-7.211.779-6.522-.377-10.648-2.465-12.507zm.688 12.039c-.637 5.283-4.4 5.615-5.094 5.844-.295.097-3.038.798-6.487.567 0 0-2.57 3.185-3.373 4.014-.125.13-.273.181-.37.156-.14-.035-.177-.203-.176-.449.003-.351.022-4.35.022-4.35-5.022-1.433-4.73-6.82-4.672-9.64.057-2.82.572-5.13 2.104-6.684 2.753-2.561 8.423-2.179 8.423-2.179 4.788.022 7.083 1.503 7.614 2 1.767 1.553 2.667 5.272 2.009 10.72z" fill="#fff"></path><path d="M27.455 21.488c-.062-1.29-.7-1.968-1.913-2.033m3.556 2.598c.025-1.201-.321-2.205-1.04-3.012-.721-.809-1.72-1.254-3.002-1.35m5.723 5.038c-.015-2.085-.622-3.727-1.819-4.927-1.198-1.199-2.687-1.805-4.468-1.818" stroke="#fff" stroke-linecap="round" stroke-linejoin="round"></path><path d="M25.606 25.892s.45.038.692-.268l.473-.61c.227-.303.777-.497 1.316-.188.403.236.795.493 1.174.77.357.27 1.089.897 1.091.897.349.302.43.746.192 1.215l-.002.01a5.04 5.04 0 0 1-.983 1.243c-.005.002-.005.005-.009.007-.339.29-.671.456-.998.496a1.297 1.297 0 0 1-.57-.058l-.011-.016c-.504-.146-1.345-.51-2.745-1.304a16.317 16.317 0 0 1-2.306-1.565c-.363-.295-.709-.61-1.037-.945l-.035-.036-.035-.036-.034-.036-.035-.036a12.321 12.321 0 0 1-.92-1.065 16.852 16.852 0 0 1-1.523-2.369c-.773-1.439-1.128-2.302-1.27-2.82l-.016-.01a1.4 1.4 0 0 1-.065-.437c-.002-.05 0-.1.009-.15.04-.335.202-.677.483-1.026.003-.004.005-.004.007-.009.349-.4.758-.741 1.21-1.01l.01-.002c.456-.244.888-.161 1.182.195.002.002.612.754.873 1.121.27.39.52.792.75 1.207.3.553.112 1.12-.183 1.353l-.594.485c-.3.249-.26.711-.26.711s.88 3.423 4.169 4.285z" fill="#fff"></path></g><defs><clipPath id="a"><path fill="#fff" transform="translate(12.666 11)" d="M0 0h24v26H0z"></path></clipPath></defs></svg><svg width="49" height="48" viewBox="0 0 49 48" fill="none" id="partners-vk" y="902"><rect x=".666" width="48" height="48" rx="24" fill="#07F"></rect><path d="M25.977 32.524c-9.199 0-14.446-6.307-14.665-16.801h4.609c.15 7.702 3.548 10.965 6.239 11.638V15.723h4.34v6.643c2.656-.286 5.448-3.313 6.39-6.643h4.339c-.724 4.103-3.75 7.13-5.903 8.375 2.152 1.009 5.6 3.65 6.912 8.426H33.46c-1.026-3.196-3.582-5.668-6.962-6.004v6.004h-.521z" fill="#fff"></path></svg><svg width="49" height="48" viewBox="0 0 49 48" fill="none" id="partners-wa" y="950"><rect x=".666" width="48" height="48" rx="24" fill="#2AE053"></rect><path d="M12.666 36l1.696-6.16a11.777 11.777 0 0 1-1.593-5.948C12.77 17.332 18.133 12 24.718 12c3.197 0 6.2 1.238 8.452 3.485a11.764 11.764 0 0 1 3.496 8.412c0 6.56-5.364 11.892-11.954 11.892h-.006c-2 0-3.965-.502-5.713-1.449L12.666 36zm6.63-3.81l.361.217a9.995 9.995 0 0 0 5.055 1.38h.006c5.472 0 9.93-4.431 9.93-9.884a9.814 9.814 0 0 0-2.905-6.992 9.88 9.88 0 0 0-7.025-2.898c-5.473-.005-9.932 4.426-9.932 9.879 0 1.865.522 3.684 1.519 5.258l.235.377-1.003 3.644 3.76-.98z" fill="#fff"></path><path fill-rule="evenodd" clip-rule="evenodd" d="M21.732 18.917c-.224-.496-.459-.507-.671-.513-.172-.006-.372-.006-.573-.006-.2 0-.521.075-.797.371-.275.297-1.043 1.015-1.043 2.481 0 1.46 1.072 2.875 1.221 3.074.15.2 2.069 3.297 5.1 4.489 2.522.992 3.038.793 3.582.741.544-.051 1.765-.718 2.017-1.414.247-.696.247-1.29.172-1.415-.074-.125-.275-.2-.573-.348-.298-.148-1.765-.866-2.04-.97-.275-.096-.476-.147-.67.15-.201.296-.774.963-.946 1.163-.172.2-.35.222-.648.074-.298-.148-1.26-.462-2.4-1.477-.89-.787-1.49-1.763-1.663-2.06-.172-.296-.017-.456.132-.604.132-.131.298-.348.447-.519.15-.17.2-.296.298-.496.098-.2.052-.37-.023-.519-.074-.143-.659-1.614-.922-2.202z" fill="#fff"></path></svg><svg width="24" height="24" viewBox="0 0 24 24" fill="none" id="phone" y="998"><path fill-rule="evenodd" clip-rule="evenodd" d="M14.66.006a1 1 0 1 0-.22 1.988 8 8 0 0 1 7.066 7.058 1 1 0 0 0 1.988-.224A10 10 0 0 0 14.661.006zm.082 4.012a1 1 0 0 0-.383 1.963 4 4 0 0 1 3.16 3.16 1 1 0 0 0 1.963-.383 6 6 0 0 0-4.74-4.74zm-7.122.838a1.02 1.02 0 0 0-1-.856H3.61c-.557 0-1.04.524-.994 1.084.932 8.733 8.111 15.891 16.802 16.84.415.035.833-.214.999-.594.147-.338.197-.815.18-1.455-.008-.283-.027-.569-.047-.87l-.006-.088a15.221 15.221 0 0 1-.044-1.022 1.02 1.02 0 0 0-.855-1.014 13.777 13.777 0 0 1-3.025-.754l-.002-.001a1.036 1.036 0 0 0-1.053.223l-1.268 1.268a1 1 0 0 1-1.201.162 17 17 0 0 1-6.375-6.375 1 1 0 0 1 .162-1.201c.164-.164.317-.31.46-.445.336-.32.615-.585.84-.903.262-.374.315-.643.191-.973V7.88a13.833 13.833 0 0 1-.754-3.024zM6.606 2A3.02 3.02 0 0 1 9.6 4.58l.002.009c.117.886.333 1.755.645 2.59.429 1.143.078 2.107-.43 2.827-.27.385-.633.757-.958 1.072a15.002 15.002 0 0 0 4.577 4.572l.717-.717.004-.004a3.035 3.035 0 0 1 3.164-.675c.836.312 1.705.528 2.59.645h.009a3.02 3.02 0 0 1 2.58 3.032c0 .249.018.528.04.852l.006.092c.02.294.041.62.05.946.02.701-.015 1.549-.346 2.309a3.02 3.02 0 0 1-3.02 1.786l-.018-.002C9.582 22.868 1.654 14.966.626 5.286L.624 5.27C.467 3.529 1.884 2.002 3.61 2h2.997z" fill="#000"></path></svg><svg width="21" height="24" viewBox="0 0 21 24" fill="none" id="pick-up-point" y="1022"><path fill-rule="evenodd" clip-rule="evenodd" d="M7.272 2.609A8 8 0 0 1 18.333 10c0 3.098-2.015 6.104-4.225 8.437a29.412 29.412 0 0 1-3.774 3.336 29.418 29.418 0 0 1-3.774-3.335C4.35 16.103 2.332 13.097 2.332 10a8 8 0 0 1 4.939-7.391zm2.506 21.223l.556-.832.554.832a1.001 1.001 0 0 1-1.11 0zm0 0l.556-.832c.554.832.555.831.556.831l.002-.001.006-.005.023-.015a11.636 11.636 0 0 0 .385-.27 31.423 31.423 0 0 0 4.254-3.727c2.29-2.417 4.774-5.911 4.774-9.813a10 10 0 0 0-20 0c0 3.902 2.484 7.396 4.774 9.813a31.428 31.428 0 0 0 4.253 3.726 19.154 19.154 0 0 0 .385.27l.023.016.006.005.003.002zM10.334 6a4 4 0 1 0 0 8 4 4 0 0 0 0-8zm1.414 5.414a2 2 0 1 1-2.829-2.828 2 2 0 0 1 2.829 2.828z" fill="#000"></path></svg><svg width="16" height="16" viewBox="0 0 16 16" fill="none" id="plus" y="1046"><path fill-rule="evenodd" clip-rule="evenodd" d="M8 0a1 1 0 0 1 1 1v6h6a1 1 0 1 1 0 2H9v6a1 1 0 1 1-2 0V9H1a1 1 0 0 1 0-2h6V1a1 1 0 0 1 1-1z" fill="#191C30"></path></svg><svg width="23" height="22" viewBox="0 0 23 22" fill="none" id="product-props-icon" y="1062"><path fill-rule="evenodd" clip-rule="evenodd" d="M.5 11c0-6.075 4.925-11 11-11s11 4.925 11 11-4.925 11-11 11-11-4.925-11-11zm11-9a9 9 0 0 0-9 9 9 9 0 0 0 9 9 9 9 0 0 0 9-9 9 9 0 0 0-9-9zm0 4a1 1 0 0 1 1 1v4a1 1 0 1 1-2 0V7a1 1 0 0 1 1-1zm-1 9a1 1 0 0 1 1-1h.01a1 1 0 1 1 0 2h-.01a1 1 0 0 1-1-1z" fill="#229B7C"></path></svg><svg width="6" height="10" viewBox="0 0 6 10" fill="none" id="product-slider-next" y="1084"><path fill-rule="evenodd" clip-rule="evenodd" d="M.529.527c.26-.26.682-.26.943 0l4 4c.26.26.26.683 0 .943l-4 4a.667.667 0 0 1-.943-.943L4.057 5 .53 1.47a.667.667 0 0 1 0-.943z" fill="#191C30"></path></svg><svg width="6" height="10" viewBox="0 0 6 10" fill="none" id="product-slider-prev" y="1094"><path fill-rule="evenodd" clip-rule="evenodd" d="M5.472.527c.26.26.26.683 0 .943L1.943 5l3.529 3.528a.667.667 0 1 1-.943.943l-4-4a.667.667 0 0 1 0-.943l4-4c.26-.26.682-.26.943 0z" fill="#191C30"></path></svg><svg width="21" height="22" viewBox="0 0 21 22" fill="none" id="self-pickup" y="1104"><path fill-rule="evenodd" clip-rule="evenodd" d="M10.004.32a1.07 1.07 0 0 1 1.325 0l8.74 6.873c.262.207.416.525.416.862v10.8c0 .81-.319 1.587-.885 2.16a3.004 3.004 0 0 1-2.136.894H3.869c-.8 0-1.57-.322-2.136-.895a3.072 3.072 0 0 1-.885-2.16v-10.8c0-.336.154-.654.417-.86L10.005.32zM3.006 8.589v10.267c0 .231.091.453.253.617a.858.858 0 0 0 .61.255h13.595a.858.858 0 0 0 .61-.255.877.877 0 0 0 .253-.617V8.588l-7.66-6.024-7.66 6.024z" fill="#000"></path><path fill-rule="evenodd" clip-rule="evenodd" d="M6.674 11c0-.602.483-1.09 1.079-1.09h5.826c.596 0 1.079.488 1.079 1.09v9.818c0 .603-.483 1.091-1.08 1.091a1.085 1.085 0 0 1-1.078-1.09V12.09H8.832v8.727c0 .603-.483 1.091-1.08 1.091a1.085 1.085 0 0 1-1.078-1.09V11z" fill="#000"></path></svg><svg width="14" height="16" viewBox="0 0 14 16" fill="none" id="share" y="1126"><path fill-rule="evenodd" clip-rule="evenodd" d="M11 11.394a1.273 1.273 0 1 0 0 2.545 1.273 1.273 0 0 0 0-2.545zm-2.728 1.273a2.727 2.727 0 1 1 5.455 0 2.727 2.727 0 0 1-5.455 0zM3 6.727a1.273 1.273 0 1 0 0 2.546 1.273 1.273 0 0 0 0-2.546zM.272 8a2.727 2.727 0 1 1 5.455 0A2.727 2.727 0 0 1 .272 8z" fill="#191C30"></path><path fill-rule="evenodd" clip-rule="evenodd" d="M4.098 8.64a.727.727 0 0 1 .995-.262l4.553 2.654a.727.727 0 0 1-.732 1.256L4.36 9.635a.727.727 0 0 1-.262-.994zM11 2.06a1.273 1.273 0 1 0 0 2.546 1.273 1.273 0 0 0 0-2.545zM8.272 3.334a2.727 2.727 0 1 1 5.455 0 2.727 2.727 0 0 1-5.455 0z" fill="#191C30"></path><path fill-rule="evenodd" clip-rule="evenodd" d="M9.901 3.973a.727.727 0 0 1-.261.995L5.093 7.621a.727.727 0 0 1-.733-1.256l4.546-2.653a.727.727 0 0 1 .995.261z" fill="#191C30"></path></svg><svg width="22" height="24" viewBox="0 0 22 24" fill="none" id="share-card" y="1142"><path fill-rule="evenodd" clip-rule="evenodd" d="M17 17.09a1.91 1.91 0 1 0 0 3.819 1.91 1.91 0 0 0 0-3.818zM12.91 19a4.09 4.09 0 1 1 8.18 0 4.09 4.09 0 0 1-8.18 0zM5 10.09a1.91 1.91 0 1 0 0 3.819 1.91 1.91 0 0 0 0-3.818zM.91 12a4.09 4.09 0 1 1 8.181 0 4.09 4.09 0 0 1-8.182 0z" fill="#191C30"></path><path fill-rule="evenodd" clip-rule="evenodd" d="M6.648 12.96c.303-.52.97-.696 1.491-.393l6.83 3.98a1.09 1.09 0 1 1-1.098 1.886l-6.83-3.98a1.09 1.09 0 0 1-.393-1.492zM17 3.09a1.91 1.91 0 1 0 0 3.819 1.91 1.91 0 0 0 0-3.818zM12.91 5a4.09 4.09 0 1 1 8.18 0 4.09 4.09 0 0 1-8.18 0z" fill="#191C30"></path><path fill-rule="evenodd" clip-rule="evenodd" d="M15.352 5.96a1.09 1.09 0 0 1-.392 1.492l-6.82 3.98a1.091 1.091 0 0 1-1.1-1.884l6.82-3.98a1.091 1.091 0 0 1 1.492.392z" fill="#191C30"></path></svg><svg width="8" height="14" viewBox="0 0 8 14" fill="none" id="slider-home-next" y="1166"><path fill-rule="evenodd" clip-rule="evenodd" d="M.293.293a1 1 0 0 1 1.414 0l6 6a1 1 0 0 1 0 1.414l-6 6a1 1 0 0 1-1.414-1.414L5.586 7 .293 1.707a1 1 0 0 1 0-1.414z" fill="#191C30"></path></svg><svg width="8" height="14" viewBox="0 0 8 14" fill="none" id="slider-home-prev" y="1180"><path fill-rule="evenodd" clip-rule="evenodd" d="M7.707.293a1 1 0 0 1 0 1.414L2.414 7l5.293 5.293a1 1 0 1 1-1.414 1.414l-6-6a1 1 0 0 1 0-1.414l6-6a1 1 0 0 1 1.414 0z" fill="#191C30"></path></svg><svg width="16" height="17" viewBox="0 0 16 17" fill="none" id="telegram" y="1194"><path fill-rule="evenodd" clip-rule="evenodd" d="M8 .5a8 8 0 1 0 .001 16.001A8 8 0 0 0 8 .5zm3.708 5.441c-.12 1.264-.642 4.334-.906 5.751-.111.6-.333.8-.546.82-.465.043-.817-.308-1.267-.602-.703-.461-1.102-.748-1.785-1.199-.79-.52-.278-.806.172-1.274.118-.122 2.164-1.985 2.204-2.153.005-.022.01-.1-.037-.142-.047-.04-.116-.027-.166-.015-.07.015-1.195.759-3.375 2.23-.32.218-.61.325-.868.32-.286-.006-.835-.16-1.244-.294-.5-.162-.9-.25-.865-.526.018-.144.216-.292.595-.442a409.947 409.947 0 0 1 4.665-2.01c2.222-.924 2.683-1.085 2.985-1.09.378-.005.467.306.437.626h.001z" fill="#2DA5E0"></path></svg><svg width="24" height="25" viewBox="0 0 24 25" fill="none" id="tuiIconHeartLarge" y="1211"><path fill-rule="evenodd" clip-rule="evenodd" d="M12.45 4.776C13.71 3.598 15.233 2.5 17.4 2.5a6.55 6.55 0 0 1 4.598 1.905c2.483 2.482 2.509 6.686 0 9.194l-8.84 8.84a1 1 0 0 1-1.415 0l-8.84-8.84c-2.509-2.51-2.509-6.685 0-9.194A6.501 6.501 0 0 1 7.501 2.5c2.172 0 3.69 1.096 4.95 2.275zM17.4 4.5c-1.685 0-2.826.963-4.242 2.38a1 1 0 0 1-1.415 0C10.325 5.46 9.19 4.5 7.501 4.5A4.501 4.501 0 0 0 4.318 5.82c-1.729 1.728-1.729 4.638 0 6.366l8.133 8.133 8.132-8.133c1.723-1.722 1.708-4.66 0-6.366A4.551 4.551 0 0 0 17.402 4.5z" fill="#000"></path></svg><svg width="16" height="17" viewBox="0 0 16 17" fill="none" id="tuiIconPin" y="1236"><g clip-path="url(#a)"><path fill-rule="evenodd" clip-rule="evenodd" d="M3 7.227c0-1.237.514-2.433 1.446-3.325A5.148 5.148 0 0 1 7.996 2.5H8a5.15 5.15 0 0 1 3.553 1.4l.004.005A4.6 4.6 0 0 1 13 7.229c0 1.807-1.246 3.626-2.71 5.1A18.969 18.969 0 0 1 8 14.286a18.972 18.972 0 0 1-2.29-1.955C4.245 10.854 3 9.035 3 7.227zm12 0h-1l1-.004a6.598 6.598 0 0 0-2.069-4.771A7.15 7.15 0 0 0 8.001.5a7.148 7.148 0 0 0-4.93 1.95l-.005.004C1.75 3.712 1 5.427 1 7.227c0 2.647 1.755 4.964 3.29 6.512a20.981 20.981 0 0 0 3.149 2.589l.016.01.005.004.002.001L8 15.5l-.537.844a1 1 0 0 0 1.074 0L8 15.5l.537.843h.001l.002-.001.005-.003.016-.011a6.54 6.54 0 0 0 .264-.177 20.985 20.985 0 0 0 2.884-2.412C13.246 12.19 15 9.874 15 7.227zM8 4.5a3 3 0 1 0 0 6 3 3 0 0 0 0-6zm.707 3.707a1 1 0 1 1-1.414-1.414 1 1 0 0 1 1.414 1.414z" fill="#DF3151"></path></g><defs><clipPath id="a"><path fill="#fff" transform="translate(0 .5)" d="M0 0h16v16H0z"></path></clipPath></defs></svg><svg width="24" height="25" viewBox="0 0 24 25" fill="none" id="tuiIconSearchLarge" y="1253"><path fill-rule="evenodd" clip-rule="evenodd" d="M5.197 5.697a7.5 7.5 0 0 1 11.266 9.852l4.244 4.244a1 1 0 0 1-1.414 1.414l-4.244-4.244A7.5 7.5 0 0 1 5.197 5.697zM10.5 5.5a5.5 5.5 0 1 0 0 11 5.5 5.5 0 0 0 0-11z" fill="#000"></path></svg><svg width="19" height="18" viewBox="0 0 19 18" fill="none" id="value-question" y="1278"><path fill-rule="evenodd" clip-rule="evenodd" d="M9.5-.001a9 9 0 1 0 0 18 9 9 0 0 0 0-18zm-4.95 4.05a7 7 0 1 1 9.9 9.9 7 7 0 0 1-9.9-9.9zM8.94 6.8a1 1 0 0 1 1.507.865v.002c0 .135-.115.375-.555.668a3.701 3.701 0 0 1-.758.382l-.007.002a1 1 0 0 0 .636 1.896h.003l.003-.002.01-.002.026-.01.084-.03a5.692 5.692 0 0 0 1.113-.571c.56-.375 1.444-1.135 1.445-2.331a3 3 0 0 0-5.83-1 1 1 0 0 0 1.887.662 1 1 0 0 1 .436-.53zm.56 4.534a1 1 0 1 0 0 2h.007a1 1 0 1 0 0-2H9.5z" fill="#7C7C7C"></path></svg><svg width="52" height="24" viewBox="0 0 52 24" fill="none" id="vk-id" y="1296"><path fill-rule="evenodd" clip-rule="evenodd" d="M33.296 4.232c.773.02 1.547.02 2.32 0 0 4.634-.02 9.268.012 13.902-.782-.009-1.562-.009-2.344 0 .03-4.634.012-9.268.012-13.902zm5.208.002c2.008.033 4.02-.07 6.027.058 2.066.076 4.16 1.023 5.376 2.73 1.532 2.096 1.715 5.048.574 7.36-.643 1.37-1.832 2.44-3.204 3.056-1.287.615-2.742.692-4.144.68-1.543-.004-3.086-.002-4.63-.002-.004-4.627 0-9.255 0-13.882zm2.376 2.173c-.007 3.19 0 6.38 0 9.571 1.29-.032 2.589.067 3.875-.083 1.115-.12 2.198-.641 2.915-1.516 1.381-1.68 1.444-4.263.26-6.066-.503-.761-1.313-1.258-2.132-1.61-1.594-.472-3.28-.25-4.916-.296h-.002z" fill="#000"></path><path fill-rule="evenodd" clip-rule="evenodd" d="M7.455.102c3.431-.143 6.872-.12 10.303-.025 1.807.097 3.787.217 5.22 1.462 1.292 1.196 1.637 3.051 1.709 4.738.18 3.84.18 7.686-.005 11.526-.08 1.682-.44 3.547-1.779 4.702-1.224 1.04-2.894 1.29-4.447 1.358-3.905.185-7.822.19-11.723-.028-1.624-.095-3.403-.514-4.479-1.828C1.25 20.763 1.016 19.104.95 17.554.78 13.718.776 9.872.972 6.039c.086-1.617.468-3.376 1.71-4.512C3.996.398 5.794.192 7.455.102zM4.89 7.186c.077 2.816.796 5.835 2.934 7.816 1.622 1.62 3.973 2.177 6.198 2.211.016-1.198-.007-2.399.021-3.597 1.904.245 3.487 1.742 4 3.565.963.035 1.925.023 2.89.019-.63-2.099-2.024-4.012-3.996-5.023 1.73-1.148 2.948-2.955 3.41-4.974a58.231 58.231 0 0 0-2.62-.017c-.544 1.763-1.775 3.58-3.693 3.97-.012-1.325.002-2.649-.007-3.974h-2.642c-.012 2.311.009 4.625-.012 6.934-1.022-.313-1.876-1.04-2.434-1.94-.974-1.475-1.242-3.27-1.31-4.999-.91.005-1.825.005-2.736.007l-.003.002z" fill="#07F"></path></svg><svg width="16" height="17" viewBox="0 0 16 17" fill="none" id="whatsapp" y="1320"><path fill-rule="evenodd" clip-rule="evenodd" d="M13.67 2.836A7.914 7.914 0 0 0 8.034.5C3.644.5.07 4.073.067 8.466c0 1.404.366 2.775 1.064 3.983L0 16.577l4.223-1.109a7.948 7.948 0 0 0 3.806.97h.004c4.39 0 7.965-3.574 7.967-7.967a7.915 7.915 0 0 0-2.33-5.636v.001zm-2.005 7.298c-.198-.1-1.178-.581-1.36-.647-.183-.066-.315-.1-.448.098a11.88 11.88 0 0 1-.63.782c-.116.132-.233.15-.432.05-.199-.1-.841-.31-1.602-.988a5.995 5.995 0 0 1-1.107-1.38c-.116-.199-.012-.306.087-.406.09-.089.199-.232.3-.349.1-.116.134-.198.2-.331s.035-.25-.016-.35c-.05-.098-.448-1.079-.614-1.477-.162-.388-.326-.335-.448-.342a7.567 7.567 0 0 0-.382-.007.729.729 0 0 0-.53.25c-.183.2-.698.681-.698 1.66 0 .98.714 1.927.813 2.06.1.132 1.403 2.144 3.4 3.005.475.205.846.328 1.136.42.477.151.911.13 1.254.08.383-.058 1.178-.482 1.344-.947.165-.465.167-.864.115-.947-.05-.084-.182-.134-.38-.234h-.002z" fill="#24D366"></path></svg><svg width="75" height="24" viewBox="0 0 75 24" fill="none" id="ya-id" y="1337"><path fill-rule="evenodd" clip-rule="evenodd" d="M51.844 12c0 6.628-5.372 12-12 12-6.629 0-12-5.372-12-12s5.371-12 12-12c-.88 0-1.759.098-2.617.29l.55 2.458c-4.242.944-7.41 4.729-7.41 9.252a9.479 9.479 0 0 0 9.48 9.48A9.479 9.479 0 0 0 49.324 12h2.521-.002zm-12-12v2.52c4.525 0 8.308 3.172 9.252 7.41l2.459-.549c.19.86.289 1.737.289 2.617C51.844 5.372 46.47 0 39.844 0zm0 19.094a7.097 7.097 0 0 0 6.516-4.284l-2.31-1.008a4.578 4.578 0 0 1-4.206 2.771 4.553 4.553 0 0 1-4.182-2.719l-2.31 1.009a7.096 7.096 0 0 0 6.494 4.231h-.002zM55.934 2.712v18.13h3.116V2.711h-3.116zm5.684 0v18.13h3.938c4.946 0 8.504-3.234 8.504-9.155 0-6.679-3.529-8.972-8.243-8.972h-4.199v-.003zm3.694 15.678h-.566V5.166h.822c3.145 0 5.336 1.604 5.336 6.47-.01 4.486-2.227 6.756-5.601 6.756h.01v-.002z" fill="#000"></path><path fill-rule="evenodd" clip-rule="evenodd" d="M10.68.098c2.39-.31 4.87.122 7.01 1.226a12.039 12.039 0 0 1 5.697 6.3 12.003 12.003 0 0 1-3.978 13.977 12.002 12.002 0 0 1-13.601.542 12.032 12.032 0 0 1-5.042-6.552 12.028 12.028 0 0 1 0-7.192 12.016 12.016 0 0 1 4.177-5.945A12.03 12.03 0 0 1 10.68.098z" fill="#FC3F1D"></path><path fill-rule="evenodd" clip-rule="evenodd" d="M7.977 6.425c-1.02 1.298-1.106 3.104-.674 4.643.44 1.453 1.608 2.524 2.813 3.374-1.133 1.685-2.273 3.367-3.403 5.056.944.003 1.888 0 2.831 0a1831.65 1831.65 0 0 0 3.812-5.668c-.789-.552-1.613-1.06-2.364-1.663-.805-.662-1.326-1.658-1.33-2.707-.127-.987.36-2.045 1.27-2.492.964-.543 2.094-.43 3.157-.433v12.966h2.626v-15c-1.682.032-3.369-.08-5.044.087-1.386.16-2.812.702-3.69 1.837h-.004z" fill="#FEFEFE"></path></svg></svg>