<svg width="110" height="111" viewBox="0 0 110 111" fill="none" xmlns="http://www.w3.org/2000/svg">
<path fill-rule="evenodd" clip-rule="evenodd" d="M0 55.4999C0 25.1235 24.6236 0.499939 55 0.499939C85.3764 0.499939 110 25.1235 110 55.4999C110 85.8764 85.3764 110.5 55 110.5C24.6236 110.5 0 85.8764 0 55.4999ZM55 10.4999C30.1464 10.4999 10 30.6464 10 55.4999C10 80.3535 30.1464 100.5 55 100.5C79.8536 100.5 100 80.3535 100 55.4999C100 30.6464 79.8536 10.4999 55 10.4999Z" fill="#229B7C"/>
<path fill-rule="evenodd" clip-rule="evenodd" d="M75.8449 39.2835C77.8974 41.1308 78.0638 44.2923 76.2165 46.3448L53.7165 71.3448C52.8265 72.3337 51.579 72.9272 50.2502 72.9937C48.9214 73.0603 47.6209 72.5945 46.6365 71.6995L34.1365 60.3345C32.0933 58.4768 31.9429 55.3146 33.8005 53.2714C35.6582 51.2282 38.8204 51.0778 40.8636 52.9355L49.6454 60.9198L68.7836 39.6552C70.6309 37.6026 73.7923 37.4362 75.8449 39.2835Z" fill="#229B7C"/>
</svg>
