<svg width="33" height="32" viewBox="0 0 33 32" fill="none" xmlns="http://www.w3.org/2000/svg">
<path d="M8.25935 20.8436H2.76844C1.61208 20.8436 0.666626 19.8982 0.666626 18.7418V2.10182C0.666626 0.945455 1.61208 0.00727273 2.76844 0.00727273H8.25935C9.41572 0.00727273 10.3612 0.952727 10.3612 2.10909V18.7491C10.3612 19.9055 9.41572 20.8509 8.25935 20.8509V20.8436ZM2.76844 1.46182C2.41208 1.46182 2.12117 1.75273 2.12117 2.10909V18.7491C2.12117 19.1055 2.41208 19.3964 2.76844 19.3964H8.25935C8.61572 19.3964 8.90663 19.1055 8.90663 18.7491V2.10182C8.90663 1.74545 8.61572 1.45455 8.25935 1.45455H2.76844V1.46182Z" fill="#191C30"/>
<path d="M30.5648 9.69455H25.0739C23.9175 9.69455 22.9721 8.74909 22.9721 7.59273V2.10182C22.9721 0.945455 23.9175 0 25.0739 0H30.5648C31.7212 0 32.6666 0.945455 32.6666 2.10182V7.59273C32.6666 8.74909 31.7212 9.69455 30.5648 9.69455ZM25.0739 1.45455C24.7175 1.45455 24.4266 1.74545 24.4266 2.10182V7.59273C24.4266 7.94909 24.7175 8.24 25.0739 8.24H30.5648C30.9212 8.24 31.2121 7.94909 31.2121 7.59273V2.10182C31.2121 1.74545 30.9212 1.45455 30.5648 1.45455H25.0739Z" fill="#191C30"/>
<path d="M30.5648 20.8436H25.0739C23.9175 20.8436 22.9721 19.8982 22.9721 18.7418V13.2582C22.9721 12.1018 23.9175 11.1564 25.0739 11.1564H30.5648C31.7212 11.1564 32.6666 12.1018 32.6666 13.2582V18.7418C32.6666 19.8982 31.7212 20.8436 30.5648 20.8436ZM25.0739 12.6109C24.7175 12.6109 24.4266 12.9018 24.4266 13.2582V18.7418C24.4266 19.0982 24.7175 19.3891 25.0739 19.3891H30.5648C30.9212 19.3891 31.2121 19.0982 31.2121 18.7418V13.2582C31.2121 12.9018 30.9212 12.6109 30.5648 12.6109H25.0739Z" fill="#191C30"/>
<path d="M8.25935 32H2.76844C1.61208 32 0.666626 31.0545 0.666626 29.8982V24.4073C0.666626 23.2509 1.61208 22.3055 2.76844 22.3055H8.25935C9.41572 22.3055 10.3612 23.2509 10.3612 24.4073V29.8982C10.3612 31.0545 9.41572 32 8.25935 32ZM2.76844 23.76C2.41208 23.76 2.12117 24.0509 2.12117 24.4073V29.8982C2.12117 30.2545 2.41208 30.5455 2.76844 30.5455H8.25935C8.61572 30.5455 8.90663 30.2545 8.90663 29.8982V24.4073C8.90663 24.0509 8.61572 23.76 8.25935 23.76H2.76844Z" fill="#191C30"/>
<path d="M19.4157 32H13.9248C12.7684 32 11.823 31.0618 11.823 29.8982V13.2582C11.823 12.1018 12.7684 11.1564 13.9248 11.1564H19.4157C20.5721 11.1564 21.5175 12.1018 21.5175 13.2582V29.8982C21.5175 31.0545 20.5794 32 19.4157 32ZM13.9248 12.6182C13.5684 12.6182 13.2775 12.9091 13.2775 13.2655V29.9055C13.2775 30.2618 13.5684 30.5527 13.9248 30.5527H19.4157C19.7721 30.5527 20.063 30.2618 20.063 29.9055V13.2655C20.063 12.9091 19.7721 12.6182 19.4157 12.6182H13.9248Z" fill="#191C30"/>
</svg>
