<svg width="33" height="32" viewBox="0 0 33 32" fill="none" xmlns="http://www.w3.org/2000/svg">
<path d="M26.6816 32H6.31794C3.11067 32 0.499756 29.3921 0.499756 26.1884V5.81158C0.499756 2.60795 3.11067 0 6.31794 0H26.6816C29.8888 0 32.4998 2.60795 32.4998 5.81158V26.1884C32.4998 29.3921 29.8888 32 26.6816 32ZM6.31794 1.45289C3.91067 1.45289 1.9543 3.40704 1.9543 5.81158V26.1884C1.9543 28.593 3.91067 30.5471 6.31794 30.5471H26.6816C29.0888 30.5471 31.0452 28.593 31.0452 26.1884V5.81158C31.0452 3.40704 29.0888 1.45289 26.6816 1.45289H6.31794Z" fill="#191C30"/>
<path d="M24.9507 27.3725H8.0343C6.42703 27.3725 5.12521 26.0722 5.12521 24.4667V7.53326C5.12521 5.92781 6.42703 4.62747 8.0343 4.62747H24.9507C26.5579 4.62747 27.8598 5.92781 27.8598 7.53326V24.4667C27.8598 26.0722 26.5579 27.3725 24.9507 27.3725ZM8.0343 6.08036C7.2343 6.08036 6.57976 6.73417 6.57976 7.53326V24.4667C6.57976 25.2658 7.2343 25.9196 8.0343 25.9196H24.9507C25.7507 25.9196 26.4052 25.2658 26.4052 24.4667V7.53326C26.4052 6.73417 25.7507 6.08036 24.9507 6.08036H8.0343Z" fill="#191C30"/>
</svg>
