<svg width="33" height="32" viewBox="0 0 33 32" fill="none" xmlns="http://www.w3.org/2000/svg">
<path d="M30.7678 20.5964H25.706V2.05818C25.7133 0.923636 24.7896 0 23.6478 0H10.0114C8.86961 0 7.95325 0.923636 7.95325 2.05818V20.5964H2.89143C1.74961 20.5964 0.833252 21.52 0.833252 22.6545V24.4582C0.833252 25.6 1.75688 26.5164 2.89143 26.5164H3.32052V29.9273C3.32052 31.0691 4.24416 31.9855 5.37871 31.9855H28.266C29.4078 31.9855 30.3242 31.0618 30.3242 29.9273V26.5164H30.7532C31.8951 26.5164 32.8114 25.5927 32.8114 24.4582V22.6545C32.8114 21.5127 31.8878 20.5964 30.7532 20.5964H30.7678ZM9.4078 2.05818C9.4078 1.72364 9.67688 1.45455 10.0114 1.45455H23.6478C23.9823 1.45455 24.2514 1.72364 24.2514 2.05818V20.5891H9.40052V2.05818H9.4078ZM24.986 26.5236V30.5309H8.68053V26.5236H24.986ZM4.78234 29.9273V26.5236H7.22598V30.5309H5.38598C5.05143 30.5309 4.78234 30.2618 4.78234 29.9273ZM28.8842 29.9273C28.8842 30.2618 28.6151 30.5309 28.2805 30.5309H26.4405V26.5236H28.8842V29.9273ZM31.3787 24.4509C31.3787 24.7855 31.1096 25.0545 30.7751 25.0545H2.8987C2.56416 25.0545 2.29507 24.7855 2.29507 24.4509V22.6473C2.29507 22.3127 2.56416 22.0436 2.8987 22.0436H30.7751C31.1096 22.0436 31.3787 22.3127 31.3787 22.6473V24.4509Z" fill="#191C30"/>
<path d="M29.0369 19.9564C30.1787 19.9564 31.0951 19.0327 31.0951 17.8982C31.0951 16.7636 30.1714 15.84 29.0369 15.84C27.9023 15.84 26.9787 16.7636 26.9787 17.8982C26.9787 19.0327 27.9023 19.9564 29.0369 19.9564ZM29.0369 17.2873C29.3714 17.2873 29.6405 17.5564 29.6405 17.8909C29.6405 18.2255 29.3714 18.4945 29.0369 18.4945C28.7023 18.4945 28.4333 18.2255 28.4333 17.8909C28.4333 17.5564 28.7023 17.2873 29.0369 17.2873Z" fill="#191C30"/>
<path d="M29.0369 14.8945C30.1787 14.8945 31.0951 13.9709 31.0951 12.8364C31.0951 11.7018 30.1714 10.7782 29.0369 10.7782C27.9023 10.7782 26.9787 11.7018 26.9787 12.8364C26.9787 13.9709 27.9023 14.8945 29.0369 14.8945ZM29.0369 12.2255C29.3714 12.2255 29.6405 12.4945 29.6405 12.8291C29.6405 13.1636 29.3714 13.4327 29.0369 13.4327C28.7023 13.4327 28.4333 13.1636 28.4333 12.8291C28.4333 12.4945 28.7023 12.2255 29.0369 12.2255Z" fill="#191C30"/>
<path d="M29.0369 9.82545C30.1787 9.82545 31.0951 8.90182 31.0951 7.76727C31.0951 6.63273 30.1714 5.70909 29.0369 5.70909C27.9023 5.70909 26.9787 6.63273 26.9787 7.76727C26.9787 8.90182 27.9023 9.82545 29.0369 9.82545ZM29.0369 7.15636C29.3714 7.15636 29.6405 7.42545 29.6405 7.76C29.6405 8.09455 29.3714 8.36364 29.0369 8.36364C28.7023 8.36364 28.4333 8.09455 28.4333 7.76C28.4333 7.42545 28.7023 7.15636 29.0369 7.15636Z" fill="#191C30"/>
<path d="M29.0369 4.76364C30.1787 4.76364 31.0951 3.84 31.0951 2.70545C31.0951 1.57091 30.1714 0.647273 29.0369 0.647273C27.9023 0.647273 26.9787 1.57091 26.9787 2.70545C26.9787 3.84 27.9023 4.76364 29.0369 4.76364ZM29.0369 2.09455C29.3714 2.09455 29.6405 2.36364 29.6405 2.69818C29.6405 3.03273 29.3714 3.30182 29.0369 3.30182C28.7023 3.30182 28.4333 3.03273 28.4333 2.69818C28.4333 2.36364 28.7023 2.09455 29.0369 2.09455Z" fill="#191C30"/>
<path d="M4.62234 19.9564C5.76416 19.9564 6.68053 19.0327 6.68053 17.8982C6.68053 16.7636 5.75689 15.84 4.62234 15.84C3.4878 15.84 2.56416 16.7636 2.56416 17.8982C2.56416 19.0327 3.4878 19.9564 4.62234 19.9564ZM4.62234 17.2873C4.95689 17.2873 5.22598 17.5564 5.22598 17.8909C5.22598 18.2255 4.95689 18.4945 4.62234 18.4945C4.2878 18.4945 4.0187 18.2255 4.0187 17.8909C4.0187 17.5564 4.2878 17.2873 4.62234 17.2873Z" fill="#191C30"/>
<path d="M4.62234 14.8945C5.76416 14.8945 6.68053 13.9709 6.68053 12.8364C6.68053 11.7018 5.75689 10.7782 4.62234 10.7782C3.4878 10.7782 2.56416 11.7018 2.56416 12.8364C2.56416 13.9709 3.4878 14.8945 4.62234 14.8945ZM4.62234 12.2255C4.95689 12.2255 5.22598 12.4945 5.22598 12.8291C5.22598 13.1636 4.95689 13.4327 4.62234 13.4327C4.2878 13.4327 4.0187 13.1636 4.0187 12.8291C4.0187 12.4945 4.2878 12.2255 4.62234 12.2255Z" fill="#191C30"/>
<path d="M4.62234 9.82545C5.76416 9.82545 6.68053 8.90182 6.68053 7.76727C6.68053 6.63273 5.75689 5.70909 4.62234 5.70909C3.4878 5.70909 2.56416 6.63273 2.56416 7.76727C2.56416 8.90182 3.4878 9.82545 4.62234 9.82545ZM4.62234 7.15636C4.95689 7.15636 5.22598 7.42545 5.22598 7.76C5.22598 8.09455 4.95689 8.36364 4.62234 8.36364C4.2878 8.36364 4.0187 8.09455 4.0187 7.76C4.0187 7.42545 4.2878 7.15636 4.62234 7.15636Z" fill="#191C30"/>
<path d="M4.62234 4.76364C5.76416 4.76364 6.68053 3.84 6.68053 2.70545C6.68053 1.57091 5.75689 0.647273 4.62234 0.647273C3.4878 0.647273 2.56416 1.57091 2.56416 2.70545C2.56416 3.84 3.4878 4.76364 4.62234 4.76364ZM4.62234 2.09455C4.95689 2.09455 5.22598 2.36364 5.22598 2.69818C5.22598 3.03273 4.95689 3.30182 4.62234 3.30182C4.2878 3.30182 4.0187 3.03273 4.0187 2.69818C4.0187 2.36364 4.2878 2.09455 4.62234 2.09455Z" fill="#191C30"/>
<path d="M14.9278 29.1782H18.7314C19.1314 29.1782 19.4587 28.8509 19.4587 28.4509C19.4587 28.0509 19.1314 27.7236 18.7314 27.7236H14.9278C14.5278 27.7236 14.2005 28.0509 14.2005 28.4509C14.2005 28.8509 14.5278 29.1782 14.9278 29.1782Z" fill="#191C30"/>
</svg>
