<svg width="42" height="45" viewBox="0 0 42 45" fill="none" xmlns="http://www.w3.org/2000/svg">
<path d="M27.9331 4.87372H13.9631C13.1531 4.87372 12.4431 5.43372 12.2631 6.23372L5.03314 38.4537C4.79314 39.5437 5.61314 40.5737 6.73314 40.5737H20.7031C21.5131 40.5737 22.2231 40.0137 22.4031 39.2137L29.6331 6.99372C29.8731 5.90372 29.0531 4.87372 27.9331 4.87372ZM20.4931 38.5837H7.05314L14.1731 6.87372H27.6131L20.4931 38.5837Z" fill="#191C30"/>
<path d="M41.2227 37.5137L33.9827 5.24372L34.2027 4.26372C34.5927 2.52372 33.2727 0.873718 31.4827 0.873718H11.7427C10.4427 0.873718 9.31266 1.77372 9.02266 3.04372L0.402658 41.4537C0.0126582 43.1937 1.33266 44.8437 3.12266 44.8437H22.8727C24.1727 44.8437 25.3027 43.9437 25.5927 42.6737L25.8427 41.5837H37.9927C39.0127 41.5837 39.9627 41.1237 40.6027 40.3337C41.2427 39.5337 41.4827 38.5137 41.2527 37.5137H41.2227ZM22.8627 42.8537H3.11266C2.78266 42.8537 2.59266 42.6737 2.50266 42.5637C2.41266 42.4537 2.28266 42.2237 2.35266 41.9037L10.9827 3.47372C11.0627 3.11372 11.3827 2.86372 11.7427 2.86372H31.4927C31.8227 2.86372 32.0127 3.04372 32.1027 3.15372C32.1927 3.26372 32.3227 3.49372 32.2527 3.81372L23.6227 42.2337C23.5427 42.5937 23.2227 42.8437 22.8627 42.8437V42.8537ZM39.0127 39.0837C38.7627 39.4037 38.3727 39.5837 37.9727 39.5837H26.2727L32.9527 9.80372L39.2727 37.9537C39.3627 38.3537 39.2727 38.7637 39.0127 39.0837Z" fill="#191C30"/>
</svg>
