<svg width="44" height="45" viewBox="0 0 44 45" fill="none" xmlns="http://www.w3.org/2000/svg">
<path fill-rule="evenodd" clip-rule="evenodd" d="M36 2.87372H8C4.68629 2.87372 2 5.56001 2 8.87372V36.8737C2 40.1874 4.68629 42.8737 8 42.8737H36C39.3137 42.8737 42 40.1874 42 36.8737V8.87372C42 5.56001 39.3137 2.87372 36 2.87372ZM8 0.873718C3.58172 0.873718 0 4.45544 0 8.87372V36.8737C0 41.292 3.58172 44.8737 8 44.8737H36C40.4183 44.8737 44 41.292 44 36.8737V8.87372C44 4.45544 40.4183 0.873718 36 0.873718H8Z" fill="#191C30"/>
</svg>
