<svg width="40" height="45" viewBox="0 0 40 45" fill="none" xmlns="http://www.w3.org/2000/svg">
<path fill-rule="evenodd" clip-rule="evenodd" d="M9.57509 11.2489L5.18712 11.4009C3.00808 11.4764 1.66156 13.8087 2.68568 15.7335L4.74797 19.6097C5.83368 21.6503 5.83368 24.0972 4.74797 26.1378L2.68568 30.0139C1.66156 31.9388 3.00808 34.271 5.18711 34.3465L9.57508 34.4986C11.8852 34.5786 14.0042 35.8021 15.2286 37.7626L17.5543 41.4867C18.7092 43.3361 21.4022 43.3361 22.5572 41.4867L24.8828 37.7626C26.1072 35.8021 28.2263 34.5786 30.5364 34.4986L34.9243 34.3465C37.1034 34.271 38.4499 31.9388 37.4258 30.0139L35.3635 26.1378C34.2778 24.0972 34.2778 21.6503 35.3635 19.6097L37.4258 15.7335C38.4499 13.8087 37.1034 11.4764 34.9243 11.4009L30.5364 11.2488C28.2263 11.1688 26.1072 9.94535 24.8828 7.98479L22.5572 4.26072C21.4022 2.41138 18.7092 2.41138 17.5543 4.26072L15.2286 7.98479C14.0042 9.94535 11.8852 11.1688 9.57509 11.2489ZM5.11785 9.40211C1.46108 9.52884 -0.798607 13.4427 0.920031 16.6729L2.98233 20.5491C3.75557 22.0024 3.75557 23.7451 2.98233 25.1984L0.920031 29.0745C-0.798607 32.3047 1.46108 36.2186 5.11785 36.3453L9.50582 36.4974C11.151 36.5544 12.6602 37.4257 13.5322 38.822L15.8579 42.5461C17.796 45.6496 22.3154 45.6496 24.2535 42.5461L26.5792 38.822C27.4512 37.4257 28.9604 36.5544 30.6056 36.4974L34.9936 36.3453C38.6504 36.2186 40.91 32.3047 39.1914 29.0745L37.1291 25.1984C36.3559 23.7451 36.3559 22.0024 37.1291 20.5491L39.1914 16.6729C40.91 13.4427 38.6504 9.52883 34.9936 9.40211L30.6056 9.25005C28.9604 9.19304 27.4512 8.3217 26.5792 6.9254L24.2535 3.20134C22.3154 0.0978458 17.796 0.0978451 15.8579 3.20134L13.5322 6.9254C12.6602 8.3217 11.151 9.19304 9.50582 9.25005L5.11785 9.40211Z" fill="#191C30"/>
</svg>
