<svg width="44" height="45" viewBox="0 0 44 45" fill="none" xmlns="http://www.w3.org/2000/svg">
<path d="M43.8128 43.7449C43.4053 43.2937 42.4462 42.2329 42.0833 41.8497C41.8783 41.6344 41.7951 41.4226 41.7959 41.1204C41.7788 37.5255 41.7908 33.8677 41.8028 30.3305C41.8225 24.7379 41.8422 18.955 41.7453 13.2772V13.2669C41.6441 12.8596 41.3876 12.5316 41.023 12.3421C40.6241 12.1355 40.1334 12.1208 39.677 12.3017C38.572 12.7391 37.4508 13.192 36.3673 13.6286C35.91 13.8128 35.4528 13.9979 34.9947 14.1822C34.8446 14.2451 34.6953 14.3019 34.5503 14.3579C33.6804 14.6911 32.9289 14.9787 32.9547 16.1876C32.9538 20.0761 32.9538 23.9569 32.9538 27.842V32.1309C32.9418 32.1223 32.9307 32.1137 32.9195 32.106C32.8637 32.0655 32.8191 32.0336 32.7831 31.9958L32.4099 31.6023C31.7193 30.8738 31.0047 30.1212 30.3141 29.3695C30.2078 29.2541 30.1306 29.063 30.1306 28.914C30.1194 22.8832 30.1211 17.5188 30.1349 12.5161C30.1349 12.3542 30.2738 12.1424 30.4025 12.0459C32.5052 10.4814 34.6447 8.8936 36.7147 7.35748C38.91 5.72922 41.18 4.04413 43.4096 2.38401C43.6498 2.20491 43.8454 1.93712 43.908 1.70119C44.0375 1.21211 43.6575 0.975323 43.2912 0.791918L43.2817 0.787613H43.087L43.0759 0.795362C40.1891 2.80249 37.3247 4.9491 34.5546 7.02511C32.8972 8.26761 31.184 9.55145 29.4837 10.7922C29.2152 10.992 28.9544 11.0772 28.6121 11.0772H28.6078C26.79 11.0738 24.9722 11.0729 23.1543 11.0721C20.6228 11.0704 18.0045 11.0695 15.4292 11.06C15.1633 11.0592 14.8544 10.9576 14.6425 10.8008C12.7724 9.45243 10.8936 8.04632 9.07666 6.68757C6.45072 4.7235 3.73555 2.69227 0.99894 0.795362L0.988645 0.787613H0.803345L0.78533 0.791918C0.369262 0.989961 0.135062 1.24139 0.108468 1.51865C0.0810165 1.79849 0.266317 2.0947 0.644639 2.37454L1.42359 2.95317C5.41183 5.91004 9.53563 8.96765 13.5977 11.9676C13.8636 12.1639 13.9622 12.3533 13.9614 12.6676C13.9502 17.6893 13.9494 22.9555 13.9597 28.7659C13.9605 29.0673 13.8765 29.2774 13.6697 29.4909C13.0495 30.1307 0.94232 42.9596 0.197687 43.7466C-0.234681 44.2047 0.0887373 44.9598 0.717558 44.9598C11.0583 44.9598 39.4393 44.959 43.2526 44.959C43.5425 44.959 43.8171 44.7979 43.9354 44.5319C44.0581 44.2581 43.9998 43.9524 43.8128 43.7449ZM34.7253 15.9543C36.0096 15.448 37.3127 14.9244 38.572 14.419C39.0893 14.2106 39.6066 14.0031 40.1248 13.7956C40.1428 13.7878 40.166 13.7861 40.2011 13.7827C40.2106 13.7827 40.2217 13.781 40.2329 13.7801L40.2535 39.8185C40.2535 39.8185 35.3507 34.6917 34.7202 34.0347C34.5975 33.903 34.5083 33.6808 34.5083 33.5069C34.4997 29.4315 34.4989 25.2881 34.498 21.2816C34.4971 19.6465 34.4971 18.0122 34.4963 16.377C34.4963 16.1713 34.5074 16.0404 34.7253 15.9543ZM15.5287 12.6607H28.5521V28.6669H26.458V25.1254C26.458 22.4966 26.458 19.8678 26.458 17.2398C26.458 16.0473 25.9038 15.4919 24.714 15.4902C23.2341 15.4893 21.2833 15.4876 19.3222 15.491C18.1924 15.4927 17.6194 16.0653 17.6185 17.1933C17.6176 19.9375 17.6176 22.6757 17.6185 25.4173V28.6678H15.5296V12.6607H15.5287ZM24.2619 24.3806C24.4068 24.3875 24.551 24.3857 24.7045 24.384C24.7629 24.3832 24.8221 24.3823 24.8838 24.3823V28.6729H19.1884V17.0624H24.8821V22.8307C24.8289 22.8307 24.7766 22.8298 24.7234 22.8298C24.5733 22.8272 24.418 22.8255 24.2636 22.8324C23.7832 22.8531 23.4435 23.1889 23.4572 23.6297C23.47 24.0525 23.8012 24.3616 24.2619 24.3806ZM6.73124 43.3936C8.48559 41.4743 10.3017 39.5601 12.0595 37.7089C13.3532 36.345 14.6906 34.9354 15.9928 33.5353C16.2227 33.2908 16.4484 33.1909 16.7735 33.1926C18.515 33.1995 20.2856 33.2004 21.9979 33.2012C23.7634 33.2021 25.5898 33.2038 27.3854 33.2107C27.5921 33.2116 27.834 33.3028 27.949 33.4234C29.0128 34.5522 30.0997 35.694 31.1497 36.7987C33.1949 38.9488 35.3078 41.1712 37.3547 43.3936H6.73124ZM40.9638 43.4073C40.5014 43.4099 40.0639 43.4125 39.6324 43.3927C39.5217 43.3875 39.3853 43.2437 39.2952 43.149L38.2563 42.0512C35.2109 38.8343 32.0625 35.5071 28.981 32.2213C28.5933 31.808 28.1849 31.6315 27.6179 31.6315H27.6033C24.3459 31.6487 20.8733 31.6496 16.3454 31.635H16.3377C15.8599 31.635 15.5159 31.7839 15.189 32.1309C13.2425 34.2018 11.2582 36.3028 9.33917 38.334C7.83189 39.9304 6.32375 41.5268 4.81819 43.1249C4.61316 43.3428 4.41928 43.4263 4.14819 43.4134C3.94745 43.403 3.74413 43.4005 3.53738 43.4005C3.39069 43.4005 3.24228 43.4022 3.09043 43.403C2.95746 43.4048 2.82192 43.4056 2.68123 43.4065C5.3046 40.5719 8.00261 37.7295 10.6123 34.9802C12.0029 33.5155 13.4407 32.0009 14.851 30.5044C14.978 30.3701 15.2156 30.2685 15.4026 30.2676C19.6388 30.2547 24.104 30.2538 28.673 30.2659C28.8618 30.2668 29.0865 30.3546 29.1972 30.4708C30.5715 31.9277 31.9716 33.4053 33.3261 34.8329C35.9813 37.6331 38.7256 40.5271 41.4004 43.4048C41.2512 43.4056 41.1062 43.4065 40.9638 43.4073Z" fill="#191C30"/>
<path d="M24.5578 1.61939C24.1735 1.34988 23.7111 1.1837 23.2633 1.02268C23.0617 0.949492 22.8524 0.87458 22.6534 0.791057L21.4386 0.787613H21.4275C20.6554 0.993405 19.9116 1.22245 19.3008 1.76663C18.6934 2.30738 18.3537 3.00914 18.3443 3.7419C18.3348 4.45658 18.6454 5.14542 19.2167 5.681C19.9219 6.36984 20.8415 6.7401 21.8753 6.75129H21.9233C22.8764 6.75129 23.8312 6.43873 24.6187 5.86871C25.3454 5.32538 25.7554 4.5444 25.7434 3.72554C25.7314 2.90753 25.299 2.14033 24.5578 1.61939ZM23.8183 4.54354C23.3817 4.96632 22.8121 5.17814 22.0777 5.19106C21.3125 5.18503 20.7472 4.99215 20.2985 4.58401C20.0351 4.34464 19.8936 4.06566 19.891 3.77979C19.8876 3.49133 20.024 3.20804 20.2839 2.96092C20.7128 2.55364 21.3743 2.35043 22.0365 2.35043C22.6988 2.35043 23.3808 2.55967 23.8089 2.97814C24.0543 3.21751 24.1838 3.49305 24.1829 3.7729C24.1829 4.04671 24.0568 4.31278 23.8183 4.54354Z" fill="#191C30"/>
<path d="M9.89164 14.5017L8.95656 14.1245C7.457 13.5201 5.90511 12.8941 4.37467 12.2931C3.93544 12.1208 3.47991 12.1303 3.09043 12.3215C2.73098 12.498 2.46847 12.8131 2.3518 13.2092C2.27631 13.465 2.27631 13.7439 2.27631 14.0134V14.0298C2.27031 17.8176 2.27202 23.9242 2.2746 27.6483C2.2746 28.5644 2.27545 29.4866 2.27631 30.4123C2.27631 30.9866 2.7387 31.4214 3.26973 31.4326C3.43444 31.4361 3.59743 31.3896 3.74413 31.3138L10.4347 27.848C10.8456 27.7068 11.1218 27.3194 11.1218 26.8828V16.334C11.1218 15.2835 10.8576 14.8891 9.8925 14.5008L9.89164 14.5017ZM3.85651 14.0427C3.85651 13.9041 3.99549 13.8094 4.12331 13.861C5.26256 14.3165 8.31745 15.5556 9.24566 15.9155C9.53219 16.0094 9.58452 16.1644 9.58281 16.4356C9.5768 17.8348 9.57595 22.7669 9.57509 26.4307C9.57509 26.5401 9.5056 26.6365 9.4018 26.671L4.18679 29.2378C4.0238 29.2912 3.85651 29.1698 3.85651 28.9976V14.0427Z" fill="#191C30"/>
</svg>
