<svg width="44" height="45" viewBox="0 0 44 45" fill="none" xmlns="http://www.w3.org/2000/svg">
<path d="M42.9418 23.6487H42.9039C42.6292 23.6504 42.3571 23.6521 42.0841 23.6547C41.6304 23.6581 41.1611 23.6616 40.7004 23.6616C39.9668 23.6616 39.3632 23.6521 38.8001 23.6314H38.7587V18.1259C38.7596 14.016 38.7605 9.76585 38.757 5.58284C38.7648 4.36186 38.3885 3.27606 37.6686 2.4417C36.9738 1.63661 35.9913 1.09415 34.8263 0.873718H33.6294C32.6246 1.11568 31.7696 1.50315 31.0893 2.02753C30.3514 2.59583 29.7934 3.34323 29.4309 4.24906C29.3078 4.54699 29.1631 4.64342 28.8342 4.64428C27.6554 4.64687 26.4904 5.05415 25.5544 5.79035C24.6202 6.52483 23.9486 7.55982 23.6636 8.70503C23.5706 9.07873 23.5869 9.36115 23.7135 9.56867C23.8401 9.77532 24.0829 9.91912 24.4566 10.0061C25.9075 10.3453 27.3575 10.6837 28.8084 11.0213C30.2593 11.3588 31.711 11.6955 33.1619 12.0321C33.3195 12.0683 33.4624 12.0873 33.5872 12.0873C34.072 12.0873 34.3493 11.8143 34.4845 11.2021C35.0502 8.72656 33.595 6.059 31.0996 4.99731L31.0635 4.98182L31.0755 4.94393C31.4837 3.70659 32.9458 2.6208 34.2055 2.6208C34.2373 2.6208 34.2692 2.62166 34.3011 2.62252C35.8733 2.69227 37.016 3.93219 37.0177 5.57078C37.0203 9.84765 37.0194 14.1925 37.0194 18.3945C37.0194 20.133 37.0194 21.8714 37.0194 23.6116V23.6547H22.0465C15.8288 23.6547 8.49346 23.6538 1.22787 23.6487H1.22356C0.61393 23.6487 0.217847 23.7494 0 24.26V24.843C0.229041 25.2347 0.568299 25.4164 1.06685 25.4164C1.10215 25.4164 1.13918 25.4156 1.1762 25.4138C1.38027 25.4035 1.6007 25.3992 1.86935 25.3992C2.04587 25.3992 2.22067 25.4009 2.40665 25.4035C2.59264 25.4052 2.78552 25.4078 2.98184 25.4078H3.02489V25.45C3.02575 26.1431 3.02403 26.844 3.02145 27.5226C3.01714 28.7788 3.01283 30.0782 3.03178 31.3629C3.08775 35.1972 5.64422 38.5673 9.24775 39.5601C9.72736 39.6919 10.2199 39.7513 10.7408 39.8141C10.9793 39.8434 11.2256 39.8736 11.4719 39.9106L11.5287 39.9192L11.5046 39.9717C11.1662 40.6967 10.7847 41.4303 10.4162 42.1399C10.1837 42.5867 9.94434 43.0483 9.71789 43.5021C9.40102 44.1229 9.45096 44.407 9.96243 44.8737H10.9552C11.5993 43.8491 12.1573 42.7503 12.6963 41.6878C12.9357 41.2159 13.1836 40.7277 13.4359 40.2524C13.5496 40.0311 13.671 39.902 13.9534 39.902C16.652 39.9063 19.4099 39.9089 22.1524 39.9089C24.8949 39.9089 27.522 39.9063 30.224 39.9028C30.5124 39.9028 30.6373 40.0354 30.7466 40.249C30.961 40.6588 31.1746 41.0782 31.3821 41.4837C31.9573 42.61 32.5514 43.7741 33.2178 44.8737H34.295C34.7144 44.4208 34.7402 43.9524 34.3829 43.31C33.9532 42.5377 33.564 41.7619 33.1524 40.9404C32.9836 40.6055 32.8097 40.2584 32.6341 39.9132L32.6005 39.8486L32.6728 39.8503C32.7382 39.852 32.802 39.8529 32.8674 39.8529C36.8317 39.8529 40.319 36.8805 40.9785 32.9395C41.0836 32.3359 41.137 31.672 41.1482 30.8523C41.1645 29.5874 41.1611 28.3466 41.1585 27.0326C41.1568 26.51 41.1559 25.983 41.1559 25.4509V25.4078H41.199C41.3669 25.4078 41.5365 25.4052 41.701 25.4035C41.862 25.4009 42.0299 25.3992 42.1935 25.3992C42.4372 25.3992 42.6387 25.4035 42.8255 25.4138C42.8643 25.4156 42.903 25.4173 42.94 25.4173C43.4343 25.4173 43.7718 25.2347 44 24.843V24.2609C43.8123 23.8372 43.4851 23.6487 42.9418 23.6487ZM32.7615 10.0991V10.1525L32.7081 10.1404L25.7146 8.50612L25.6672 8.49493L25.6845 8.44929C26.1288 7.26534 27.5685 6.40515 29.1063 6.40515C29.3569 6.40515 29.6066 6.42839 29.8477 6.47317C31.4785 6.77712 32.7856 8.40366 32.7615 10.0991ZM39.2194 29.5245C39.2142 30.0833 39.2099 30.6611 39.2099 31.2294C39.1901 32.7595 38.7303 34.1949 37.8805 35.3806C37.0306 36.5671 35.8544 37.4135 34.4793 37.8277C33.9523 37.9861 33.3935 38.0705 32.8631 38.0722C31.3304 38.0757 29.6531 38.0774 27.5857 38.0774C26.4904 38.0774 25.396 38.0765 24.3016 38.0765C23.2072 38.0757 22.1128 38.0757 21.0184 38.0757C18.1261 38.0757 14.7051 38.0783 11.2626 38.0981H11.2265C8.13957 38.0989 5.45135 35.7939 4.83311 32.6183C4.74442 32.1654 4.69964 31.6737 4.69448 31.1149C4.68242 29.8147 4.68415 28.4964 4.68587 27.2212C4.68587 26.6374 4.68759 26.0536 4.68759 25.4689V25.4259H39.1789L39.1807 25.4672C39.2427 26.8174 39.2306 28.1942 39.2194 29.5245Z" fill="#191C30"/>
<path d="M28.2969 15.3197C28.247 15.7399 28.185 16.1713 28.1066 16.6371C28.0265 17.1132 27.7751 17.3259 27.2912 17.3259H27.2559C26.9898 17.3199 26.7634 17.2217 26.6006 17.0409C26.4207 16.8403 26.3371 16.5527 26.3656 16.2298C26.3957 15.8837 26.4491 15.5057 26.5343 15.0415C26.6135 14.6093 27.0053 14.2838 27.4445 14.283C27.4823 14.283 27.5211 14.2855 27.559 14.2907C28.0016 14.3493 28.3537 14.8401 28.2969 15.3197Z" fill="#191C30"/>
<path d="M25.2608 12.7442C25.2307 13.1644 25.1695 13.607 25.074 14.0961C24.9905 14.5284 24.6142 14.8418 24.1811 14.8418C24.138 14.8418 24.0941 14.8383 24.0519 14.8323C23.6257 14.7703 23.3226 14.3277 23.3295 13.7801C23.345 13.6733 23.3596 13.5579 23.376 13.4374C23.4139 13.1421 23.4578 12.808 23.5249 12.4825C23.6024 12.1062 24.0045 11.7997 24.4222 11.7997C24.4549 11.7997 24.4876 11.8014 24.5195 11.8057C24.9388 11.8574 25.2927 12.3042 25.2608 12.7442Z" fill="#191C30"/>
<path d="M32.0459 14.0642C32.033 14.1504 32.0201 14.2459 32.0055 14.3493C31.9693 14.6127 31.9288 14.9115 31.8694 15.212C31.7627 15.7545 31.3416 15.9474 31.0127 15.9474C30.5822 15.9474 30.1413 15.6426 30.1344 15.0631C30.162 14.5507 30.23 14.0384 30.3376 13.5407C30.4151 13.1842 30.8009 12.9053 31.2167 12.9053C31.2667 12.9053 31.3158 12.9096 31.3631 12.9182C31.8083 12.9991 32.0821 13.4606 32.0459 14.0642Z" fill="#191C30"/>
<path d="M12.6017 20.3534C8.9224 20.3534 5.92851 17.3603 5.92851 13.6802C5.92851 10 8.92154 7.00698 12.6017 7.00698C16.2819 7.00698 19.2749 10 19.2749 13.6802C19.2749 17.3603 16.2819 20.3534 12.6017 20.3534ZM12.6017 8.72996C9.87215 8.72996 7.65062 10.9506 7.65062 13.681C7.65062 16.4114 9.87129 18.6321 12.6017 18.6321C15.3321 18.6321 17.5528 16.4114 17.5528 13.681C17.5528 10.9506 15.3321 8.72996 12.6017 8.72996Z" fill="#191C30"/>
</svg>
