<svg width="44" height="40" viewBox="0 0 44 40" fill="none" xmlns="http://www.w3.org/2000/svg">
<path d="M42.6645 24.0687C43.2285 24.0937 43.6943 23.968 44.0086 23.4677V22.9519C43.6125 21.3177 43.3869 19.6377 43.0546 17.9862C42.9211 17.2638 42.6464 17.0244 41.9266 17.0227C40.4516 17.0201 38.9766 17.0201 37.5025 17.0227C36.793 17.0236 36.5062 17.2552 36.3788 17.9397C36.0817 19.5284 35.7864 21.1162 35.4997 22.7065C35.3223 23.6916 35.6409 24.0601 36.6457 24.061C37.3707 24.061 38.0957 24.061 38.8294 24.061V26.1533C38.0802 26.1533 37.3527 26.1344 36.6268 26.162C36.2858 26.1749 35.9474 26.2765 35.671 26.3264C34.9546 25.9846 34.2511 25.6143 33.5184 25.3164C33.2549 25.2096 33.1714 25.1132 33.1748 24.842C33.1877 23.596 33.1817 22.3509 33.18 21.105C33.1765 18.9575 31.8178 17.5746 29.6815 17.5617C28.0059 17.5523 26.3311 17.5557 24.6555 17.5617C23.4948 17.5617 22.8576 17.8674 21.9759 18.6234C21.0597 17.5755 19.8345 17.5393 18.5816 17.5557C17.1927 17.5738 15.8039 17.5522 14.415 17.5652C12.4535 17.4834 10.8149 18.9015 10.8381 20.9388C10.8261 22.2416 10.8407 23.5443 10.8278 24.8471C10.8261 24.9858 10.7391 25.2243 10.6487 25.2467C9.79626 25.4602 9.06092 25.8813 8.45129 26.4091C7.3698 25.9028 6.25818 26.3032 5.19735 26.1094V24.0601C6.01794 24.0601 6.80495 24.0713 7.59196 24.0567C8.27564 24.0446 8.68033 23.6158 8.56925 22.9941C8.261 21.2625 7.9381 19.5335 7.60229 17.8071C7.49552 17.2569 7.19328 17.027 6.63531 17.0244C5.07422 17.0175 3.51398 17.0167 1.95289 17.0244C1.41645 17.027 1.11767 17.2552 1.01348 17.7856C0.672504 19.5258 0.346163 21.2686 0.0335992 23.0139C-0.060256 23.5375 0.249719 23.9378 0.780991 24.0308C0.990227 24.0679 1.20808 24.0584 1.42248 24.0593C2.08894 24.0627 2.75539 24.0601 3.41755 24.0601V26.1129C3.36416 26.1292 3.33747 26.1447 3.31078 26.1447C2.60901 26.1482 1.90812 26.1508 1.20636 26.1533C0.294499 26.1568 0.00776328 26.447 0.00776328 27.3666C0.00776328 31.132 0.0146547 34.8982 1.67154e-05 38.6636C-0.0017054 39.1975 0.129171 39.6134 0.609641 39.8812H44.0086V26.8189C43.7908 26.2971 43.3757 26.1387 42.8419 26.1499C42.1031 26.1654 41.3635 26.1542 40.598 26.1542V24.0618C41.2808 24.0618 41.9739 24.0386 42.6645 24.0696V24.0687ZM1.91156 22.3285C2.13543 21.1231 2.35415 19.9417 2.57458 18.7543H6.03516C6.25559 19.9357 6.4743 21.111 6.70076 22.3285H1.91156ZM6.8721 38.1315H1.75485V27.9065H6.8721V38.1315ZM22.8697 20.9896C22.874 19.9331 23.4871 19.2924 24.5401 19.283C26.2855 19.2683 28.0317 19.2692 29.7779 19.283C30.837 19.2907 31.4561 19.9253 31.4604 20.9767C31.4665 22.3346 31.4622 23.6924 31.4622 25.1029H22.8981C22.8249 23.7346 22.8852 22.3604 22.8697 20.9896ZM12.5714 20.7261C12.5869 19.9856 13.1544 19.4233 13.8932 19.3123C15.6911 19.227 17.4993 19.3019 19.3006 19.2795C20.5526 19.2813 21.1484 19.8728 21.1493 21.1119C21.1502 22.4267 21.1493 23.7415 21.1493 25.0891H12.5628C12.5628 23.6132 12.5413 22.1692 12.5714 20.7261ZM35.3826 38.1324H8.61919V35.0713C15.6506 35.1316 28.6792 35.0687 35.3826 35.0903V38.1324ZM35.4153 33.3716C28.7025 33.4232 15.6997 33.2769 8.61919 33.4172V29.6389C8.61919 29.6389 8.59853 28.9199 9.2271 28.1295C9.92714 27.2486 10.8924 26.8172 12.01 26.8439C18.6694 26.8405 25.328 26.8396 31.9874 26.8422C33.6751 26.8422 34.8926 27.6886 35.2844 29.1696C35.3929 29.5778 35.4015 30.0186 35.4093 30.4449C35.4265 31.4015 35.4144 32.3581 35.4144 33.3716H35.4153ZM42.2607 27.8927V38.1298H37.1615V27.8927H42.2607ZM37.3208 22.3079C37.5412 21.1231 37.7599 19.9468 37.9804 18.7586H41.441C41.6597 19.9245 41.8792 21.0972 42.1057 22.3079H37.3208Z" fill="#191C30"/>
<path d="M6.7576 11.1778C8.80519 11.1787 10.8528 11.1778 12.8995 11.1778C14.9325 11.1778 16.9654 11.1778 18.9984 11.1778C19.8663 11.1778 20.1539 10.892 20.1548 10.0171C20.1574 7.23937 20.1574 4.46247 20.1548 1.6847C20.1548 0.810725 19.8646 0.523132 18.9992 0.523132C14.9187 0.523132 10.8381 0.523132 6.7576 0.523132C5.88535 0.523132 5.59776 0.810725 5.59689 1.6847C5.59603 4.46247 5.59603 7.23937 5.59689 10.0171C5.59689 10.8911 5.88448 11.1778 6.75674 11.1787L6.7576 11.1778ZM7.34312 2.27108H18.4129V9.43765H7.34312V2.27108Z" fill="#191C30"/>
<path d="M25.0395 11.1787C27.0725 11.1787 29.1055 11.1787 31.1384 11.1787C33.186 11.1787 35.2336 11.1796 37.2803 11.1787C38.1224 11.1787 38.4204 10.8816 38.4212 10.0413C38.423 7.24971 38.423 4.4573 38.4212 1.66575C38.4212 0.82278 38.1233 0.523993 37.2846 0.523993C33.1895 0.523132 29.0951 0.523132 24.9999 0.523993C24.1561 0.523993 23.8676 0.810725 23.8668 1.66145C23.8642 4.45299 23.8642 7.2454 23.8668 10.0369C23.8668 10.9049 24.1527 11.1787 25.0387 11.1787H25.0395ZM25.6165 2.26419H36.6836V9.43765H25.6165V2.26419Z" fill="#191C30"/>
</svg>
