<svg width="45" height="45" viewBox="0 0 45 45" fill="none" xmlns="http://www.w3.org/2000/svg">
<path d="M33.307 0.873718H12.027C10.457 0.873718 9.19699 2.14372 9.19699 3.70372V42.0337C9.19699 43.6037 10.467 44.8637 12.027 44.8637H33.307C34.877 44.8637 36.137 43.5937 36.137 42.0337V3.70372C36.137 2.13372 34.867 0.873718 33.307 0.873718ZM33.307 2.87372C33.767 2.87372 34.137 3.24372 34.137 3.70372V36.0837H11.187V3.70372C11.187 3.24372 11.557 2.87372 12.017 2.87372H33.307ZM12.027 42.8737C11.567 42.8737 11.197 42.5037 11.197 42.0437V38.0837H34.147V42.0437C34.147 42.5037 33.777 42.8737 33.317 42.8737H12.027Z" fill="#191C30"/>
<path d="M43.667 21.2137H38.927C38.377 21.2137 37.927 21.6637 37.927 22.2137C37.927 22.7637 38.377 23.2137 38.927 23.2137H43.667C44.217 23.2137 44.667 22.7637 44.667 22.2137C44.667 21.6637 44.217 21.2137 43.667 21.2137Z" fill="#191C30"/>
<path d="M38.927 12.6737C39.207 12.6737 39.477 12.5637 39.677 12.3337L42.657 8.97372C43.027 8.56372 42.987 7.93372 42.577 7.56372C42.167 7.19372 41.527 7.23372 41.167 7.64372L38.187 11.0037C37.817 11.4137 37.857 12.0437 38.267 12.4137C38.457 12.5837 38.697 12.6637 38.927 12.6637V12.6737Z" fill="#191C30"/>
<path d="M39.397 32.0037C38.987 31.6337 38.357 31.6737 37.987 32.0837C37.617 32.4937 37.657 33.1337 38.067 33.4937L41.427 36.4737C41.617 36.6437 41.857 36.7237 42.087 36.7237C42.367 36.7237 42.637 36.6137 42.837 36.3837C43.207 35.9737 43.167 35.3337 42.757 34.9737L39.397 31.9937V32.0037Z" fill="#191C30"/>
<path d="M6.40699 20.8337H1.66699C1.11699 20.8337 0.666992 21.2837 0.666992 21.8337C0.666992 22.3837 1.11699 22.8337 1.66699 22.8337H6.40699C6.95699 22.8337 7.40699 22.3837 7.40699 21.8337C7.40699 21.2837 6.95699 20.8337 6.40699 20.8337Z" fill="#191C30"/>
<path d="M5.66699 31.7137L2.68699 35.0737C2.31699 35.4837 2.35699 36.1137 2.76699 36.4837C2.95699 36.6537 3.19699 36.7337 3.42699 36.7337C3.70699 36.7337 3.97699 36.6237 4.17699 36.3937L7.15699 33.0337C7.52699 32.6237 7.48699 31.9937 7.07699 31.6237C6.66699 31.2537 6.02699 31.2937 5.66699 31.7037V31.7137Z" fill="#191C30"/>
<path d="M3.90699 7.56372C3.49699 7.19372 2.86699 7.23372 2.49699 7.64372C2.12699 8.05372 2.16699 8.69372 2.57699 9.05372L5.93699 12.0337C6.12699 12.2037 6.36699 12.2837 6.59699 12.2837C6.87699 12.2837 7.14699 12.1737 7.34699 11.9437C7.71699 11.5337 7.67699 10.9037 7.26699 10.5337L3.90699 7.55372V7.56372Z" fill="#191C30"/>
<path d="M20.757 21.6337L19.657 30.5037C19.597 30.9637 19.867 31.4037 20.307 31.5637C20.417 31.6037 20.537 31.6237 20.647 31.6237C20.977 31.6237 21.297 31.4637 21.487 31.1737L29.777 18.5137C29.977 18.2037 29.997 17.8137 29.817 17.4937C29.637 17.1737 29.307 16.9737 28.937 16.9737H24.527L25.737 9.56372C25.807 9.10372 25.567 8.66372 25.137 8.48372C24.717 8.30372 24.217 8.43372 23.947 8.80372L15.587 20.0337C15.357 20.3337 15.327 20.7437 15.497 21.0837C15.667 21.4237 16.017 21.6337 16.387 21.6337H20.757ZM23.107 13.2937L22.367 17.8137C22.317 18.1037 22.407 18.4037 22.597 18.6237C22.787 18.8437 23.067 18.9737 23.357 18.9737H27.087L22.167 26.4837L22.877 20.7637C22.917 20.4837 22.827 20.1937 22.637 19.9737C22.447 19.7637 22.177 19.6337 21.887 19.6337H18.387L20.747 16.4637L23.107 13.2937Z" fill="#191C30"/>
</svg>
