<svg width="45" height="45" viewBox="0 0 45 45" fill="none" xmlns="http://www.w3.org/2000/svg">
<path d="M41.827 29.1937H34.867V3.70372C34.877 2.14372 33.607 0.873718 32.037 0.873718H13.287C11.717 0.873718 10.457 2.14372 10.457 3.70372V29.1937H3.49699C1.92699 29.1937 0.666992 30.4637 0.666992 32.0237V34.5037C0.666992 36.0737 1.93699 37.3337 3.49699 37.3337H4.08699V42.0237C4.08699 43.5937 5.35699 44.8537 6.91699 44.8537H38.387C39.957 44.8537 41.217 43.5837 41.217 42.0237V37.3337H41.807C43.377 37.3337 44.637 36.0637 44.637 34.5037V32.0237C44.637 30.4537 43.367 29.1937 41.807 29.1937H41.827ZM12.457 3.70372C12.457 3.24372 12.827 2.87372 13.287 2.87372H32.037C32.497 2.87372 32.867 3.24372 32.867 3.70372V29.1837H12.447V3.70372H12.457ZM33.877 37.3437V42.8537H11.457V37.3437H33.877ZM6.09699 42.0237V37.3437H9.45699V42.8537H6.92699C6.46699 42.8537 6.09699 42.4837 6.09699 42.0237ZM39.237 42.0237C39.237 42.4837 38.867 42.8537 38.407 42.8537H35.877V37.3437H39.237V42.0237ZM42.667 34.4937C42.667 34.9537 42.297 35.3237 41.837 35.3237H3.50699C3.04699 35.3237 2.67699 34.9537 2.67699 34.4937V32.0137C2.67699 31.5537 3.04699 31.1837 3.50699 31.1837H41.837C42.297 31.1837 42.667 31.5537 42.667 32.0137V34.4937Z" fill="#191C30"/>
<path d="M39.447 28.3137C41.017 28.3137 42.277 27.0437 42.277 25.4837C42.277 23.9237 41.007 22.6537 39.447 22.6537C37.887 22.6537 36.617 23.9237 36.617 25.4837C36.617 27.0437 37.887 28.3137 39.447 28.3137ZM39.447 24.6437C39.907 24.6437 40.277 25.0137 40.277 25.4737C40.277 25.9337 39.907 26.3037 39.447 26.3037C38.987 26.3037 38.617 25.9337 38.617 25.4737C38.617 25.0137 38.987 24.6437 39.447 24.6437Z" fill="#191C30"/>
<path d="M39.447 21.3537C41.017 21.3537 42.277 20.0837 42.277 18.5237C42.277 16.9637 41.007 15.6937 39.447 15.6937C37.887 15.6937 36.617 16.9637 36.617 18.5237C36.617 20.0837 37.887 21.3537 39.447 21.3537ZM39.447 17.6837C39.907 17.6837 40.277 18.0537 40.277 18.5137C40.277 18.9737 39.907 19.3437 39.447 19.3437C38.987 19.3437 38.617 18.9737 38.617 18.5137C38.617 18.0537 38.987 17.6837 39.447 17.6837Z" fill="#191C30"/>
<path d="M39.447 14.3837C41.017 14.3837 42.277 13.1137 42.277 11.5537C42.277 9.99372 41.007 8.72372 39.447 8.72372C37.887 8.72372 36.617 9.99372 36.617 11.5537C36.617 13.1137 37.887 14.3837 39.447 14.3837ZM39.447 10.7137C39.907 10.7137 40.277 11.0837 40.277 11.5437C40.277 12.0037 39.907 12.3737 39.447 12.3737C38.987 12.3737 38.617 12.0037 38.617 11.5437C38.617 11.0837 38.987 10.7137 39.447 10.7137Z" fill="#191C30"/>
<path d="M39.447 7.42372C41.017 7.42372 42.277 6.15372 42.277 4.59372C42.277 3.03372 41.007 1.76372 39.447 1.76372C37.887 1.76372 36.617 3.03372 36.617 4.59372C36.617 6.15372 37.887 7.42372 39.447 7.42372ZM39.447 3.75372C39.907 3.75372 40.277 4.12372 40.277 4.58372C40.277 5.04372 39.907 5.41372 39.447 5.41372C38.987 5.41372 38.617 5.04372 38.617 4.58372C38.617 4.12372 38.987 3.75372 39.447 3.75372Z" fill="#191C30"/>
<path d="M5.87699 28.3137C7.44699 28.3137 8.70699 27.0437 8.70699 25.4837C8.70699 23.9237 7.43699 22.6537 5.87699 22.6537C4.31699 22.6537 3.04699 23.9237 3.04699 25.4837C3.04699 27.0437 4.31699 28.3137 5.87699 28.3137ZM5.87699 24.6437C6.33699 24.6437 6.70699 25.0137 6.70699 25.4737C6.70699 25.9337 6.33699 26.3037 5.87699 26.3037C5.41699 26.3037 5.04699 25.9337 5.04699 25.4737C5.04699 25.0137 5.41699 24.6437 5.87699 24.6437Z" fill="#191C30"/>
<path d="M5.87699 21.3537C7.44699 21.3537 8.70699 20.0837 8.70699 18.5237C8.70699 16.9637 7.43699 15.6937 5.87699 15.6937C4.31699 15.6937 3.04699 16.9637 3.04699 18.5237C3.04699 20.0837 4.31699 21.3537 5.87699 21.3537ZM5.87699 17.6837C6.33699 17.6837 6.70699 18.0537 6.70699 18.5137C6.70699 18.9737 6.33699 19.3437 5.87699 19.3437C5.41699 19.3437 5.04699 18.9737 5.04699 18.5137C5.04699 18.0537 5.41699 17.6837 5.87699 17.6837Z" fill="#191C30"/>
<path d="M5.87699 14.3837C7.44699 14.3837 8.70699 13.1137 8.70699 11.5537C8.70699 9.99372 7.43699 8.72372 5.87699 8.72372C4.31699 8.72372 3.04699 9.99372 3.04699 11.5537C3.04699 13.1137 4.31699 14.3837 5.87699 14.3837ZM5.87699 10.7137C6.33699 10.7137 6.70699 11.0837 6.70699 11.5437C6.70699 12.0037 6.33699 12.3737 5.87699 12.3737C5.41699 12.3737 5.04699 12.0037 5.04699 11.5437C5.04699 11.0837 5.41699 10.7137 5.87699 10.7137Z" fill="#191C30"/>
<path d="M5.87699 7.42372C7.44699 7.42372 8.70699 6.15372 8.70699 4.59372C8.70699 3.03372 7.43699 1.76372 5.87699 1.76372C4.31699 1.76372 3.04699 3.03372 3.04699 4.59372C3.04699 6.15372 4.31699 7.42372 5.87699 7.42372ZM5.87699 3.75372C6.33699 3.75372 6.70699 4.12372 6.70699 4.58372C6.70699 5.04372 6.33699 5.41372 5.87699 5.41372C5.41699 5.41372 5.04699 5.04372 5.04699 4.58372C5.04699 4.12372 5.41699 3.75372 5.87699 3.75372Z" fill="#191C30"/>
<path d="M20.047 40.9937H25.277C25.827 40.9937 26.277 40.5437 26.277 39.9937C26.277 39.4437 25.827 38.9937 25.277 38.9937H20.047C19.497 38.9937 19.047 39.4437 19.047 39.9937C19.047 40.5437 19.497 40.9937 20.047 40.9937Z" fill="#191C30"/>
</svg>
