<svg width="44" height="45" viewBox="0 0 44 45" fill="none" xmlns="http://www.w3.org/2000/svg">
<path d="M36 44.8737H8C3.59 44.8737 0 41.2878 0 36.8828V8.86464C0 4.45964 3.59 0.873718 8 0.873718H36C40.41 0.873718 44 4.45964 44 8.86464V36.8828C44 41.2878 40.41 44.8737 36 44.8737ZM8 2.87145C4.69 2.87145 2 5.55839 2 8.86464V36.8828C2 40.189 4.69 42.876 8 42.876H36C39.31 42.876 42 40.189 42 36.8828V8.86464C42 5.55839 39.31 2.87145 36 2.87145H8Z" fill="#191C30"/>
<path d="M33.62 38.5109H10.36C8.15 38.5109 6.36 36.723 6.36 34.5155V11.2319C6.36 9.02446 8.15 7.23649 10.36 7.23649H33.62C35.83 7.23649 37.62 9.02446 37.62 11.2319V34.5155C37.62 36.723 35.83 38.5109 33.62 38.5109ZM10.36 9.23422C9.26 9.23422 8.36 10.1332 8.36 11.2319V34.5155C8.36 35.6142 9.26 36.5132 10.36 36.5132H33.62C34.72 36.5132 35.62 35.6142 35.62 34.5155V11.2319C35.62 10.1332 34.72 9.23422 33.62 9.23422H10.36Z" fill="#191C30"/>
</svg>
