<svg width="44" height="45" viewBox="0 0 44 45" fill="none" xmlns="http://www.w3.org/2000/svg">
<path d="M0.0017238 38.5206C0.0017238 34.7105 0.0017238 30.9003 0.0017238 27.0893C0.0232502 27.0531 0.0576916 27.0195 0.0654412 26.9808C0.34184 25.6832 1.11249 24.8083 2.35241 24.3614C2.60384 24.271 2.58661 24.1195 2.58661 23.9343C2.58661 22.9321 2.58489 21.9289 2.58661 20.9267C2.59178 18.7439 4.0375 17.2879 6.21597 17.2767C7.58074 17.2577 8.95068 17.3042 10.3137 17.2551V12.9559C8.61229 12.9516 6.97973 12.9679 5.28947 12.9507C4.56188 12.9421 4.23123 12.5098 4.3647 11.7917C4.9063 8.9976 5.4746 6.20863 6.03084 3.41709C6.19875 2.51298 6.87037 2.58789 7.61691 2.59564C8.51585 2.59564 9.41479 2.59564 10.3602 2.59564C10.3602 2.28049 10.3456 2.01098 10.3637 1.74233C10.3981 1.22914 10.7348 0.889026 11.198 0.87611C11.6751 0.863194 12.0402 1.21192 12.078 1.74061C12.097 2.0084 12.0815 2.27877 12.0815 2.59564C13.1974 2.59564 14.2712 2.5922 15.3819 2.5965C15.9907 2.59908 16.2938 2.83846 16.4092 3.41623C16.962 6.17936 17.5139 8.94249 18.0598 11.7065C18.2268 12.5546 17.8936 12.9498 17.0214 12.9524C15.3845 12.9576 13.7588 12.9524 12.1202 12.9542V17.2732C14.5123 17.2724 16.8879 17.281 19.2782 17.2698C20.3459 17.2465 21.2724 17.6676 22.0198 18.4227C22.7724 17.6254 23.6799 17.2663 24.7562 17.2689C29.1115 17.2792 33.4658 17.268 37.8211 17.2758C39.972 17.2792 41.422 18.7482 41.4289 20.9034C41.4323 21.9203 41.4323 22.9372 41.4272 23.9542C41.4263 24.1539 41.4504 24.2753 41.6838 24.3657C43.2285 24.9659 44.0121 26.1412 44.0129 27.8125C44.0146 31.1354 44.0146 34.4582 44.0129 37.781C44.0121 39.454 43.2242 40.6139 41.6907 41.2468C41.5753 41.295 41.4444 41.4732 41.4401 41.5955C41.416 42.2817 41.4039 42.9715 41.4358 43.6569C41.4607 44.1933 41.3083 44.6057 40.8322 44.8761H36.8782C36.4055 44.6583 36.2281 44.2897 36.2462 43.7722C36.2729 43.0042 36.2531 42.2352 36.2531 41.4672H7.75984C7.75984 42.2585 7.74004 43.0162 7.76673 43.7722C7.78568 44.2906 7.60571 44.6574 7.13472 44.877H3.18074C2.7063 44.6083 2.54959 44.1993 2.57714 43.6637C2.60986 43.0231 2.57456 42.3799 2.5892 41.7384C2.59609 41.4525 2.54528 41.2855 2.22669 41.183C1.54301 40.9617 0.979882 40.5278 0.613072 39.9104C0.355616 39.4773 0.200626 38.9839 0 38.5181L0.0017238 38.5206ZM21.126 31.0467C21.1829 27.6498 21.1321 24.2538 21.1458 20.8561C21.145 19.7169 20.438 19.0039 19.2989 19.0022C14.9169 18.9979 10.535 18.9979 6.15311 19.0022C5.02082 19.0031 4.3182 19.7221 4.31217 20.8655C4.30701 21.8532 4.32423 22.8417 4.30356 23.8293C4.29667 24.1453 4.37417 24.2994 4.69104 24.4208C5.82763 24.8548 6.569 25.6832 6.79976 26.8783C6.91773 27.4888 6.88415 28.1303 6.89534 28.758C6.90912 29.5123 6.89879 30.2683 6.89879 31.0475H21.126V31.0467ZM22.8697 31.0415H37.1184C37.1202 29.9213 37.1115 28.8295 37.1202 27.7135C37.1331 26.1249 37.9399 24.9418 39.4166 24.3787C39.6499 24.2891 39.7145 24.1798 39.7119 23.9464C39.7007 22.9441 39.7094 21.9419 39.7068 20.9396C39.7033 19.6911 39.0171 19.0031 37.7651 19.0022C33.4546 19.0005 29.1442 19.0005 24.8337 19.0022C23.5473 19.0022 22.8714 19.6773 22.8714 20.9568C22.8705 24.3227 22.8714 27.6756 22.8714 31.0432L22.8697 31.0415ZM1.75483 37.1455C1.52063 38.9443 2.40063 39.733 4.04352 39.7287C16.2344 39.6882 28.4278 39.7175 40.6178 39.7055C41.2636 39.6564 41.763 39.3636 42.0798 38.791C42.3648 38.2744 42.2994 37.719 42.2719 37.1464H1.75483V37.1455ZM37.1021 32.836H6.92548V35.3623H37.1021V32.836ZM6.24524 11.1993H16.1577C16.1577 11.1029 16.1689 11.0314 16.156 10.9651C15.7306 8.83572 15.2984 6.70719 14.8834 4.57607C14.8308 4.3057 14.675 4.32034 14.4838 4.32034C12.3088 4.32206 10.1338 4.3255 7.95875 4.31603C7.69354 4.31517 7.59452 4.3875 7.54285 4.65959C7.12266 6.85787 6.66716 8.98727 6.24524 11.1993ZM5.13879 35.3752C5.22834 32.7722 5.14826 30.1555 5.15859 27.5473C5.15687 27.2761 5.05354 26.9799 4.91922 26.7397C4.05472 25.2371 1.70662 25.895 1.72814 27.6533C1.74967 30.2261 1.66701 32.8075 1.75914 35.3752H5.13879ZM42.2865 35.3752C42.2865 32.7171 42.2968 30.1116 42.2727 27.5069C42.2701 27.2141 42.1229 26.8912 41.9584 26.6363C41.0569 25.263 38.8337 25.9406 38.8492 27.6068C38.8698 30.1951 38.7837 32.792 38.8802 35.3752H42.2865ZM6.00501 43.1359V41.4715H4.3337V43.1359H6.00501ZM39.687 41.4724H38.0062V43.1299H39.687V41.4724Z" fill="#191C30"/>
<path d="M31.9159 0.875249C33.8774 0.875249 34.264 0.872666 36.2255 0.875249C38.3678 0.878693 39.8471 2.34938 39.8531 4.48566C39.8592 6.67619 39.8583 8.86586 39.8531 11.0564C39.848 13.1961 38.3756 14.6771 36.2358 14.6814C32.3129 14.6883 29.9648 14.6892 26.0418 14.6814C23.9047 14.6771 22.4417 13.1918 22.4383 11.0461C22.4348 8.87016 22.4348 6.69427 22.4383 4.51838C22.4417 2.34766 23.9081 0.879554 26.0737 0.875249C28.0205 0.871805 29.9682 0.875249 31.9151 0.875249H31.9159ZM31.928 2.59736C29.9803 2.59736 28.0326 2.59564 26.0849 2.59736C24.8673 2.59908 24.1638 3.30085 24.1621 4.51494C24.1595 6.67705 24.1604 8.83916 24.1621 11.0013C24.163 12.255 24.8466 12.9524 26.0926 12.9533C29.988 12.9567 32.3094 12.9567 36.2048 12.9533C37.4284 12.9524 38.1284 12.2507 38.1302 11.0366C38.1336 8.87447 38.1328 6.71235 38.1302 4.55024C38.1284 3.28362 37.4336 2.59736 36.154 2.5965C34.221 2.59478 33.8619 2.5965 31.928 2.5965V2.59736Z" fill="#191C30"/>
</svg>
