<svg width="45" height="45" viewBox="0 0 45 45" fill="none" xmlns="http://www.w3.org/2000/svg">
<path d="M10.774 29.5337H3.22398C1.63398 29.5337 0.333984 28.2337 0.333984 26.6437V3.76372C0.333984 2.17372 1.63398 0.883718 3.22398 0.883718H10.774C12.364 0.883718 13.664 2.18372 13.664 3.77372V26.6537C13.664 28.2437 12.364 29.5437 10.774 29.5437V29.5337ZM3.22398 2.88372C2.73398 2.88372 2.33398 3.28372 2.33398 3.77372V26.6537C2.33398 27.1437 2.73398 27.5437 3.22398 27.5437H10.774C11.264 27.5437 11.664 27.1437 11.664 26.6537V3.76372C11.664 3.27372 11.264 2.87372 10.774 2.87372H3.22398V2.88372Z" fill="#191C30"/>
<path d="M41.444 14.2037H33.894C32.304 14.2037 31.004 12.9037 31.004 11.3137V3.76372C31.004 2.17372 32.304 0.873718 33.894 0.873718H41.444C43.034 0.873718 44.334 2.17372 44.334 3.76372V11.3137C44.334 12.9037 43.034 14.2037 41.444 14.2037ZM33.894 2.87372C33.404 2.87372 33.004 3.27372 33.004 3.76372V11.3137C33.004 11.8037 33.404 12.2037 33.894 12.2037H41.444C41.934 12.2037 42.334 11.8037 42.334 11.3137V3.76372C42.334 3.27372 41.934 2.87372 41.444 2.87372H33.894Z" fill="#191C30"/>
<path d="M41.444 29.5337H33.894C32.304 29.5337 31.004 28.2337 31.004 26.6437V19.1037C31.004 17.5137 32.304 16.2137 33.894 16.2137H41.444C43.034 16.2137 44.334 17.5137 44.334 19.1037V26.6437C44.334 28.2337 43.034 29.5337 41.444 29.5337ZM33.894 18.2137C33.404 18.2137 33.004 18.6137 33.004 19.1037V26.6437C33.004 27.1337 33.404 27.5337 33.894 27.5337H41.444C41.934 27.5337 42.334 27.1337 42.334 26.6437V19.1037C42.334 18.6137 41.934 18.2137 41.444 18.2137H33.894Z" fill="#191C30"/>
<path d="M10.774 44.8737H3.22398C1.63398 44.8737 0.333984 43.5737 0.333984 41.9837V34.4337C0.333984 32.8437 1.63398 31.5437 3.22398 31.5437H10.774C12.364 31.5437 13.664 32.8437 13.664 34.4337V41.9837C13.664 43.5737 12.364 44.8737 10.774 44.8737ZM3.22398 33.5437C2.73398 33.5437 2.33398 33.9437 2.33398 34.4337V41.9837C2.33398 42.4737 2.73398 42.8737 3.22398 42.8737H10.774C11.264 42.8737 11.664 42.4737 11.664 41.9837V34.4337C11.664 33.9437 11.264 33.5437 10.774 33.5437H3.22398Z" fill="#191C30"/>
<path d="M26.114 44.8737H18.564C16.974 44.8737 15.674 43.5837 15.674 41.9837V19.1037C15.674 17.5137 16.974 16.2137 18.564 16.2137H26.114C27.704 16.2137 29.004 17.5137 29.004 19.1037V41.9837C29.004 43.5737 27.714 44.8737 26.114 44.8737ZM18.564 18.2237C18.074 18.2237 17.674 18.6237 17.674 19.1137V41.9937C17.674 42.4837 18.074 42.8837 18.564 42.8837H26.114C26.604 42.8837 27.004 42.4837 27.004 41.9937V19.1137C27.004 18.6237 26.604 18.2237 26.114 18.2237H18.564Z" fill="#191C30"/>
</svg>
