<svg width="44" height="45" viewBox="0 0 44 45" fill="none" xmlns="http://www.w3.org/2000/svg">
<path d="M41.15 0.873718H2.83C1.26 0.873718 0 2.14372 0 3.70372V23.5137C0 25.0837 1.27 26.3437 2.83 26.3437H41.15C42.72 26.3437 43.98 25.0737 43.98 23.5137V3.70372C43.98 2.13372 42.71 0.873718 41.15 0.873718ZM41.98 23.5237C41.98 23.9837 41.61 24.3537 41.15 24.3537H2.83C2.37 24.3537 2 23.9837 2 23.5237V3.70372C2 3.24372 2.37 2.87372 2.83 2.87372H41.15C41.61 2.87372 41.98 3.24372 41.98 3.70372V23.5237Z" fill="#191C30"/>
<path d="M41.15 35.3537H36.02C36.11 35.0837 36.16 34.8037 36.16 34.5037V32.0237C36.16 30.4537 34.89 29.1937 33.33 29.1937H21.35C19.78 29.1937 18.52 30.4637 18.52 32.0237V34.5037C18.52 34.8037 18.58 35.0837 18.66 35.3537H2.84C1.27 35.3537 0.0100021 36.6237 0.0100021 38.1837V38.2537C0.0100021 39.8237 1.28 41.0837 2.84 41.0837H7.94C7.86 41.3437 7.8 41.6237 7.8 41.9137C7.8 43.4837 9.07 44.7437 10.63 44.7437H12.07C13.64 44.7437 14.9 43.4737 14.9 41.9137C14.9 41.6237 14.84 41.3437 14.76 41.0837H29.23C29.15 41.3437 29.09 41.6237 29.09 41.9137C29.09 43.4837 30.36 44.7437 31.92 44.7437H33.32C34.89 44.7437 36.15 43.4737 36.15 41.9137C36.15 41.6237 36.09 41.3437 36.01 41.0837H41.14C42.71 41.0837 43.97 39.8137 43.97 38.2537V38.1837C43.97 36.6137 42.7 35.3537 41.14 35.3537H41.15ZM20.51 32.0337C20.51 31.5737 20.88 31.2037 21.34 31.2037H33.32C33.78 31.2037 34.15 31.5737 34.15 32.0337V34.5137C34.15 34.9737 33.78 35.3437 33.32 35.3437H21.34C20.88 35.3437 20.51 34.9737 20.51 34.5137V32.0337ZM12.91 41.9337C12.91 42.3937 12.54 42.7637 12.08 42.7637H10.64C10.18 42.7637 9.81 42.3937 9.81 41.9337C9.81 41.4737 10.18 41.1137 10.63 41.1037H12.11C12.56 41.1037 12.93 41.4837 12.93 41.9337H12.91ZM34.17 41.9337C34.17 42.3937 33.8 42.7637 33.34 42.7637H31.94C31.48 42.7637 31.11 42.3937 31.11 41.9337C31.11 41.4737 31.48 41.1137 31.93 41.1037H33.36C33.81 41.1037 34.18 41.4837 34.18 41.9337H34.17ZM41.99 38.2637C41.99 38.7237 41.62 39.0937 41.16 39.0937H33.37C33.37 39.0937 33.35 39.0937 33.33 39.0937H31.93C31.93 39.0937 31.91 39.0937 31.89 39.0937H12.1C12.1 39.0937 12.08 39.0937 12.06 39.0937H10.62C10.62 39.0937 10.6 39.0937 10.58 39.0937H2.82C2.36 39.0937 1.99 38.7237 1.99 38.2637V38.1937C1.99 37.7337 2.36 37.3637 2.82 37.3637H41.14C41.6 37.3637 41.97 37.7337 41.97 38.1937V38.2637H41.99Z" fill="#191C30"/>
</svg>
